<?xml version="1.0" standalone="no"?>
<!DOCTYPE svg PUBLIC "-//W3C//DTD SVG 1.1//EN" "http://www.w3.org/Graphics/SVG/1.1/DTD/svg11.dtd" >
<svg xmlns="http://www.w3.org/2000/svg">
<defs>
<font id="LMMono10-Regular" horiz-adv-x="1075" >
<font-face  font-family="LM Mono 10" font-weight="400" font-stretch="normal" units-per-em="2048" panose-1="0 0 5 9 0 0 0 0 0 0" ascent="1593" descent="-455" x-height="883" cap-height="1251" bbox="-8 -477 1100 1653" underline-thickness="141" underline-position="-203" unicode-range="U+0020-U+20AC"/>
<missing-glyph horiz-adv-x="500" />
<glyph glyph-name=".notdef" horiz-adv-x="500" />
<glyph glyph-name=".null" horiz-adv-x="0" />
<glyph glyph-name="nonmarkingreturn" />
<glyph glyph-name="space" unicode=" " />
<glyph glyph-name="exclam" unicode="!" d="M639 1157q0 -61 -5 -174t-5 -154l-8 -354q-4 -63 -17.5 -80.5t-66.5 -17.5q-80 0 -82 53l-6 248l-15 479q0 49 23.5 78t43 34t36 5t36 -5t43 -34t23.5 -78zM639 102q0 -43 -29.5 -72.5t-72.5 -29.5t-73 29.5t-30 72.5t30 73t73 30t72.5 -30t29.5 -73z" />
<glyph glyph-name="quotedbl" unicode="&#x22;" d="M809 1161l-27 -418q-4 -72 -63 -71q-61 0 -66 73l-26 416q-4 59 25.5 86t66.5 27q33 0 63.5 -25t26.5 -88zM446 1161l-26 -418q-4 -72 -64 -71q-61 0 -65 73l-27 416q-4 59 25.5 86t66.5 27q33 0 63.5 -25t26.5 -88z" />
<glyph glyph-name="numbersign" unicode="#" d="M1001 405.5q0 -71.5 -96 -71.5h-155l-33 -250q-14 -84 -74 -84q-31 0 -51.5 21.5t-20.5 50.5l33 262h-211l-33 -250q-14 -84 -73 -84q-31 0 -51.5 21.5t-20.5 50.5l33 262h-80q-96 0 -96 71.5t96 71.5h100l37 299h-137q-96 0 -96 72t96 72h158l30 247q6 84 74 84 q31 0 53.5 -22.5t16.5 -73.5l-29 -235h211l31 247q6 84 73 84q31 0 53.5 -22.5t16.5 -73.5l-29 -235h78q96 0 96 -72t-96 -72h-98l-37 -299h135q96 0 96 -71.5zM662 776h-211l-37 -299h211z" />
<glyph glyph-name="dollar" unicode="$" d="M954 350q0 -121 -90 -226.5t-264 -131.5v-78q0 -84 -61 -84q-63 0 -64 84v76q-170 16 -263 115.5t-93 234.5q0 43 20.5 67.5t38 29.5t33.5 5q33 0 61.5 -25.5t28.5 -66.5q0 -49 -33 -71q41 -139 207 -162v475q-96 18 -167.5 55t-106.5 75t-55.5 84t-23.5 70.5t-3 49.5 q0 119 97 217t259 117v77q0 84 64 84q61 0 61 -84v-75q172 -14 263 -106.5t91 -219.5q0 -51 -27.5 -75.5t-64.5 -24.5q-41 0 -65.5 26.5t-24.5 63.5q0 43 31 67q-39 121 -203 142v-426q104 -20 179 -64.5t111 -100t50 -102.5t14 -92zM475 735v400q-96 -16 -160.5 -71.5 t-64.5 -129.5t65.5 -128.5t159.5 -70.5zM823 342q0 80 -61.5 141.5t-161.5 81.5v-446q98 16 160.5 79.5t62.5 143.5z" />
<glyph glyph-name="percent" unicode="%" d="M428 1147q0 -115 -51 -194t-127 -79q-74 0 -126 78t-52 197q0 115 51 193.5t127 78.5q74 0 126 -77.5t52 -196.5zM895 1350q0 -14 -12 -45l-561 -1416q-23 -59 -72 -59q-29 0 -50.5 21.5t-21.5 50.5q0 14 12 45l560 1411q27 63 73 63q31 0 51.5 -21t20.5 -50zM1001 102.5 q0 -114.5 -51 -193.5t-126.5 -79t-127 79t-51.5 193.5t51.5 193.5t127 79t126.5 -79t51 -193.5zM313 1149q0 59 -20.5 102t-43 43t-43 -43t-20.5 -102q0 -63 21.5 -105.5t42 -42.5t42 42.5t21.5 105.5zM887 102.5q0 61.5 -21.5 103.5t-42 42t-42 -42t-21.5 -103.5 t21.5 -103.5t42 -42t42 42t21.5 103.5z" />
<glyph glyph-name="ampersand" unicode="&#x26;" d="M1004 819q0 -61 -82 -61h-64l-123 -320q-51 -129 -104 -217q90 -119 172 -119q70 0 80 117q0 63 57 64q6 0 15.5 -2t25.5 -18.5t16 -47.5q0 -86 -51 -162t-143 -76q-119 0 -240 144q-117 -143 -254 -144q-113 0 -182.5 90.5t-69.5 213.5q0 125 72 215q2 0 33 33.5 l65.5 71.5t40.5 44q-57 172 -57 332q0 143 63.5 220t149.5 77q98 0 143 -84t45 -197q0 -168 -206 -383q35 -94 151 -282q57 113 178 430q-25 0 -39 2t-29.5 17.5t-15.5 43.5q0 61 82 62h189q25 0 38 -2t28.5 -17.5t15.5 -44.5zM498 993q0 14 -2 34t-8.5 50.5t-22.5 51 t-41 20.5q-39 0 -68.5 -45t-29.5 -127q0 -119 32 -232q140 156 140 248zM489 221q-35 47 -90 148q-61 102 -82 147q-78 -86 -98 -123t-20 -106q0 -35 8 -73t34.5 -75t69.5 -37q96 0 178 119z" />
<glyph glyph-name="quotesingle" unicode="'" d="M627 1157l-27 -409q-2 -23 -4 -35.5t-17.5 -26.5t-42 -14t-42 14t-17.5 26.5t-4 35.5l-24 393l-5 41q0 39 27 65.5t66 26.5q41 0 67.5 -29t22.5 -88z" />
<glyph glyph-name="parenleft" unicode="(" d="M895 -111q0 -18 -14.5 -37.5t-49.5 -19.5q-41 0 -138 79t-173 185q-166 238 -166 531q0 147 44 282t106.5 225.5t132.5 158t122 98t72 30.5q35 0 49.5 -19.5t14.5 -37.5q0 -14 -6 -25.5t-13.5 -16.5l-27.5 -19q-129 -88 -212 -213t-111.5 -237t-28.5 -226 q0 -190 85 -371.5t263 -302.5l31 -21.5t14 -17t6 -25.5z" />
<glyph glyph-name="parenright" unicode=")" d="M721 627q0 -147 -44 -282.5t-106.5 -225.5t-132 -157.5t-122 -98.5t-72.5 -31q-33 0 -48.5 19.5t-15.5 37.5q0 31 47 62q188 127 270.5 310t82.5 366q0 66 -11.5 135t-44 169.5t-113.5 202t-198 179.5q-33 20 -33 51q0 18 15.5 37.5t48.5 19.5q41 0 138 -78.5t173 -185.5 q166 -237 166 -530z" />
<glyph glyph-name="asterisk" unicode="*" d="M934 438q0 -25 -19.5 -46t-48.5 -21q-20 0 -75 32l-193 115q6 -80 6 -248q0 -86 -67.5 -86t-67.5 86q0 168 6 248l-254 -147q-82 0 -82 67q0 18 9.5 32.5t16.5 20t25 15.5l222 121l-224 121q-49 27 -49 65q0 25 19.5 46.5t48.5 21.5q18 0 47 -19l221 -129q-6 80 -6 248 q0 86 67.5 86t67.5 -86q0 -168 -6 -248l254 148q82 0 82 -68q0 -37 -51 -68l-221 -120q14 -8 70 -37l103.5 -53.5t69.5 -40.5q29 -15 29 -56z" />
<glyph glyph-name="plus" unicode="+" d="M995 626.5q0 -71.5 -96 -71.5h-291v-293q0 -96 -71.5 -96t-71.5 96v293h-291q-96 0 -96 71.5t96 71.5h291v293q0 96 71.5 96t71.5 -96v-293h291q96 0 96 -71.5z" />
<glyph glyph-name="comma" unicode="," d="M709 51q0 -147 -101.5 -241.5t-173.5 -94.5q-25 0 -45 20.5t-20 45.5q0 41 57 57q121 41 152 168q-20 -6 -41 -6q-53 0 -90 36t-37 93q0 51 34.5 89t94.5 38q70 0 120 -57.5t50 -147.5z" />
<glyph glyph-name="hyphen" unicode="-" d="M958 626.5q0 -71.5 -96 -71.5h-651q-96 0 -96 71.5t96 71.5h651q96 0 96 -71.5z" />
<glyph glyph-name="period" unicode="." d="M666 127q0 -49 -37 -88t-92 -39q-51 0 -89 37t-38 92q0 49 36.5 88t92.5 39q51 0 89 -37t38 -92z" />
<glyph glyph-name="slash" unicode="/" d="M954 1350q0 -12 -16 -50l-676 -1413q-27 -57 -72 -57q-31 0 -51 21.5t-20 50.5q0 12 16 49l676 1413q27 57 72 57q31 0 51 -21t20 -50z" />
<glyph glyph-name="zero" unicode="0" d="M971 625q0 -274 -129 -461t-305 -187q-174 0 -304.5 185.5t-130.5 464.5q0 274 129 460.5t306 186.5q174 0 304 -185t130 -464zM829 647q0 219 -88 360.5t-204.5 141.5t-204.5 -142.5t-88 -359.5q0 -225 86 -385t206.5 -160t206.5 160t86 385z" />
<glyph glyph-name="one" unicode="1" d="M905 61q0 -61 -82 -61h-514q-82 0 -82 61q0 29 15.5 44.5t29 17.5t37.5 2h187v864q-104 -90 -213 -90q-68 0 -68 62q0 59 76 63q139 14 223 201q20 49 61 49q61 0 62 -84v-1065h186q25 0 38 -2t28.5 -17.5t15.5 -44.5z" />
<glyph glyph-name="two" unicode="2" d="M967 84q0 -49 -16.5 -66.5t-65.5 -17.5h-695q-84 0 -84 63q0 29 31 56l453 381q236 197 235 374q0 129 -95 202t-230 73q-84 0 -150.5 -43t-89.5 -115q29 -23 29 -65q0 -41 -28 -66.5t-62 -25.5q-33 0 -63 23.5t-30 74.5q0 135 114 238.5t290 103.5q193 0 325 -109.5 t132 -290.5q0 -211 -224 -409q-49 -45 -202.5 -172l-202.5 -168h487q0 37 2 52.5t18.5 29.5t51.5 14q47 0 58.5 -21.5t11.5 -62.5v-53z" />
<glyph glyph-name="three" unicode="3" d="M983 356q0 -150 -124 -264.5t-318 -114.5q-193 0 -322 83t-129 219q0 47 26.5 71.5t65.5 24.5t64.5 -26.5t25.5 -63.5q0 -39 -24 -64q35 -63 123 -91t170 -28q133 0 217 77t84 177q0 98 -83 177t-224 79h-95q-25 0 -38 2t-28.5 17.5t-15.5 44.5q0 41 26 51t122 16 q123 6 190 62q86 70 86 178q0 70 -68.5 118t-172.5 48q-164 0 -228 -64q18 -18 19 -55q0 -41 -28 -66.5t-62.5 -25.5t-63 24.5t-28.5 71.5q0 109 103 174.5t286 65.5q170 0 277.5 -85t107.5 -204q0 -86 -44 -167t-128 -134q104 -47 167.5 -134.5t63.5 -193.5z" />
<glyph glyph-name="four" unicode="4" d="M1014 408q0 -61 -82 -62h-160v-221h127q25 0 38 -2t28.5 -17.5t15.5 -44.5q0 -61 -82 -61h-369q-82 0 -81 61q0 29 15 44.5t28.5 17.5t37.5 2h127v221h-516q-49 0 -65.5 16.5t-16.5 65.5q0 45 19 72l467 733q18 31 32.5 37t53.5 6h57q51 0 67.5 -16.5t16.5 -67.5v-721 h160q25 0 38 -2t28.5 -17t15.5 -44zM657 471v715l-454 -715h454z" />
<glyph glyph-name="five" unicode="5" d="M967 389q0 -170 -133.5 -291t-325.5 -121q-170 0 -286 92.5t-116 221.5q0 53 30 75.5t63 22.5q35 0 62.5 -24.5t27.5 -67.5q0 -39 -27 -66q66 -129 246 -129q131 0 224 83t93 204q0 109 -70.5 196t-189.5 87q-172 0 -258 -103q-25 -31 -61 -30q-31 0 -46.5 15t-17.5 28.5 t-2 40.5v544q0 49 16.5 66.5t65.5 17.5h551q25 0 38 -2t28.5 -17t15.5 -44q0 -61 -82 -62h-491v-389q111 59 245 60q174 0 287 -123t113 -285z" />
<glyph glyph-name="six" unicode="6" d="M965 395q0 -180 -126 -299t-298 -119q-82 0 -155 33t-137.5 101.5t-102 197.5t-37.5 303q0 297 164.5 479.5t383.5 182.5q137 0 205 -62.5t68 -148.5q0 -45 -26.5 -70.5t-65.5 -25.5t-64.5 26.5t-25.5 63.5q0 39 20 59q-33 33 -113 33q-143 0 -262 -125t-139 -332 q131 119 305 119q170 0 288 -121t118 -295zM823 395q0 119 -76.5 204t-197.5 85q-117 0 -198 -66.5t-81 -162.5q0 -88 17 -127q74 -225 254 -226q115 0 198.5 82t83.5 211z" />
<glyph glyph-name="seven" unicode="7" d="M983 1188q0 -20 -7 -30.5t-38 -39.5q-47 -47 -94 -101t-113.5 -155.5t-116 -212t-86 -267.5t-39.5 -323q0 -41 -20 -61.5t-49 -20.5q-72 0 -72 97q0 98 17.5 209.5t60.5 256t132 299t214 287.5h-541q0 -37 -2 -52t-18 -29.5t-51 -14.5q-47 0 -58.5 21.5t-11.5 62.5v86 q0 27 2 41t18.5 28.5t49.5 14.5q53 0 65 -33h676q25 0 38 -2t28.5 -17t15.5 -44z" />
<glyph glyph-name="eight" unicode="8" d="M983 356q0 -152 -128 -265.5t-318 -113.5q-188 0 -317.5 114t-129.5 265q0 111 82 197t203 121q-121 39 -188.5 111.5t-67.5 160.5q0 129 119.5 228.5t298 99.5t298 -98.5t119.5 -229.5q0 -88 -66.5 -159.5t-189.5 -112.5q121 -35 203 -121t82 -197zM813 944 q0 82 -80 143.5t-196 61.5q-119 0 -198 -61.5t-79 -143.5q0 -86 82 -146.5t194.5 -60.5t194.5 60.5t82 146.5zM842 358q0 100 -85 177t-220 77q-133 0 -219.5 -77.5t-86.5 -176.5q0 -106 89.5 -181t216.5 -75t216 75t89 181z" />
<glyph glyph-name="nine" unicode="9" d="M965 639q0 -293 -156 -477.5t-367 -184.5q-92 0 -156.5 23t-92 59.5t-39 67.5t-11.5 61q0 45 27 71t65.5 26t64.5 -27t26 -63q0 -35 -19 -58q45 -35 135 -35q145 0 253 132.5t124 324.5q-131 -119 -305 -119q-170 0 -287.5 121t-117.5 295q0 180 129 299t305 119 q78 0 148.5 -31t134 -99.5t101.5 -198.5t38 -306zM805 797q0 104 -16.5 152t-67.5 112q-70 88 -178 88q-117 0 -205 -82t-88 -211q0 -119 76.5 -204t197.5 -85q123 0 202 70t79 160z" />
<glyph glyph-name="colon" unicode=":" d="M666 754q0 -49 -37 -88t-92 -39q-51 0 -89 36.5t-38 92.5q0 49 36.5 88t92.5 39q51 0 89 -37t38 -92zM666 127q0 -49 -37 -88t-92 -39q-51 0 -89 37t-38 92q0 49 36.5 88t92.5 39q51 0 89 -37t38 -92z" />
<glyph glyph-name="semicolon" unicode=";" d="M666 754q0 -49 -37 -88t-92 -39q-51 0 -89 36.5t-38 92.5q0 49 36.5 88t92.5 39q51 0 89 -37t38 -92zM676 55q0 -150 -93.5 -245t-148.5 -95q-25 0 -45 20.5t-20 45.5q0 33 41 53q109 57 135 166q-70 0 -102.5 39t-32.5 90q0 53 35.5 90t91.5 37q61 0 100 -51.5 t39 -149.5z" />
<glyph glyph-name="less" unicode="&#x3c;" d="M958 186q0 -33 -22.5 -52t-48.5 -19q-20 0 -53 20l-682 428q-37 27 -37 64t45 67l674 424q33 20 53 21q27 0 49 -19.5t22 -52.5q0 -39 -49 -70l-587 -370l587 -371q49 -31 49 -70z" />
<glyph glyph-name="equal" unicode="=" d="M995 782.5q0 -71.5 -92 -71.5h-733q-92 0 -92 71.5t104 71.5h709q104 0 104 -71.5zM995 471q0 -72 -104 -72h-709q-104 0 -104 72t92 72h733q92 0 92 -72z" />
<glyph glyph-name="greater" unicode="&#x3e;" d="M958 627q0 -37 -45 -68l-673 -424q-33 -20 -54 -20q-27 0 -49 19.5t-22 51.5q0 39 49 70l588 371l-588 370q-49 31 -49 70q0 33 22.5 52.5t48.5 19.5q20 0 54 -21l682 -428q36 -26 36 -63z" />
<glyph glyph-name="question" unicode="?" d="M946 1010q0 -125 -135 -199q-223 -123 -223 -317v-35q0 -51 -17.5 -66.5t-64.5 -15.5q-31 0 -47.5 4t-24.5 20.5t-9 30.5t-1 51t2 61.5t17.5 77t44 93.5t89 95t144.5 101q27 14 41 23.5t28.5 30t14.5 45.5q0 53 -71.5 91t-217.5 38q-164 0 -227 -72q20 -25 20 -57 q0 -41 -27.5 -66.5t-62.5 -25.5q-37 0 -64.5 25.5t-27.5 70.5q0 100 95 175t294 75q133 0 225.5 -28t133 -72t56 -80.5t15.5 -73.5zM608 102q0 -43 -29.5 -72.5t-72.5 -29.5t-73 29.5t-30 72.5t30 73t73 30t72.5 -30t29.5 -73z" />
<glyph glyph-name="at" unicode="@" d="M983 164q0 -49 -113.5 -112.5t-242.5 -63.5q-219 0 -378 184t-159 454.5t159 454t374 183.5q360 0 360 -607q0 -125 -31.5 -217t-81 -137t-95.5 -65.5t-89 -20.5q-119 0 -207 116t-88 294q0 172 87 289.5t210 117.5q70 0 131 -41q-55 145 -196 146q-164 0 -291 -146.5 t-127 -367.5q0 -215 126 -363.5t294 -148.5q123 0 219 88q20 20 61 20q78 0 78 -57zM868 624.5q0 120.5 -55 202.5t-127 82q-70 0 -125 -80.5t-55 -203.5q0 -119 54 -201t128 -82q70 0 125 81t55 201.5z" />
<glyph glyph-name="A" unicode="A" d="M1018 61q0 -61 -88 -61h-209q-27 0 -41 2t-29.5 16.5t-15.5 42.5q0 31 15.5 45.5t35 16.5t64.5 2l-48 213h-331l-47 -213q45 0 64.5 -2t34.5 -16.5t15 -45.5q0 -29 -15 -43t-29.5 -16t-41.5 -2h-209q-88 0 -88 61q0 41 35 60q12 4 88 4l248 1073q8 37 24.5 54.5t33 20.5 t53 3t54 -3t33 -21.5t23.5 -55.5l248 -1071q76 0 88 -6q35 -15 35 -58zM672 463l-135 643l-136 -643h271z" />
<glyph glyph-name="B" unicode="B" d="M987 342q0 -131 -96 -236.5t-258 -105.5h-504q-82 0 -82 61q0 63 84 64h55v1001h-55q-84 0 -84 64q0 61 82 61h463q160 0 256 -97t96 -220q0 -94 -60.5 -169t-160.5 -110q121 -29 192.5 -116.5t71.5 -196.5zM803 932q0 70 -51.5 132t-167.5 62h-256v-413h211 q133 0 198.5 69.5t65.5 149.5zM846 346q0 86 -59.5 164t-176.5 78h-282v-463h260q123 0 190.5 67.5t67.5 153.5z" />
<glyph glyph-name="C" unicode="C" d="M991 344q0 -143 -119.5 -255t-293.5 -112q-203 0 -349.5 186.5t-146.5 463.5q0 274 146.5 460.5t346.5 186.5q150 0 267 -98q12 23 18 36t9 19t3 8q25 35 58 35q61 0 61 -84v-285q0 -27 -2 -41t-19.5 -28.5t-49.5 -14.5q-29 0 -45.5 11.5t-19.5 21.5t-7 35 q-20 121 -94 190.5t-170 69.5q-141 0 -251 -150.5t-110 -371.5q0 -223 109.5 -374t253.5 -151q86 0 170 58.5t94 191.5q4 59 70 60q71 0 71 -68z" />
<glyph glyph-name="D" unicode="D" d="M993 616q0 -254 -126 -435t-322 -181h-422q-84 0 -84 61q0 63 84 64h45v1001h-45q-84 0 -84 62q0 63 84 63h422q197 0 322.5 -189.5t125.5 -445.5zM852 616q0 197 -92 353.5t-254 156.5h-197v-1001h197q162 0 254 148t92 343z" />
<glyph glyph-name="E" unicode="E" d="M1028 84q0 -49 -16.5 -66.5t-65.5 -17.5h-809q-84 0 -84 61q0 63 84 64h62v1001h-62q-84 0 -84 64q0 61 84 61h764q51 0 66.5 -17t15.5 -67v-149q0 -27 -2 -41t-19.5 -28.5t-50.5 -14.5q-47 0 -58 21.5t-11 62.5v108h-502v-415h268q0 51 3 70.5t18.5 32.5t50.5 13 q47 0 58.5 -21.5t11.5 -62.5v-190q0 -27 -2.5 -41t-18.5 -28.5t-49 -14.5q-49 0 -60.5 22.5t-11.5 94.5h-268v-461h547v141q0 27 2 41.5t19.5 28.5t49.5 14q47 0 58.5 -21.5t11.5 -62.5v-182z" />
<glyph glyph-name="F" unicode="F" d="M1004 1018q0 -27 -2.5 -41t-19.5 -28.5t-50 -14.5q-47 0 -58.5 21.5t-11.5 62.5v108h-512v-438h279q0 51 3 70.5t18.5 33t49.5 13.5q47 0 58.5 -21.5t11.5 -62.5v-191q0 -27 -2 -41t-18.5 -28.5t-49.5 -14.5q-49 0 -60 23t-11 94h-279v-438h107q25 0 38 -2t28.5 -17.5 t15.5 -44.5q0 -61 -82 -61h-316q-84 0 -84 61q0 63 84 64h68v1001h-68q-84 0 -84 62q0 63 84 63h781q51 0 66.5 -17t15.5 -67v-149z" />
<glyph glyph-name="G" unicode="G" d="M1016 492q0 -29 -15.5 -44.5t-32 -17.5t-48.5 -2v-344q0 -27 -2.5 -41t-18.5 -28.5t-49 -14.5t-50.5 14.5t-19.5 28.5t-2 43q-94 -109 -243 -109q-186 0 -321.5 186.5t-135.5 463.5q0 274 135 460.5t322 186.5q133 0 239 -92q25 57 39 74.5t45 17.5q61 0 62 -84v-285 q0 -27 -2.5 -41t-19.5 -28.5t-50 -14.5q-63 0 -70 60q-23 147 -93.5 207.5t-141.5 60.5q-125 0 -224.5 -149.5t-99.5 -374.5q0 -221 97.5 -372t224.5 -151q88 0 151.5 81t81.5 245h-86q-25 0 -38 2t-28.5 17.5t-15.5 44.5q0 61 82 61h244q84 0 84 -61z" />
<glyph glyph-name="H" unicode="H" d="M1028 61q0 -61 -82 -61h-244q-25 0 -38 2t-28 17.5t-15 43.5q0 61 81 62h52v463h-435v-463h52q25 0 38 -2t28.5 -17.5t15.5 -44.5q0 -61 -82 -61h-244q-82 0 -82 61q0 29 15.5 44.5t28.5 17.5t38 2h51v1001h-51q-82 0 -82 62q0 29 15.5 44t28.5 17t38 2h244q25 0 38 -2 t28.5 -17t15.5 -44q0 -61 -82 -62h-52v-413h435v413h-52q-25 0 -38 2t-28 17.5t-15 44.5q0 61 81 61h244q25 0 38 -2t28.5 -17t15.5 -44q0 -61 -82 -62h-51v-1001h51q25 0 38 -2t28.5 -17.5t15.5 -44.5z" />
<glyph glyph-name="I" unicode="I" d="M913 61q0 -61 -84 -61h-583q-84 0 -84 63q0 61 84 62h221v1001h-221q-84 0 -84 64q0 61 84 61h583q84 0 84 -63q0 -61 -84 -62h-221v-1001h221q84 -1 84 -64z" />
<glyph glyph-name="J" unicode="J" d="M979 1190q0 -63 -84 -64h-61v-852q0 -135 -102.5 -216t-246.5 -81q-152 0 -246 63.5t-94 162.5q0 47 27 71.5t65.5 24.5t64.5 -26.5t26 -63.5q0 -33 -17 -53q59 -53 174 -54q25 0 50.5 5.5t65.5 20.5t65.5 56t25.5 103v839h-168q-84 0 -84 64q0 61 84 61h371q84 0 84 -61 z" />
<glyph glyph-name="K" unicode="K" d="M1014 61q0 -61 -84 -61h-154q-84 0 -84 63q0 61 82 62l-287 512l-190 -240v-272h45q84 0 84 -64q0 -61 -84 -61h-205q-84 0 -84 63q0 61 84 62h45v1001h-45q-84 0 -84 64q0 61 84 61h205q84 0 84 -63q0 -61 -84 -62h-45v-544l432 544q-84 0 -84 62q0 63 84 63h180 q84 0 84 -61q0 -31 -16 -45.5t-35.5 -16.5t-64.5 -2l-312 -393l328 -583q0 -2 6 -11.5t8 -13.5q39 0 56.5 -2t34 -16.5t16.5 -45.5z" />
<glyph glyph-name="L" unicode="L" d="M999 84q0 -49 -16 -66.5t-65 -17.5h-771q-82 0 -81 61q0 29 15 44.5t28.5 17.5t37.5 2h76v1001h-76q-82 0 -81 62q0 29 15 44t28.5 17t37.5 2h332q84 0 84 -63q0 -61 -84 -62h-114v-1001h493v141q0 29 2 43.5t19.5 27.5t50.5 13q47 0 58 -21.5t11 -62.5v-182z" />
<glyph glyph-name="M" unicode="M" d="M1038 61q0 -61 -82 -61h-168q-82 0 -81 61q0 31 15 45.5t33.5 16.5t59.5 2v977h-2q-10 -49 -60.5 -206l-95.5 -291t-49 -142q-27 -45 -71 -45q-39 0 -62 31q-10 12 -53 139q-2 4 -25.5 77.5l-50.5 154.5l-52.5 165t-33.5 117h-2v-977q41 0 59.5 -2t34 -16.5t15.5 -45.5 q0 -61 -82 -61h-168q-82 0 -82 61q0 31 15.5 45.5t33.5 16.5t59 2v1001q-41 0 -59 2t-33.5 16.5t-15.5 45.5q0 61 82 61h114q80 0 101 -49q190 -571 205 -639h2q14 70 55 193l137 413q12 33 19.5 46.5t29 24.5t62.5 11h114q82 0 82 -61q0 -31 -15 -45.5t-33.5 -16.5 t-59.5 -2v-1001q41 0 59.5 -2t33.5 -16.5t15 -45.5z" />
<glyph glyph-name="N" unicode="N" d="M1016 1188q0 -61 -82 -62h-51v-1042q0 -55 -17.5 -69.5t-68.5 -14.5q-33 0 -48.5 3t-34 19.5t-30.5 51.5l-377 1024h-2v-973h51q25 0 38.5 -2t28.5 -17.5t15 -44.5q0 -61 -82 -61h-217q-25 0 -38 2t-28.5 17.5t-15.5 43.5q0 61 82 62h51v1001h-51q-25 0 -38 2t-28.5 17.5 t-15.5 44.5q0 61 82 61h140q47 0 70.5 -13t39.5 -60l377 -1024h2v972h-51q-82 0 -82 62q0 29 15.5 44t28.5 17t38 2h217q25 0 38 -2t28.5 -17t15.5 -44z" />
<glyph glyph-name="O" unicode="O" d="M958 625q0 -160 -4 -255.5t-22.5 -175t-42 -116.5t-76.5 -62.5t-113.5 -32t-162.5 -6.5q-104 0 -164 6.5t-113 32t-76.5 62.5t-42 116.5t-22.5 175t-4 255t4 255t22.5 176.5t42 117.5t76.5 62.5t112.5 32t164.5 6q78 0 128 -3t97 -15.5t74.5 -30t52 -55t36 -79.5 t20.5 -115t11 -152.5t2 -198.5zM817 643q0 279 -24 375q-23 80 -78.5 105.5t-177.5 25.5q-131 0 -185.5 -28.5t-72.5 -116.5q-23 -94 -23 -361q0 -291 25 -395q18 -80 71.5 -113t184.5 -33q133 0 187 35t71 123q22 111 22 383z" />
<glyph glyph-name="P" unicode="P" d="M983 876.5q0 -149.5 -107.5 -262t-279.5 -112.5h-256v-377h61q84 0 84 -64q0 -61 -84 -61h-264q-84 0 -84 61q0 63 84 64h62v1001h-62q-84 0 -84 64q0 61 84 61h459q170 0 278.5 -112.5t108.5 -262zM842 876.5q0 94.5 -75 172t-210 77.5h-217v-499h217q135 0 210 77.5 t75 172z" />
<glyph glyph-name="Q" unicode="Q" d="M958 625q0 -231 -12 -342q-14 -125 -46 -186.5t-99 -88.5q55 -104 67 -123q63 -127 64 -131q0 -39 -66 -39h-18q-55 0 -72 25l-125 240q-23 -2 -114 -3q-104 0 -164 6.5t-113 32t-76.5 62.5t-42 116.5t-22.5 175t-4 255t4 255t22.5 176.5t42 117.5t76.5 62.5t112.5 32 t164.5 6q78 0 128 -3t97 -15.5t74.5 -30t52 -55t36 -79.5t20.5 -115t11 -152.5t2 -198.5zM817 627q0 250 -18 354q-16 100 -70.5 134t-192 34t-188.5 -33t-72 -121q-20 -98 -20 -370q0 -250 18 -355q16 -90 65.5 -129t180.5 -39h66l-94 183q-8 14 -9 26q0 39 66 39h22 q31 0 39 -5t23 -28l98 -178q29 20 43 45t28.5 133.5t14.5 309.5z" />
<glyph glyph-name="R" unicode="R" d="M1069 190q0 -74 -46 -143.5t-132 -69.5q-109 0 -162 95q-27 45 -33 95t-6 165q0 53 -2 76.5t-11 50t-32 47.5q-66 57 -166 57h-160v-438h52q25 0 38 -2t28.5 -17.5t15.5 -44.5q0 -61 -82 -61h-244q-82 0 -82 61q0 29 15.5 44.5t28.5 17.5t38 2h51v1001h-51q-82 0 -82 62 q0 29 15.5 44t28.5 17t38 2h362q174 0 286 -103.5t112 -240.5q0 -76 -41 -154.5t-133 -129.5q72 -57 100 -125q18 -47 18 -193q0 -53 1.5 -79.5t6.5 -60.5t17 -48.5t33 -14.5q39 0 39 93q2 61 69 61q72 0 72 -66zM745 907q0 84 -73.5 151.5t-204.5 67.5h-148v-438h148 q131 0 204.5 67.5t73.5 151.5z" />
<glyph glyph-name="S" unicode="S" d="M967 340q0 -143 -107.5 -253t-277.5 -110q-213 0 -338 95q-14 -53 -29.5 -74t-46.5 -21q-61 0 -62 84v271q0 27 2.5 41t19.5 28.5t50 14.5q31 0 47.5 -12.5t18.5 -24.5t4 -35q6 -121 96 -178q94 -63 240 -64q115 0 182.5 70t67.5 158q0 182 -228 231l-235 55 q-123 35 -194 125t-71 197q0 135 108 235.5t273 100.5q174 0 287 -96q10 37 16.5 53t21.5 29.5t38 13.5q61 0 61 -84v-270q0 -27 -2 -41.5t-19.5 -28.5t-49.5 -14q-61 0 -70 57q-6 35 -11 53.5t-25.5 62.5t-47.5 69.5t-80 48t-121 22.5q-106 0 -175.5 -60.5t-69.5 -142.5 q0 -70 47 -121t116 -71l166 -37q131 -31 185.5 -53.5t113.5 -79.5q99 -107 99 -244z" />
<glyph glyph-name="T" unicode="T" d="M1020 1018q0 -27 -2 -41t-19.5 -28.5t-50.5 -14.5q-47 0 -58 21.5t-11 62.5v108h-271v-1001h107q25 0 38 -2t28.5 -17.5t15.5 -44.5q0 -61 -82 -61h-355q-25 0 -38 2t-28 17.5t-15 43.5q0 61 81 62h107v1001h-272v-108q0 -27 -2.5 -41t-19.5 -28.5t-50 -14.5 q-47 0 -58.5 21.5t-11.5 62.5v149q0 51 16.5 67.5t67.5 16.5h801q51 0 66.5 -17t15.5 -67v-149z" />
<glyph glyph-name="U" unicode="U" d="M1065 1190q0 -63 -84 -64h-61v-708q0 -186 -114 -313.5t-269.5 -127.5t-269 127t-113.5 314v708h-62q-84 0 -84 64q0 61 84 61h264q84 0 84 -61q0 -63 -84 -64h-61v-698q0 -154 74.5 -240t167.5 -86q90 0 165.5 87t75.5 239v698h-61q-84 0 -84 64q0 61 84 61h264 q84 0 84 -61z" />
<glyph glyph-name="V" unicode="V" d="M1036 1190q0 -31 -16 -45.5t-35.5 -16.5t-64.5 -2l-271 -1067q-8 -37 -26.5 -53t-35 -19t-50.5 -3q-37 0 -53.5 3t-33 20.5t-26.5 53.5l-270 1065q-45 0 -64.5 2t-36 16.5t-16.5 45.5q0 61 84 61h209q84 0 84 -61q0 -31 -16.5 -45.5t-35 -16.5t-63.5 -2l199 -796 q27 -109 37 -183h2q12 80 79 353l158 626q-45 0 -63.5 2t-35 16.5t-16.5 45.5q0 61 84 61h209q84 0 84 -61z" />
<glyph glyph-name="W" unicode="W" d="M1051 1188q0 -61 -78 -62l-148 -1071q-10 -72 -84 -71q-68 0 -82 51q-2 4 -29.5 124l-57 260t-33.5 181h-2q-6 -53 -62.5 -307t-62.5 -268q-20 -41 -80 -41q-74 0 -84 71l-148 1071h-2q-76 0 -75 62q0 63 83 63h162q25 0 38 -2t28.5 -17t15.5 -44q0 -61 -82 -62h-51 l107 -811q16 -127 16 -159h2q4 57 31.5 191t52.5 242.5t29 117.5q20 45 82 45q66 0 84 -47q0 -2 16 -73l34.5 -157l37 -180t22.5 -139h2q2 53 33 288l90 682h-51q-82 0 -82 62q0 29 15.5 44t28.5 17t38 2h162q84 0 84 -63z" />
<glyph glyph-name="X" unicode="X" d="M1016 61q0 -61 -84 -61h-213q-82 0 -82 61q0 29 15.5 44.5t30.5 17.5t46 2l-203 397l-188 -397q31 0 47 -2t32.5 -17.5t16.5 -44.5q0 -61 -84 -61h-213q-82 0 -82 61q0 29 15.5 44.5t29 17.5t37.5 2h45l273 541l-246 460h-47q-84 0 -84 64q0 61 84 61h213q82 0 82 -61 q0 -29 -15.5 -44.5t-30 -17.5t-42.5 -2l157 -299l146 299q-31 0 -47.5 2t-31.5 17.5t-15 44.5q0 61 81 61h213q84 0 84 -63q0 -61 -84 -62h-45l-231 -458l289 -543h47q84 -1 84 -64z" />
<glyph glyph-name="Y" unicode="Y" d="M1034 1188q0 -61 -82 -62h-43l-301 -626v-375h51q25 0 38.5 -2t28.5 -17.5t15 -44.5q0 -61 -82 -61h-243q-25 0 -38 2t-28.5 17.5t-15.5 43.5q0 61 82 62h51v375l-303 626h-43q-25 0 -38 2t-28.5 17.5t-15.5 44.5q0 61 82 61h213q82 0 82 -61q0 -31 -15.5 -45.5 t-31 -16.5t-47.5 -2q195 -408 215 -483l215 483q-33 0 -48.5 2t-31 16.5t-15.5 45.5q0 61 82 61h213q25 0 38.5 -2t28.5 -17t15 -44z" />
<glyph glyph-name="Z" unicode="Z" d="M985 84q0 -49 -16.5 -66.5t-65.5 -17.5h-721q-27 0 -41 2t-28.5 18.5t-14.5 49t21 63.5l674 993h-529v-108q0 -27 -2 -41t-19.5 -28.5t-49.5 -14.5q-47 0 -58.5 21.5t-11.5 62.5v149q0 51 16.5 67.5t67.5 16.5h684q27 0 41 -2t28.5 -18.5t14.5 -49t-21 -63.5l-673 -993 h563v147q0 27 2 41.5t19.5 28.5t49.5 14q47 0 58.5 -21.5t11.5 -62.5v-188z" />
<glyph glyph-name="bracketleft" unicode="[" d="M989 -109q0 -61 -82 -61h-370q-51 0 -66.5 17.5t-15.5 66.5v1423q0 49 16 66.5t66 17.5h370q25 0 38 -2t28.5 -17.5t15.5 -43.5q0 -61 -82 -62h-311v-1341h311q25 0 38 -2t28.5 -17.5t15.5 -44.5z" />
<glyph glyph-name="backslash" unicode="\" d="M954 -98q0 -29 -20.5 -50.5t-50.5 -21.5q-43 0 -72 55l-678 1415q-14 29 -14 50q0 29 20.5 50t50.5 21q43 0 72 -55l678 -1415q14 -29 14 -49z" />
<glyph glyph-name="bracketright" unicode="]" d="M618 -86q0 -49 -16 -66.5t-65 -17.5h-371q-25 0 -38 2t-28.5 17.5t-15.5 44.5q0 61 82 61h311v1341h-311q-25 0 -38 2t-28.5 17.5t-15.5 44.5q0 61 82 61h371q51 0 66 -17.5t15 -66.5v-1423z" />
<glyph glyph-name="asciicircum" unicode="^" d="M895 1112q53 -27 28.5 -80t-77.5 -31l-309 134l-310 -134q-33 -14 -58.5 6.5t-24.5 54.5t36 50l334 162q23 10 47 0z" />
<glyph glyph-name="underscore" unicode="_" d="M958 -270.5q0 -71.5 -96 -71.5h-651q-96 0 -96 71.5t96 71.5h651q96 0 96 -71.5z" />
<glyph glyph-name="grave" unicode="`" d="M754 1081q0 -23 -16.5 -52.5t-51.5 -29.5q-16 0 -37 11l-272 120q-57 27 -58 72q0 31 20.5 51.5t51.5 20.5q16 0 39 -10l272 -123q18 -8 26.5 -13.5t17 -18t8.5 -28.5z" />
<glyph glyph-name="a" unicode="a" d="M1073 63q0 -31 -15.5 -45t-32.5 -16t-54 -2q-174 0 -221 66q-119 -78 -299 -78q-152 0 -245 82t-93 192q0 143 166.5 222t447.5 83q0 104 -69.5 156.5t-192.5 52.5q-45 0 -74 -2q-31 -2 -37 -6t-6 -16q-2 -51 -30.5 -73t-59.5 -22q-39 0 -65.5 25t-26.5 70q0 150 297 149 q203 0 304 -96t101 -221v-443q43 -16 123 -16q82 -1 82 -62zM727 274v172q-219 -6 -346 -57t-127 -127q0 -61 59.5 -105t151.5 -44q109 0 182 34q37 16 55.5 40t21.5 40t3 47z" />
<glyph glyph-name="b" unicode="b" d="M999 442q0 -193 -125.5 -323.5t-295.5 -130.5q-135 0 -238 104q0 -33 -2 -48t-18.5 -29.5t-49 -14.5t-50 14.5t-19.5 28.5t-2 41v1042h-93q-82 0 -81 62q0 63 84 63h149q51 0 66.5 -17t15.5 -67v-372q111 100 260 100q164 0 281.5 -132.5t117.5 -320.5zM858 442 q0 135 -79 231.5t-191 96.5q-96 0 -172 -69.5t-76 -159.5v-150q0 -92 61.5 -185t169.5 -93q113 0 200 94t87 235z" />
<glyph glyph-name="c" unicode="c" d="M954 223q0 -18 -16 -52t-52 -78t-112 -74.5t-174 -30.5q-190 0 -320 134t-130 320q0 74 25.5 149t78.5 147.5t149.5 117.5t221.5 45q305 0 305 -149q0 -43 -26.5 -69t-65.5 -26q-88 0 -90 101q0 18 -123 18q-96 0 -167 -37t-105 -94t-48 -107.5t-14 -95.5q0 -139 95 -234 t226 -95q145 0 203 123q10 29 24.5 37t43.5 8q71 -1 71 -58z" />
<glyph glyph-name="d" unicode="d" d="M1049 63q0 -63 -84 -63h-150q-41 0 -58.5 12.5t-20.5 28.5t-3 61q-111 -115 -258 -114q-164 0 -282.5 132t-118.5 320q0 193 125 324t295 131q135 0 239 -92v323h-92q-82 0 -82 62q0 63 84 63h150q51 0 66 -17t15 -67v-1042h93q82 -1 82 -62zM733 397v146 q0 88 -67.5 157.5t-163.5 69.5q-113 0 -200 -94t-87 -236q0 -135 79 -231t189 -96q109 0 179.5 93t70.5 191z" />
<glyph glyph-name="e" unicode="e" d="M950 223q0 -23 -20.5 -58.5t-60.5 -77.5t-115.5 -70.5t-169.5 -28.5q-197 0 -334 134t-137 322.5t129 322.5t311 134q190 0 293.5 -124t103.5 -310q0 -27 -6 -43t-19.5 -23.5t-24.5 -8.5t-32 -1h-610q25 -127 122 -202.5t218 -75.5q160 0 213 123q10 29 24.5 37t43.5 8 q71 -1 71 -58zM805 514q-12 143 -84 202.5t-168 59.5q-106 0 -188 -74.5t-105 -187.5h545z" />
<glyph glyph-name="f" unicode="f" d="M895 1141q0 -41 -27.5 -65.5t-60.5 -24.5t-54.5 21.5t-28.5 39.5t-7 27q-35 0 -58.5 -3t-61.5 -16.5t-58.5 -49.5t-20.5 -91v-96h250q25 0 38 -2t28.5 -17.5t15.5 -44.5q0 -61 -82 -61h-250v-633h207q84 0 84 -64q0 -61 -84 -61h-555q-84 0 -84 63q0 61 84 62h207v633 h-207q-82 0 -82 61q0 63 84 64h205v108q0 127 95 200t226 73q197 0 197 -123z" />
<glyph glyph-name="g" unicode="g" d="M1042 795q0 -41 -25.5 -62.5t-55.5 -21.5q-23 0 -47.5 16t-32.5 53q-68 -6 -119 -35q53 -88 53 -178q0 -137 -98.5 -233t-239.5 -96q-109 0 -184 51q-12 -31 -12 -58q2 -45 24 -73q25 -29 68 -29q16 -4 59 -4h143q186 0 297 -59q72 -39 107 -103.5t35 -130.5 q0 -129 -139.5 -215t-338 -86t-338 85t-139.5 216q0 162 152 254q-47 63 -47 147q0 80 41 140q-66 84 -66 194q0 133 98.5 230.5t239.5 97.5q109 0 199 -61q96 72 217 71q76 0 112.5 -33.5t36.5 -76.5zM674 567q0 82 -57.5 143.5t-139.5 61.5q-80 0 -138 -60.5t-58 -146.5 q0 -82 57 -143.5t139 -61.5q80 0 138.5 60.5t58.5 146.5zM895 -168q0 61 -35 100t-108.5 54.5t-125 18.5t-145.5 3q-117 0 -149.5 -4t-69.5 -29q-84 -53 -84 -143q0 -70 104.5 -124t254 -54t254 54t104.5 124z" />
<glyph glyph-name="h" unicode="h" d="M1049 61q0 -61 -82 -61h-314q-84 0 -84 61q0 63 84 64h80v465q0 96 -29.5 138t-107.5 42q-94 0 -175 -71.5t-81 -211.5v-362h90q84 0 84 -64q0 -61 -82 -61h-326q-82 0 -81 61q0 63 84 64h90v1001h-93q-82 0 -81 62q0 63 84 63h149q51 0 66.5 -17t15.5 -67v-381 q109 109 268 109q266 0 266 -295v-475h91q84 -1 84 -64z" />
<glyph glyph-name="i" unicode="i" d="M932 61q0 -61 -84 -61h-604q-84 0 -84 61q0 63 84 64h248v633h-232q-84 0 -84 63q0 61 84 62h291q51 0 66.5 -17.5t15.5 -66.5v-674h215q84 -1 84 -64zM641 1137q0 -43 -29.5 -73t-72.5 -30t-73 30t-30 73t30 72.5t73 29.5t72.5 -29.5t29.5 -72.5z" />
<glyph glyph-name="j" unicode="j" d="M754 -90q0 -43 -9.5 -90t-36 -99.5t-66.5 -93.5t-107.5 -67.5t-151.5 -26.5q-285 0 -285 156q0 43 28 68.5t64 25.5q35 0 63 -25.5t28 -66.5q0 -18 -2 -25q61 -8 114 -8q111 0 166 78q53 72 53 184v838h-266q-82 0 -82 61q0 63 84 64h324q51 0 66.5 -17.5t15.5 -66.5 v-889zM756 1137q0 -43 -30 -73t-73 -30t-72.5 30t-29.5 73t29.5 72.5t72.5 29.5t73 -29.5t30 -72.5z" />
<glyph glyph-name="k" unicode="k" d="M1040 61q0 -61 -84 -61h-241q-82 0 -82 61q0 31 15.5 45.5t34.5 16.5t65 2l-244 317l-164 -151v-166h100q25 0 38.5 -2t28.5 -17.5t15 -44.5q0 -61 -82 -61h-315q-25 0 -38 2t-28.5 17.5t-15.5 43.5q0 61 82 62h100v1001h-100q-25 0 -38 2t-28.5 17.5t-15.5 44.5 q0 61 82 61h133q51 0 66.5 -17t15.5 -67v-721l332 312h-76q-82 0 -82 61q0 29 15.5 44.5t28.5 17.5t38 2h315q84 0 84 -64q0 -61 -84 -61h-71l-252 -236l305 -397h63q84 -1 84 -64z" />
<glyph glyph-name="l" unicode="l" d="M956 61q0 -61 -82 -61h-673q-82 0 -82 61q0 63 84 64h264v1001h-266q-82 0 -82 62q0 63 84 63h323q51 0 66.5 -17t15.5 -67v-1042h266q25 0 38.5 -2t28.5 -17.5t15 -44.5z" />
<glyph glyph-name="m" unicode="m" d="M1057 61q0 -61 -84 -61h-154q-84 0 -84 61q0 29 16.5 44.5t32 17.5t41.5 2v477q0 94 -18.5 131t-56.5 37q-68 0 -118 -74.5t-50 -203.5v-367q45 0 64.5 -2t35.5 -16.5t16 -45.5q0 -61 -84 -61h-153q-84 0 -84 61q0 29 16.5 44.5t31.5 17.5t42 2v477q0 94 -18.5 131 t-57.5 37q-68 0 -118 -74.5t-50 -203.5v-367q45 0 64.5 -2t36 -16.5t16.5 -45.5q0 -61 -84 -61h-180q-84 0 -84 61q0 31 16.5 45.5t35.5 16.5t65 2v633q-45 0 -64.5 2t-36 16.5t-16.5 44.5q0 61 84 62h65q25 0 38.5 -2t27.5 -16.5t16 -43.5q80 74 176 74q109 0 156 -107 q76 106 203 107q63 0 104 -34t55.5 -90t18.5 -87t4 -63v-496q45 0 64.5 -2t36 -16.5t16.5 -45.5z" />
<glyph glyph-name="n" unicode="n" d="M1049 61q0 -61 -82 -61h-314q-84 0 -84 61q0 63 84 64h80v465q0 96 -29.5 138t-107.5 42q-94 0 -175 -71.5t-81 -211.5v-362h90q84 0 84 -64q0 -61 -82 -61h-326q-82 0 -81 61q0 63 84 64h90v633h-93q-82 0 -81 61q0 63 84 64h149q31 0 47.5 -5.5t24.5 -19.5t9 -27.5 t1 -44.5q109 109 268 109q266 0 266 -295v-475h91q84 -1 84 -64z" />
<glyph glyph-name="o" unicode="o" d="M956 442.5q0 -190.5 -123.5 -322.5t-295.5 -132t-296 131t-124 323q0 190 124 324.5t296 134.5t295.5 -134t123.5 -324.5zM815 457q0 137 -83 228t-195.5 91t-195.5 -91t-83 -228q0 -141 82 -242.5t196.5 -101.5t196.5 101.5t82 242.5z" />
<glyph glyph-name="p" unicode="p" d="M999 442q0 -193 -125.5 -323.5t-295.5 -130.5q-135 0 -238 104v-422h90q84 0 84 -63q0 -61 -82 -62h-326q-82 0 -81 62q0 63 84 63h90v1088h-93q-82 0 -81 61q0 63 84 64h149q53 0 67.5 -18.5t14.5 -69.5q111 100 260 100q164 0 281.5 -132.5t117.5 -320.5zM858 442 q0 135 -79 231.5t-191 96.5q-96 0 -172 -69.5t-76 -159.5v-150q0 -92 61.5 -185t169.5 -93q113 0 200 94t87 235z" />
<glyph glyph-name="q" unicode="q" d="M1100 -393q0 -61 -82 -62h-342q-25 0 -38 2t-28.5 17.5t-15.5 44.5q0 61 82 61h100v441q-113 -123 -276 -123q-170 0 -294 132t-124 320q0 190 131 322.5t307 132.5q152 0 256 -113q0 37 1 52.5t8.5 33t21.5 22.5t41 5q47 0 58.5 -21.5t11.5 -62.5v-1141h100q25 0 38 -2 t28.5 -17t15.5 -44zM776 397v80q0 111 -68.5 202t-177.5 91q-125 0 -216 -95t-91 -235q0 -137 85 -232t200 -95q117 0 192.5 93t75.5 191z" />
<glyph glyph-name="r" unicode="r" d="M997 768q0 -39 -25.5 -63.5t-60.5 -24.5q-37 0 -61.5 26.5t-26.5 63.5q-174 0 -271 -115.5t-97 -273.5v-256h227q84 0 84 -64q0 -61 -84 -61h-535q-25 0 -38 2t-28 17.5t-15 43.5q0 61 81 62h166v633h-166q-25 0 -38 2t-28 17.5t-15 43.5q0 61 81 62h226q51 0 66.5 -17.5 t15.5 -66.5v-70q145 166 348 166q59 0 101 -13.5t60.5 -35t25.5 -41t7 -37.5z" />
<glyph glyph-name="s" unicode="s" d="M940 256q0 -33 -9 -65.5t-35 -70.5t-68 -66.5t-113.5 -47t-163.5 -18.5q-160 0 -266 78q-25 -78 -76 -78q-61 0 -62 84v198q0 27 2.5 41.5t19.5 28.5t50 14q37 0 50.5 -13t21.5 -46q59 -182 262 -182q131 0 196.5 41t65.5 102q0 39 -24.5 66.5t-72.5 45t-80 24.5t-87 16 l-116 19t-105.5 26.5t-97 44t-59.5 66.5t-26 95q0 27 7.5 54.5t32 62.5t64.5 61.5t113.5 45t172.5 18.5q129 0 219 -43q12 43 61 43q61 0 62 -84v-141q0 -27 -2.5 -41t-19.5 -28.5t-50 -14.5q-29 0 -45.5 11t-19.5 23.5t-5 35.5q-12 115 -205 114q-133 0 -196.5 -34.5 t-63.5 -82.5q0 -86 199 -112l139 -25q330 -51 330 -266z" />
<glyph glyph-name="t" unicode="t" d="M920 258q0 -127 -96.5 -198.5t-221.5 -71.5t-207 66.5t-82 203.5v500h-180q-82 0 -82 61q0 63 84 64h178v168q0 27 2 41t19.5 28.5t50.5 14.5q47 0 58.5 -21.5t11.5 -62.5v-168h336q25 0 38 -2t28 -17.5t15 -44.5q0 -61 -81 -61h-336v-488q0 -29 3 -48t16 -49t48 -45 t90 -15q33 0 66 9t66.5 45t33.5 93q0 23 3 37t19.5 27.5t47.5 13.5q33 0 50 -14.5t19.5 -27.5t2.5 -38z" />
<glyph glyph-name="u" unicode="u" d="M1049 63q0 -63 -84 -63h-150q-25 0 -38 2t-28.5 17.5t-15.5 46.5q-102 -78 -244 -78q-291 0 -290 245v525h-93q-82 0 -81 61q0 63 84 64h149q51 0 66.5 -17.5t15.5 -66.5v-553q0 -33 3 -50.5t16.5 -40t49 -32.5t93.5 -10q31 0 64.5 7t74.5 26.5t66.5 64.5t25.5 111v436 h-92q-82 0 -82 61q0 63 84 64h150q51 0 66 -17.5t15 -66.5v-674h93q82 -1 82 -62z" />
<glyph glyph-name="v" unicode="v" d="M1024 819q0 -61 -82 -61h-61l-236 -699q-10 -31 -30.5 -47t-36 -18t-41.5 -2q-29 0 -43.5 2t-34 18.5t-31.5 48.5l-235 697h-62q-82 0 -82 61q0 29 15.5 44.5t28.5 17.5t38 2h240q25 0 38 -2t28.5 -17.5t15.5 -44.5q0 -61 -82 -61h-58l224 -660l223 660h-58q-25 0 -38 2 t-28 17.5t-15 43.5q0 61 81 62h240q25 0 38 -2t28.5 -17.5t15.5 -44.5z" />
<glyph glyph-name="w" unicode="w" d="M1040 821q0 -31 -15 -45t-32.5 -16t-56.5 -2l-123 -688q-6 -29 -10 -42.5t-24.5 -24.5t-55.5 -11q-61 0 -86 35q-10 23 -49 157.5t-45 204.5h-2q-12 -86 -60 -254q-29 -98 -47 -120.5t-78 -22.5q-31 0 -49 5t-27.5 17.5t-12.5 22.5t-7 33l-123 688q-39 0 -56.5 2 t-32.5 16.5t-15 44.5q0 29 15 43.5t29.5 16.5t41.5 2h235q27 0 41.5 -2t29.5 -17.5t15 -44t-15 -43t-29.5 -16.5t-41.5 -2h-100l106 -611h2q6 29 48.5 177.5t48.5 160.5q23 45 82 45q51 0 68.5 -24.5t45.5 -126.5q49 -172 60 -232h2l102 611h-100q-27 0 -41 2t-29.5 17.5 t-15.5 44t15.5 43t29.5 16.5t41 2h235q27 0 41.5 -2t29.5 -16.5t15 -43.5z" />
<glyph glyph-name="x" unicode="x" d="M1016 61q0 -61 -84 -61h-240q-82 0 -82 61q0 31 15.5 45.5t33 16.5t54.5 2l-183 252l-176 -252q41 0 58.5 -2t33 -16.5t15.5 -45.5q0 -61 -82 -61h-240q-84 0 -84 61q0 63 84 64h82l254 330l-242 303h-81q-84 0 -84 61q0 63 84 64h239q82 0 82 -62q0 -31 -15.5 -45 t-31.5 -16t-51 -2l155 -207l152 207q-35 0 -52.5 2t-32.5 16.5t-15 44.5q0 61 82 62h239q84 0 84 -64q0 -61 -84 -61h-82l-233 -303l262 -330h82q84 -1 84 -64z" />
<glyph glyph-name="y" unicode="y" d="M1024 819q0 -61 -82 -61h-61l-318 -932q-8 -23 -15 -41t-36 -70.5t-60.5 -87.5t-84 -64.5t-109.5 -29.5q-74 0 -122 50t-48 118q0 41 24.5 65.5t65.5 24.5q39 0 63.5 -24.5t24.5 -63.5l-10 -45q104 6 164 119q12 23 31.5 79t32.5 100l14 44q0 6 -9 27l-290 731h-64 q-82 0 -82 61q0 29 15.5 44.5t29 17.5t37.5 2h240q25 0 38 -2t28.5 -17.5t15.5 -44.5q0 -61 -82 -61h-51l190 -492q39 -106 43 -121h2q16 70 53 177l148 436h-58q-25 0 -38 2t-28 17.5t-15 43.5q0 61 81 62h240q25 0 38 -2t28.5 -17.5t15.5 -44.5z" />
<glyph glyph-name="z" unicode="z" d="M973 84q0 -72 -45 -84h-776q-27 0 -41.5 2t-28.5 18.5t-14 49.5q0 27 7 39t38 43l639 606h-510v-53q0 -27 -2 -41.5t-19.5 -28.5t-50.5 -14q-47 0 -58.5 21.5t-11.5 62.5v94q0 51 16.5 67.5t67.5 16.5h697q27 0 41 -2t28.5 -18.5t14.5 -49.5q0 -27 -7.5 -39t-37.5 -43 l-639 -606h550v78q0 27 2.5 41t19.5 28.5t50 14.5q47 0 58.5 -21.5t11.5 -62.5v-119z" />
<glyph glyph-name="braceleft" unicode="{" d="M956 -106q0 -29 -15 -44.5t-29.5 -17.5t-41.5 -2q-184 0 -297 61q-49 27 -74.5 70t-28.5 70.5t-3 72.5v340q-4 109 -281 119q-70 0 -69 64q0 33 18.5 47t34.5 14q145 0 223 33q51 23 62.5 48.5t11.5 88.5v184q0 160 2 172q41 207 401 207q27 0 41.5 -2t29.5 -17.5 t15 -43.5q0 -33 -18 -47.5t-35 -14.5q-250 0 -289 -82q-6 -16 -6 -149v-270q-4 -102 -119 -170q119 -66 119 -197v-330q0 -33 5 -50t29 -41.5t85 -37t160 -14.5q69 0 69 -61z" />
<glyph glyph-name="bar" unicode="|" d="M608 -74q0 -96 -71.5 -96t-71.5 96v1399q0 96 71.5 96t71.5 -96v-1399z" />
<glyph glyph-name="braceright" unicode="}" d="M956 625q0 -33 -18 -47.5t-35 -14.5q-143 0 -221 -33q-51 -23 -62.5 -48t-11.5 -89v-184q0 -160 -2 -172q-39 -207 -403 -207q-25 0 -39 2t-30.5 17.5t-16.5 44.5q0 33 18.5 47t34.5 14q86 2 145.5 11t88 20.5t44 33t17.5 35t2 37.5v365q0 14 4 34.5t34 63.5t81 72 q-119 63 -119 194v330q0 35 -5 52.5t-28.5 43t-86 36.5t-163.5 13q-68 0 -67 62q0 29 16.5 44t30.5 17t39 2q186 0 299 -61q49 -27 74.5 -70t28.5 -69.5t3 -69.5v-342q4 -109 279 -121q69 0 69 -63z" />
<glyph glyph-name="asciitilde" unicode="~" d="M897 684q0 -37 -100 -113q-92 -68 -160 -67.5t-137 69.5q-47 43 -64 43q-47 0 -143 -90q-27 -23 -49 -22q-25 0 -44.5 20.5t-19.5 44.5q0 37 101 113q92 68 159.5 68t137.5 -70q47 -43 63 -43q47 0 143 90q27 23 50 23q25 0 44 -20.5t19 -45.5z" />
<glyph glyph-name="uni00A0" unicode="&#xa0;" />
<glyph glyph-name="exclamdown" unicode="&#xa1;" d="M639 694q0 -43 -29.5 -72.5t-72.5 -29.5t-73 29.5t-30 72.5t30 73t73 30t72.5 -30t29.5 -73zM639 -360q0 -49 -23.5 -78t-43 -34t-36 -5t-36 5t-43 33.5t-23.5 78.5q0 61 5 173.5t5 153.5l9 355q4 63 17 80.5t67 17.5q80 0 81 -51l7 -250z" />
<glyph glyph-name="cent" unicode="&#xa2;" d="M954 223q0 -16 -14 -47t-45 -72t-94.5 -73.5t-145.5 -40.5v-117q0 -27 -18.5 -45t-45 -18t-45 18t-18.5 45v121q-166 27 -272 153.5t-106 294.5q0 90 34.5 179.5t123.5 170t220 101.5v117q0 27 18.5 45t45 18t45 -18.5t18.5 -44.5v-109q274 -6 275 -149q0 -43 -26.5 -69 t-65.5 -26q-88 0 -90 101q0 18 -93 18v-661q117 16 160 121q10 29 24.5 37t43.5 8q71 -1 71 -58zM528 125v641q-90 -23 -147 -88.5t-73.5 -123.5t-16.5 -112q0 -115 67.5 -201.5t169.5 -115.5z" />
<glyph glyph-name="sterling" unicode="&#xa3;" d="M1038 295q0 -129 -63.5 -223.5t-167.5 -94.5q-23 0 -44.5 3.5t-45 13.5l-37.5 16t-42 24.5l-36 23.5t-40 30t-36 27q-39 -63 -118.5 -100.5t-174.5 -37.5q-82 0 -139 55.5t-57 135.5q0 86 76.5 139t181.5 53q49 0 100 -20q-16 59 -92 215h-133q-29 0 -50.5 20.5 t-21.5 51.5q0 29 21.5 50t50.5 21h66q-39 98 -39 185q0 152 107.5 260t260.5 108q150 0 258.5 -94t108.5 -233q0 -37 -26.5 -63.5t-63.5 -26.5t-63.5 26.5t-26.5 63.5q0 33 24 61q-23 55 -82 89t-129 34q-94 0 -159.5 -66.5t-65.5 -158.5q0 -86 39 -185h330q29 0 50 -21.5 t21 -49.5q0 -31 -21.5 -51.5t-49.5 -20.5h-263q104 -209 109 -317q51 -39 81 -58.5t78 -39t93 -19.5q88 0 88 174q0 29 21.5 50.5t50.5 21.5q31 0 51 -21.5t20 -50.5zM408 190q-57 27 -113 27q-115 0 -115 -49q0 -20 15.5 -33.5t37.5 -13.5q144 -1 175 69z" />
<glyph glyph-name="currency" unicode="&#xa4;" d="M862 301q-47 -47 -119 16l-47 50q-74 -45 -157 -45q-88 0 -160 45l-47 -48q-72 -66 -119 -16q-49 47 16 119l47 47q-43 74 -43 158t43 157l-49 50q-63 72 -16 118.5t119 -16.5l49 -49q72 45 160 45q84 0 157 -45l45 47q72 66 119 16q49 -47 -16 -119l-47 -45 q45 -74 45 -159.5t-45 -159.5l49 -47q63 -72 16 -119zM698 626.5q0 65.5 -47 113.5t-112 48q-68 0 -115 -48t-47 -113.5t47 -113.5t115 -48q66 0 112.5 48t46.5 113.5z" />
<glyph glyph-name="yen" unicode="&#xa5;" d="M1034 1188q0 -61 -82 -62h-43l-129 -268h80q29 0 50.5 -21.5t21.5 -50.5q0 -31 -21.5 -51t-50.5 -20h-149l-84 -176h233q29 0 50.5 -20.5t21.5 -51.5q0 -29 -21.5 -50.5t-50.5 -21.5h-252v-270h51q25 0 38.5 -2t28.5 -17.5t15 -44.5q0 -61 -82 -61h-243q-25 0 -38 2 t-28.5 17.5t-15.5 43.5q0 61 82 62h51v270h-252q-29 0 -50.5 21.5t-21.5 50.5q0 31 21.5 51.5t50.5 20.5h234l-87 176h-147q-29 0 -50.5 20.5t-21.5 50.5q0 29 21.5 50.5t50.5 21.5h78l-129 268h-43q-25 0 -38 2t-28.5 17.5t-15.5 44.5q0 61 82 61h213q82 0 82 -61 q0 -31 -15.5 -45.5t-31 -16.5t-47.5 -2l127 -268h184l119 268q-33 0 -48.5 2t-31 16.5t-15.5 45.5q0 61 82 61h213q25 0 38.5 -2t28.5 -17t15 -44zM569 715h-57q23 -63 25 -72z" />
<glyph glyph-name="brokenbar" unicode="&#xa6;" d="M608 834q0 -27 -21.5 -45.5t-50 -18.5t-50 18.5t-21.5 45.5v491q0 96 71.5 96t71.5 -96v-491zM608 -74q0 -96 -71.5 -96t-71.5 96v492q0 27 21.5 45t50 18t50 -18.5t21.5 -44.5v-492z" />
<glyph glyph-name="section" unicode="&#xa7;" d="M1004 397q0 -133 -117 -209q47 -63 47 -137q0 -135 -118 -218t-277.5 -83t-277.5 68.5t-118 191.5q0 37 27 63.5t63.5 26.5t63.5 -26.5t27 -63.5q0 -29 -19 -55q45 -61 234 -61q102 0 177 40.5t75 116.5q0 33 -16.5 59.5t-52.5 47t-61.5 31t-74.5 26.5l-211 72 q-131 45 -216 134t-85 206q0 135 116 207q-47 68 -47 139q0 135 118 218t277.5 83t277.5 -68.5t118 -191.5q0 -37 -26.5 -63.5t-63.5 -26.5t-63.5 26.5t-26.5 63.5q0 29 18 55q-45 61 -233 61q-102 0 -177 -40.5t-75 -116.5q0 -33 16 -59.5t52 -47t61.5 -31t75.5 -26.5 l210 -72q131 -45 216.5 -134t85.5 -206zM860 397q0 133 -205 205l-211 72q-76 25 -145 65q-37 -8 -59.5 -40.5t-22.5 -71.5q0 -133 205 -205l211 -72q80 -29 145 -67q37 10 59.5 41.5t22.5 72.5z" />
<glyph glyph-name="dieresis" unicode="&#xa8;" d="M461 1137q0 -39 -26.5 -66t-65.5 -27t-66 27t-27 66t27 65.5t66 26.5t65.5 -26.5t26.5 -65.5zM799 1137q0 -39 -27 -66t-65.5 -27t-65.5 27t-27 66t27 65.5t65.5 26.5t65.5 -26.5t27 -65.5z" />
<glyph glyph-name="copyright" unicode="&#xa9;" d="M1075 539q0 -223 -157.5 -381t-378.5 -158q-223 0 -381 157.5t-158 381.5q0 221 157.5 378.5t381.5 157.5q221 0 378.5 -157.5t157.5 -378.5zM997 539q0 188 -135 323t-323 135q-190 0 -325.5 -135t-135.5 -323q0 -190 135 -325.5t326 -135.5q188 0 323 135.5t135 325.5z M741 385q0 -76 -64.5 -136.5t-158.5 -60.5q-109 0 -187.5 100.5t-78.5 250.5q0 147 79 247.5t187 100.5q84 0 144 -53q4 10 8 17t5 9l2 4t1 4q14 18 31 19q33 0 32 -45v-154q0 -14 -1 -22.5t-10 -15.5t-28 -7q-33 0 -36 37q-12 66 -52.5 102.5t-91.5 36.5q-76 0 -135 -81 t-59 -199q0 -121 58 -202t136 -81q47 0 92 30.5t52 102.5q2 33 36 33q39 0 39 -37z" />
<glyph glyph-name="ordfeminine" unicode="&#xaa;" d="M874 688q0 -20 -11 -30.5t-23.5 -12.5t-36.5 -2q-123 0 -156 47q-82 -55 -209 -55q-106 0 -171.5 57.5t-65.5 134.5q0 100 116.5 154.5t313.5 58.5q0 145 -182 146h-52q-30 -9 -30 -17q-2 -35 -21.5 -50t-42.5 -15q-27 0 -45 17.5t-18 47.5q0 104 206 105 q143 0 214 -66.5t71 -154.5v-312q27 -10 86 -10q57 0 57 -43zM811 528.5q0 -18.5 -18.5 -31t-44.5 -12.5h-420q-27 0 -45.5 12.5t-18.5 31t18.5 31.5t45.5 13h420q27 0 45 -13t18 -31.5zM631 836v120q-154 -4 -242 -39.5t-88 -89.5q0 -45 41 -74.5t107 -29.5q76 0 126 25 q27 12 39.5 27.5t14.5 26.5t2 34z" />
<glyph glyph-name="guillemotleft" unicode="&#xab;" d="M979 231q0 -31 -13.5 -48t-31.5 -17q-14 0 -37 18l-446 385q-23 23 -23 58q0 33 29 61l440 381q23 18 37 18q18 0 31.5 -17t13.5 -48q0 -35 -31 -61l-385 -334l385 -334q31 -27 31 -62zM647 231q0 -31 -13 -48t-32 -17q-14 0 -37 18l-446 385q-23 23 -23 58q0 33 29 61 l440 381q23 18 37 18q18 0 31.5 -17t13.5 -48q0 -35 -31 -61l-385 -334l385 -334q31 -27 31 -62z" />
<glyph glyph-name="logicalnot" unicode="&#xac;" d="M995 471q0 -29 -21.5 -50.5t-50 -21.5t-50 21.5t-21.5 50.5v240h-702q-29 0 -50.5 21.5t-21.5 50t21.5 50t50.5 21.5h774q29 0 50 -21.5t21 -50.5v-311z" />
<glyph glyph-name="registered" unicode="&#xae;" d="M1075 539q0 -223 -157.5 -381t-378.5 -158q-223 0 -381 157.5t-158 381.5q0 221 157.5 378.5t381.5 157.5q221 0 378.5 -157.5t157.5 -378.5zM997 539q0 188 -135 323t-323 135q-190 0 -325.5 -135t-135.5 -323q0 -190 135 -325.5t326 -135.5q188 0 323 135.5t135 325.5z M844 309q0 -41 -24.5 -77.5t-71.5 -36.5q-59 0 -86 49q-20 37 -21 141q0 72 -25 94q-37 31 -90 31h-86v-236h27q45 0 45 -34q0 -33 -45 -33h-131q-43 0 -43 33q0 35 43 34h29v539h-29q-43 0 -43 35q0 33 43 33h196q94 0 153.5 -55.5t59.5 -129.5q0 -100 -92 -153 q37 -31 54 -68q10 -27 10 -104q0 -109 31 -109q20 0 20 49q2 33 39 33t37 -35zM670 696q0 45 -40 81t-110 36h-80v-235h80q70 0 110 36.5t40 81.5z" />
<glyph glyph-name="macron" unicode="&#xaf;" d="M926 1137q0 -29 -15.5 -44.5t-29 -17.5t-37.5 -2h-608q-25 0 -39.5 2t-29.5 17.5t-15 46.5q0 29 15 44t28.5 17t37.5 2h611q25 0 38 -2t28.5 -17t15.5 -46z" />
<glyph glyph-name="degree" unicode="&#xb0;" d="M836 952q0 -123 -87 -211t-210 -88q-125 0 -212 88t-87 211q0 125 87 212t212 87q123 0 210 -87t87 -212zM692 952.5q0 63.5 -45 109.5t-108.5 46t-109.5 -46t-46 -109.5t46 -109.5t109.5 -46t108.5 46t45 109.5z" />
<glyph glyph-name="plusminus" unicode="&#xb1;" d="M995 71.5q0 -71.5 -96 -71.5h-725q-96 0 -96 71.5t96 71.5h291v246h-291q-96 0 -96 71.5t96 71.5h291v293q0 96 71.5 96.5t71.5 -96.5v-293h291q96 0 96 -71.5t-96 -71.5h-291v-246h291q96 0 96 -71.5z" />
<glyph glyph-name="uni00B2" unicode="&#xb2;" d="M754 680q0 -25 -8.5 -34t-32.5 -9h-348q-41 0 -41 33q0 12 14 26l227 191q117 98 117 188q0 63 -47 100t-115 37q-92 0 -121 -79q14 -8 15 -33q0 -20 -13.5 -32.5t-31.5 -12.5q-16 0 -30.5 11t-14.5 38q0 68 56 119t144 51q96 0 163 -54.5t67 -144.5q0 -106 -113 -205 q-8 -8 -203 -170h244q0 18 1 25.5t9 15t27 7.5q35 0 35 -41v-27z" />
<glyph glyph-name="uni00B3" unicode="&#xb3;" d="M762 815q0 -74 -62.5 -131t-159 -57t-161 41t-64.5 108q0 23 13.5 36t31.5 13q20 0 33 -13t13 -32q0 -20 -13 -32q33 -59 148 -60q66 0 107.5 39t41.5 88t-41 89t-112 40h-48q-41 0 -40 31q0 20 13 26.5t54 7.5q4 0 6 1q63 4 96 30q43 37 44 88q0 35 -35 59.5t-86 24.5 q-82 0 -115 -32q10 -4 10 -27q0 -20 -14 -33.5t-31 -13.5q-18 0 -32.5 12t-14.5 37q0 53 52.5 86t142.5 33q86 0 139 -42t53 -102q0 -96 -86 -151q117 -53 117 -164z" />
<glyph glyph-name="acute" unicode="&#xb4;" d="M756 1202q0 -45 -58 -72l-272 -120q-20 -10 -37 -11q-35 0 -51 30t-16 52q0 16 8 28.5t16 18t27 13.5l272 123l39 10q31 0 51.5 -20.5t20.5 -51.5z" />
<glyph glyph-name="uni00B5" unicode="&#xb5;" d="M1051 61q0 -61 -88 -61h-142q-27 0 -41 2t-30.5 17.5t-18.5 43.5q-102 -76 -242 -75q-90 0 -149 22v-340h86q27 0 41 -2t30.5 -17.5t16.5 -43.5q0 -61 -88 -62h-315q-27 0 -41.5 2t-30.5 17.5t-16 44.5q0 61 88 61h86v1086h-86q-27 0 -41.5 2t-30.5 17.5t-16 43.5 q0 61 88 62h141q55 0 71.5 -17.5t16.5 -70.5v-545q0 -35 3 -52.5t16.5 -40t49 -32.5t93.5 -10q98 0 166 53q66 53 65 158v432h-86q-27 0 -41 2t-30.5 17.5t-16.5 43.5q0 61 88 62h141q55 0 72 -17.5t17 -70.5v-668h86q27 0 41 -2t30.5 -17.5t16.5 -44.5z" />
<glyph glyph-name="paragraph" unicode="&#xb6;" d="M1024 1380q0 -41 -57 -41h-88v-1669q0 -68 -35 -67q-37 0 -37 67v1669h-123v-1669q0 -68 -35 -67.5t-35 67.5v801q-121 6 -234.5 55t-197.5 160t-84 262q0 195 128 334t313 139h428q57 0 57 -41z" />
<glyph glyph-name="periodcentered" unicode="&#xb7;" d="M666 625q0 -49 -37 -88t-92 -39q-51 0 -89 36.5t-38 92.5q0 49 36.5 88t92.5 39q51 0 89 -37t38 -92z" />
<glyph glyph-name="cedilla" unicode="&#xb8;" d="M877 -217q0 -51 -20.5 -88t-63.5 -59.5t-82 -36t-105.5 -18.5t-104.5 -6t-106 -1q-63 0 -63 64q0 31 16.5 45t37 16t69.5 2q281 0 280 82q0 33 -35.5 56.5t-101.5 25.5q-31 2 -46 16.5t-17.5 28.5t-2.5 41v55q0 29 2.5 43t19.5 28.5t50 14.5q47 0 58.5 -22.5t11.5 -87.5 q102 -20 152.5 -76.5t50.5 -122.5z" />
<glyph glyph-name="uni00B9" unicode="&#xb9;" d="M711 668q0 -31 -41 -31h-258q-41 0 -41 31q0 33 41 32h94v433q-51 -45 -107 -46q-35 0 -34.5 31t38.5 31q70 8 111 100q12 25 31 25q31 0 30 -41v-533h95q41 1 41 -32z" />
<glyph glyph-name="ordmasculine" unicode="&#xba;" d="M831 952q0 -133 -87 -225t-205 -92q-121 0 -208 91t-87 226t86 228.5t209 93.5q121 0 206.5 -93.5t85.5 -228.5zM768 528.5q0 -18.5 -18.5 -31t-44.5 -12.5h-334q-27 0 -45.5 12.5t-18.5 31t18.5 31.5t45.5 13h334q27 0 45 -13t18 -31.5zM733 963q0 96 -57.5 159.5 t-137 63.5t-138 -63.5t-58.5 -159.5q0 -98 58.5 -169t138 -71t137 71t57.5 169z" />
<glyph glyph-name="guillemotright" unicode="&#xbb;" d="M977 627q0 -35 -23 -58l-446 -385q-23 -18 -37 -18q-18 0 -31.5 17.5t-13.5 47.5q0 35 31 62l385 334l-385 334q-31 27 -31 61q0 31 13.5 48t31.5 17q14 0 37 -18l440 -381q29 -28 29 -61zM645 627q0 -35 -22 -58l-447 -385q-23 -18 -37 -18q-18 0 -31.5 17.5t-13.5 47.5 q0 35 31 62l385 334l-385 334q-31 27 -31 61q0 31 13.5 48t31.5 17q14 0 37 -18l440 -381q29 -28 29 -61z" />
<glyph glyph-name="onequarter" unicode="&#xbc;" d="M399 668q0 -31 -41 -31h-258q-41 0 -41 31q0 33 41 32h95v433q-51 -45 -107 -46q-35 0 -35 31t39 31q70 8 111 100q12 25 30 25q31 0 31 -41v-533h94q41 1 41 -32zM1022 205q0 -31 -41 -31h-80v-111h64q41 0 41 -32q0 -31 -41 -31h-185q-41 0 -41 31q0 33 41 32h64v111 h-258q-25 0 -33 8t-8 33q0 23 10 35l233 366q14 23 43 23h29q27 0 34 -8t7 -35v-360h80q41 0 41 -31zM985 1210q0 -20 -8 -34l-645 -1170q-20 -37 -64 -37q-29 0 -50 21.5t-21 50.5q0 18 10 35l645 1169q20 37 61 37q31 0 51.5 -21.5t20.5 -50.5zM844 236v358l-228 -358h228 z" />
<glyph glyph-name="onehalf" unicode="&#xbd;" d="M399 668q0 -31 -41 -31h-258q-41 0 -41 31q0 33 41 32h95v433q-51 -45 -107 -46q-35 0 -35 31t39 31q70 8 111 100q12 25 30 25q31 0 31 -41v-533h94q41 1 41 -32zM1022 43q0 -25 -8 -34t-33 -9h-346q-43 0 -43 33q0 14 16 26l226 191q119 100 118 188q0 63 -48 100 t-116 37q-41 0 -74.5 -22.5t-43.5 -56.5q14 -10 14 -33q0 -20 -14.5 -32.5t-30.5 -12.5q-47 0 -47 49q0 68 57.5 119t145.5 51q96 0 161.5 -54.5t65.5 -144.5q0 -104 -111 -205q-25 -23 -101.5 -86l-100.5 -84h243q0 27 5.5 37.5t29.5 10.5q35 0 35 -41v-27zM932 1210 q0 -14 -8 -34l-645 -1170q-20 -37 -64 -37q-29 0 -50.5 21.5t-21.5 50.5q0 14 9 35l645 1169q20 37 63 37q29 0 50.5 -21.5t21.5 -50.5z" />
<glyph glyph-name="threequarters" unicode="&#xbe;" d="M492 815q0 -74 -61.5 -131t-160.5 -57q-96 0 -160.5 42t-64.5 107q0 49 47 49q18 0 31.5 -13t13.5 -32q0 -14 -12 -32q33 -59 145 -60q68 0 110 39t42 88t-42 89t-112 40h-47q-41 0 -41 31q0 23 12.5 27t61.5 8q61 4 94 30q43 33 43 88q0 35 -34.5 59.5t-86.5 24.5 q-82 0 -112 -32q8 -8 8 -27q0 -20 -13.5 -33.5t-32 -13.5t-31.5 12t-13 37q0 53 52 86t142 33q86 0 139.5 -42t53.5 -102q0 -96 -86 -151q115 -51 115 -164zM1022 205q0 -31 -41 -31h-80v-111h64q41 0 41 -32q0 -31 -41 -31h-185q-41 0 -41 31q0 33 41 32h64v111h-258 q-25 0 -33 8t-8 33q0 23 10 35l233 366q14 23 43 23h29q27 0 34 -8t7 -35v-360h80q41 0 41 -31zM985 1210q0 -20 -8 -34l-645 -1170q-20 -37 -64 -37q-29 0 -50 21.5t-21 50.5q0 18 10 35l645 1169q20 37 61 37q31 0 51.5 -21.5t20.5 -50.5zM844 236v358l-228 -358h228z" />
<glyph glyph-name="questiondown" unicode="&#xbf;" d="M608 694q0 -43 -29.5 -72.5t-72.5 -29.5t-73 29.5t-30 72.5t30 73t73 30t72.5 -30t29.5 -73zM946 -217q0 -59 -26.5 -105.5t-73.5 -71t-92 -42t-104.5 -23.5t-85 -7t-56.5 -1q-102 0 -179 22.5t-114 52.5t-58.5 69.5t-25.5 63t-4 46.5q0 115 121 201q176 119 176 313v35 q0 53 16.5 68.5t65.5 15.5q31 0 47 -4t24.5 -20.5t9.5 -31t1 -51.5t-2 -60.5t-15.5 -74.5t-38 -93t-75.5 -96.5t-125 -103.5q-63 -43 -64 -98q0 -129 242 -129q203 0 272 70q-18 20 -18 59q0 41 27.5 66.5t62.5 25.5q37 0 64.5 -25.5t27.5 -70.5z" />
<glyph glyph-name="Agrave" unicode="&#xc0;" d="M1018 61q0 -61 -88 -61h-209q-27 0 -41 2t-29.5 16.5t-15.5 42.5q0 31 15.5 45.5t35 16.5t64.5 2l-48 213h-331l-47 -213q45 0 64.5 -2t34.5 -16.5t15 -45.5q0 -29 -15 -43t-29.5 -16t-41.5 -2h-209q-88 0 -88 61q0 41 35 60q12 4 88 4l248 1073q8 37 24.5 54.5t33 20.5 t53 3t54 -3t33 -21.5t23.5 -55.5l248 -1071q76 0 88 -6q35 -15 35 -58zM672 463l-135 643l-136 -643h271zM754 1460q0 -23 -16.5 -52.5t-51.5 -29.5q-16 0 -37 11l-272 120q-57 27 -58 72q0 31 20.5 51.5t51.5 20.5q16 0 39 -11l272 -122q18 -8 26.5 -13.5t17 -18t8.5 -28.5 z" />
<glyph glyph-name="Aacute" unicode="&#xc1;" d="M1018 61q0 -61 -88 -61h-209q-27 0 -41 2t-29.5 16.5t-15.5 42.5q0 31 15.5 45.5t35 16.5t64.5 2l-48 213h-331l-47 -213q45 0 64.5 -2t34.5 -16.5t15 -45.5q0 -29 -15 -43t-29.5 -16t-41.5 -2h-209q-88 0 -88 61q0 41 35 60q12 4 88 4l248 1073q8 37 24.5 54.5t33 20.5 t53 3t54 -3t33 -21.5t23.5 -55.5l248 -1071q76 0 88 -6q35 -15 35 -58zM672 463l-135 643l-136 -643h271zM756 1581q0 -45 -58 -72l-272 -120q-20 -10 -37 -11q-35 0 -51 30t-16 52q0 16 8 28.5t16 17.5t27 14l272 122l39 11q31 0 51.5 -20.5t20.5 -51.5z" />
<glyph glyph-name="Acircumflex" unicode="&#xc2;" d="M1018 61q0 -61 -88 -61h-209q-27 0 -41 2t-29.5 16.5t-15.5 42.5q0 31 15.5 45.5t35 16.5t64.5 2l-48 213h-331l-47 -213q45 0 64.5 -2t34.5 -16.5t15 -45.5q0 -29 -15 -43t-29.5 -16t-41.5 -2h-209q-88 0 -88 61q0 41 35 60q12 4 88 4l248 1073q8 37 24.5 54.5t33 20.5 t53 3t54 -3t33 -21.5t23.5 -55.5l248 -1071q76 0 88 -6q35 -15 35 -58zM672 463l-135 643l-136 -643h271zM801 1477q53 -20 34.5 -75.5t-73.5 -39.5l-223 68l-224 -68q-55 -16 -73.5 39t37.5 76l241 88q20 6 39 0z" />
<glyph glyph-name="Atilde" unicode="&#xc3;" d="M1018 61q0 -61 -88 -61h-209q-27 0 -41 2t-29.5 16.5t-15.5 42.5q0 31 15.5 45.5t35 16.5t64.5 2l-48 213h-331l-47 -213q45 0 64.5 -2t34.5 -16.5t15 -45.5q0 -29 -15 -43t-29.5 -16t-41.5 -2h-209q-88 0 -88 61q0 41 35 60q12 4 88 4l248 1073q8 37 24.5 54.5t33 20.5 t53 3t54 -3t33 -21.5t23.5 -55.5l248 -1071q76 0 88 -6q35 -15 35 -58zM672 463l-135 643l-136 -643h271zM897 1538q0 -37 -100 -113q-92 -68 -160 -67.5t-137 69.5q-47 43 -64 43q-47 0 -143 -90q-27 -23 -49 -22q-25 0 -44.5 20.5t-19.5 44.5q0 37 101 113q92 68 159.5 68 t137.5 -70q47 -43 63 -43q47 0 143 90q27 23 50 23q25 0 44 -20.5t19 -45.5z" />
<glyph glyph-name="Adieresis" unicode="&#xc4;" d="M1018 61q0 -61 -88 -61h-209q-27 0 -41 2t-29.5 16.5t-15.5 42.5q0 31 15.5 45.5t35 16.5t64.5 2l-48 213h-331l-47 -213q45 0 64.5 -2t34.5 -16.5t15 -45.5q0 -29 -15 -43t-29.5 -16t-41.5 -2h-209q-88 0 -88 61q0 41 35 60q12 4 88 4l248 1073q8 37 24.5 54.5t33 20.5 t53 3t54 -3t33 -21.5t23.5 -55.5l248 -1071q76 0 88 -6q35 -15 35 -58zM672 463l-135 643l-136 -643h271zM430 1450q0 -39 -26.5 -65.5t-65.5 -26.5t-65.5 26.5t-26.5 65.5t26.5 65.5t65.5 26.5t65.5 -26.5t26.5 -65.5zM829 1450q0 -39 -26.5 -65.5t-65.5 -26.5t-65.5 26.5 t-26.5 65.5t26.5 65.5t65.5 26.5t65.5 -26.5t26.5 -65.5z" />
<glyph glyph-name="Aring" unicode="&#xc5;" d="M1018 61q0 -61 -88 -61h-209q-27 0 -41 2t-29.5 16.5t-15.5 42.5q0 31 15.5 45.5t35 16.5t64.5 2l-48 213h-331l-47 -213q45 0 64.5 -2t34.5 -16.5t15 -45.5q0 -29 -15 -43t-29.5 -16t-41.5 -2h-209q-88 0 -88 61q0 41 35 60q12 4 88 4l248 1073q8 37 24.5 54.5t33 20.5 t53 3t54 -3t33 -21.5t23.5 -55.5l248 -1071q76 0 88 -6q35 -15 35 -58zM672 463l-135 643l-136 -643h271zM635 1423.5q0 28.5 -30 49t-66.5 20.5t-66.5 -20.5t-30 -49t30 -49t66.5 -20.5t66.5 20.5t30 49zM737 1423.5q0 -59.5 -57 -103.5t-141 -44t-141.5 44t-57.5 103.5 t57.5 103.5t141.5 44t141 -44t57 -103.5z" />
<glyph glyph-name="AE" unicode="&#xc6;" d="M1022 84q0 -49 -16.5 -66.5t-65.5 -17.5h-397q-84 0 -84 63q0 61 82 62v250h-228l-51 -250q31 0 47.5 -2t31.5 -17.5t15 -44.5q0 -61 -82 -61h-145q-82 0 -82 61q0 31 15.5 45.5t32 16.5t50.5 2l203 1001q-25 0 -38 2t-28.5 17.5t-15.5 44.5q0 61 82 61h576 q51 0 66.5 -17t15.5 -67v-149q0 -84 -57.5 -84t-57.5 84v108h-236v-415h236q25 0 38 -2t28.5 -17.5t15.5 -44.5q0 -61 -82 -61h-236v-461h252v141q0 84 57.5 84t57.5 -84v-182zM541 500v626h-76l-127 -626h203z" />
<glyph glyph-name="Ccedilla" unicode="&#xc7;" d="M991 344q0 -115 -81 -214t-210 -136v-12q102 -20 152.5 -77t50.5 -122q0 -51 -20.5 -88t-63.5 -59.5t-82 -36t-105.5 -18.5t-104.5 -6t-105 -1q-63 0 -64 64q0 31 16.5 45t37 16t69.5 2q281 0 281 82q0 33 -36 56.5t-101 25.5q-31 2 -46.5 16.5t-17.5 28.5t-2 41v26 q-197 10 -337 194.5t-140 455.5q0 274 146.5 460.5t346.5 186.5q150 0 267 -98q12 23 18 36t9 19t3 8q25 35 58 35q61 0 61 -84v-285q0 -27 -2 -41t-19.5 -28.5t-49.5 -14.5q-29 0 -45.5 11.5t-19.5 21.5t-7 35q-20 121 -94 190.5t-170 69.5q-141 0 -251 -150.5t-110 -371.5 q0 -223 109.5 -374t253.5 -151q86 0 170 58.5t94 191.5q4 59 70 60q71 0 71 -68z" />
<glyph glyph-name="Egrave" unicode="&#xc8;" d="M1028 84q0 -49 -16.5 -66.5t-65.5 -17.5h-809q-84 0 -84 61q0 63 84 64h62v1001h-62q-84 0 -84 64q0 61 84 61h764q51 0 66.5 -17t15.5 -67v-149q0 -27 -2 -41t-19.5 -28.5t-50.5 -14.5q-47 0 -58 21.5t-11 62.5v108h-502v-415h268q0 51 3 70.5t18.5 32.5t50.5 13 q47 0 58.5 -21.5t11.5 -62.5v-190q0 -27 -2.5 -41t-18.5 -28.5t-49 -14.5q-49 0 -60.5 22.5t-11.5 94.5h-268v-461h547v141q0 27 2 41.5t19.5 28.5t49.5 14q47 0 58.5 -21.5t11.5 -62.5v-182zM754 1460q0 -23 -16.5 -52.5t-51.5 -29.5q-16 0 -37 11l-272 120q-57 27 -58 72 q0 31 20.5 51.5t51.5 20.5q16 0 39 -11l272 -122q18 -8 26.5 -13.5t17 -18t8.5 -28.5z" />
<glyph glyph-name="Eacute" unicode="&#xc9;" d="M1028 84q0 -49 -16.5 -66.5t-65.5 -17.5h-809q-84 0 -84 61q0 63 84 64h62v1001h-62q-84 0 -84 64q0 61 84 61h764q51 0 66.5 -17t15.5 -67v-149q0 -27 -2 -41t-19.5 -28.5t-50.5 -14.5q-47 0 -58 21.5t-11 62.5v108h-502v-415h268q0 51 3 70.5t18.5 32.5t50.5 13 q47 0 58.5 -21.5t11.5 -62.5v-190q0 -27 -2.5 -41t-18.5 -28.5t-49 -14.5q-49 0 -60.5 22.5t-11.5 94.5h-268v-461h547v141q0 27 2 41.5t19.5 28.5t49.5 14q47 0 58.5 -21.5t11.5 -62.5v-182zM756 1581q0 -45 -58 -72l-272 -120q-20 -10 -37 -11q-35 0 -51 30t-16 52 q0 16 8 28.5t16 17.5t27 14l272 122l39 11q31 0 51.5 -20.5t20.5 -51.5z" />
<glyph glyph-name="Ecircumflex" unicode="&#xca;" d="M1028 84q0 -49 -16.5 -66.5t-65.5 -17.5h-809q-84 0 -84 61q0 63 84 64h62v1001h-62q-84 0 -84 64q0 61 84 61h764q51 0 66.5 -17t15.5 -67v-149q0 -27 -2 -41t-19.5 -28.5t-50.5 -14.5q-47 0 -58 21.5t-11 62.5v108h-502v-415h268q0 51 3 70.5t18.5 32.5t50.5 13 q47 0 58.5 -21.5t11.5 -62.5v-190q0 -27 -2.5 -41t-18.5 -28.5t-49 -14.5q-49 0 -60.5 22.5t-11.5 94.5h-268v-461h547v141q0 27 2 41.5t19.5 28.5t49.5 14q47 0 58.5 -21.5t11.5 -62.5v-182zM801 1477q53 -20 34.5 -75.5t-73.5 -39.5l-223 68l-224 -68q-55 -16 -73.5 39 t37.5 76l241 88q20 6 39 0z" />
<glyph glyph-name="Edieresis" unicode="&#xcb;" d="M1028 84q0 -49 -16.5 -66.5t-65.5 -17.5h-809q-84 0 -84 61q0 63 84 64h62v1001h-62q-84 0 -84 64q0 61 84 61h764q51 0 66.5 -17t15.5 -67v-149q0 -27 -2 -41t-19.5 -28.5t-50.5 -14.5q-47 0 -58 21.5t-11 62.5v108h-502v-415h268q0 51 3 70.5t18.5 32.5t50.5 13 q47 0 58.5 -21.5t11.5 -62.5v-190q0 -27 -2.5 -41t-18.5 -28.5t-49 -14.5q-49 0 -60.5 22.5t-11.5 94.5h-268v-461h547v141q0 27 2 41.5t19.5 28.5t49.5 14q47 0 58.5 -21.5t11.5 -62.5v-182zM430 1450q0 -39 -26.5 -65.5t-65.5 -26.5t-65.5 26.5t-26.5 65.5t26.5 65.5 t65.5 26.5t65.5 -26.5t26.5 -65.5zM829 1450q0 -39 -26.5 -65.5t-65.5 -26.5t-65.5 26.5t-26.5 65.5t26.5 65.5t65.5 26.5t65.5 -26.5t26.5 -65.5z" />
<glyph glyph-name="Igrave" unicode="&#xcc;" d="M913 61q0 -61 -84 -61h-583q-84 0 -84 63q0 61 84 62h221v1001h-221q-84 0 -84 64q0 61 84 61h583q84 0 84 -63q0 -61 -84 -62h-221v-1001h221q84 -1 84 -64zM754 1460q0 -23 -16.5 -52.5t-51.5 -29.5q-16 0 -37 11l-272 120q-57 27 -58 72q0 31 20.5 51.5t51.5 20.5 q16 0 39 -11l272 -122q18 -8 26.5 -13.5t17 -18t8.5 -28.5z" />
<glyph glyph-name="Iacute" unicode="&#xcd;" d="M913 61q0 -61 -84 -61h-583q-84 0 -84 63q0 61 84 62h221v1001h-221q-84 0 -84 64q0 61 84 61h583q84 0 84 -63q0 -61 -84 -62h-221v-1001h221q84 -1 84 -64zM756 1581q0 -45 -58 -72l-272 -120q-20 -10 -37 -11q-35 0 -51 30t-16 52q0 16 8 28.5t16 17.5t27 14l272 122 l39 11q31 0 51.5 -20.5t20.5 -51.5z" />
<glyph glyph-name="Icircumflex" unicode="&#xce;" d="M913 61q0 -61 -84 -61h-583q-84 0 -84 63q0 61 84 62h221v1001h-221q-84 0 -84 64q0 61 84 61h583q84 0 84 -63q0 -61 -84 -62h-221v-1001h221q84 -1 84 -64zM801 1477q53 -20 34.5 -75.5t-73.5 -39.5l-223 68l-224 -68q-55 -16 -73.5 39t37.5 76l241 88q20 6 39 0z" />
<glyph glyph-name="Idieresis" unicode="&#xcf;" d="M913 61q0 -61 -84 -61h-583q-84 0 -84 63q0 61 84 62h221v1001h-221q-84 0 -84 64q0 61 84 61h583q84 0 84 -63q0 -61 -84 -62h-221v-1001h221q84 -1 84 -64zM430 1450q0 -39 -26.5 -65.5t-65.5 -26.5t-65.5 26.5t-26.5 65.5t26.5 65.5t65.5 26.5t65.5 -26.5t26.5 -65.5z M829 1450q0 -39 -26.5 -65.5t-65.5 -26.5t-65.5 26.5t-26.5 65.5t26.5 65.5t65.5 26.5t65.5 -26.5t26.5 -65.5z" />
<glyph glyph-name="Eth" unicode="&#xd0;" d="M993 616q0 -254 -126 -435t-322 -181h-422q-84 0 -84 61q0 63 84 64h45v438h-57q-27 0 -45.5 18.5t-18.5 45t18.5 45t45.5 18.5h57v436h-45q-84 0 -84 62q0 63 84 63h422q197 0 322.5 -189.5t125.5 -445.5zM852 616q0 197 -92 353.5t-254 156.5h-197v-436h121 q27 0 45.5 -18.5t18.5 -45t-18.5 -45t-45.5 -18.5h-121v-438h197q162 0 254 148t92 343z" />
<glyph glyph-name="Ntilde" unicode="&#xd1;" d="M1016 1188q0 -61 -82 -62h-51v-1042q0 -55 -17.5 -69.5t-68.5 -14.5q-33 0 -48.5 3t-34 19.5t-30.5 51.5l-377 1024h-2v-973h51q25 0 38.5 -2t28.5 -17.5t15 -44.5q0 -61 -82 -61h-217q-25 0 -38 2t-28.5 17.5t-15.5 43.5q0 61 82 62h51v1001h-51q-25 0 -38 2t-28.5 17.5 t-15.5 44.5q0 61 82 61h140q47 0 70.5 -13t39.5 -60l377 -1024h2v972h-51q-82 0 -82 62q0 29 15.5 44t28.5 17t38 2h217q25 0 38 -2t28.5 -17t15.5 -44zM897 1538q0 -37 -100 -113q-92 -68 -160 -67.5t-137 69.5q-47 43 -64 43q-47 0 -143 -90q-27 -23 -49 -22 q-25 0 -44.5 20.5t-19.5 44.5q0 37 101 113q92 68 159.5 68t137.5 -70q47 -43 63 -43q47 0 143 90q27 23 50 23q25 0 44 -20.5t19 -45.5z" />
<glyph glyph-name="Ograve" unicode="&#xd2;" d="M958 625q0 -160 -4 -255.5t-22.5 -175t-42 -116.5t-76.5 -62.5t-113.5 -32t-162.5 -6.5q-104 0 -164 6.5t-113 32t-76.5 62.5t-42 116.5t-22.5 175t-4 255t4 255t22.5 176.5t42 117.5t76.5 62.5t112.5 32t164.5 6q78 0 128 -3t97 -15.5t74.5 -30t52 -55t36 -79.5 t20.5 -115t11 -152.5t2 -198.5zM817 643q0 279 -24 375q-23 80 -78.5 105.5t-177.5 25.5q-131 0 -185.5 -28.5t-72.5 -116.5q-23 -94 -23 -361q0 -291 25 -395q18 -80 71.5 -113t184.5 -33q133 0 187 35t71 123q22 111 22 383zM754 1460q0 -23 -16.5 -52.5t-51.5 -29.5 q-16 0 -37 11l-272 120q-57 27 -58 72q0 31 20.5 51.5t51.5 20.5q16 0 39 -11l272 -122q18 -8 26.5 -13.5t17 -18t8.5 -28.5z" />
<glyph glyph-name="Oacute" unicode="&#xd3;" d="M958 625q0 -160 -4 -255.5t-22.5 -175t-42 -116.5t-76.5 -62.5t-113.5 -32t-162.5 -6.5q-104 0 -164 6.5t-113 32t-76.5 62.5t-42 116.5t-22.5 175t-4 255t4 255t22.5 176.5t42 117.5t76.5 62.5t112.5 32t164.5 6q78 0 128 -3t97 -15.5t74.5 -30t52 -55t36 -79.5 t20.5 -115t11 -152.5t2 -198.5zM817 643q0 279 -24 375q-23 80 -78.5 105.5t-177.5 25.5q-131 0 -185.5 -28.5t-72.5 -116.5q-23 -94 -23 -361q0 -291 25 -395q18 -80 71.5 -113t184.5 -33q133 0 187 35t71 123q22 111 22 383zM756 1581q0 -45 -58 -72l-272 -120 q-20 -10 -37 -11q-35 0 -51 30t-16 52q0 16 8 28.5t16 17.5t27 14l272 122l39 11q31 0 51.5 -20.5t20.5 -51.5z" />
<glyph glyph-name="Ocircumflex" unicode="&#xd4;" d="M958 625q0 -160 -4 -255.5t-22.5 -175t-42 -116.5t-76.5 -62.5t-113.5 -32t-162.5 -6.5q-104 0 -164 6.5t-113 32t-76.5 62.5t-42 116.5t-22.5 175t-4 255t4 255t22.5 176.5t42 117.5t76.5 62.5t112.5 32t164.5 6q78 0 128 -3t97 -15.5t74.5 -30t52 -55t36 -79.5 t20.5 -115t11 -152.5t2 -198.5zM817 643q0 279 -24 375q-23 80 -78.5 105.5t-177.5 25.5q-131 0 -185.5 -28.5t-72.5 -116.5q-23 -94 -23 -361q0 -291 25 -395q18 -80 71.5 -113t184.5 -33q133 0 187 35t71 123q22 111 22 383zM801 1477q53 -20 34.5 -75.5t-73.5 -39.5 l-223 68l-224 -68q-55 -16 -73.5 39t37.5 76l241 88q20 6 39 0z" />
<glyph glyph-name="Otilde" unicode="&#xd5;" d="M958 625q0 -160 -4 -255.5t-22.5 -175t-42 -116.5t-76.5 -62.5t-113.5 -32t-162.5 -6.5q-104 0 -164 6.5t-113 32t-76.5 62.5t-42 116.5t-22.5 175t-4 255t4 255t22.5 176.5t42 117.5t76.5 62.5t112.5 32t164.5 6q78 0 128 -3t97 -15.5t74.5 -30t52 -55t36 -79.5 t20.5 -115t11 -152.5t2 -198.5zM817 643q0 279 -24 375q-23 80 -78.5 105.5t-177.5 25.5q-131 0 -185.5 -28.5t-72.5 -116.5q-23 -94 -23 -361q0 -291 25 -395q18 -80 71.5 -113t184.5 -33q133 0 187 35t71 123q22 111 22 383zM897 1538q0 -37 -100 -113q-92 -68 -160 -67.5 t-137 69.5q-47 43 -64 43q-47 0 -143 -90q-27 -23 -49 -22q-25 0 -44.5 20.5t-19.5 44.5q0 37 101 113q92 68 159.5 68t137.5 -70q47 -43 63 -43q47 0 143 90q27 23 50 23q25 0 44 -20.5t19 -45.5z" />
<glyph glyph-name="Odieresis" unicode="&#xd6;" d="M958 625q0 -160 -4 -255.5t-22.5 -175t-42 -116.5t-76.5 -62.5t-113.5 -32t-162.5 -6.5q-104 0 -164 6.5t-113 32t-76.5 62.5t-42 116.5t-22.5 175t-4 255t4 255t22.5 176.5t42 117.5t76.5 62.5t112.5 32t164.5 6q78 0 128 -3t97 -15.5t74.5 -30t52 -55t36 -79.5 t20.5 -115t11 -152.5t2 -198.5zM817 643q0 279 -24 375q-23 80 -78.5 105.5t-177.5 25.5q-131 0 -185.5 -28.5t-72.5 -116.5q-23 -94 -23 -361q0 -291 25 -395q18 -80 71.5 -113t184.5 -33q133 0 187 35t71 123q22 111 22 383zM430 1450q0 -39 -26.5 -65.5t-65.5 -26.5 t-65.5 26.5t-26.5 65.5t26.5 65.5t65.5 26.5t65.5 -26.5t26.5 -65.5zM829 1450q0 -39 -26.5 -65.5t-65.5 -26.5t-65.5 26.5t-26.5 65.5t26.5 65.5t65.5 26.5t65.5 -26.5t26.5 -65.5z" />
<glyph glyph-name="multiply" unicode="&#xd7;" d="M862 301q-47 -47 -119 16l-206 209l-205 -207q-72 -66 -119 -16q-49 47 16 119l207 205l-209 207q-63 72 -16 118.5t119 -16.5l207 -209l204 207q72 66 119 16q49 -47 -16 -119l-207 -204l209 -207q63 -72 16 -119z" />
<glyph glyph-name="Oslash" unicode="&#xd8;" d="M958 625q0 -160 -4 -255.5t-22.5 -175t-42 -116.5t-76.5 -62.5t-113.5 -32t-162.5 -6.5q-90 0 -144 5l-31 -95q-18 -61 -61 -61q-8 0 -18.5 2t-28.5 18.5t-18 40.5q0 16 34 121q-72 33 -102.5 98.5t-42.5 194.5q-10 98 -10 324q0 160 4 255t22.5 176t42 117.5t76.5 62.5 t112.5 32t164.5 6q90 0 143 -4l31 94q18 61 61 61q8 0 18.5 -2t29 -18t18.5 -41q0 -16 -35 -121q96 -41 125.5 -166.5t29.5 -451.5zM844 627q0 195 -14.5 302t-29 130.5t-42.5 46.5l-324 -997q12 -4 23 -5q23 -2 80 -2q133 0 194.5 26t85.5 112q27 98 27 387zM639 1143 q-12 4 -23 4q-23 2 -79 2q-133 0 -194.5 -25.5t-86.5 -111.5q-27 -98 -27 -387q0 -195 14.5 -302.5t29 -131t42.5 -46.5z" />
<glyph glyph-name="Ugrave" unicode="&#xd9;" d="M1065 1190q0 -63 -84 -64h-61v-708q0 -186 -114 -313.5t-269.5 -127.5t-269 127t-113.5 314v708h-62q-84 0 -84 64q0 61 84 61h264q84 0 84 -61q0 -63 -84 -64h-61v-698q0 -154 74.5 -240t167.5 -86q90 0 165.5 87t75.5 239v698h-61q-84 0 -84 64q0 61 84 61h264 q84 0 84 -61zM754 1460q0 -23 -16.5 -52.5t-51.5 -29.5q-16 0 -37 11l-272 120q-57 27 -58 72q0 31 20.5 51.5t51.5 20.5q16 0 39 -11l272 -122q18 -8 26.5 -13.5t17 -18t8.5 -28.5z" />
<glyph glyph-name="Uacute" unicode="&#xda;" d="M1065 1190q0 -63 -84 -64h-61v-708q0 -186 -114 -313.5t-269.5 -127.5t-269 127t-113.5 314v708h-62q-84 0 -84 64q0 61 84 61h264q84 0 84 -61q0 -63 -84 -64h-61v-698q0 -154 74.5 -240t167.5 -86q90 0 165.5 87t75.5 239v698h-61q-84 0 -84 64q0 61 84 61h264 q84 0 84 -61zM756 1581q0 -45 -58 -72l-272 -120q-20 -10 -37 -11q-35 0 -51 30t-16 52q0 16 8 28.5t16 17.5t27 14l272 122l39 11q31 0 51.5 -20.5t20.5 -51.5z" />
<glyph glyph-name="Ucircumflex" unicode="&#xdb;" d="M1065 1190q0 -63 -84 -64h-61v-708q0 -186 -114 -313.5t-269.5 -127.5t-269 127t-113.5 314v708h-62q-84 0 -84 64q0 61 84 61h264q84 0 84 -61q0 -63 -84 -64h-61v-698q0 -154 74.5 -240t167.5 -86q90 0 165.5 87t75.5 239v698h-61q-84 0 -84 64q0 61 84 61h264 q84 0 84 -61zM801 1477q53 -20 34.5 -75.5t-73.5 -39.5l-223 68l-224 -68q-55 -16 -73.5 39t37.5 76l241 88q20 6 39 0z" />
<glyph glyph-name="Udieresis" unicode="&#xdc;" d="M1065 1190q0 -63 -84 -64h-61v-708q0 -186 -114 -313.5t-269.5 -127.5t-269 127t-113.5 314v708h-62q-84 0 -84 64q0 61 84 61h264q84 0 84 -61q0 -63 -84 -64h-61v-698q0 -154 74.5 -240t167.5 -86q90 0 165.5 87t75.5 239v698h-61q-84 0 -84 64q0 61 84 61h264 q84 0 84 -61zM430 1450q0 -39 -26.5 -65.5t-65.5 -26.5t-65.5 26.5t-26.5 65.5t26.5 65.5t65.5 26.5t65.5 -26.5t26.5 -65.5zM829 1450q0 -39 -26.5 -65.5t-65.5 -26.5t-65.5 26.5t-26.5 65.5t26.5 65.5t65.5 26.5t65.5 -26.5t26.5 -65.5z" />
<glyph glyph-name="Yacute" unicode="&#xdd;" d="M1034 1188q0 -61 -82 -62h-43l-301 -626v-375h51q25 0 38.5 -2t28.5 -17.5t15 -44.5q0 -61 -82 -61h-243q-25 0 -38 2t-28.5 17.5t-15.5 43.5q0 61 82 62h51v375l-303 626h-43q-25 0 -38 2t-28.5 17.5t-15.5 44.5q0 61 82 61h213q82 0 82 -61q0 -31 -15.5 -45.5 t-31 -16.5t-47.5 -2q195 -408 215 -483l215 483q-33 0 -48.5 2t-31 16.5t-15.5 45.5q0 61 82 61h213q25 0 38.5 -2t28.5 -17t15 -44zM756 1581q0 -45 -58 -72l-272 -120q-20 -10 -37 -11q-35 0 -51 30t-16 52q0 16 8 28.5t16 17.5t27 14l272 122l39 11q31 0 51.5 -20.5 t20.5 -51.5z" />
<glyph glyph-name="Thorn" unicode="&#xde;" d="M963 626.5q0 -149.5 -107.5 -262t-280.5 -112.5h-256v-127h52q25 0 38 -2t28.5 -17.5t15.5 -44.5q0 -61 -82 -61h-244q-82 0 -82 61q0 29 15.5 44.5t28.5 17.5t38 2h51v1001h-51q-82 0 -82 62q0 29 15.5 44t28.5 17t38 2h244q25 0 38 -2t28.5 -17t15.5 -44q0 -61 -82 -62 h-52v-125h256q170 0 279 -112.5t109 -262zM821 626.5q0 94.5 -74.5 172.5t-209.5 78h-218v-500h218q135 0 209.5 77.5t74.5 172z" />
<glyph glyph-name="germandbls" unicode="&#xdf;" d="M1014 358q0 -162 -114 -266t-261 -104q-98 0 -153.5 46t-55.5 107q0 39 24.5 62.5t59.5 23.5q41 0 66 -32q14 -20 14 -74q16 -8 45 -8q88 0 160.5 67.5t72.5 177.5q0 51 -14 109.5t-48 125t-105.5 113t-167.5 52.5q-49 10 -50 61q0 59 58 64q137 4 202.5 56t65.5 99 q0 39 -65.5 70t-157.5 31q-86 0 -152 -29q-47 -20 -58 -40.5t-11 -57.5v-928q0 -49 -16.5 -66.5t-65.5 -17.5h-170q-82 0 -82 61q0 29 15.5 44.5t28.5 17.5t38 2h110v633h-110q-82 0 -82 61q0 29 15.5 44.5t28.5 17.5t38 2h110v143q0 68 38 117t97.5 73.5t117 36t112.5 11.5 q152 0 257 -62.5t105 -161.5q0 -139 -170 -231q131 -92 180.5 -217t49.5 -234z" />
<glyph glyph-name="agrave" unicode="&#xe0;" d="M1073 63q0 -31 -15.5 -45t-32.5 -16t-54 -2q-174 0 -221 66q-119 -78 -299 -78q-152 0 -245 82t-93 192q0 143 166.5 222t447.5 83q0 104 -69.5 156.5t-192.5 52.5q-45 0 -74 -2q-31 -2 -37 -6t-6 -16q-2 -51 -30.5 -73t-59.5 -22q-39 0 -65.5 25t-26.5 70q0 150 297 149 q203 0 304 -96t101 -221v-443q43 -16 123 -16q82 -1 82 -62zM727 274v172q-219 -6 -346 -57t-127 -127q0 -61 59.5 -105t151.5 -44q109 0 182 34q37 16 55.5 40t21.5 40t3 47zM754 1081q0 -23 -16.5 -52.5t-51.5 -29.5q-16 0 -37 11l-272 120q-57 27 -58 72q0 31 20.5 51.5 t51.5 20.5q16 0 39 -10l272 -123q18 -8 26.5 -13.5t17 -18t8.5 -28.5z" />
<glyph glyph-name="aacute" unicode="&#xe1;" d="M1073 63q0 -31 -15.5 -45t-32.5 -16t-54 -2q-174 0 -221 66q-119 -78 -299 -78q-152 0 -245 82t-93 192q0 143 166.5 222t447.5 83q0 104 -69.5 156.5t-192.5 52.5q-45 0 -74 -2q-31 -2 -37 -6t-6 -16q-2 -51 -30.5 -73t-59.5 -22q-39 0 -65.5 25t-26.5 70q0 150 297 149 q203 0 304 -96t101 -221v-443q43 -16 123 -16q82 -1 82 -62zM727 274v172q-219 -6 -346 -57t-127 -127q0 -61 59.5 -105t151.5 -44q109 0 182 34q37 16 55.5 40t21.5 40t3 47zM756 1202q0 -45 -58 -72l-272 -120q-20 -10 -37 -11q-35 0 -51 30t-16 52q0 16 8 28.5t16 18 t27 13.5l272 123l39 10q31 0 51.5 -20.5t20.5 -51.5z" />
<glyph glyph-name="acircumflex" unicode="&#xe2;" d="M1073 63q0 -31 -15.5 -45t-32.5 -16t-54 -2q-174 0 -221 66q-119 -78 -299 -78q-152 0 -245 82t-93 192q0 143 166.5 222t447.5 83q0 104 -69.5 156.5t-192.5 52.5q-45 0 -74 -2q-31 -2 -37 -6t-6 -16q-2 -51 -30.5 -73t-59.5 -22q-39 0 -65.5 25t-26.5 70q0 150 297 149 q203 0 304 -96t101 -221v-443q43 -16 123 -16q82 -1 82 -62zM727 274v172q-219 -6 -346 -57t-127 -127q0 -61 59.5 -105t151.5 -44q109 0 182 34q37 16 55.5 40t21.5 40t3 47zM813 1110q51 -33 19.5 -82t-82.5 -18l-211 127l-211 -127q-51 -31 -83 19t19 83l242 154 q31 20 61 0z" />
<glyph glyph-name="atilde" unicode="&#xe3;" d="M1073 63q0 -31 -15.5 -45t-32.5 -16t-54 -2q-174 0 -221 66q-119 -78 -299 -78q-152 0 -245 82t-93 192q0 143 166.5 222t447.5 83q0 104 -69.5 156.5t-192.5 52.5q-45 0 -74 -2q-31 -2 -37 -6t-6 -16q-2 -51 -30.5 -73t-59.5 -22q-39 0 -65.5 25t-26.5 70q0 150 297 149 q203 0 304 -96t101 -221v-443q43 -16 123 -16q82 -1 82 -62zM727 274v172q-219 -6 -346 -57t-127 -127q0 -61 59.5 -105t151.5 -44q109 0 182 34q37 16 55.5 40t21.5 40t3 47zM897 1194q0 -37 -100 -113q-92 -68 -160 -67.5t-137 69.5q-47 43 -64 43q-47 0 -143 -90 q-27 -23 -49 -22q-25 0 -44.5 20.5t-19.5 44.5q0 37 101 113q92 68 159.5 68t137.5 -70q47 -43 63 -43q47 0 143 90q27 23 50 23q25 0 44 -20.5t19 -45.5z" />
<glyph glyph-name="adieresis" unicode="&#xe4;" d="M1073 63q0 -31 -15.5 -45t-32.5 -16t-54 -2q-174 0 -221 66q-119 -78 -299 -78q-152 0 -245 82t-93 192q0 143 166.5 222t447.5 83q0 104 -69.5 156.5t-192.5 52.5q-45 0 -74 -2q-31 -2 -37 -6t-6 -16q-2 -51 -30.5 -73t-59.5 -22q-39 0 -65.5 25t-26.5 70q0 150 297 149 q203 0 304 -96t101 -221v-443q43 -16 123 -16q82 -1 82 -62zM727 274v172q-219 -6 -346 -57t-127 -127q0 -61 59.5 -105t151.5 -44q109 0 182 34q37 16 55.5 40t21.5 40t3 47zM461 1137q0 -39 -26.5 -66t-65.5 -27t-66 27t-27 66t27 65.5t66 26.5t65.5 -26.5t26.5 -65.5z M799 1137q0 -39 -27 -66t-65.5 -27t-65.5 27t-27 66t27 65.5t65.5 26.5t65.5 -26.5t27 -65.5z" />
<glyph glyph-name="aring" unicode="&#xe5;" d="M1073 63q0 -31 -15.5 -45t-32.5 -16t-54 -2q-174 0 -221 66q-119 -78 -299 -78q-152 0 -245 82t-93 192q0 143 166.5 222t447.5 83q0 104 -69.5 156.5t-192.5 52.5q-45 0 -74 -2q-31 -2 -37 -6t-6 -16q-2 -51 -30.5 -73t-59.5 -22q-39 0 -65.5 25t-26.5 70q0 150 297 149 q203 0 304 -96t101 -221v-443q43 -16 123 -16q82 -1 82 -62zM727 274v172q-219 -6 -346 -57t-127 -127q0 -61 59.5 -105t151.5 -44q109 0 182 34q37 16 55.5 40t21.5 40t3 47zM635 1155q0 29 -30 49.5t-66.5 20.5t-66.5 -20.5t-30 -49.5t30 -49.5t66.5 -20.5t66.5 20.5 t30 49.5zM737 1155q0 -59 -57 -103t-141 -44t-141.5 44t-57.5 103t57.5 103.5t141.5 44.5t141 -44.5t57 -103.5z" />
<glyph glyph-name="ae" unicode="&#xe6;" d="M1032 223q0 -29 -20.5 -80t-79 -103t-135.5 -52q-133 0 -232 141q-39 -66 -111.5 -103.5t-152.5 -37.5q-104 0 -168.5 77.5t-64.5 176.5q0 123 116.5 193.5t294.5 72.5v67q0 96 -44 148.5t-120 52.5q-53 0 -53 -8q0 -2 1 -8t1 -10q-2 -39 -23.5 -61.5t-37 -27t-29.5 -4.5 q-39 0 -65.5 25t-26.5 70q0 61 55.5 105t184.5 44q154 0 235 -147q86 147 219 147q115 0 185.5 -112.5t70.5 -311.5q0 -51 -14 -68.5t-68 -17.5h-352q12 -125 74.5 -201.5t134.5 -76.5q80 0 111 116q16 51 57 52q25 0 41 -17.5t16 -40.5zM915 514q-6 135 -46 198.5t-93 63.5 q-63 0 -115.5 -80t-62.5 -182h317zM479 387q-129 -4 -213 -42t-84 -101q0 -51 36 -91t95 -40q68 0 119 43q45 37 45 118q0 90 2 113z" />
<glyph glyph-name="ccedilla" unicode="&#xe7;" d="M954 223q0 -14 -12 -42.5t-38.5 -65.5t-80 -70t-123.5 -47v-16q102 -20 152.5 -77t50.5 -122q0 -51 -20.5 -88t-63.5 -59.5t-82 -36t-105.5 -18.5t-104.5 -6t-105 -1q-63 0 -64 64q0 31 16.5 45t37 16t69.5 2q281 0 281 82q0 33 -36 56.5t-101 25.5q-31 2 -46.5 16.5 t-17.5 28.5t-2 41v39q-176 14 -292.5 145t-116.5 307q0 74 25.5 149t78.5 147.5t149.5 117.5t221.5 45q305 0 305 -149q0 -43 -26.5 -69t-65.5 -26q-88 0 -90 101q0 18 -123 18q-96 0 -167 -37t-105 -94t-48 -107.5t-14 -95.5q0 -139 95 -234t226 -95q145 0 203 123 q10 29 24.5 37t43.5 8q71 -1 71 -58z" />
<glyph glyph-name="egrave" unicode="&#xe8;" d="M950 223q0 -23 -20.5 -58.5t-60.5 -77.5t-115.5 -70.5t-169.5 -28.5q-197 0 -334 134t-137 322.5t129 322.5t311 134q190 0 293.5 -124t103.5 -310q0 -27 -6 -43t-19.5 -23.5t-24.5 -8.5t-32 -1h-610q25 -127 122 -202.5t218 -75.5q160 0 213 123q10 29 24.5 37t43.5 8 q71 -1 71 -58zM805 514q-12 143 -84 202.5t-168 59.5q-106 0 -188 -74.5t-105 -187.5h545zM754 1081q0 -23 -16.5 -52.5t-51.5 -29.5q-16 0 -37 11l-272 120q-57 27 -58 72q0 31 20.5 51.5t51.5 20.5q16 0 39 -10l272 -123q18 -8 26.5 -13.5t17 -18t8.5 -28.5z" />
<glyph glyph-name="eacute" unicode="&#xe9;" d="M950 223q0 -23 -20.5 -58.5t-60.5 -77.5t-115.5 -70.5t-169.5 -28.5q-197 0 -334 134t-137 322.5t129 322.5t311 134q190 0 293.5 -124t103.5 -310q0 -27 -6 -43t-19.5 -23.5t-24.5 -8.5t-32 -1h-610q25 -127 122 -202.5t218 -75.5q160 0 213 123q10 29 24.5 37t43.5 8 q71 -1 71 -58zM805 514q-12 143 -84 202.5t-168 59.5q-106 0 -188 -74.5t-105 -187.5h545zM756 1202q0 -45 -58 -72l-272 -120q-20 -10 -37 -11q-35 0 -51 30t-16 52q0 16 8 28.5t16 18t27 13.5l272 123l39 10q31 0 51.5 -20.5t20.5 -51.5z" />
<glyph glyph-name="ecircumflex" unicode="&#xea;" d="M950 223q0 -23 -20.5 -58.5t-60.5 -77.5t-115.5 -70.5t-169.5 -28.5q-197 0 -334 134t-137 322.5t129 322.5t311 134q190 0 293.5 -124t103.5 -310q0 -27 -6 -43t-19.5 -23.5t-24.5 -8.5t-32 -1h-610q25 -127 122 -202.5t218 -75.5q160 0 213 123q10 29 24.5 37t43.5 8 q71 -1 71 -58zM805 514q-12 143 -84 202.5t-168 59.5q-106 0 -188 -74.5t-105 -187.5h545zM813 1110q51 -33 19.5 -82t-82.5 -18l-211 127l-211 -127q-51 -31 -83 19t19 83l242 154q31 20 61 0z" />
<glyph glyph-name="edieresis" unicode="&#xeb;" d="M950 223q0 -23 -20.5 -58.5t-60.5 -77.5t-115.5 -70.5t-169.5 -28.5q-197 0 -334 134t-137 322.5t129 322.5t311 134q190 0 293.5 -124t103.5 -310q0 -27 -6 -43t-19.5 -23.5t-24.5 -8.5t-32 -1h-610q25 -127 122 -202.5t218 -75.5q160 0 213 123q10 29 24.5 37t43.5 8 q71 -1 71 -58zM805 514q-12 143 -84 202.5t-168 59.5q-106 0 -188 -74.5t-105 -187.5h545zM461 1137q0 -39 -26.5 -66t-65.5 -27t-66 27t-27 66t27 65.5t66 26.5t65.5 -26.5t26.5 -65.5zM799 1137q0 -39 -27 -66t-65.5 -27t-65.5 27t-27 66t27 65.5t65.5 26.5t65.5 -26.5 t27 -65.5z" />
<glyph glyph-name="igrave" unicode="&#xec;" d="M932 61q0 -61 -84 -61h-604q-84 0 -84 61q0 63 84 64h248v633h-232q-84 0 -84 63q0 61 84 62h291q51 0 66.5 -17.5t15.5 -66.5v-674h215q84 -1 84 -64zM754 1081q0 -23 -16.5 -52.5t-51.5 -29.5q-16 0 -37 11l-272 120q-57 27 -58 72q0 31 20.5 51.5t51.5 20.5 q16 0 39 -10l272 -123q18 -8 26.5 -13.5t17 -18t8.5 -28.5z" />
<glyph glyph-name="iacute" unicode="&#xed;" d="M932 61q0 -61 -84 -61h-604q-84 0 -84 61q0 63 84 64h248v633h-232q-84 0 -84 63q0 61 84 62h291q51 0 66.5 -17.5t15.5 -66.5v-674h215q84 -1 84 -64zM756 1202q0 -45 -58 -72l-272 -120q-20 -10 -37 -11q-35 0 -51 30t-16 52q0 16 8 28.5t16 18t27 13.5l272 123l39 10 q31 0 51.5 -20.5t20.5 -51.5z" />
<glyph glyph-name="icircumflex" unicode="&#xee;" d="M932 61q0 -61 -84 -61h-604q-84 0 -84 61q0 63 84 64h248v633h-232q-84 0 -84 63q0 61 84 62h291q51 0 66.5 -17.5t15.5 -66.5v-674h215q84 -1 84 -64zM813 1110q51 -33 19.5 -82t-82.5 -18l-211 127l-211 -127q-51 -31 -83 19t19 83l242 154q31 20 61 0z" />
<glyph glyph-name="idieresis" unicode="&#xef;" d="M932 61q0 -61 -84 -61h-604q-84 0 -84 61q0 63 84 64h248v633h-232q-84 0 -84 63q0 61 84 62h291q51 0 66.5 -17.5t15.5 -66.5v-674h215q84 -1 84 -64zM461 1137q0 -39 -26.5 -66t-65.5 -27t-66 27t-27 66t27 65.5t66 26.5t65.5 -26.5t26.5 -65.5zM799 1137 q0 -39 -27 -66t-65.5 -27t-65.5 27t-27 66t27 65.5t65.5 26.5t65.5 -26.5t27 -65.5z" />
<glyph glyph-name="eth" unicode="&#xf0;" d="M956 442q0 -193 -124.5 -323.5t-294.5 -130.5q-172 0 -296 131t-124 323q0 190 124 324.5t296 134.5q135 0 245 -88q-25 129 -82 213l-36 -39q-20 -20 -47 -20t-45.5 18.5t-18.5 44.5q0 23 18 45l35 35q-53 29 -123 29q-27 0 -45 18.5t-18 45t18.5 45t44.5 18.5 q119 0 211 -64l43 45q18 18 45 18.5t45.5 -18t18.5 -45t-17 -43.5l-45 -45q172 -223 172 -672zM815 457q0 137 -83 228t-195.5 91t-195.5 -91t-83 -228q0 -141 82 -242.5t196.5 -101.5t196.5 101.5t82 242.5z" />
<glyph glyph-name="ntilde" unicode="&#xf1;" d="M1049 61q0 -61 -82 -61h-314q-84 0 -84 61q0 63 84 64h80v465q0 96 -29.5 138t-107.5 42q-94 0 -175 -71.5t-81 -211.5v-362h90q84 0 84 -64q0 -61 -82 -61h-326q-82 0 -81 61q0 63 84 64h90v633h-93q-82 0 -81 61q0 63 84 64h149q31 0 47.5 -5.5t24.5 -19.5t9 -27.5 t1 -44.5q109 109 268 109q266 0 266 -295v-475h91q84 -1 84 -64zM897 1194q0 -37 -100 -113q-92 -68 -160 -67.5t-137 69.5q-47 43 -64 43q-47 0 -143 -90q-27 -23 -49 -22q-25 0 -44.5 20.5t-19.5 44.5q0 37 101 113q92 68 159.5 68t137.5 -70q47 -43 63 -43q47 0 143 90 q27 23 50 23q25 0 44 -20.5t19 -45.5z" />
<glyph glyph-name="ograve" unicode="&#xf2;" d="M956 442.5q0 -190.5 -123.5 -322.5t-295.5 -132t-296 131t-124 323q0 190 124 324.5t296 134.5t295.5 -134t123.5 -324.5zM815 457q0 137 -83 228t-195.5 91t-195.5 -91t-83 -228q0 -141 82 -242.5t196.5 -101.5t196.5 101.5t82 242.5zM754 1081q0 -23 -16.5 -52.5 t-51.5 -29.5q-16 0 -37 11l-272 120q-57 27 -58 72q0 31 20.5 51.5t51.5 20.5q16 0 39 -10l272 -123q18 -8 26.5 -13.5t17 -18t8.5 -28.5z" />
<glyph glyph-name="oacute" unicode="&#xf3;" d="M956 442.5q0 -190.5 -123.5 -322.5t-295.5 -132t-296 131t-124 323q0 190 124 324.5t296 134.5t295.5 -134t123.5 -324.5zM815 457q0 137 -83 228t-195.5 91t-195.5 -91t-83 -228q0 -141 82 -242.5t196.5 -101.5t196.5 101.5t82 242.5zM756 1202q0 -45 -58 -72l-272 -120 q-20 -10 -37 -11q-35 0 -51 30t-16 52q0 16 8 28.5t16 18t27 13.5l272 123l39 10q31 0 51.5 -20.5t20.5 -51.5z" />
<glyph glyph-name="ocircumflex" unicode="&#xf4;" d="M956 442.5q0 -190.5 -123.5 -322.5t-295.5 -132t-296 131t-124 323q0 190 124 324.5t296 134.5t295.5 -134t123.5 -324.5zM815 457q0 137 -83 228t-195.5 91t-195.5 -91t-83 -228q0 -141 82 -242.5t196.5 -101.5t196.5 101.5t82 242.5zM813 1110q51 -33 19.5 -82 t-82.5 -18l-211 127l-211 -127q-51 -31 -83 19t19 83l242 154q31 20 61 0z" />
<glyph glyph-name="otilde" unicode="&#xf5;" d="M956 442.5q0 -190.5 -123.5 -322.5t-295.5 -132t-296 131t-124 323q0 190 124 324.5t296 134.5t295.5 -134t123.5 -324.5zM815 457q0 137 -83 228t-195.5 91t-195.5 -91t-83 -228q0 -141 82 -242.5t196.5 -101.5t196.5 101.5t82 242.5zM897 1194q0 -37 -100 -113 q-92 -68 -160 -67.5t-137 69.5q-47 43 -64 43q-47 0 -143 -90q-27 -23 -49 -22q-25 0 -44.5 20.5t-19.5 44.5q0 37 101 113q92 68 159.5 68t137.5 -70q47 -43 63 -43q47 0 143 90q27 23 50 23q25 0 44 -20.5t19 -45.5z" />
<glyph glyph-name="odieresis" unicode="&#xf6;" d="M956 442.5q0 -190.5 -123.5 -322.5t-295.5 -132t-296 131t-124 323q0 190 124 324.5t296 134.5t295.5 -134t123.5 -324.5zM815 457q0 137 -83 228t-195.5 91t-195.5 -91t-83 -228q0 -141 82 -242.5t196.5 -101.5t196.5 101.5t82 242.5zM461 1137q0 -39 -26.5 -66 t-65.5 -27t-66 27t-27 66t27 65.5t66 26.5t65.5 -26.5t26.5 -65.5zM799 1137q0 -39 -27 -66t-65.5 -27t-65.5 27t-27 66t27 65.5t65.5 26.5t65.5 -26.5t27 -65.5z" />
<glyph glyph-name="divide" unicode="&#xf7;" d="M995 626.5q0 -71.5 -92 -71.5h-733q-92 0 -92 71.5t104 71.5h709q104 0 104 -71.5zM664 1059q0 -49 -37 -88t-92 -39q-51 0 -89 37t-38 92q0 49 36.5 88t92.5 39q51 0 89 -37t38 -92zM664 190q0 -49 -37 -88t-92 -39q-51 0 -89 37t-38 93q0 49 36.5 87.5t92.5 38.5 q51 0 89 -37t38 -92z" />
<glyph glyph-name="oslash" unicode="&#xf8;" d="M985 1108q0 -18 -14 -43l-154 -266q164 -150 164 -357q0 -188 -131 -321t-313 -133q-90 0 -170 35l-158 -271q-20 -39 -55 -39q-23 0 -44.5 16.5t-21.5 45.5q0 18 35 78l135 233q-166 143 -166 356q0 188 130 323.5t315 135.5q84 0 174 -37l153 266q23 39 56 39 q23 0 44 -16t21 -45zM866 442q0 152 -112 250l-324 -563q51 -16 107 -16q135 0 232 96t97 233zM647 758q-53 18 -110 18q-135 0 -232.5 -98t-97.5 -236q0 -145 112 -249z" />
<glyph glyph-name="ugrave" unicode="&#xf9;" d="M1049 63q0 -63 -84 -63h-150q-25 0 -38 2t-28.5 17.5t-15.5 46.5q-102 -78 -244 -78q-291 0 -290 245v525h-93q-82 0 -81 61q0 63 84 64h149q51 0 66.5 -17.5t15.5 -66.5v-553q0 -33 3 -50.5t16.5 -40t49 -32.5t93.5 -10q31 0 64.5 7t74.5 26.5t66.5 64.5t25.5 111v436 h-92q-82 0 -82 61q0 63 84 64h150q51 0 66 -17.5t15 -66.5v-674h93q82 -1 82 -62zM754 1081q0 -23 -16.5 -52.5t-51.5 -29.5q-16 0 -37 11l-272 120q-57 27 -58 72q0 31 20.5 51.5t51.5 20.5q16 0 39 -10l272 -123q18 -8 26.5 -13.5t17 -18t8.5 -28.5z" />
<glyph glyph-name="uacute" unicode="&#xfa;" d="M1049 63q0 -63 -84 -63h-150q-25 0 -38 2t-28.5 17.5t-15.5 46.5q-102 -78 -244 -78q-291 0 -290 245v525h-93q-82 0 -81 61q0 63 84 64h149q51 0 66.5 -17.5t15.5 -66.5v-553q0 -33 3 -50.5t16.5 -40t49 -32.5t93.5 -10q31 0 64.5 7t74.5 26.5t66.5 64.5t25.5 111v436 h-92q-82 0 -82 61q0 63 84 64h150q51 0 66 -17.5t15 -66.5v-674h93q82 -1 82 -62zM756 1202q0 -45 -58 -72l-272 -120q-20 -10 -37 -11q-35 0 -51 30t-16 52q0 16 8 28.5t16 18t27 13.5l272 123l39 10q31 0 51.5 -20.5t20.5 -51.5z" />
<glyph glyph-name="ucircumflex" unicode="&#xfb;" d="M1049 63q0 -63 -84 -63h-150q-25 0 -38 2t-28.5 17.5t-15.5 46.5q-102 -78 -244 -78q-291 0 -290 245v525h-93q-82 0 -81 61q0 63 84 64h149q51 0 66.5 -17.5t15.5 -66.5v-553q0 -33 3 -50.5t16.5 -40t49 -32.5t93.5 -10q31 0 64.5 7t74.5 26.5t66.5 64.5t25.5 111v436 h-92q-82 0 -82 61q0 63 84 64h150q51 0 66 -17.5t15 -66.5v-674h93q82 -1 82 -62zM813 1110q51 -33 19.5 -82t-82.5 -18l-211 127l-211 -127q-51 -31 -83 19t19 83l242 154q31 20 61 0z" />
<glyph glyph-name="udieresis" unicode="&#xfc;" d="M1049 63q0 -63 -84 -63h-150q-25 0 -38 2t-28.5 17.5t-15.5 46.5q-102 -78 -244 -78q-291 0 -290 245v525h-93q-82 0 -81 61q0 63 84 64h149q51 0 66.5 -17.5t15.5 -66.5v-553q0 -33 3 -50.5t16.5 -40t49 -32.5t93.5 -10q31 0 64.5 7t74.5 26.5t66.5 64.5t25.5 111v436 h-92q-82 0 -82 61q0 63 84 64h150q51 0 66 -17.5t15 -66.5v-674h93q82 -1 82 -62zM461 1137q0 -39 -26.5 -66t-65.5 -27t-66 27t-27 66t27 65.5t66 26.5t65.5 -26.5t26.5 -65.5zM799 1137q0 -39 -27 -66t-65.5 -27t-65.5 27t-27 66t27 65.5t65.5 26.5t65.5 -26.5t27 -65.5z " />
<glyph glyph-name="yacute" unicode="&#xfd;" d="M1024 819q0 -61 -82 -61h-61l-318 -932q-8 -23 -15 -41t-36 -70.5t-60.5 -87.5t-84 -64.5t-109.5 -29.5q-74 0 -122 50t-48 118q0 41 24.5 65.5t65.5 24.5q39 0 63.5 -24.5t24.5 -63.5l-10 -45q104 6 164 119q12 23 31.5 79t32.5 100l14 44q0 6 -9 27l-290 731h-64 q-82 0 -82 61q0 29 15.5 44.5t29 17.5t37.5 2h240q25 0 38 -2t28.5 -17.5t15.5 -44.5q0 -61 -82 -61h-51l190 -492q39 -106 43 -121h2q16 70 53 177l148 436h-58q-25 0 -38 2t-28 17.5t-15 43.5q0 61 81 62h240q25 0 38 -2t28.5 -17.5t15.5 -44.5zM756 1202q0 -45 -58 -72 l-272 -120q-20 -10 -37 -11q-35 0 -51 30t-16 52q0 16 8 28.5t16 18t27 13.5l272 123l39 10q31 0 51.5 -20.5t20.5 -51.5z" />
<glyph glyph-name="thorn" unicode="&#xfe;" d="M999 442q0 -193 -125.5 -323.5t-295.5 -130.5q-135 0 -238 104v-422h90q84 0 84 -63q0 -61 -82 -62h-326q-82 0 -81 62q0 63 84 63h90v1456h-93q-82 0 -81 62q0 63 84 63h149q51 0 66.5 -17t15.5 -67v-372q111 100 260 100q164 0 281.5 -132.5t117.5 -320.5zM858 442 q0 135 -79 231.5t-191 96.5q-96 0 -172 -69.5t-76 -159.5v-150q0 -92 61.5 -185t169.5 -93q113 0 200 94t87 235z" />
<glyph glyph-name="ydieresis" unicode="&#xff;" d="M1024 819q0 -61 -82 -61h-61l-318 -932q-8 -23 -15 -41t-36 -70.5t-60.5 -87.5t-84 -64.5t-109.5 -29.5q-74 0 -122 50t-48 118q0 41 24.5 65.5t65.5 24.5q39 0 63.5 -24.5t24.5 -63.5l-10 -45q104 6 164 119q12 23 31.5 79t32.5 100l14 44q0 6 -9 27l-290 731h-64 q-82 0 -82 61q0 29 15.5 44.5t29 17.5t37.5 2h240q25 0 38 -2t28.5 -17.5t15.5 -44.5q0 -61 -82 -61h-51l190 -492q39 -106 43 -121h2q16 70 53 177l148 436h-58q-25 0 -38 2t-28 17.5t-15 43.5q0 61 81 62h240q25 0 38 -2t28.5 -17.5t15.5 -44.5zM461 1137q0 -39 -26.5 -66 t-65.5 -27t-66 27t-27 66t27 65.5t66 26.5t65.5 -26.5t26.5 -65.5zM799 1137q0 -39 -27 -66t-65.5 -27t-65.5 27t-27 66t27 65.5t65.5 26.5t65.5 -26.5t27 -65.5z" />
<glyph glyph-name="OE" unicode="&#x152;" d="M1028 84q0 -49 -16.5 -66.5t-65.5 -17.5h-338q-47 0 -88 -8q-70 -14 -125 -15q-160 0 -222 44.5t-85 144.5q-29 129 -29 461q0 338 31 473q23 98 91.5 136t213.5 38q57 0 117 -12q49 -10 96 -11h324q51 0 66.5 -17t15.5 -67v-149q0 -84 -57.5 -84t-57.5 84v108h-248v-415 h250q25 0 38 -2t28.5 -17.5t15.5 -44.5q0 -61 -82 -61h-250v-461h262v141q0 84 57.5 84t57.5 -84v-182zM537 352v547q0 158 -28 204t-106 46q-145 0 -188 -78q-39 -70 -41 -321v-107q0 -324 24 -408q29 -104 127 -125q34 -7 83 -8q76 0 102.5 48t26.5 202z" />
<glyph glyph-name="oe" unicode="&#x153;" d="M1034 221q0 -29 -18.5 -78t-71.5 -102t-129 -53q-82 0 -143.5 55t-96.5 127q-92 -182 -239 -182q-123 0 -210 131t-87 325.5t87 325.5t210 131q145 0 237 -178q86 178 222 178q106 0 172.5 -111.5t66.5 -312.5q0 -51 -15 -68.5t-67 -17.5h-317q10 -117 65.5 -197.5 t122.5 -80.5q70 0 97 116q10 51 57 52q23 0 40 -16.5t17 -43.5zM918 514q-6 139 -43 200.5t-80 61.5q-53 0 -100.5 -76.5t-57.5 -185.5h281zM518 457q0 137 -56 228t-126 91t-126 -90t-56 -229q0 -143 56 -243.5t126 -100.5t126 100.5t56 243.5z" />
<glyph glyph-name="Ydieresis" unicode="&#x178;" d="M1034 1188q0 -61 -82 -62h-43l-301 -626v-375h51q25 0 38.5 -2t28.5 -17.5t15 -44.5q0 -61 -82 -61h-243q-25 0 -38 2t-28.5 17.5t-15.5 43.5q0 61 82 62h51v375l-303 626h-43q-25 0 -38 2t-28.5 17.5t-15.5 44.5q0 61 82 61h213q82 0 82 -61q0 -31 -15.5 -45.5 t-31 -16.5t-47.5 -2q195 -408 215 -483l215 483q-33 0 -48.5 2t-31 16.5t-15.5 45.5q0 61 82 61h213q25 0 38.5 -2t28.5 -17t15 -44zM430 1450q0 -39 -26.5 -65.5t-65.5 -26.5t-65.5 26.5t-26.5 65.5t26.5 65.5t65.5 26.5t65.5 -26.5t26.5 -65.5zM829 1450 q0 -39 -26.5 -65.5t-65.5 -26.5t-65.5 26.5t-26.5 65.5t26.5 65.5t65.5 26.5t65.5 -26.5t26.5 -65.5z" />
<glyph glyph-name="circumflex" unicode="&#x2c6;" d="M813 1110q51 -33 19.5 -82t-82.5 -18l-211 127l-211 -127q-51 -31 -83 19t19 83l242 154q31 20 61 0z" />
<glyph glyph-name="tilde" unicode="&#x2dc;" d="M897 1194q0 -37 -100 -113q-92 -68 -160 -67.5t-137 69.5q-47 43 -64 43q-47 0 -143 -90q-27 -23 -49 -22q-25 0 -44.5 20.5t-19.5 44.5q0 37 101 113q92 68 159.5 68t137.5 -70q47 -43 63 -43q47 0 143 90q27 23 50 23q25 0 44 -20.5t19 -45.5z" />
<glyph glyph-name="endash" unicode="&#x2013;" d="M958 626.5q0 -71.5 -96 -71.5h-651q-96 0 -96 71.5t96 71.5h651q96 0 96 -71.5z" />
<glyph glyph-name="emdash" unicode="&#x2014;" d="M958 626.5q0 -71.5 -96 -71.5h-651q-96 0 -96 71.5t96 71.5h651q96 0 96 -71.5z" />
<glyph glyph-name="quoteleft" unicode="&#x2018;" d="M705 1329q0 -31 -37 -53q-168 -98 -168 -281q0 -31 8 -30q14 2 29 2q45 0 73.5 -30t28.5 -73q0 -41 -28.5 -71.5t-75.5 -30.5q-68 0 -114 60.5t-46 172.5q0 90 33.5 170t81 127t89.5 75t62 28q23 0 43.5 -19.5t20.5 -46.5z" />
<glyph glyph-name="quoteright" unicode="&#x2019;" d="M698 1018q0 -90 -33.5 -170t-80.5 -127t-89 -75t-63 -28q-23 0 -43 19.5t-20 46.5q0 31 37 53q168 98 167 281q0 31 -8 31q-14 -2 -28 -2q-45 0 -74 29.5t-29 72.5q0 41 29 71.5t76 30.5q68 0 113.5 -60t45.5 -173z" />
<glyph glyph-name="quotesinglbase" unicode="&#x201a;" d="M629 76l-27 -418q-4 -72 -63 -72q-61 0 -66 74l-27 416q-4 59 26 85.5t67 26.5q33 0 63.5 -24.5t26.5 -87.5z" />
<glyph glyph-name="quotedblleft" unicode="&#x201c;" d="M809 1161l-27 -418q-4 -72 -63 -71q-61 0 -66 73l-26 416q-4 59 25.5 86t66.5 27q33 0 63.5 -25t26.5 -88zM446 1161l-26 -418q-4 -72 -64 -71q-61 0 -65 73l-27 416q-4 59 25.5 86t66.5 27q33 0 63.5 -25t26.5 -88z" />
<glyph glyph-name="quotedblright" unicode="&#x201d;" d="M809 1161l-27 -418q-4 -72 -63 -71q-61 0 -66 73l-26 416q-4 59 25.5 86t66.5 27q33 0 63.5 -25t26.5 -88zM446 1161l-26 -418q-4 -72 -64 -71q-61 0 -65 73l-27 416q-4 59 25.5 86t66.5 27q33 0 63.5 -25t26.5 -88z" />
<glyph glyph-name="quotedblbase" unicode="&#x201e;" d="M809 76l-27 -418q-4 -72 -63 -72q-61 0 -66 74l-26 416q-4 59 25.5 85.5t66.5 26.5q33 0 63.5 -24.5t26.5 -87.5zM446 76l-26 -418q-4 -72 -64 -72q-61 0 -65 74l-27 416q-4 59 25.5 85.5t66.5 26.5q33 0 63.5 -24.5t26.5 -87.5z" />
<glyph glyph-name="bullet" unicode="&#x2022;" d="M821 477q0 -111 -79.5 -195.5t-204.5 -84.5q-113 0 -197 80.5t-84 203.5q0 111 80 196t205 85q113 0 196.5 -81t83.5 -204z" />
<glyph glyph-name="ellipsis" unicode="&#x2026;" d="M307 127q0 -49 -37 -88t-92 -39q-51 0 -89 37t-38 92q0 49 37 88t92 39q51 0 89 -37t38 -92zM666 127q0 -49 -37 -88t-92 -39q-51 0 -89 37t-38 92q0 49 36.5 88t92.5 39q51 0 89 -37t38 -92zM1024 127q0 -49 -37 -88t-92 -39q-51 0 -89 37t-38 92q0 49 37 88t92 39 q51 0 89 -37t38 -92z" />
<glyph glyph-name="guilsinglleft" unicode="&#x2039;" d="M813 231q0 -31 -13.5 -48t-31.5 -17q-14 0 -37 18l-446 385q-23 23 -23 58q0 33 29 61l440 381q23 18 37 18q18 0 31.5 -17t13.5 -48q0 -35 -31 -61l-385 -334l385 -334q31 -27 31 -62z" />
<glyph glyph-name="guilsinglright" unicode="&#x203a;" d="M813 627q0 -35 -22 -58l-447 -385q-23 -18 -37 -18q-18 0 -31.5 17.5t-13.5 47.5q0 35 31 62l385 334l-385 334q-31 27 -31 61q0 31 13.5 48t31.5 17q14 0 37 -18l440 -381q29 -28 29 -61z" />
<glyph glyph-name="Euro" unicode="&#x20ac;" d="M956 37q0 -25 -17 -42.5t-42 -17.5h-8q-29 0 -45 23l-21 25q-78 -47 -176 -48q-176 0 -299 201q-66 113 -92 254h-82q-23 0 -37 17.5t-8 39.5l8 33q8 37 45 37h58q-2 23 -2 68t2 67h-66q-23 0 -37 17.5t-8 40.5l8 32q8 37 45 37h74q27 143 92 252q123 201 299 201 q98 0 176 -47l21 26q16 20 45 21h8q25 0 42 -17.5t17 -42.5v-194q0 -25 -17 -42t-42 -17h-25q-51 0 -59 51q-8 57 -52 96t-104 39q-102 0 -186 -139q-47 -84 -70 -187h365q23 0 37 -18.5t8 -40.5l-8 -33q-6 -35 -45 -35h-375q-2 -23 -2 -67.5t2 -67.5h319q23 0 37.5 -18.5 t8.5 -40.5l-9 -33q-6 -35 -45 -35h-293q23 -104 70 -186q82 -141 186 -142q59 0 103.5 39t52.5 97q8 51 59 51h25q25 0 42 -17.5t17 -42.5v-194z" />
</font>
</defs>
</svg>
