<?xml version="1.0" standalone="no"?>
<!DOCTYPE svg PUBLIC "-//W3C//DTD SVG 1.1//EN" "http://www.w3.org/Graphics/SVG/1.1/DTD/svg11.dtd" >
<svg xmlns="http://www.w3.org/2000/svg">
<defs>
<font id="LMMonoProp10-Oblique" horiz-adv-x="1075" >
<font-face  font-family="LM Mono Prop 10" font-weight="400" font-style="oblique" font-stretch="normal" units-per-em="2048" panose-1="0 0 5 0 0 0 0 0 0 0" ascent="1593" descent="-455" x-height="883" cap-height="1251" bbox="-147.397 -477 2298.91 1612" underline-thickness="141" underline-position="-203" slope="-9.4626" unicode-range="U+0020-U+2122"/>
<missing-glyph horiz-adv-x="716" />
<glyph glyph-name=".notdef" horiz-adv-x="716" />
<glyph glyph-name=".null" horiz-adv-x="0" />
<glyph glyph-name="nonmarkingreturn" horiz-adv-x="682" />
<glyph glyph-name="space" unicode=" "  horiz-adv-x="716" />
<glyph glyph-bame="tab" unicode="&#x09;" horiz-adv-x="716" />
<glyph glyph-bame="uni00A0" unicode="&#xa0;" horiz-adv-x="716" />
<glyph glyph-name="exclam" unicode="!" horiz-adv-x="598" d="M594 1157q-10 -55 -32.5 -165.5t-31.5 -162.5l-67 -354q-14 -63 -30.5 -80.5t-70.5 -17.5q-20 0 -33.5 2t-27.5 14.5t-12 36.5l35 248l65 479q8 49 37 78t49.5 34t36.5 5t34.5 -5t37 -34t10.5 -78zM418 102q-6 -43 -41 -72.5t-78 -29.5t-67.5 29.5t-18.5 72.5q8 43 43 73 t78 30t67.5 -30t16.5 -73z" />
<glyph glyph-name="quotedbl" unicode="&#x22;" horiz-adv-x="884" d="M506 813q-2 -20 -19.5 -34.5t-35.5 -14.5h-50q-20 0 -31.5 14.5t-7.5 34.5l58 342q14 76 33 92q4 6 10 10q51 39 90 0q6 -4 10 -10q14 -20 0 -92zM793 813q-2 -20 -19.5 -34.5t-36.5 -14.5h-49q-20 0 -31.5 14.5t-7.5 34.5l58 342q14 76 32 92q4 6 11 10q51 39 90 0 q6 -4 10 -10q14 -20 0 -92z" />
<glyph glyph-name="numbersign" unicode="#" horiz-adv-x="1792" d="M1749 471q-10 -72 -115 -72h-456l-201 -340q-33 -59 -82 -59q-31 0 -47.5 21.5t-11.5 50.5q0 12 20 45l166 282h-309l-201 -340q-33 -59 -82 -59q-31 0 -47 21.5t-12 50.5q0 12 20 45l166 282h-266q-25 0 -42.5 2t-36.5 19.5t-15 50.5q12 72 104 72h340l98 168h-409 q-20 0 -35.5 2t-33 19.5t-11.5 49.5q12 72 117 72h458l197 338q33 59 82 59q31 0 47 -21.5t12 -49.5q-6 -23 -20 -45l-162 -281h309l197 338q33 59 82 59q31 0 47 -21.5t12 -49.5q-6 -23 -20 -45l-162 -281h264q25 0 42 -2t36.5 -19.5t13.5 -50.5q-12 -72 -104 -71h-338 l-98 -168h407q20 0 35.5 -2t33 -19.5t11.5 -50.5zM1204 711h-309l-98 -168h309z" />
<glyph glyph-name="dollar" unicode="$" d="M1014 350q-20 -121 -128 -226.5t-288 -131.5l-12 -78q-4 -25 -8.5 -38t-21.5 -29.5t-46 -16.5q-66 0 -49 84l12 76q-168 16 -243.5 115.5t-53.5 234.5q6 43 30.5 67.5t43 29.5t35.5 5q33 0 57.5 -25.5t17.5 -66.5q-8 -47 -45 -71q16 -139 181 -162l77 475 q-94 18 -160.5 54t-92 76t-42 83t-10.5 73.5t4 47.5q20 121 134 218t280 116l12 77q4 25 8.5 38.5t23 29.5t46.5 16q63 0 47 -84l-12 -75q170 -14 244.5 -106.5t54.5 -219.5q-16 -100 -109 -100q-39 0 -59 26.5t-16 63.5q10 43 43 67q-18 121 -181 142l-69 -426 q100 -20 168.5 -65.5t92.5 -96.5t35 -105.5t-1 -91.5zM598 735l66 400q-98 -16 -172 -72.5t-86 -128.5q-12 -74 45 -128.5t147 -70.5zM881 342q12 80 -39 141.5t-148 81.5l-73 -446q100 16 173 79.5t87 143.5z" />
<glyph glyph-name="percent" unicode="%" horiz-adv-x="1792" d="M1669 1350q-4 -23 -29 -54l-1177 -1423q-35 -43 -74 -43q-29 0 -46 21.5t-13 50.5q2 20 28 53l1182 1429q29 37 70 37q31 0 47 -21t12 -50zM887 1022q-27 -168 -134.5 -282.5t-230.5 -114.5t-192.5 113.5t-40.5 285.5q29 168 136 282.5t230 114.5t192 -113.5t40 -285.5z M1710 227q-29 -168 -136.5 -282.5t-230 -114.5t-191.5 113.5t-40 285.5q27 168 134.5 283t230 115t192.5 -114t41 -286zM1595 229q18 115 -24.5 194t-114.5 79t-141.5 -79t-87.5 -196q-20 -115 22.5 -193.5t114.5 -78.5t142.5 78.5t88.5 195.5zM772 1024q20 115 -22.5 193.5 t-114.5 78.5t-142.5 -78.5t-89.5 -195.5q-18 -115 25 -193.5t114.5 -78.5t141.5 78.5t88 195.5z" />
<glyph glyph-name="ampersand" unicode="&#x26;" horiz-adv-x="1673" d="M1702 819q-10 -61 -92 -61h-142l-217 -275q-58 -74 -123 -141q-72 -80 -139 -139q131 -100 277 -101q70 0 131 29t78 84q12 68 67 68h6t13.5 -4.5t15.5 -10.5t10 -19t2 -32q-14 -92 -110.5 -166t-233.5 -74q-180 0 -362 142q-201 -141 -408 -142q-162 0 -261 86.5 t-77 219.5q20 133 158 223l246 153q-43 160 -17 322q23 137 124.5 215t207.5 78q113 0 165 -87t36 -194q-14 -90 -102.5 -177t-270.5 -204q68 -182 221 -336q74 61 142.5 135t120 136.5t163.5 210.5h-155q-23 0 -36.5 2t-26.5 16.5t-9 42.5q10 63 92 64h434q25 0 38 -2 t25.5 -17.5t8.5 -44.5zM942 993q8 57 -17.5 106.5t-88.5 49.5q-57 0 -120 -41t-77 -127q-2 -10 -5 -41t-1 -93.5t14 -117.5q106 63 195.5 137t99.5 127zM801 201q-51 51 -117 149q-72 102 -106 195l-132 -79t-82.5 -56.5t-62.5 -61t-22 -61.5q-12 -78 51 -131.5t168 -53.5 q143 1 303 99z" />
<glyph glyph-name="quotesingle" unicode="'" horiz-adv-x="598" d="M506 813q-2 -20 -19.5 -34.5t-35.5 -14.5h-50q-20 0 -31.5 14.5t-7.5 34.5l58 342q14 76 33 92q4 6 10 10q51 39 90 0q6 -4 10 -10q14 -20 0 -92z" />
<glyph glyph-name="parenleft" unicode="(" horiz-adv-x="835" d="M696 -111q-2 -18 -20.5 -37.5t-52.5 -19.5q-39 0 -123 79t-144 185q-127 236 -77 531q25 147 91 282t144 225.5t159 158t138 98t78 30.5q61 0 53 -57q-2 -12 -5 -19.5t-12.5 -15.5t-14.5 -11l-25 -15q-143 -88 -246.5 -213t-152 -237t-66.5 -226q-33 -190 22.5 -371.5 t212.5 -302.5q20 -14 27.5 -20.5t11.5 -18t2 -25.5z" />
<glyph glyph-name="parenright" unicode=")" horiz-adv-x="835" d="M764 627q-25 -147 -91.5 -282.5t-144 -225.5t-158.5 -157.5t-138.5 -98.5t-77.5 -31q-59 0 -54 57q4 31 58 62q111 68 196.5 155t139 178t84 175t45.5 168q10 66 11 135t-15.5 169.5t-80 202t-167.5 179.5q-29 18 -25 51q2 18 21.5 37.5t52.5 19.5q39 0 123 -78.5 t143 -185.5q127 -235 78 -530z" />
<glyph glyph-name="asterisk" unicode="*" d="M1008 438q-4 -25 -28 -46t-52 -21q-20 0 -70 32l-174 115q-6 -82 -35 -248q-10 -86 -82 -86q-63 0 -53 86q31 172 47 248l-278 -147q-37 0 -55.5 15t-15.5 30.5t1 21.5q2 18 14.5 32.5t19.5 19t27 16.5l242 121l-203 121q-45 27 -39 65q4 25 28 46.5t52 21.5q18 0 43 -19 l201 -129q6 82 35 248q10 86 82 86q63 0 53 -86q-31 -172 -47 -248l278 148q37 0 55.5 -15.5t15.5 -31t-1 -21.5q-4 -27 -18.5 -40t-42.5 -28l-242 -120q211 -123 221 -131q29 -15 21 -56z" />
<glyph glyph-name="plus" unicode="+" horiz-adv-x="1673" d="M1657 627q-12 -72 -109 -72h-549l-90 -549l-2 -9q-2 -9 -3 -13t-4 -13.5t-6 -14.5l-8 -13.5t-11.5 -13.5t-14.5 -10t-17 -7t-22 -2q-47 0 -57 39t2 57l90 549h-549q-23 0 -38 2t-33.5 19.5t-12.5 50.5q12 72 109 71h549l92 549q16 96 86 96q74 0 57 -96l-92 -549h549 q23 0 38 -2t33.5 -19t12.5 -50z" />
<glyph glyph-name="comma" unicode="," horiz-adv-x="598" d="M430 20q-20 -121 -104 -213t-129 -92q-25 0 -42.5 20.5t-13.5 43.5q4 27 39 53q88 61 119 168q-45 4 -66.5 27.5t-19.5 44t0 30.5q8 43 42 73t79 30q53 0 81.5 -46.5t14.5 -138.5z" />
<glyph glyph-name="hyphen" unicode="-" horiz-adv-x="716" d="M670 440q-10 -61 -92 -61h-408q-25 0 -38 2t-25.5 17.5t-8.5 43.5q10 61 92 62h408q25 0 38 -2t25.5 -17.5t8.5 -44.5z" />
<glyph glyph-name="period" unicode="." horiz-adv-x="598" d="M418 102q-6 -43 -41 -72.5t-78 -29.5t-67.5 29.5t-18.5 72.5q8 43 43 73t78 30t67.5 -30t16.5 -73z" />
<glyph glyph-name="slash" unicode="/" d="M1180 1350q-2 -12 -25 -50l-911 -1413q-35 -57 -82 -57q-31 0 -47.5 21.5t-12.5 50.5q2 12 25 49l911 1413q35 57 82 57q31 0 47.5 -21t12.5 -50z" />
<glyph glyph-name="zero" unicode="0" d="M1075 625l-14 -79t-26.5 -106.5t-45 -127t-67.5 -121t-95.5 -110.5t-128 -74t-166.5 -30q-432 0 -325 650l14 78.5t26.5 106.5t45 127t67.5 120.5t95.5 110.5t128 74t166.5 30q431 0 325 -649zM938 645q82 504 -209 504q-295 0 -377 -504q-92 -543 201 -543t385 543z" />
<glyph glyph-name="one" unicode="1" d="M915 61q-10 -61 -92 -61h-514q-23 0 -36 2t-26.5 16.5t-8.5 42.5q10 63 92 64h186l158 948q-98 -49 -217 -49q-72 0 -62 61q10 59 72 64q168 8 258 90q35 35 63 35q63 0 48 -84l-179 -1065h187q25 0 38 -2t25 -17.5t8 -44.5z" />
<glyph glyph-name="two" unicode="2" d="M981 84q-8 -49 -27.5 -66.5t-68.5 -17.5h-695q-25 0 -38 2t-26 17.5t-9 43.5q6 31 41 56l516 381q268 197 297 374q23 129 -60.5 202t-218.5 73q-84 0 -158.5 -44t-107.5 -114q25 -20 16 -65q-6 -41 -37.5 -66.5t-66.5 -25.5q-33 0 -58.5 23.5t-17.5 74.5 q23 135 154 238.5t307 103.5q193 0 306.5 -109.5t82.5 -290.5q-35 -211 -291 -409q-57 -47 -234 -174l-229 -166h488q6 37 11 52.5t23.5 29.5t53.5 14q45 0 55 -27.5t0 -56.5z" />
<glyph glyph-name="three" unicode="3" d="M1042 356q-25 -150 -168 -264.5t-337 -114.5q-193 0 -307.5 83t-92.5 219q8 47 39 71.5t70 24.5t59.5 -26.5t13.5 -63.5q-6 -39 -34 -64q25 -63 107.5 -91t164.5 -28q133 0 230.5 77t113.5 177q16 98 -52.5 177t-211.5 79h-94q-25 0 -38 2t-25.5 17.5t-8.5 44.5 q8 41 34.5 51t125.5 16q123 6 200 62q96 72 115 178q12 70 -48 118t-165 48q-164 0 -239 -64q16 -16 10 -55q-8 -41 -40 -66.5t-67 -25.5t-58.5 24.5t-16.5 71.5q18 109 132.5 174.5t297.5 65.5q172 0 264 -85t71 -204q-33 -190 -221 -301q96 -47 145 -134.5t31 -193.5z" />
<glyph glyph-name="four" unicode="4" d="M1081 408q-10 -61 -92 -62h-160l-36 -221h127q25 0 38 -2t25 -17.5t8 -44.5q-10 -61 -92 -61h-369q-23 0 -36 2t-26 16.5t-9 42.5q10 63 92 64h127l37 221h-516q-49 0 -62.5 16.5t-5.5 65.5q6 43 31 72l588 733q25 31 40 37t54 6h57q51 0 65.5 -16.5t4.5 -67.5l-121 -721 h160q25 0 38 -2t25 -17t8 -44zM735 471l121 715l-575 -715h454z" />
<glyph glyph-name="five" unicode="5" d="M1032 389q-29 -170 -183.5 -291t-344.5 -121q-170 0 -270.5 92.5t-77.5 221.5q8 53 41.5 75.5t66.5 22.5q35 0 58.5 -24.5t15.5 -67.5q-6 -39 -37 -66q45 -129 223 -129q131 0 238.5 83t128.5 204q18 109 -38 196t-175 87q-170 0 -277 -103q-29 -31 -65 -30 q-43 0 -52.5 27.5t1.5 56.5l90 544q8 49 27.5 66.5t68.5 17.5h551q25 0 38 -2t25.5 -17t8.5 -44q-10 -61 -93 -62h-491l-66 -389q121 59 256 60q174 0 266.5 -123t65.5 -285z" />
<glyph glyph-name="six" unicode="6" d="M1030 395q-31 -180 -176 -299t-317 -119q-178 0 -279.5 151t-46.5 484q33 199 139.5 353.5t243.5 231.5t276 77q137 0 194.5 -62.5t43.5 -148.5q-8 -45 -39 -70.5t-69.5 -25.5t-60 26.5t-15.5 63.5q6 39 30 59q-27 33 -106 33q-143 0 -283.5 -125t-195.5 -332 q152 119 325 119q170 0 267.5 -121t68.5 -295zM889 395q20 117 -42.5 203t-182.5 86q-117 0 -209.5 -66.5t-108.5 -162.5q-12 -92 -4 -127q37 -225 215 -226q115 0 213.5 82t118.5 211z" />
<glyph glyph-name="seven" unicode="7" d="M1182 1188q-4 -20 -13.5 -30.5t-44.5 -39.5q-55 -47 -111.5 -101t-139 -155.5t-150.5 -212t-130.5 -267.5t-92.5 -323q-14 -82 -84 -82t-56 97q16 98 52.5 209.5t103 256t182 299t263.5 287.5h-541q-6 -37 -11.5 -52t-23.5 -29.5t-53 -14.5q-45 0 -55.5 27.5t-0.5 56.5 l15 86q4 27 9 41t23.5 28.5t51.5 14.5q53 0 59 -33h676q25 0 38 -2t25.5 -17t8.5 -44z" />
<glyph glyph-name="eight" unicode="8" d="M1042 356q-25 -152 -172 -265.5t-338 -113.5q-188 0 -297.5 114t-84.5 265q18 111 114 198t223 120q-115 39 -170 111.5t-41 160.5q23 129 159 228.5t314.5 99.5t282 -99.5t80.5 -228.5q-14 -88 -93 -159.5t-208 -112.5q115 -35 182 -121t49 -197zM971 944 q14 82 -55.5 143.5t-186.5 61.5q-119 0 -208 -61.5t-103 -143.5q-14 -86 57.5 -146.5t184 -60.5t205 60.5t106.5 146.5zM901 358q16 100 -55.5 177t-206.5 77q-133 0 -232.5 -77.5t-115.5 -176.5q-16 -106 59.5 -181t202.5 -75t229.5 75t118.5 181z" />
<glyph glyph-name="nine" unicode="9" d="M1071 639q-49 -293 -235.5 -477.5t-397.5 -184.5q-92 0 -152.5 23t-83 59.5t-27.5 67.5t-1 61q8 45 39 71t70 26t60.5 -27t14.5 -63q-6 -35 -28 -58q41 -35 129 -35q145 0 276 132.5t178 324.5q-152 -119 -325 -119q-170 0 -267.5 121t-68.5 295q31 180 179.5 299 t324.5 119q78 0 142.5 -30t118.5 -102.5t66.5 -195.5t-12.5 -307zM938 797q27 160 -41 264q-53 88 -162 88q-117 0 -219 -82t-123 -211q-20 -117 42.5 -203t182.5 -86q123 0 214.5 71t105.5 159z" />
<glyph glyph-name="colon" unicode=":" horiz-adv-x="598" d="M532 780q-8 -43 -42.5 -72.5t-77.5 -29.5t-68 29.5t-16 72.5q6 43 40.5 73t77.5 30t67.5 -30t18.5 -73zM418 102q-6 -43 -41 -72.5t-78 -29.5t-67.5 29.5t-18.5 72.5q8 43 43 73t78 30t67.5 -30t16.5 -73z" />
<glyph glyph-name="semicolon" unicode=";" horiz-adv-x="598" d="M532 780q-8 -43 -42.5 -72.5t-77.5 -29.5t-68 29.5t-16 72.5q6 43 40.5 73t77.5 30t67.5 -30t18.5 -73zM414 33q-23 -131 -97.5 -224.5t-119.5 -93.5q-25 0 -42.5 20.5t-13.5 45.5q2 20 25 39q92 86 117 182q-14 4 -26.5 9t-20 12.5t-12.5 15.5t-7 15t-3 16.5t-1 14.5v11 v6q8 43 42 73t79 30q37 0 58.5 -18.5t24.5 -54.5t2 -51t-5 -48z" />
<glyph glyph-name="less" unicode="&#x3c;" d="M989 186q-6 -33 -31.5 -52t-52.5 -19q-20 0 -49 20l-610 428q-33 25 -27 64q6 37 57 67l744 424q37 20 57 21q27 0 46.5 -19.5t13.5 -52.5q-6 -37 -62 -70l-649 -370l526 -371q43 -31 37 -70z" />
<glyph glyph-name="equal" unicode="=" horiz-adv-x="1673" d="M1683 782q-12 -72 -104 -71h-1249q-20 0 -35.5 2t-33 19.5t-11.5 49.5q12 72 117 72h1224q25 0 42.5 -2t36.5 -19.5t13 -50.5zM1630 471q-10 -72 -114 -72h-1225q-25 0 -42.5 2t-36.5 19.5t-15 50.5q12 72 104 72h1249q20 0 36 -2t33 -19.5t11 -50.5z" />
<glyph glyph-name="greater" unicode="&#x3e;" d="M1063 627q-6 -39 -55 -68l-746 -424q-35 -20 -57 -20q-27 0 -46.5 19.5t-13.5 51.5q6 37 62 70l649 371l-526 370q-43 31 -37 70q6 33 31.5 52.5t52.5 19.5q23 0 49 -21l610 -428q33 -24 27 -63z" />
<glyph glyph-name="question" unicode="?" horiz-adv-x="1015" d="M1063 1010q-20 -123 -156 -195q-109 -59 -177 -133t-89 -188l-6 -35q-8 -51 -27.5 -66.5t-66.5 -15.5q-57 0 -67.5 23.5t1.5 82.5q10 55 24.5 95t50.5 99.5t109.5 120t184.5 120.5q70 43 78 92q10 55 -50.5 92t-193.5 37q-147 0 -219 -72q16 -25 10 -57q-6 -41 -38 -66.5 t-66 -25.5q-37 0 -60.5 25.5t-15.5 70.5q16 102 123.5 176t285.5 74q121 0 202 -26t115 -68t44 -80.5t4 -79.5zM596 102q-6 -43 -41 -72.5t-78 -29.5t-67.5 29.5t-18.5 72.5q8 43 43 73t78 30t67.5 -30t16.5 -73z" />
<glyph glyph-name="at" unicode="@" horiz-adv-x="1433" d="M1339 164q-2 -25 -17 -37t-50 -29q-213 -111 -438 -110q-301 0 -477.5 187t-133.5 452q43 262 284 449.5t535 187.5q481 0 379 -617q-35 -209 -174 -319.5t-284 -110.5q-158 0 -252.5 119t-65.5 291q29 168 161 287.5t294 119.5q115 0 203 -67q-27 88 -91 125 q-72 47 -190 47q-246 0 -447.5 -150.5t-236.5 -363.5q-35 -207 114.5 -359.5t399.5 -152.5q176 0 348 88q37 20 72 20q18 0 30.5 -2t26.5 -15t10 -40zM1303 627q18 115 -46.5 198.5t-179.5 83.5q-109 0 -203 -83t-114 -201q-18 -115 46 -199t179 -84q109 0 203.5 83 t114.5 202z" />
<glyph glyph-name="A" unicode="A" horiz-adv-x="1552" d="M1477 61q-10 -61 -93 -61h-325q-23 0 -37 2t-27.5 17.5t-9.5 43.5q10 61 94 62h82l-43 227h-567l-121 -227h82q23 0 37 -2t27.5 -17.5t9.5 -44.5q-10 -61 -94 -61h-326q-25 0 -38 2t-25.5 17.5t-8.5 43.5q10 61 92 62h95l567 1083q16 31 39.5 47.5t39 18.5t42.5 2h39 q29 0 43 -2t30.5 -18.5t22.5 -49.5l207 -1081h94q25 0 38 -2t25.5 -17.5t8.5 -44.5zM1094 477l-129 668l-349 -668h478z" />
<glyph glyph-name="B" unicode="B" horiz-adv-x="1492" d="M1430 342q-23 -135 -177.5 -238.5t-357.5 -103.5h-719q-23 0 -36 2t-26.5 16.5t-9.5 42.5q10 63 93 64h110l168 1001h-110q-23 0 -36.5 2t-26.5 16.5t-9 43.5q10 63 92 63h662q201 0 322.5 -95t98.5 -222q-16 -102 -120.5 -175t-231.5 -104q166 -31 249 -117.5t65 -195.5 zM1327 932q12 78 -75 136t-230 58h-406l-69 -413h340q176 0 301 65.5t139 153.5zM1288 346q16 96 -77 169t-242 73h-443l-77 -463h409q162 0 289 63.5t141 157.5z" />
<glyph glyph-name="C" unicode="C" horiz-adv-x="1552" d="M1489 344q-27 -160 -205 -263.5t-448 -103.5q-309 0 -483.5 192.5t-129.5 457.5q43 262 282.5 454.5t543.5 192.5q272 0 411 -127q41 63 51 76q31 51 72 51q63 0 47 -84l-47 -285q-6 -29 -10 -42t-23.5 -27.5t-52.5 -14.5q-57 0 -59 47q-2 29 -4 38t-9.5 39t-18.5 47.5 t-34.5 42t-54.5 44.5q-109 70 -275 70q-250 0 -445.5 -155.5t-231.5 -366.5q-35 -213 108 -369t397 -156q178 0 301 58q147 66 179 192q14 59 80 60q18 0 29 -2t23.5 -18.5t6.5 -47.5z" />
<glyph glyph-name="D" unicode="D" horiz-adv-x="1613" d="M1593 614q-41 -252 -263 -433t-494 -181h-660q-23 0 -36 2t-26.5 16.5t-9.5 42.5q10 63 93 64h110l168 1001h-110q-23 0 -36.5 2t-26.5 16.5t-9 43.5q10 63 92 63h659q270 0 432 -187.5t117 -449.5zM1452 616q35 205 -98 357.5t-369 152.5h-369l-167 -1001h370 q231 0 414.5 144t218.5 347z" />
<glyph glyph-name="E" unicode="E" horiz-adv-x="1433" d="M1386 84q-8 -49 -27.5 -66.5t-68.5 -17.5h-1114q-23 0 -36 2t-26.5 16.5t-9.5 42.5q10 63 93 64h110l168 1001h-110q-23 0 -36.5 2t-26.5 16.5t-9 43.5q10 63 92 63h1055q51 0 63.5 -17t3.5 -67l-24 -149q-4 -27 -9.5 -41t-24.5 -28.5t-52 -14.5q-45 0 -55.5 27.5 t-0.5 56.5l19 108h-744l-69 -415h407q6 41 10.5 55t13.5 32.5t24.5 23.5t41.5 5q47 0 55.5 -21.5t2.5 -62.5l-33 -190q-4 -27 -9 -41t-23.5 -28.5t-51.5 -14.5q-49 0 -57 26.5t6 90.5h-408l-77 -461h802l25 141q4 27 9 41.5t24.5 28.5t52.5 14q45 0 55 -27.5t0 -56.5z" />
<glyph glyph-name="F" unicode="F" horiz-adv-x="1374" d="M1452 1018q-4 -27 -9 -41t-24.5 -28.5t-52.5 -14.5q-45 0 -55.5 27.5t0.5 56.5l18 108h-713l-73 -438h395q8 49 14 69.5t24.5 34t53.5 13.5q45 0 55.5 -27.5t-0.5 -56.5l-32 -191q-4 -27 -9.5 -41t-24 -28.5t-50.5 -14.5q-49 0 -57.5 27t6.5 90h-396l-73 -438h159 q25 0 38 -2t25.5 -17.5t8.5 -44.5q-10 -61 -92 -61h-412q-23 0 -36 2t-26.5 16.5t-9.5 42.5q10 63 93 64h110l168 1001h-110q-23 0 -36.5 2t-26.5 16.5t-9 43.5q10 63 92 63h1024q51 0 63.5 -17t4.5 -67z" />
<glyph glyph-name="G" unicode="G" horiz-adv-x="1673" d="M1663 489q-10 -61 -94 -61h-66l-57 -344q-4 -27 -9 -41t-23.5 -28.5t-51.5 -14.5q-47 0 -57.5 26.5t0.5 57.5l12 74q-211 -180 -490 -181q-295 0 -472 190.5t-132 459.5q43 262 282.5 454.5t543.5 192.5q272 0 411 -127q41 63 51 76q31 51 72 51q63 0 47 -84l-47 -285 q-6 -29 -10 -42t-23.5 -27.5t-52.5 -14.5q-57 0 -59 47q-2 29 -4 38t-9.5 39t-18.5 47.5t-34.5 42t-54.5 44.5q-109 70 -275 70q-248 0 -445.5 -154.5t-232 -369.5t109.5 -369t384 -154q166 0 305.5 91.5t192.5 234.5h-180q-25 0 -38.5 2t-25.5 17.5t-8 44.5q10 61 92 61 h393q25 0 38 -2t26.5 -17.5t9.5 -44.5z" />
<glyph glyph-name="H" unicode="H" horiz-adv-x="1552" d="M1466 61q-10 -61 -92 -61h-362q-23 0 -36 2t-26.5 16.5t-9.5 42.5q10 63 92 64h111l78 463h-695l-77 -463h110q25 0 38 -2t25.5 -17.5t8.5 -44.5q-10 -61 -92 -61h-363q-23 0 -36 2t-26.5 16.5t-9.5 42.5q10 63 93 64h110l168 1001h-110q-23 0 -36.5 2t-26.5 16.5 t-9 43.5q10 63 92 63h363q25 0 38 -2t25 -17t8 -44q-10 -61 -92 -62h-111l-69 -413h694l70 413h-111q-23 0 -36 2t-26.5 16.5t-9.5 43.5q10 63 93 63h362q25 0 38 -2t25.5 -17t8.5 -44q-10 -61 -92 -62h-111l-168 -1001h111q25 0 38 -2t25 -17.5t8 -44.5z" />
<glyph glyph-name="I" unicode="I" horiz-adv-x="716" d="M641 61q-10 -61 -92 -61h-383q-23 0 -36 2t-26.5 16.5t-9.5 42.5q10 63 92 64h121l168 1001h-121q-23 0 -36 2t-26 16.5t-9 43.5q10 63 92 63h383q25 0 38 -2t25.5 -17t7.5 -44q-10 -61 -92 -62h-121l-167 -1001h120q25 0 38.5 -2t25.5 -17.5t8 -44.5z" />
<glyph glyph-name="J" unicode="J" d="M1178 1190q-10 -63 -95 -64h-61l-143 -852q-23 -135 -138.5 -216t-259.5 -81q-152 0 -234.5 63.5t-66.5 162.5q8 47 38 71.5t69 24.5t60.5 -26.5t14.5 -63.5q-6 -35 -24 -53q49 -53 164 -54q25 0 51.5 5.5t69.5 20.5t74.5 56t41.5 103l142 839h-168q-23 0 -37 2 t-27.5 17.5t-9.5 44.5q10 61 94 61h371q23 0 37 -2t27.5 -16t9.5 -43z" />
<glyph glyph-name="K" unicode="K" horiz-adv-x="1613" d="M1532 61q-10 -61 -94 -61h-258q-23 0 -36.5 2t-26.5 16.5t-9 42.5q4 31 22.5 45.5t38 16.5t64.5 2l-375 534l-377 -270l-45 -264h111q25 0 38 -2t25.5 -17.5t7.5 -44.5q-10 -61 -92 -61h-336q-23 0 -36 2t-26 16.5t-9 42.5q10 63 92 64h111l167 1001h-110q-23 0 -36 2 t-26.5 16.5t-9.5 43.5q10 63 92 63h336q25 0 38 -2t25.5 -17t8.5 -44q-10 -61 -92 -62h-111l-98 -589l823 589q-45 0 -63.5 2t-30.5 16.5t-8 45.5q10 61 92 61h297q23 0 37 -2t27.5 -17t9.5 -44q-10 -61 -95 -62h-82l-552 -395l423 -606h74q23 0 37 -2t27.5 -17.5t9.5 -44.5 z" />
<glyph glyph-name="L" unicode="L" horiz-adv-x="1314" d="M1237 84q-8 -49 -27.5 -66.5t-68.5 -17.5h-965q-23 0 -36 2t-26.5 16.5t-9.5 42.5q10 63 93 64h110l168 1001h-110q-23 0 -36.5 2t-26.5 16.5t-9 43.5q10 63 92 63h412q25 0 38 -2t25 -17t8 -44q-10 -61 -92 -62h-160l-167 -1001h653l24 141q4 27 9.5 42.5t25 28.5 t51.5 13q47 0 56.5 -26.5t-0.5 -57.5z" />
<glyph glyph-name="M" unicode="M" horiz-adv-x="1910" d="M1810 61q-10 -61 -92 -61h-336q-25 0 -38 2t-25 17.5t-8 43.5q10 61 92 62h110l166 991h-2l-616 -1022q-43 -72 -102.5 -71.5t-77.5 75.5l-277 1018h-2l-166 -991h111q25 0 38 -2t25.5 -17.5t7.5 -44.5q-10 -61 -92 -61h-336q-23 0 -36 2t-26 16.5t-9 42.5q10 63 92 64 h111l167 1001h-110q-23 0 -36 2t-26.5 16.5t-9.5 43.5q10 63 92 63h197q51 0 72.5 -15t33.5 -60l279 -1022l618 1026q20 33 46 50t41.5 19t44.5 2h196q25 0 38 -2t25.5 -17t8.5 -44q-10 -61 -92 -62h-111l-168 -1001h111q25 0 38 -2t25 -17.5t8 -44.5z" />
<glyph glyph-name="N" unicode="N" horiz-adv-x="1552" d="M1640 1188q-10 -61 -92 -62h-110l-174 -1042q-8 -53 -27.5 -68.5t-71.5 -15.5q-29 0 -44 2t-36.5 18.5t-35.5 49.5l-441 1077h-2l-170 -1022h111q25 0 38 -2t25.5 -17.5t7.5 -44.5q-10 -61 -92 -61h-336q-23 0 -36 2t-26 16.5t-9 42.5q10 63 92 64h111l167 1001h-110 q-23 0 -36 2t-26.5 16.5t-9.5 43.5q10 63 92 63h195q29 0 44 -2t36.5 -18.5t36.5 -48.5l440 -1078h2l170 1022h-111q-23 0 -36 2t-26 16.5t-9 43.5q10 63 92 63h336q25 0 38 -2t25 -17t8 -44z" />
<glyph glyph-name="O" unicode="O" horiz-adv-x="1673" d="M1657 625q-43 -262 -283.5 -455t-542.5 -193q-299 0 -476 190.5t-132 459.5q43 262 284 454.5t542 192.5q299 0 476 -190.5t132 -458.5zM1520 649q35 205 -108.5 352.5t-383.5 147.5t-432.5 -147.5t-226.5 -352.5q-37 -223 103 -385t380 -162t435.5 162t232.5 385z" />
<glyph glyph-name="P" unicode="P" horiz-adv-x="1433" d="M1458 877q-25 -152 -188.5 -263.5t-378.5 -111.5h-379l-63 -377h110q25 0 38 -2t25.5 -17.5t8.5 -44.5q-10 -61 -92 -61h-363q-23 0 -36 2t-26.5 16.5t-9.5 42.5q10 63 93 64h110l168 1001h-110q-23 0 -36.5 2t-26.5 16.5t-9 43.5q10 63 92 63h631q215 0 342 -111 t100 -263zM1317 877q16 102 -86.5 175.5t-269.5 73.5h-345l-84 -499h345q168 0 296 75t144 175z" />
<glyph glyph-name="Q" unicode="Q" horiz-adv-x="1673" d="M1657 625q-8 -55 -30.5 -114.5t-71 -141.5t-141.5 -165t-220 -147l180 -243q37 -51 35 -64q-6 -35 -70 -35q-37 0 -53 6.5t-35 30.5l-166 223l-24 33q-6 0 -17 -4q-109 -27 -213 -27q-299 0 -476 190.5t-132 459.5q43 262 284 454.5t542 192.5q299 0 476 -190.5 t132 -458.5zM1516 627q35 213 -105.5 367.5t-382.5 154.5q-240 0 -434.5 -153.5t-228.5 -370.5q-35 -213 105 -368t382 -155q68 0 131 13l-133 190q4 23 14 32t21.5 11t38.5 2q35 0 43 -3t24 -19l20.5 -28.5l43 -58.5l63.5 -83q156 63 264.5 190t133.5 279z" />
<glyph glyph-name="R" unicode="R" horiz-adv-x="1552" d="M1577 193q-14 -80 -90 -148t-178 -68q-131 0 -183 93q-29 51 -29.5 107t17.5 145q18 90 11 125.5t-60 68.5q-86 47 -250 47h-293l-73 -438h110q25 0 38 -2t25.5 -17.5t8.5 -44.5q-10 -61 -92 -61h-363q-23 0 -36 2t-26.5 16.5t-9.5 42.5q10 63 93 64h110l168 1001h-110 q-23 0 -36.5 2t-26.5 16.5t-9 43.5q10 63 92 63h549q225 0 374.5 -100t125.5 -244q-14 -84 -89 -157.5t-194 -120.5q70 -39 100 -94q23 -43 23 -78t-17 -127q-25 -94 -13.5 -161t85.5 -67q82 0 107 93q16 61 80 61q16 0 28 -2t24.5 -17t8.5 -44zM1292 907 q14 94 -106.5 156.5t-290.5 62.5h-279l-73 -438h278q170 0 312.5 62.5t158.5 156.5z" />
<glyph glyph-name="S" unicode="S" horiz-adv-x="1193" d="M1130 340q-25 -143 -159.5 -253t-329.5 -110q-250 0 -369 99q-33 -63 -48 -81t-48 -18q-63 0 -47 84l45 271q4 27 9 41t24.5 28.5t52.5 14.5q68 0 57 -68q-6 -68 13.5 -110.5t68.5 -77.5q90 -57 265 -58q133 0 225 70t106 160q6 39 -4 75.5t-23 53.5l-14 16 q-41 41 -75.5 54.5t-135.5 35.5l-84 19q-154 33 -213 55.5t-108 75.5q-84 96 -64 221q23 135 158 235.5t322 100.5q209 0 313 -105q37 72 51.5 88.5t46.5 16.5q63 0 47 -84l-45 -270q-4 -27 -9 -41.5t-24.5 -28.5t-52.5 -14q-29 0 -42 10t-15 20.5t-4 34.5q-4 248 -289 248 q-125 0 -217 -61.5t-104 -141.5q-14 -82 46 -131t124 -63l292 -64q133 -29 205.5 -127t52.5 -221z" />
<glyph glyph-name="T" unicode="T" horiz-adv-x="1552" d="M1642 1018q-4 -27 -9 -41t-24.5 -28.5t-52.5 -14.5q-45 0 -55 27.5t0 56.5l19 108h-486l-168 -1001h191q23 0 37 -2t27.5 -17.5t8.5 -44.5q-10 -61 -94 -61h-522q-23 0 -37 2t-27.5 17.5t-9.5 43.5q10 61 95 62h190l168 1001h-485l-19 -108q-4 -27 -9 -41t-24.5 -28.5 t-52.5 -14.5q-45 0 -55 27.5t0 56.5l24 149q10 51 28.5 67.5t70.5 16.5h1228q51 0 63.5 -17t4.5 -67z" />
<glyph glyph-name="U" unicode="U" horiz-adv-x="1552" d="M1655 1188q-10 -61 -92 -62h-111l-119 -704q-31 -188 -195.5 -316.5t-367.5 -128.5q-199 0 -321.5 127t-92.5 318l119 704h-110q-23 0 -36.5 2t-26.5 16.5t-9 43.5q10 63 92 63h363q25 0 38 -2t25 -17t8 -44q-10 -61 -92 -62h-111l-116 -692q-25 -160 67 -246t226 -86 q129 0 251.5 86t149.5 246l117 692h-111q-23 0 -36 2t-26.5 16.5t-9.5 43.5q10 63 93 63h362q25 0 38 -2t25.5 -17t8.5 -44z" />
<glyph glyph-name="V" unicode="V" horiz-adv-x="1552" d="M1692 1188q-10 -61 -93 -62h-83l-598 -1071q-18 -33 -40 -49t-38.5 -19t-46.5 -3h-39q-55 0 -72.5 15t-28.5 58l-241 1069h-84q-25 0 -38.5 2t-25.5 17.5t-8 44.5q10 61 92 61h316q25 0 38 -2t26 -17t9 -44q-10 -61 -94 -62h-80l232 -1022l569 1022h-80q-23 0 -37 2 t-27.5 16.5t-9.5 43.5q10 63 95 63h315q25 0 38 -2t25.5 -17t8.5 -44z" />
<glyph glyph-name="W" unicode="W" horiz-adv-x="2150" d="M2298 1188q-10 -61 -94 -62h-70l-502 -1073q-20 -47 -48 -58t-73 -11q-55 0 -73.5 14t-24.5 63l-147 1090l-510 -1092q-25 -51 -49.5 -63t-73.5 -12q-80 0 -96 45l-146 1097h-69q-23 0 -37.5 2t-27.5 17.5t-9 44.5q10 61 94 61h276q23 0 37.5 -2t27.5 -17t9 -44 q-10 -61 -94 -62h-86l137 -1038l512 1094q23 47 47.5 58t75.5 11q31 0 46.5 -2t31.5 -18.5t20 -48.5l146 -1094l485 1038h-86q-23 0 -36 2t-27.5 16.5t-10.5 43.5q10 63 95 63h276q23 0 37 -2t27.5 -17t9.5 -44z" />
<glyph glyph-name="X" unicode="X" horiz-adv-x="1552" d="M1470 61q-10 -61 -94 -61h-321q-23 0 -36 2t-26.5 16.5t-9.5 42.5q10 63 92 64h43l-264 434l-391 -434h47q25 0 38 -2t26.5 -17.5t9.5 -44.5q-10 -61 -95 -61h-319q-23 0 -36 2t-27.5 16.5t-10.5 42.5q10 63 94 64h101l500 539l-297 462h-101q-25 0 -38 2t-26.5 17.5 t-9.5 44.5q10 61 95 61h319q25 0 38 -2t26.5 -17t9.5 -44q-10 -61 -94 -62h-39l217 -344l313 344h-45q-23 0 -37 2t-27.5 17.5t-9.5 44.5q10 61 95 61h319q23 0 37 -2t27.5 -17t9.5 -44q-10 -61 -94 -62h-101l-428 -462l344 -539h103q23 0 37 -2t27 -17.5t9 -44.5z" />
<glyph glyph-name="Y" unicode="Y" horiz-adv-x="1552" d="M1688 1188q-10 -61 -95 -62h-98l-565 -626l-64 -375h111q25 0 38 -2t25.5 -17.5t8.5 -44.5q-10 -61 -93 -61h-362q-23 0 -36 2t-26.5 16.5t-9.5 42.5q10 63 92 64h111l63 375l-356 626h-98q-23 0 -37 2t-27.5 17.5t-9.5 44.5q10 61 94 61h320q23 0 37 -2t27.5 -17 t9.5 -44q-10 -61 -95 -62h-47l275 -483l440 483h-47q-23 0 -37 2t-27.5 17.5t-9.5 44.5q10 61 94 61h320q23 0 37 -2t27.5 -17t9.5 -44z" />
<glyph glyph-name="Z" unicode="Z" horiz-adv-x="1314" d="M1221 84q-8 -49 -27.5 -66.5t-69.5 -17.5h-921q-27 0 -40 2t-25.5 18.5t-6.5 49.5q4 35 35 63l1018 993h-705l-18 -108q-4 -27 -9.5 -41t-24.5 -28.5t-52 -14.5q-45 0 -55.5 27.5t-0.5 56.5l25 149q10 51 28.5 67.5t69.5 16.5h877q27 0 40 -2t25.5 -18.5t6.5 -48.5 q-4 -35 -35 -64l-1018 -993h747l25 147q6 29 10 42.5t23.5 27.5t52.5 14q45 0 55.5 -27.5t-0.5 -56.5z" />
<glyph glyph-name="bracketleft" unicode="[" horiz-adv-x="608" d="M541 -109q-10 -61 -92 -61h-170q-51 0 -63.5 17.5t-4.5 66.5l238 1423q8 49 27.5 66.5t68.5 17.5h170q25 0 38 -2t25.5 -17.5t7.5 -43.5q-10 -61 -92 -62h-110l-226 -1341h111q25 0 38 -2t25.5 -17.5t8.5 -44.5z" />
<glyph glyph-name="backslash" unicode="\" d="M938 -98q-4 -29 -28.5 -50.5t-55.5 -21.5q-45 0 -61 55l-443 1415q-8 27 -6 50q4 29 28.5 50t55.5 21q45 0 61 -55l443 -1415q8 -26 6 -49z" />
<glyph glyph-name="bracketright" unicode="]" horiz-adv-x="608" d="M367 -86q-8 -49 -28 -66.5t-69 -17.5h-170q-25 0 -38 2t-25 17.5t-8 44.5q10 61 92 61h110l226 1341h-111q-25 0 -38 2t-25.5 17.5t-8.5 44.5q10 61 93 61h170q51 0 63 -17.5t4 -66.5z" />
<glyph glyph-name="asciicircum" unicode="^" d="M1079 1102q29 -20 27 -51t-33 -52.5t-61 -7.5l-287 133l-332 -133q-52 -21 -70 25q-18 45 25 77q7 5 17 9l360 162q25 10 47 0z" />
<glyph glyph-name="underscore" unicode="_" horiz-adv-x="1552" d="M1497 -328h-1552l24 144h1553z" />
<glyph glyph-name="grave" unicode="`" d="M930 1059q-2 -23 -23.5 -52.5t-56.5 -29.5q-16 0 -37 10l-252 121q-53 27 -45 72q4 31 28.5 51t55.5 20q16 0 37 -10l252 -123q16 -8 24.5 -13t13.5 -17.5t3 -28.5z" />
<glyph glyph-name="a" unicode="a" horiz-adv-x="1044" d="M1053 63q-4 -31 -22.5 -45t-36 -16t-52.5 -2q-168 0 -205 66q-125 -78 -303 -78q-143 0 -222 81t-60 193q25 139 196.5 220t450.5 85q18 104 -41.5 156.5t-175.5 52.5q-51 0 -76 -2t-30 -6t-9 -16q-10 -49 -41 -72t-64 -23q-39 0 -62.5 25t-14.5 70q25 150 315 149 q197 0 281 -95t63 -222l-74 -443q33 -16 111 -16q23 0 36 -2t26.5 -16.5t9.5 -43.5zM750 274l28 172q-227 -8 -349 -59t-136 -125q-10 -61 39 -105t139 -44q100 0 178 32q41 16 63.5 41t28 42t9.5 46z" />
<glyph glyph-name="b" unicode="b" horiz-adv-x="1193" d="M1176 442q-33 -190 -191 -322t-344 -132q-164 0 -254 121q-8 -45 -13 -62.5t-23.5 -32t-51.5 -14.5q-47 0 -57.5 26.5t0.5 57.5l174 1042h-111q-23 0 -36 2t-26.5 16.5t-9.5 43.5q10 63 93 63h170q51 0 63 -17t4 -67l-63 -383q145 111 315 111q182 0 287 -133.5 t74 -319.5zM1034 442q23 133 -49 230.5t-203 97.5q-111 0 -210 -69.5t-113 -163.5l-23 -138q-18 -98 40.5 -192t176.5 -94q131 0 244.5 95t136.5 234z" />
<glyph glyph-name="c" unicode="c" horiz-adv-x="956" d="M932 223q-4 -18 -25.5 -52t-64.5 -78t-124 -74.5t-179 -30.5q-190 0 -298 134t-77 320q12 74 51 149t102.5 147.5t168 117.5t229.5 45q35 0 56.5 -1t62 -4t66.5 -13.5t52.5 -25.5t37.5 -43t5 -62q-8 -43 -37.5 -69t-68.5 -26q-88 0 -74 101q0 6 -11 10t-33.5 6t-37 2 h-39.5q-96 0 -173 -37t-120 -94t-65.5 -107.5t-30.5 -95.5q-23 -139 56 -234t210 -95q147 0 224 123q25 45 75 45q14 0 25.5 -2.5t26 -15.5t10.5 -40z" />
<glyph glyph-name="d" unicode="d" horiz-adv-x="1193" d="M1167 61q-10 -61 -92 -61h-170q-51 0 -63.5 17.5t-3.5 66.5l6 35q-145 -131 -320 -131q-180 0 -286.5 132t-73.5 320q33 190 188.5 322.5t345.5 132.5q154 0 256 -104l58 335h-111q-25 0 -38 2t-25.5 17.5t-8.5 44.5q10 61 93 61h170q51 0 63 -17t4 -67l-174 -1042h111 q25 0 38 -2t25 -17.5t8 -44.5zM891 403l22 136q16 92 -51 161.5t-174 69.5q-133 0 -246.5 -96t-136.5 -234q-23 -135 50 -231t200 -96q123 0 221.5 94t114.5 196z" />
<glyph glyph-name="e" unicode="e" horiz-adv-x="956" d="M932 223q-10 -63 -117.5 -149t-277.5 -86q-193 0 -304.5 134t-80.5 324q31 186 178 320.5t327 134.5q182 0 265.5 -122t50.5 -312q-6 -35 -21.5 -52.5t-30 -20.5t-42.5 -3h-590q0 -123 81 -200.5t199 -77.5q154 0 226 123q25 45 75 45q14 0 25.5 -2.5t26 -15.5t10.5 -40z M836 514q12 143 -47.5 202.5t-151.5 59.5q-102 0 -194.5 -73.5t-131.5 -188.5h525z" />
<glyph glyph-name="f" unicode="f" horiz-adv-x="657" d="M932 1141q-8 -41 -39 -65.5t-63.5 -24.5t-51 21.5t-22.5 39.5t-2 27q-195 0 -222 -160l-16 -96h166q25 0 38 -2t25.5 -17.5t8.5 -44.5q-10 -61 -92 -61h-166l-107 -633h160q25 0 38 -2t25.5 -17.5t8.5 -44.5q-10 -61 -93 -61h-411q-23 0 -36 2t-26.5 16.5t-9.5 42.5 q10 63 92 64h111l106 633h-88q-23 0 -36 2t-26.5 16.5t-8.5 42.5q10 63 94 64h86l18 108q20 127 127 200t238 73q25 0 45 -2t59 -12.5t57.5 -38t12.5 -70.5z" />
<glyph glyph-name="g" unicode="g" d="M1176 795q-6 -41 -36 -62.5t-61 -21.5q-23 0 -44 16t-23 53q-68 -4 -125 -35q37 -88 22 -178q-23 -137 -137.5 -233t-255.5 -96q-45 0 -88 12t-62.5 23.5t-23.5 15.5q-14 -23 -23 -58q-6 -45 13 -73q20 -29 63 -29q14 -4 58 -4h143q193 0 287 -59q66 -39 89 -103.5 t13 -130.5q-20 -129 -174 -215t-352.5 -86t-323.5 85t-104 216q31 164 194 254q-37 63 -22 147q12 78 63 140q-51 86 -33 194q23 133 137.5 230.5t256.5 97.5q111 0 188 -61q111 72 229 71q76 0 108 -33.5t24 -76.5zM768 567q14 82 -33 143.5t-129 61.5q-80 0 -148.5 -60.5 t-82.5 -146.5q-14 -82 33 -143.5t129 -61.5q80 0 148.5 60.5t82.5 146.5zM866 -168q8 43 -3 75t-44 50t-63.5 29.5t-87 15.5t-90 5t-95.5 1q-117 0 -150.5 -4t-74.5 -29q-94 -53 -108 -143q-10 -70 85 -124t244.5 -54t263 54t123.5 124z" />
<glyph glyph-name="h" unicode="h" horiz-adv-x="1193" d="M1167 61q-10 -61 -92 -61h-362q-25 0 -38 2t-25.5 17.5t-8.5 43.5q10 61 92 62h111l78 459q16 96 -9.5 141t-126.5 45q-63 0 -129.5 -24.5t-128 -92t-77.5 -168.5l-62 -360h111q25 0 38 -2t25 -17.5t8 -44.5q-10 -61 -92 -61h-362q-23 0 -36 2t-26.5 16.5t-9.5 42.5 q10 63 92 64h111l168 1001h-111q-23 0 -36 2t-26.5 16.5t-9.5 43.5q10 63 93 63h170q51 0 63 -17t4 -67l-65 -389q145 117 321 117q295 0 246 -299l-80 -471h111q25 0 38 -2t25 -17.5t8 -44.5z" />
<glyph glyph-name="i" unicode="i" horiz-adv-x="598" d="M553 61q-10 -61 -92 -61h-344q-23 0 -36 2t-26.5 16.5t-9.5 42.5q10 63 92 64h111l106 633h-100q-23 0 -37 2t-27.5 17.5t-9.5 43.5q10 61 94 62h160q51 0 63.5 -17.5t4.5 -66.5l-113 -674h90q25 0 38 -2t26.5 -17.5t9.5 -44.5zM588 1114q-6 -41 -42 -71.5t-81 -30.5 q-41 0 -66.5 30.5t-17.5 71.5q6 41 41 72t80 31q41 0 66.5 -31t19.5 -72z" />
<glyph glyph-name="j" unicode="j" horiz-adv-x="657" d="M412 -96q-14 -84 -51 -164t-115 -143.5t-178 -63.5q-111 0 -168.5 42t-44.5 114q6 43 37.5 68.5t68.5 25.5q90 0 72 -109l2 -6q6 -10 59 -10q43 0 77 27.5t54.5 72.5t30.5 81t16 73l142 846h-129q-25 0 -38.5 2t-26.5 17.5t-9 43.5q10 61 94 62h189q51 0 63 -17.5 t4 -66.5zM614.5 1114q-6.5 -41 -42 -71.5t-80.5 -30.5q-41 0 -67 30.5t-17 71.5q6 41 40.5 72t79.5 31q41 0 67 -31t19.5 -72z" />
<glyph glyph-name="k" unicode="k" horiz-adv-x="1134" d="M1108 61q-10 -61 -94 -61h-258q-25 0 -38 2t-25.5 17.5t-8.5 43.5q10 61 92 62h39l-207 321l-202 -157l-29 -164h110q25 0 38.5 -2t25.5 -17.5t8 -44.5q-10 -61 -92 -61h-336q-23 0 -36 2t-26.5 16.5t-9.5 42.5q10 63 93 64h110l168 1001h-111q-23 0 -36 2t-26 16.5 t-9 43.5q10 63 92 63h143q51 0 63.5 -17t4.5 -67l-121 -725l410 316h-82q-23 0 -36 2t-26.5 16.5t-9.5 42.5q10 63 92 64h336q23 0 37 -2t27.5 -17.5t9.5 -44.5q-10 -61 -94 -61h-80l-305 -236l254 -397h71q23 0 37 -2t27.5 -17.5t9.5 -44.5z" />
<glyph glyph-name="l" unicode="l" horiz-adv-x="598" d="M571 61q-10 -61 -92 -61h-362q-23 0 -36 2t-26.5 16.5t-9.5 42.5q10 63 92 64h111l168 1001h-111q-23 0 -36 2t-26.5 16.5t-9.5 43.5q10 63 93 63h170q51 0 63 -17t4 -67l-174 -1042h111q25 0 38 -2t25 -17.5t8 -44.5z" />
<glyph glyph-name="m" unicode="m" horiz-adv-x="1792" d="M1767 61q-10 -61 -92 -61h-362q-23 0 -36 2t-26.5 16.5t-9.5 42.5q10 63 92 64h111l78 459q14 98 -11.5 142t-126.5 44q-63 0 -128.5 -23.5t-128 -92t-78.5 -169.5l-62 -360h111q25 0 38 -2t25.5 -17.5t7.5 -44.5q-10 -61 -92 -61h-362q-23 0 -36 2t-26.5 16.5t-9.5 42.5 q10 63 92 64h111l78 459q14 98 -11.5 142t-126.5 44q-63 0 -128.5 -23.5t-128 -92t-78.5 -169.5l-62 -360h111q25 0 38 -2t25 -17.5t8 -44.5q-10 -61 -92 -61h-362q-23 0 -36 2t-26.5 16.5t-9.5 42.5q10 63 92 64h111l106 633h-110q-23 0 -36 2t-26.5 16.5t-9.5 42.5 q10 63 92 64h170q57 0 67.5 -23.5t-3.5 -81.5q150 117 321 117q203 0 244 -145q162 145 354 145q295 0 248 -299l-80 -471h111q25 0 38 -2t25 -17.5t8 -44.5z" />
<glyph glyph-name="n" unicode="n" horiz-adv-x="1193" d="M1167 61q-10 -61 -92 -61h-362q-25 0 -38 2t-25.5 17.5t-8.5 43.5q10 61 92 62h111l78 459q16 96 -9.5 141t-126.5 45q-63 0 -129.5 -24.5t-128 -92t-77.5 -168.5l-62 -360h111q25 0 38 -2t25 -17.5t8 -44.5q-10 -61 -92 -61h-362q-23 0 -36 2t-26.5 16.5t-9.5 42.5 q10 63 92 64h111l106 633h-110q-23 0 -36 2t-26.5 16.5t-9.5 42.5q10 63 92 64h170q57 0 67.5 -23.5t-3.5 -81.5q145 117 321 117q295 0 246 -299l-80 -471h111q25 0 38 -2t25 -17.5t8 -44.5z" />
<glyph glyph-name="o" unicode="o" d="M1069 442q-33 -190 -188.5 -322t-346 -132t-303 132t-79.5 322q31 188 187.5 323.5t347 135.5t302 -135.5t80.5 -323.5zM930 457q23 135 -56 227t-208 92t-239 -92t-132 -227q-23 -141 52 -242.5t208 -101.5q131 0 241.5 101.5t133.5 242.5z" />
<glyph glyph-name="p" unicode="p" horiz-adv-x="1193" d="M1176 442q-33 -190 -191 -322t-344 -132q-164 0 -254 121l-74 -439h111q25 0 38 -2t25.5 -17.5t8.5 -43.5q-10 -61 -93 -62h-362q-23 0 -36 2t-26.5 16.5t-9.5 43.5q10 63 92 63h111l182 1088h-110q-23 0 -36 2t-26.5 16.5t-9.5 42.5q10 63 92 64h170q57 0 67.5 -23.5 t-1.5 -75.5q145 111 315 111q182 0 287 -133.5t74 -319.5zM1034 442q23 133 -49 230.5t-203 97.5q-111 0 -210 -69.5t-113 -163.5l-23 -138q-18 -98 40.5 -192t176.5 -94q131 0 244.5 95t136.5 234z" />
<glyph glyph-name="q" unicode="q" horiz-adv-x="1134" d="M1092 -393q-10 -61 -93 -62h-362q-25 0 -38 2t-25.5 17.5t-8.5 44.5q10 61 92 61h111l76 447q-154 -129 -320 -129q-180 0 -286.5 132t-73.5 320q33 190 190.5 322.5t343.5 132.5q158 0 254 -121l6 37q4 27 9.5 41t25 28.5t51.5 14.5q45 0 55.5 -27.5t0.5 -56.5 l-191 -1141h111q25 0 38 -2t25.5 -17t8.5 -44zM891 399l12 76q18 111 -41 203t-176 92q-131 0 -244.5 -95t-136.5 -235q-23 -135 50 -231t200 -96q123 0 221.5 93t114.5 193z" />
<glyph glyph-name="r" unicode="r" horiz-adv-x="835" d="M903 768q-8 -39 -37.5 -63.5t-64.5 -24.5q-29 0 -52.5 19.5t-17.5 68.5q-115 -12 -194.5 -124t-104.5 -259l-43 -260h160q25 0 38 -2t25.5 -17.5t8.5 -44.5q-10 -61 -93 -61h-411q-23 0 -36 2t-26.5 16.5t-9.5 42.5q10 63 92 64h111l106 633h-110q-23 0 -36 2t-26.5 16.5 t-9.5 42.5q10 63 92 64h170q57 0 67.5 -23.5t-3.5 -89.5q129 125 272 125q72 0 105.5 -39t27.5 -88z" />
<glyph glyph-name="s" unicode="s" horiz-adv-x="847" d="M817 256q-16 -104 -112.5 -186t-278.5 -82q-139 0 -211 69q-35 -70 -84 -69q-63 0 -47 84l33 196q4 27 9 41.5t24.5 28.5t52.5 14q37 0 48 -13t13 -38q4 -41 12.5 -67.5t25.5 -57.5t54 -47t93 -16q25 0 49 3t71 14t81 44t42 82q10 55 -30.5 90t-102.5 49q-31 0 -121 23 q-35 6 -59.5 12t-69.5 25.5t-72.5 43t-45 65.5t-9.5 95q6 35 25.5 72t59.5 78t117 66.5t181 25.5q115 0 178 -41q20 41 66 41q29 0 41 -14.5t10 -32.5t-2 -37l-24 -141q-4 -27 -9.5 -41t-25 -28.5t-51.5 -14.5q-68 0 -58 65q2 23 -1 37.5t-15 37t-46 33.5t-87 11 q-109 0 -167.5 -32.5t-66.5 -84.5q-10 -57 47.5 -81.5t198.5 -51.5q299 -57 264 -270z" />
<glyph glyph-name="t" unicode="t" horiz-adv-x="835" d="M758 256q-20 -117 -107.5 -192.5t-191.5 -75.5q-90 0 -150.5 61.5t-38.5 202.5l84 506h-106q-23 0 -36 2t-26.5 16.5t-9.5 42.5q10 63 94 64h105l28 168q4 29 8.5 42t24 27.5t51.5 14.5q47 0 55.5 -21.5t2.5 -62.5l-29 -168h227q25 0 38.5 -2t25.5 -17.5t8 -44.5 q-10 -61 -92 -61h-227l-82 -494q-27 -152 73 -151q43 0 80 37.5t49 107.5q4 25 9.5 38t24 27.5t50.5 14.5q47 0 57.5 -26.5t0.5 -55.5z" />
<glyph glyph-name="u" unicode="u" horiz-adv-x="1193" d="M1167 61q-10 -61 -92 -61h-170q-27 0 -40 2t-24.5 19.5t-4.5 50.5q-121 -84 -295 -84q-55 0 -98.5 7t-93.5 29.5t-72.5 77t-10.5 134.5l88 522h-110q-23 0 -36 2t-26.5 16.5t-9.5 42.5q10 63 92 64h170q51 0 63.5 -17.5t4.5 -66.5l-92 -551q-2 -33 -3 -63.5t39.5 -51 t126.5 -20.5q27 0 55.5 3t71.5 15t77 33.5t62.5 61.5t37.5 96l73 436h-110q-25 0 -38.5 2t-25.5 17.5t-8 43.5q10 61 92 62h170q51 0 63.5 -17.5t4.5 -66.5l-113 -674h111q25 0 38 -2t25 -17.5t8 -44.5z" />
<glyph glyph-name="v" unicode="v" horiz-adv-x="1134" d="M1217 819q-10 -61 -93 -61h-82l-352 -697q-23 -47 -51.5 -58t-73.5 -11q-33 0 -48 2t-31.5 18.5t-22.5 50.5l-119 695h-82q-23 0 -36 2t-26.5 16.5t-9.5 42.5q10 63 93 64h286q25 0 38.5 -2t26.5 -17.5t9 -44.5q-10 -61 -94 -61h-84l117 -672l340 672h-84q-25 0 -38.5 2 t-26.5 17.5t-9 43.5q10 61 94 62h287q25 0 38 -2t25.5 -17.5t8.5 -44.5z" />
<glyph glyph-name="w" unicode="w" horiz-adv-x="1552" d="M1640 819q-10 -61 -94 -61h-67l-308 -697q-20 -47 -45.5 -58t-72.5 -11q-61 0 -76.5 18.5t-20.5 81.5l-32 314l-23 331q-16 -61 -88 -234l-136.5 -318.5t-70.5 -153.5q-29 -39 -108 -39q-27 0 -39.5 1t-27.5 8t-23.5 22.5t-10.5 42.5l-71 692h-68q-23 0 -37 2t-27.5 17.5 t-9.5 43.5q10 61 95 62h276q23 0 37 -2t27.5 -17.5t9.5 -44.5q-10 -61 -94 -61h-91l70 -652l307 703q18 41 40 57.5t67 16.5q33 0 51 -12.5t22.5 -24.5t6.5 -35l73 -688l279 635h-90q-23 0 -37 2t-27.5 17.5t-9.5 43.5q10 61 94 62h277q23 0 37 -2t27 -17.5t9 -44.5z" />
<glyph glyph-name="x" unicode="x" horiz-adv-x="1134" d="M1083 61q-10 -61 -94 -61h-287q-25 0 -38 2t-25 17.5t-8 43.5q10 61 92 62h47l-147 256l-226 -256h52q25 0 38 -2t25 -17.5t8 -44.5q-10 -61 -92 -61h-287q-23 0 -37 2t-27.5 16.5t-8.5 42.5q10 63 94 64h102l314 332l-193 301h-102q-25 0 -38.5 2t-26.5 17.5t-9 43.5 q10 61 94 62h287q25 0 38 -2t25.5 -17.5t8.5 -44.5q-10 -61 -93 -61h-43l127 -205l189 205h-45q-23 0 -37.5 2t-27.5 17.5t-9 43.5q10 61 94 62h287q25 0 38 -2t25.5 -17.5t8.5 -44.5q-10 -61 -93 -61h-102l-287 -301l213 -332h103q23 0 37 -2t27 -17.5t9 -44.5z" />
<glyph glyph-name="y" unicode="y" horiz-adv-x="1134" d="M1217 819q-10 -61 -93 -61h-82l-473 -928q-57 -113 -166.5 -205t-238.5 -92q-86 0 -135 50t-37 118q6 41 34.5 65.5t69.5 24.5q37 0 58.5 -24.5t15.5 -65.5q-2 -6 -4 -13t-4 -12.5t-2 -7.5q-2 -10 28 -10q178 0 281 215q61 121 66 127l-183 758h-84q-23 0 -37 2 t-27.5 17.5t-8.5 43.5q10 61 94 62h286q25 0 38.5 -2t25.5 -17.5t8 -44.5q-10 -61 -92 -61h-78l113 -488l26 -129l304 617h-84q-23 0 -36.5 2t-26.5 16.5t-9 42.5q10 63 92 64h289q25 0 38 -2t25.5 -17.5t8.5 -44.5z" />
<glyph glyph-name="z" unicode="z" horiz-adv-x="956" d="M879 84q-8 -49 -28 -66.5t-69 -17.5h-639q-27 0 -41 2t-25 19.5t-5 50.5q6 31 12 41l700 645h-426l-10 -53q-4 -29 -8 -42.5t-23.5 -27.5t-52.5 -14q-47 0 -55 21.5t-2 62.5l16 94q10 51 28.5 67.5t70.5 16.5h600q27 0 41 -2t25 -19.5t5 -50.5q-6 -31 -12 -41l-700 -645 h462l15 78q4 29 8 42t23.5 27.5t52.5 14.5q47 0 55 -21.5t2 -62.5z" />
<glyph glyph-name="braceleft" unicode="{" d="M938 -106q-4 -29 -22.5 -44.5t-33 -17.5t-40.5 -2q-184 0 -287 61q-45 27 -62.5 71t-16.5 70.5t9 71.5l56 340q14 109 -260 119q-70 0 -60 64q6 33 26.5 47t37.5 14q143 0 229 33q53 23 69.5 49.5t26.5 87.5l31 184l31 172q76 207 436 207q18 0 29.5 -1t26 -6t19.5 -19.5 t1 -36.5q-6 -33 -26.5 -47.5t-37.5 -14.5q-252 0 -303 -82q-10 -20 -31 -149l-45 -270q-20 -100 -147 -170q106 -63 86 -197l-55 -330q-10 -25 -4 -49t23.5 -43.5t76.5 -34t158 -16.5q69 0 59 -61z" />
<glyph glyph-name="bar" unicode="|" d="M596 -74q-16 -96 -88 -96t-55 96l233 1399q16 96 88 96t55 -96z" />
<glyph glyph-name="braceright" unicode="}" d="M1061 625q-6 -33 -26.5 -47.5t-37.5 -14.5q-141 0 -227 -33q-53 -23 -69.5 -49t-26.5 -88l-31 -184q-4 -18 -11 -63.5t-12.5 -74t-7.5 -34.5q-74 -207 -438 -207q-25 0 -39 2t-27.5 17.5t-9.5 44.5q6 33 26.5 47t37.5 14q106 2 173.5 13.5t96.5 36t37 40.5t14 47l60 365 q27 106 147 170q-109 63 -86 194l55 330q8 25 3 50.5t-22 46t-77.5 33.5t-161.5 15q-70 0 -57 62q10 63 96 63q184 0 289 -61q45 -27 62.5 -71t16.5 -68.5t-7 -69.5l-58 -342q-14 -109 258 -121q70 0 60 -63z" />
<glyph glyph-name="asciitilde" unicode="~" d="M1012 684q-6 -35 -119 -113q-102 -68 -172 -67q-66 0 -125 69q-39 43 -57 43q-45 0 -158 -90q-31 -23 -53 -22q-25 0 -41.5 20.5t-12.5 44.5q6 39 121 113q100 68 170 68q72 0 125 -70q39 -43 58 -43q49 0 157 90q31 23 53 23q25 0 41.5 -20.5t12.5 -45.5z" />
<glyph glyph-name="uni00A0" unicode="&#xa0;" />
<glyph glyph-name="exclamdown" unicode="&#xa1;" horiz-adv-x="598" d="M518 694q-8 -43 -43 -72.5t-78 -29.5t-67.5 29.5t-16.5 72.5q6 43 41 73t78 30t67.5 -30t18.5 -73zM342 -360q-8 -49 -37 -78t-49 -34t-36.5 -5t-35 5t-37 33.5t-10.5 78.5q8 59 32 170.5t32 156.5l67 355q14 63 30.5 80.5t70.5 17.5q14 0 23 -1t23.5 -5t21.5 -15.5 t5 -29.5l-34 -250z" />
<glyph glyph-name="cent" unicode="&#xa2;" horiz-adv-x="956" d="M932 223q-2 -16 -21.5 -48t-57.5 -73t-108.5 -73.5t-156.5 -38.5l-19 -117q-4 -27 -26.5 -45t-49 -18t-41 18t-10.5 45l19 121q-158 27 -242 154.5t-55 293.5q25 145 140.5 281.5t307.5 169.5l19 117q4 27 25.5 45t48 18t42 -18.5t11.5 -44.5l-19 -109q281 0 256 -149 q-8 -43 -37.5 -69t-68.5 -26q-88 0 -74 101q2 10 -25.5 14t-70.5 4l-111 -661q125 14 187 121q25 45 75 45q14 0 25.5 -2.5t26 -15.5t10.5 -40zM483 127l107 637q-129 -33 -198.5 -132.5t-86.5 -189.5q-18 -113 32 -198.5t146 -116.5z" />
<glyph glyph-name="sterling" unicode="&#xa3;" horiz-adv-x="1552" d="M1518 295q-23 -131 -126.5 -224.5t-230.5 -93.5q-37 0 -74.5 7.5t-65.5 14.5t-70 26.5l-60.5 28.5t-65.5 35l-61 34q-113 -145 -432 -146q-102 0 -168 52.5t-51 138.5q16 100 123.5 146t250.5 46q90 0 181 -36q-4 80 -58 231h-272q-29 0 -46.5 20.5t-12.5 51.5 q4 29 29.5 50t53.5 21h205q-20 100 -8 185q27 160 178.5 264t333.5 104q184 0 303 -89t94 -238q-4 -29 -29.5 -50.5t-54.5 -21.5q-31 0 -47 21.5t-12 50.5q16 92 -67.5 138t-210.5 46q-123 0 -225.5 -61.5t-119.5 -163.5q-12 -84 9 -185h428q31 0 47 -21.5t12 -49.5 q-4 -31 -28.5 -51.5t-55.5 -20.5h-360q66 -197 59 -301q4 -2 42 -23.5t46 -25.5l42 -20.5t47.5 -21.5l44 -16.5t50 -14.5l47 -7t54.5 -4q68 0 122 51t66 123q4 29 30 50.5t54 21.5q31 0 47.5 -21.5t12.5 -50.5zM647 180q-106 37 -182 37q-201 0 -209 -49q-6 -29 22.5 -38 t77.5 -9q78 0 119 2t95 16t77 41z" />
<glyph glyph-name="currency" unicode="&#xa4;" horiz-adv-x="1673" d="M1362 121q-57 -51 -115 16l-86 105q-139 -92 -301 -92q-154 0 -266 92l-125 -105q-78 -68 -119 -16q-43 49 35 117l123 106q-72 125 -45.5 282.5t139.5 282.5l-86 107q-59 68 2 117q57 51 115 -17l88 -104q145 92 299 92q160 0 268 -92l123 104q78 68 119 17 q43 -49 -35 -117l-123 -105q74 -127 47.5 -284.5t-141.5 -284.5l86 -104q59 -68 -2 -117zM1275.5 626.5q22.5 139.5 -59 237t-221.5 97.5q-137 0 -251.5 -97.5t-137.5 -236.5q-23 -137 58 -235.5t220.5 -98.5t254 97t137 236.5z" />
<glyph glyph-name="yen" unicode="&#xa5;" horiz-adv-x="1552" d="M1688 1188q-10 -61 -95 -62h-98l-242 -268h133q29 0 46.5 -21.5t13.5 -50.5q-4 -31 -28.5 -51t-55.5 -20h-240l-157 -176h368q29 0 46.5 -20.5t13.5 -51.5q-4 -29 -30 -50.5t-54 -21.5h-398l-45 -270h111q25 0 38 -2t25.5 -17.5t8.5 -44.5q-10 -61 -93 -61h-362 q-23 0 -36 2t-26.5 16.5t-9.5 42.5q10 63 92 64h111l45 270h-393q-31 0 -47.5 21.5t-12.5 50.5q4 31 29 51.5t55 20.5h365l-100 176h-236q-31 0 -47 20.5t-12 50.5q4 29 28.5 50.5t55.5 21.5h129l-152 268h-98q-23 0 -37 2t-27.5 17.5t-9.5 44.5q10 61 94 61h320q23 0 37 -2 t27.5 -17t9.5 -44q-10 -61 -95 -62h-47l154 -268h317l244 268h-47q-23 0 -37 2t-27.5 17.5t-9.5 44.5q10 61 94 61h320q23 0 37 -2t27.5 -17t9.5 -44zM946 715h-106l41 -72z" />
<glyph glyph-name="brokenbar" unicode="&#xa6;" d="M748 834q-4 -27 -29 -45.5t-53 -18.5q-31 0 -48.5 18.5t-13.5 45.5l82 491q16 96 88 96t55 -96zM596 -74q-16 -96 -88 -96t-55 96l82 492q4 27 28.5 45t52.5 18q31 0 48.5 -18.5t13.5 -44.5z" />
<glyph glyph-name="section" unicode="&#xa7;" horiz-adv-x="1116" d="M1083 397q-25 -152 -174 -223q31 -57 19 -123q-20 -131 -142 -216t-269.5 -85t-244 70.5t-75.5 189.5q6 37 36.5 63.5t67.5 26.5t59.5 -26.5t16.5 -63.5q-6 -33 -29 -55q35 -61 191 -61q88 0 160.5 43t84.5 114q6 41 -21.5 75t-57 48t-87.5 39l-188 78 q-117 47 -182.5 135t-46.5 201q12 72 59 131t115 90q-31 59 -19 125q23 131 145 216t269.5 85t242.5 -70.5t77 -189.5q-6 -37 -38 -63.5t-69 -26.5t-58.5 26.5t-15.5 63.5q2 29 27 55q-35 61 -191 61q-88 0 -160.5 -43t-84.5 -114q-4 -31 6 -56.5t43 -46t52.5 -31 t64.5 -28.5l190 -78q115 -47 180 -135t47 -201zM940 397q25 131 -158 203l-190 78q-74 31 -127 70q-45 -6 -79 -41t-42 -80q-20 -131 160 -203l188 -78q80 -35 127 -72q45 8 79 43t42 80z" />
<glyph glyph-name="dieresis" unicode="&#xa8;" d="M647 1114q-6 -37 -37.5 -64.5t-72.5 -27.5q-37 0 -59.5 26.5t-16.5 65.5q4 35 35.5 63.5t72.5 28.5q39 0 61.5 -27.5t16.5 -64.5zM989 1114q-6 -37 -37.5 -64.5t-72.5 -27.5q-37 0 -59.5 26.5t-16.5 65.5q4 35 35.5 63.5t72.5 28.5q39 0 61.5 -27.5t16.5 -64.5z" />
<glyph glyph-name="copyright" unicode="&#xa9;" horiz-adv-x="1251" d="M1356 627q-43 -260 -257 -443.5t-472 -183.5q-260 0 -413 183.5t-110 443.5q43 258 257 441t475 183q258 0 410.5 -183t109.5 -441zM1239 627q35 211 -89 359.5t-335 148.5t-385 -148.5t-209 -359.5t89 -360.5t337 -149.5q211 0 384 149.5t208 360.5zM963 500 q-12 -72 -92 -118t-201 -46q-137 0 -215 86t-60 205q20 117 128 202.5t243 85.5q121 0 182 -57q10 18 25 35q12 23 31 22q29 0 22 -36l-22 -127q-4 -39 -39 -39q-25 0 -27 22q-6 61 -53 94q-51 31 -123 31q-111 0 -199 -69.5t-104 -163.5q-16 -96 48 -166t179 -70 q80 0 133 27q63 29 80 86q6 27 35 26q33 1 29 -30z" />
<glyph glyph-name="ordfeminine" unicode="&#xaa;" horiz-adv-x="966" d="M991 688q-2 -16 -10 -25.5t-23.5 -13.5t-26.5 -5t-34 -1q-141 0 -172 47q-102 -55 -252 -55q-121 0 -188.5 57.5t-55.5 134.5q16 96 159.5 152.5t377.5 60.5q23 145 -186 146h-64q-33 -4 -35 -17q-12 -66 -86 -65q-33 0 -51 17.5t-14 47.5q18 104 262 105 q164 0 236.5 -66.5t58.5 -154.5l-53 -312q35 -10 96 -10q20 0 31.5 -1t22.5 -11.5t7 -30.5zM901 528q-8 -43 -70 -43h-530q-27 0 -43 12.5t-14 30.5q4 18 24.5 31.5t46.5 13.5h531q27 0 43 -13.5t12 -31.5zM731 836l21 120q-193 -6 -294.5 -41.5t-111.5 -87.5 q-6 -43 37 -73.5t119 -30.5q84 0 147 22q74 25 82 91z" />
<glyph glyph-name="guillemotleft" unicode="&#xab;" horiz-adv-x="1193" d="M606 61q2 -23 -15.5 -42t-39.5 -19h-33q-35 0 -39 33q-35 219 -157 385q-23 31 10 63q182 170 286 385q14 33 50 33h32q25 0 35 -19.5t0 -41.5q-102 -219 -264 -389q106 -171 135 -388zM965 61q2 -23 -15.5 -42t-40.5 -19h-32q-35 0 -39 33q-35 219 -158 385 q-23 31 10 63q182 170 287 385q14 33 49 33h33q25 0 35 -19.5t0 -41.5q-102 -219 -265 -389q107 -171 136 -388z" />
<glyph glyph-name="logicalnot" unicode="&#xac;" horiz-adv-x="1673" d="M1630 471q-4 -29 -28.5 -50.5t-53 -21.5t-47 21.5t-14.5 50.5l41 240h-1219q-29 0 -46 21.5t-13 50t29.5 50t54.5 21.5h1290q29 0 46.5 -21.5t12.5 -50.5z" />
<glyph glyph-name="registered" unicode="&#xae;" horiz-adv-x="1251" d="M1356 627q-43 -260 -257 -443.5t-472 -183.5q-260 0 -413 183.5t-110 443.5q43 258 257 441t475 183q258 0 410.5 -183t109.5 -441zM1239 627q35 211 -89 359.5t-335 148.5t-385 -148.5t-209 -359.5t89 -360.5t337 -149.5q211 0 384 149.5t208 360.5zM1055 438 q-6 -37 -40 -66.5t-81 -29.5q-57 0 -82 41q-18 33 -6 113q8 39 5 55t-28 31q-33 20 -110 20h-131l-33 -194h49q10 0 16.5 -1t12.5 -8.5t4 -19.5q-4 -27 -41 -27h-162q-6 0 -11 1t-11.5 3t-9.5 7.5t-1 15.5q4 29 41 29h49l76 446h-49q-6 0 -11 1t-11.5 3t-9.5 8t-1 17 q4 29 41 28h246q100 0 167.5 -46t57.5 -109q-12 -76 -127 -123q31 -18 43 -43q14 -27 4 -92q-12 -41 -7 -71t38 -30q37 0 49 41q6 27 35 27q8 0 13 -1t11.5 -7.5t4.5 -18.5zM928 756q6 43 -47.5 70.5t-130.5 27.5h-125l-33 -195h125q76 0 139.5 28t71.5 69z" />
<glyph glyph-name="macron" unicode="&#xaf;" d="M1112 1114q-10 -63 -92 -63h-608q-25 0 -38.5 2t-26.5 17t-9 46q10 63 92 64h610q25 0 38.5 -2t25.5 -17.5t8 -46.5z" />
<glyph glyph-name="degree" unicode="&#xb0;" horiz-adv-x="806" d="M862 952q-23 -123 -125 -211t-225 -88q-125 0 -197.5 88t-50.5 211q20 125 121.5 212t226.5 87q123 0 196.5 -87t53.5 -212zM719 952.5q10 63.5 -28 109.5t-103 46q-63 0 -116.5 -45t-64 -110.5t27.5 -110.5t102 -45q66 0 119 46t63 109.5z" />
<glyph glyph-name="plusminus" unicode="&#xb1;" horiz-adv-x="1673" d="M1565 72q-12 -72 -109 -72h-1241q-23 0 -38 2t-33.5 19.5t-12.5 50.5q12 72 109 71h548l68 410h-549q-23 0 -38 2t-33.5 19.5t-12.5 50.5q12 72 109 71h549l75 457q16 96 88 96t56 -96l-76 -457h549q23 0 38 -2t33.5 -19.5t12.5 -49.5q-12 -72 -109 -72h-549l-67 -410 h549q23 0 38 -2t33.5 -19t12.5 -50z" />
<glyph glyph-name="uni00B2" unicode="&#xb2;" horiz-adv-x="772" d="M791 561q-6 -31 -18.5 -41t-49.5 -10h-500q-18 0 -27.5 1t-19.5 10t-8 28q2 12 27 33l364 227q188 117 207 225q12 78 -48.5 122t-156.5 44q-61 0 -113.5 -26.5t-76.5 -69.5q20 -14 16 -39t-27.5 -40t-48 -15t-44 14t-13.5 45q14 82 106.5 143.5t219.5 61.5 q139 0 223 -65.5t65 -174.5q-20 -127 -202 -246q-41 -29 -166 -105.5l-158 -96.5h350q2 20 5 30.5t16.5 18.5t38.5 8q35 0 41 -13.5t2 -37.5z" />
<glyph glyph-name="uni00B3" unicode="&#xb3;" horiz-adv-x="772" d="M829 723q-14 -88 -116.5 -157.5t-241.5 -69.5q-137 0 -222 50t-71 132q4 27 26.5 42t49.5 15q29 0 44 -16.5t11 -38.5q-4 -25 -24 -37q39 -72 200 -72q96 0 164 46.5t78 105.5t-42 106.5t-155 47.5h-67q-18 0 -27.5 1t-18.5 10t-5 27q2 23 21.5 30t79.5 11q7 1 11 0 q88 4 144 37q70 43 80 107q6 43 -39 71.5t-119 28.5q-119 0 -170 -39q10 -20 8 -33q-4 -25 -27.5 -40t-48 -15t-42 14.5t-13.5 42.5q10 63 92 103.5t211 40.5q123 0 191.5 -51.5t58.5 -120.5q-20 -117 -156 -182q72 -29 108.5 -81.5t26.5 -115.5z" />
<glyph glyph-name="acute" unicode="&#xb4;" d="M952 1180q-8 -45 -69 -72l-293 -121q-20 -10 -37 -10q-35 0 -46 29.5t-9 52.5q6 37 61 59l293 123l41 10q31 0 47 -20t12 -51z" />
<glyph glyph-name="uni00B5" unicode="&#xb5;" horiz-adv-x="1193" d="M1167 61q-10 -61 -98 -61h-160q-27 0 -41 2t-28.5 18.5t-8.5 49.5q-119 -82 -290 -82q-106 0 -168 24l-58 -342h105q20 0 30.5 -1t26 -6t20.5 -19.5t1 -36.5q-10 -61 -99 -62h-352q-20 0 -30.5 1t-26 6.5t-20.5 19.5t-1 37q10 61 99 61h104l182 1086h-104q-20 0 -30.5 1 t-26 6t-20.5 19.5t-1 36.5q10 61 98 62h160q55 0 68.5 -16.5t5.5 -71.5l-92 -543q-2 -37 -3 -66.5t39.5 -50t126.5 -20.5q111 0 195 49q88 53 104 162l74 432h-104q-20 0 -30.5 1t-26 6t-20.5 19.5t-1 36.5q10 61 98 62h160q55 0 68.5 -16.5t5.5 -71.5l-113 -668h105 q20 0 30 -1t25.5 -6t20.5 -19.5t1 -37.5z" />
<glyph glyph-name="paragraph" unicode="&#xb6;" horiz-adv-x="1251" d="M1421 1380q-6 -41 -73 -41h-103l-278 -1669q-10 -68 -51.5 -67.5t-30.5 67.5l278 1669h-143l-279 -1669q-10 -68 -51 -67.5t-31 67.5l134 801q-102 4 -198.5 35t-178.5 86t-122 148.5t-22 207.5q33 195 206 334t386 139h498q20 0 31.5 -1t21.5 -11.5t6 -28.5z" />
<glyph glyph-name="periodcentered" unicode="&#xb7;" horiz-adv-x="1673" d="M1042.5 627q-8.5 -43 -42 -73t-76.5 -30t-69 30t-17.5 73t42 72.5t76.5 29.5t69 -29.5t17.5 -72.5z" />
<glyph glyph-name="cedilla" unicode="&#xb8;" horiz-adv-x="956" d="M750 -219q-8 -43 -30 -77t-48.5 -55.5t-69.5 -36.5t-75.5 -22.5t-86 -11.5t-82 -4h-79.5q-23 0 -41.5 15.5t-12.5 48.5q6 31 26.5 45t40 16t60.5 2q141 0 195.5 20.5t60.5 61.5q6 33 -22.5 55.5t-79.5 26.5q-29 2 -41 15.5t-11 29.5t3 35l12 67q4 25 9 38t23.5 27.5 t51.5 14.5q49 0 57 -27.5t-6 -84.5q76 -20 117 -71.5t29 -127.5z" />
<glyph glyph-name="uni00B9" unicode="&#xb9;" horiz-adv-x="806" d="M743 547q-6 -37 -65 -37h-369q-16 0 -26.5 1t-19.5 10t-7 26q6 39 66 39h133l94 567q-74 -29 -154 -29q-51 0 -45 37q6 35 47 39q119 0 185 53q23 20 45 21q43 0 37 -49l-107 -639h133q18 0 27.5 -1t18.5 -10.5t7 -27.5z" />
<glyph glyph-name="ordmasculine" unicode="&#xba;" horiz-adv-x="901" d="M995 952q-23 -131 -151.5 -224t-286.5 -93q-160 0 -257 93t-75 224q23 133 151 227.5t287.5 94.5t257 -94.5t74.5 -227.5zM860 528q-8 -43 -69 -43h-517q-27 0 -43 12.5t-14 31t23.5 31.5t48.5 13h516q27 0 43 -13.5t12 -31.5zM877 963q16 96 -51.5 159.5t-176 63.5 t-199 -63.5t-106.5 -159.5q-16 -98 50.5 -169t177 -71t200 71t105.5 169z" />
<glyph glyph-name="guillemotright" unicode="&#xbb;" horiz-adv-x="1193" d="M1012 418q-178 -166 -285 -385q-18 -33 -51 -33h-33q-23 0 -34 19.5t-1 41.5q100 215 264 388q-109 182 -133 389q-2 23 14.5 42t39.5 19h32q33 0 41 -33q31 -213 158 -385q23 -32 -12 -63zM653 418q-178 -166 -284 -385q-18 -33 -52 -33h-32q-23 0 -34 19.5t-1 41.5 q100 215 264 388q-109 182 -133 389q-4 23 13.5 42t39.5 19h33q33 0 41 -33q31 -213 158 -385q22 -32 -13 -63z" />
<glyph glyph-name="onequarter" unicode="&#xbc;" horiz-adv-x="1720" d="M743 547q-6 -37 -65 -37h-369q-16 0 -26.5 1t-19.5 10t-7 26q6 39 66 39h133l94 567q-74 -29 -154 -29q-51 0 -45 37q6 35 47 39q119 0 185 53q23 20 45 21q43 0 37 -49l-107 -639h133q18 0 27.5 -1t18.5 -10.5t7 -27.5zM1606 244q-6 -37 -66 -37h-115l-22 -131h92 q16 0 25.5 -1t18.5 -10.5t7 -27.5q-6 -37 -63 -37h-266q-16 0 -26.5 1t-20 10t-7.5 26q6 39 66 39h92l22 131h-372q-35 0 -45.5 10t-6 39t20.5 43l410 440q25 27 65 27h43q37 0 47.5 -10.5t3.5 -40.5l-71 -432h114q18 0 27.5 -1t19 -10.5t7.5 -27.5zM1651 1210 q-6 -23 -23 -43l-1055 -1169q-29 -29 -63 -29q-29 0 -46.5 21.5t-12.5 50.5q6 23 22 43l1055 1169q25 29 61 29q29 0 47.5 -21.5t14.5 -50.5zM1356 283l71 428l-399 -428h328z" />
<glyph glyph-name="onehalf" unicode="&#xbd;" horiz-adv-x="1910" d="M743 547q-6 -37 -65 -37h-369q-16 0 -26.5 1t-19.5 10t-7 26q6 39 66 39h133l94 567q-74 -29 -154 -29q-51 0 -45 37q6 35 47 39q119 0 185 53q23 20 45 21q43 0 37 -49l-107 -639h133q18 0 27.5 -1t18.5 -10.5t7 -27.5zM1763 51q-4 -31 -17 -41t-48 -10h-502 q-16 0 -26.5 1t-19.5 10t-7 28q4 18 28 33l363 227q190 119 209 225q12 78 -50.5 122t-158.5 44q-59 0 -111.5 -26.5t-76.5 -69.5q18 -12 14 -39q-4 -25 -26.5 -40t-47 -15t-43 14t-12.5 45q12 82 104 143.5t219 61.5q139 0 223.5 -65.5t65.5 -174.5q-20 -123 -201 -245 q-43 -29 -175 -110l-152 -93h352q4 20 7 29.5t16.5 18.5t38.5 9q23 0 33 -8t10 -19.5t-3 -23.5zM1661 1210q-6 -23 -23 -43l-1054 -1169q-29 -29 -64 -29q-31 0 -47 21.5t-12 50.5q6 27 20 43l1055 1169q29 29 63 29q29 0 47.5 -21.5t14.5 -50.5z" />
<glyph glyph-name="threequarters" unicode="&#xbe;" horiz-adv-x="1720" d="M893 723q-14 -88 -115.5 -157.5t-241 -69.5t-224.5 50t-70 132q4 27 26.5 42t50.5 15q27 0 42.5 -16.5t11.5 -39t-23 -36.5q39 -72 201 -72q96 0 163.5 46.5t78 105.5t-42 106.5t-154.5 47.5h-70q-16 0 -25 1t-18.5 10t-5.5 27q2 25 21.5 31t91.5 10q88 4 141 37 q72 43 82 107q6 43 -39 71.5t-119 28.5q-119 0 -170 -39q8 -16 7 -33q-4 -25 -27 -40t-47 -15q-27 0 -44.5 14.5t-13.5 42.5q10 63 93.5 103.5t212.5 40.5q123 0 190.5 -51.5t56.5 -120.5q-20 -117 -153 -182q70 -29 106.5 -81.5t26.5 -115.5zM1606 244q-6 -37 -66 -37h-115 l-22 -131h92q16 0 25.5 -1t18.5 -10.5t7 -27.5q-6 -37 -63 -37h-266q-16 0 -26.5 1t-20 10t-7.5 26q6 39 66 39h92l22 131h-372q-35 0 -45.5 10t-6 39t20.5 43l410 440q25 27 65 27h43q37 0 47.5 -10.5t3.5 -40.5l-71 -432h114q18 0 27.5 -1t19 -10.5t7.5 -27.5zM1651 1210 q-6 -23 -23 -43l-1055 -1169q-29 -29 -63 -29q-29 0 -46.5 21.5t-12.5 50.5q6 23 22 43l1055 1169q25 29 61 29q29 0 47.5 -21.5t14.5 -50.5zM1356 283l71 428l-399 -428h328z" />
<glyph glyph-name="questiondown" unicode="&#xbf;" horiz-adv-x="1015" d="M696 694q-8 -43 -43 -72.5t-78 -29.5t-67.5 29.5t-15.5 72.5q6 43 40.5 73t77.5 30t67.5 -30t18.5 -73zM858 -217q-16 -106 -131 -178t-326 -72q-92 0 -158.5 19.5t-97 49t-49 65.5t-15.5 66.5t3 53.5q18 119 141 197q188 121 221 317l5 35q8 53 27.5 68.5t68.5 15.5 q57 0 68.5 -23.5t-3.5 -83.5q-10 -51 -22 -89t-44 -98t-97.5 -122.5t-161.5 -124.5q-52 -37 -62 -92q-8 -45 13.5 -73.5t64.5 -39t66.5 -13.5t52.5 -3q190 0 264 74q-14 23 -8 55q6 41 38 66.5t66 25.5q37 0 60.5 -25.5t15.5 -70.5z" />
<glyph glyph-name="Agrave" unicode="&#xc0;" horiz-adv-x="1552" d="M1477 61q-10 -61 -93 -61h-325q-23 0 -37 2t-27.5 17.5t-9.5 43.5q10 61 94 62h82l-43 227h-567l-121 -227h82q23 0 37 -2t27.5 -17.5t9.5 -44.5q-10 -61 -94 -61h-326q-25 0 -38 2t-25.5 17.5t-8.5 43.5q10 61 92 62h95l567 1083q16 31 39.5 47.5t39 18.5t42.5 2h39 q29 0 43 -2t30.5 -18.5t22.5 -49.5l207 -1081h94q25 0 38 -2t25.5 -17.5t8.5 -44.5zM1094 477l-129 668l-349 -668h478zM1229 1419q-2 -23 -23.5 -52.5t-56.5 -29.5q-18 0 -35 11l-254 120q-53 27 -45 72q6 31 29.5 51.5t54.5 20.5q16 0 37 -10l252 -123q16 -8 24.5 -13.5 t13.5 -18t3 -28.5z" />
<glyph glyph-name="Aacute" unicode="&#xc1;" horiz-adv-x="1552" d="M1477 61q-10 -61 -93 -61h-325q-23 0 -37 2t-27.5 17.5t-9.5 43.5q10 61 94 62h82l-43 227h-567l-121 -227h82q23 0 37 -2t27.5 -17.5t9.5 -44.5q-10 -61 -94 -61h-326q-25 0 -38 2t-25.5 17.5t-8.5 43.5q10 61 92 62h95l567 1083q16 31 39.5 47.5t39 18.5t42.5 2h39 q29 0 43 -2t30.5 -18.5t22.5 -49.5l207 -1081h94q25 0 38 -2t25.5 -17.5t8.5 -44.5zM1094 477l-129 668l-349 -668h478zM1251 1540q-8 -45 -69 -72l-291 -120q-25 -10 -39 -11q-35 0 -46 30t-9 52q6 37 61 60l293 123l41 10q31 0 48 -20.5t11 -51.5z" />
<glyph glyph-name="Acircumflex" unicode="&#xc2;" horiz-adv-x="1552" d="M1477 61q-10 -61 -93 -61h-325q-23 0 -37 2t-27.5 17.5t-9.5 43.5q10 61 94 62h82l-43 227h-567l-121 -227h82q23 0 37 -2t27.5 -17.5t9.5 -44.5q-10 -61 -94 -61h-326q-25 0 -38 2t-25.5 17.5t-8.5 43.5q10 61 92 62h95l567 1083q16 31 39.5 47.5t39 18.5t42.5 2h39 q29 0 43 -2t30.5 -18.5t22.5 -49.5l207 -1081h94q25 0 38 -2t25.5 -17.5t8.5 -44.5zM1094 477l-129 668l-349 -668h478zM1280 1436q31 -16 31 -46t-28 -54.5t-62 -14.5l-211 68l-236 -68q-50 -15 -64 30q-15 46 28 75q9 6 20 10l256 88q18 6 39 0z" />
<glyph glyph-name="Atilde" unicode="&#xc3;" horiz-adv-x="1552" d="M1477 61q-10 -61 -93 -61h-325q-23 0 -37 2t-27.5 17.5t-9.5 43.5q10 61 94 62h82l-43 227h-567l-121 -227h82q23 0 37 -2t27.5 -17.5t9.5 -44.5q-10 -61 -94 -61h-326q-25 0 -38 2t-25.5 17.5t-8.5 43.5q10 61 92 62h95l567 1083q16 31 39.5 47.5t39 18.5t42.5 2h39 q29 0 43 -2t30.5 -18.5t22.5 -49.5l207 -1081h94q25 0 38 -2t25.5 -17.5t8.5 -44.5zM1094 477l-129 668l-349 -668h478zM1386 1497q-6 -35 -118 -113q-102 -68 -172 -67q-66 0 -125 69q-39 43 -58 44q-45 0 -157 -91q-31 -23 -54 -22q-25 0 -41 20.5t-12 44.5q6 39 121 113 q100 68 170 68q72 0 125 -70q39 -43 57 -43q49 0 158 90q31 23 53 23q25 0 41 -20.5t12 -45.5z" />
<glyph glyph-name="Adieresis" unicode="&#xc4;" horiz-adv-x="1552" d="M1477 61q-10 -61 -93 -61h-325q-23 0 -37 2t-27.5 17.5t-9.5 43.5q10 61 94 62h82l-43 227h-567l-121 -227h82q23 0 37 -2t27.5 -17.5t9.5 -44.5q-10 -61 -94 -61h-326q-25 0 -38 2t-25.5 17.5t-8.5 43.5q10 61 92 62h95l567 1083q16 31 39.5 47.5t39 18.5t42.5 2h39 q29 0 43 -2t30.5 -18.5t22.5 -49.5l207 -1081h94q25 0 38 -2t25.5 -17.5t8.5 -44.5zM1094 477l-129 668l-349 -668h478zM905 1409q-6 -37 -37.5 -64.5t-72.5 -27.5q-37 0 -60.5 27.5t-15.5 64.5q4 35 35.5 63.5t72.5 28.5q39 0 61.5 -27.5t16.5 -64.5zM1309 1409 q-6 -37 -38 -64.5t-73 -27.5q-37 0 -60.5 27.5t-15.5 64.5q4 35 36 63.5t73 28.5q39 0 61.5 -27.5t16.5 -64.5z" />
<glyph glyph-name="Aring" unicode="&#xc5;" horiz-adv-x="1552" d="M1477 61q-10 -61 -93 -61h-325q-23 0 -37 2t-27.5 17.5t-9.5 43.5q10 61 94 62h82l-43 227h-567l-121 -227h82q23 0 37 -2t27.5 -17.5t9.5 -44.5q-10 -61 -94 -61h-326q-25 0 -38 2t-25.5 17.5t-8.5 43.5q10 61 92 62h95l567 1083q16 31 39.5 47.5t39 18.5t42.5 2h39 q29 0 43 -2t30.5 -18.5t22.5 -49.5l207 -1081h94q25 0 38 -2t25.5 -17.5t8.5 -44.5zM1094 477l-129 668l-349 -668h478zM1116 1411q4 25 -23.5 42t-70.5 17q-39 0 -75 -16t-40 -43q-4 -25 23.5 -42t70.5 -17q39 0 75 16t40 43zM1251.5 1411q-10.5 -55 -85 -95t-179.5 -40 q-98 0 -161.5 40t-53.5 95t85 95t179 40q98 0 162 -40t53.5 -95z" />
<glyph glyph-name="AE" unicode="&#xc6;" horiz-adv-x="1910" d="M1864 84q-8 -49 -27.5 -66.5t-69.5 -17.5h-868q-23 0 -37 2t-27.5 16.5t-9.5 42.5q10 63 95 64h61l43 250h-428l-152 -250h76q25 0 38 -2t25.5 -17.5t8.5 -44.5q-10 -61 -92 -61h-326q-25 0 -38 2t-26.5 17.5t-9.5 43.5q10 61 95 62h96l606 1001h-35q-23 0 -36 2 t-27.5 16.5t-10.5 43.5q10 63 95 63h1034q51 0 63.5 -17t4.5 -67l-25 -149q-4 -27 -9 -41t-24.5 -28.5t-52.5 -14.5q-45 0 -55.5 27.5t0.5 56.5l18 108h-547l-69 -415h301q6 41 10 55t13 32.5t24.5 23.5t42.5 5q47 0 55 -21.5t2 -62.5l-33 -190q-4 -27 -9 -41t-23.5 -28.5 t-51.5 -14.5q-49 0 -57 26.5t6 90.5h-301l-78 -461h607l24 141q4 27 9 41.5t24.5 28.5t52.5 14q45 0 55.5 -27.5t-0.5 -56.5zM1044 500l105 626h-96l-381 -626h372z" />
<glyph glyph-name="Ccedilla" unicode="&#xc7;" horiz-adv-x="1552" d="M1489 344q-23 -137 -158 -234.5t-348 -123.5l-2 -6q76 -20 117 -71.5t28 -127.5q-8 -43 -29.5 -77t-48 -55.5t-69.5 -36.5t-76 -22.5t-86 -11.5t-81.5 -4h-80.5q-23 0 -41 15.5t-12 48.5q6 31 26.5 45t40 16t60.5 2q141 0 195.5 20.5t60.5 61.5q6 33 -22.5 55.5 t-79.5 26.5q-29 2 -41.5 15.5t-11.5 29.5t4 35l6 32h-4q-309 0 -483.5 192.5t-129.5 457.5q43 262 282.5 454.5t543.5 192.5q272 0 411 -127q41 63 51 76q31 51 72 51q63 0 47 -84l-47 -285q-6 -29 -10 -42t-23.5 -27.5t-52.5 -14.5q-57 0 -59 47q-2 29 -4 38t-9.5 39 t-18.5 47.5t-34.5 42t-54.5 44.5q-109 70 -275 70q-250 0 -445.5 -155.5t-231.5 -366.5q-35 -213 108 -369t397 -156q178 0 301 58q147 66 179 192q14 59 80 60q18 0 29 -2t23.5 -18.5t6.5 -47.5z" />
<glyph glyph-name="Egrave" unicode="&#xc8;" horiz-adv-x="1433" d="M1386 84q-8 -49 -27.5 -66.5t-68.5 -17.5h-1114q-23 0 -36 2t-26.5 16.5t-9.5 42.5q10 63 93 64h110l168 1001h-110q-23 0 -36.5 2t-26.5 16.5t-9 43.5q10 63 92 63h1055q51 0 63.5 -17t3.5 -67l-24 -149q-4 -27 -9.5 -41t-24.5 -28.5t-52 -14.5q-45 0 -55.5 27.5 t-0.5 56.5l19 108h-744l-69 -415h407q6 41 10.5 55t13.5 32.5t24.5 23.5t41.5 5q47 0 55.5 -21.5t2.5 -62.5l-33 -190q-4 -27 -9 -41t-23.5 -28.5t-51.5 -14.5q-49 0 -57 26.5t6 90.5h-408l-77 -461h802l25 141q4 27 9 41.5t24.5 28.5t52.5 14q45 0 55 -27.5t0 -56.5z M1169 1419q-2 -23 -23.5 -52.5t-55.5 -29.5q-18 0 -35 11l-254 120q-53 27 -45 72q6 31 29.5 51.5t54.5 20.5q16 0 37 -10l251 -123q16 -8 24.5 -13.5t13.5 -18t3 -28.5z" />
<glyph glyph-name="Eacute" unicode="&#xc9;" horiz-adv-x="1433" d="M1386 84q-8 -49 -27.5 -66.5t-68.5 -17.5h-1114q-23 0 -36 2t-26.5 16.5t-9.5 42.5q10 63 93 64h110l168 1001h-110q-23 0 -36.5 2t-26.5 16.5t-9 43.5q10 63 92 63h1055q51 0 63.5 -17t3.5 -67l-24 -149q-4 -27 -9.5 -41t-24.5 -28.5t-52 -14.5q-45 0 -55.5 27.5 t-0.5 56.5l19 108h-744l-69 -415h407q6 41 10.5 55t13.5 32.5t24.5 23.5t41.5 5q47 0 55.5 -21.5t2.5 -62.5l-33 -190q-4 -27 -9 -41t-23.5 -28.5t-51.5 -14.5q-49 0 -57 26.5t6 90.5h-408l-77 -461h802l25 141q4 27 9 41.5t24.5 28.5t52.5 14q45 0 55 -27.5t0 -56.5z M1192 1540q-8 -45 -70 -72l-291 -120q-25 -10 -38 -11q-35 0 -46.5 30t-9.5 52q6 37 62 60l293 123l41 10q31 0 48 -20.5t11 -51.5z" />
<glyph glyph-name="Ecircumflex" unicode="&#xca;" horiz-adv-x="1433" d="M1386 84q-8 -49 -27.5 -66.5t-68.5 -17.5h-1114q-23 0 -36 2t-26.5 16.5t-9.5 42.5q10 63 93 64h110l168 1001h-110q-23 0 -36.5 2t-26.5 16.5t-9 43.5q10 63 92 63h1055q51 0 63.5 -17t3.5 -67l-24 -149q-4 -27 -9.5 -41t-24.5 -28.5t-52 -14.5q-45 0 -55.5 27.5 t-0.5 56.5l19 108h-744l-69 -415h407q6 41 10.5 55t13.5 32.5t24.5 23.5t41.5 5q47 0 55.5 -21.5t2.5 -62.5l-33 -190q-4 -27 -9 -41t-23.5 -28.5t-51.5 -14.5q-49 0 -57 26.5t6 90.5h-408l-77 -461h802l25 141q4 27 9 41.5t24.5 28.5t52.5 14q45 0 55 -27.5t0 -56.5z M1221 1436q31 -16 30.5 -46t-28 -54.5t-62.5 -14.5l-211 68l-235 -68q-50 -15 -64 30q-15 46 28 75q9 6 19 10l256 88q20 6 39 0z" />
<glyph glyph-name="Edieresis" unicode="&#xcb;" horiz-adv-x="1433" d="M1386 84q-8 -49 -27.5 -66.5t-68.5 -17.5h-1114q-23 0 -36 2t-26.5 16.5t-9.5 42.5q10 63 93 64h110l168 1001h-110q-23 0 -36.5 2t-26.5 16.5t-9 43.5q10 63 92 63h1055q51 0 63.5 -17t3.5 -67l-24 -149q-4 -27 -9.5 -41t-24.5 -28.5t-52 -14.5q-45 0 -55.5 27.5 t-0.5 56.5l19 108h-744l-69 -415h407q6 41 10.5 55t13.5 32.5t24.5 23.5t41.5 5q47 0 55.5 -21.5t2.5 -62.5l-33 -190q-4 -27 -9 -41t-23.5 -28.5t-51.5 -14.5q-49 0 -57 26.5t6 90.5h-408l-77 -461h802l25 141q4 27 9 41.5t24.5 28.5t52.5 14q45 0 55 -27.5t0 -56.5z M846 1409q-6 -37 -38 -64.5t-73 -27.5q-37 0 -60.5 27.5t-15.5 64.5q4 35 36 63.5t73 28.5q39 0 61.5 -27.5t16.5 -64.5zM1249 1409q-6 -37 -37.5 -64.5t-72.5 -27.5q-37 0 -60.5 27.5t-15.5 64.5q4 35 35.5 63.5t72.5 28.5q39 0 61.5 -27.5t16.5 -64.5z" />
<glyph glyph-name="Igrave" unicode="&#xcc;" horiz-adv-x="716" d="M641 61q-10 -61 -92 -61h-383q-23 0 -36 2t-26.5 16.5t-9.5 42.5q10 63 92 64h121l168 1001h-121q-23 0 -36 2t-26 16.5t-9 43.5q10 63 92 63h383q25 0 38 -2t25.5 -17t7.5 -44q-10 -61 -92 -62h-121l-167 -1001h120q25 0 38.5 -2t25.5 -17.5t8 -44.5zM811 1419 q-2 -23 -23.5 -52.5t-56.5 -29.5q-18 0 -35 11l-254 120q-53 27 -45 72q6 31 30 51.5t54 20.5q16 0 37 -10l252 -123q16 -8 24.5 -13.5t13.5 -18t3 -28.5z" />
<glyph glyph-name="Iacute" unicode="&#xcd;" horiz-adv-x="716" d="M641 61q-10 -61 -92 -61h-383q-23 0 -36 2t-26.5 16.5t-9.5 42.5q10 63 92 64h121l168 1001h-121q-23 0 -36 2t-26 16.5t-9 43.5q10 63 92 63h383q25 0 38 -2t25.5 -17t7.5 -44q-10 -61 -92 -62h-121l-167 -1001h120q25 0 38.5 -2t25.5 -17.5t8 -44.5zM834 1540 q-8 -45 -70 -72l-291 -120q-25 -10 -39 -11q-35 0 -46 30t-9 52q6 37 61 60l293 123l41 10q31 0 48.5 -20.5t11.5 -51.5z" />
<glyph glyph-name="Icircumflex" unicode="&#xce;" horiz-adv-x="716" d="M641 61q-10 -61 -92 -61h-383q-23 0 -36 2t-26.5 16.5t-9.5 42.5q10 63 92 64h121l168 1001h-121q-23 0 -36 2t-26 16.5t-9 43.5q10 63 92 63h383q25 0 38 -2t25.5 -17t7.5 -44q-10 -61 -92 -62h-121l-167 -1001h120q25 0 38.5 -2t25.5 -17.5t8 -44.5zM862 1436 q31 -16 31 -46t-27.5 -54.5t-62.5 -14.5l-211 68l-236 -68q-50 -15 -63 30q-15 46 28 75q9 6 19 10l256 88q18 6 39 0z" />
<glyph glyph-name="Idieresis" unicode="&#xcf;" horiz-adv-x="716" d="M641 61q-10 -61 -92 -61h-383q-23 0 -36 2t-26.5 16.5t-9.5 42.5q10 63 92 64h121l168 1001h-121q-23 0 -36 2t-26 16.5t-9 43.5q10 63 92 63h383q25 0 38 -2t25.5 -17t7.5 -44q-10 -61 -92 -62h-121l-167 -1001h120q25 0 38.5 -2t25.5 -17.5t8 -44.5zM487.5 1409 q-6.5 -37 -38 -64.5t-72.5 -27.5q-37 0 -60.5 27.5t-15.5 64.5q4 35 36 63.5t73 28.5q39 0 61.5 -27.5t16 -64.5zM891 1409q-6 -37 -38 -64.5t-73 -27.5q-37 0 -60.5 27.5t-14.5 64.5q4 35 35.5 63.5t72.5 28.5q39 0 61.5 -27.5t16.5 -64.5z" />
<glyph glyph-name="Eth" unicode="&#xd0;" horiz-adv-x="1613" d="M1593 614q-41 -252 -263 -433t-494 -181h-660q-23 0 -36 2t-26.5 16.5t-9.5 42.5q10 63 93 64h110l74 438h-121q-27 0 -42 18.5t-11 45t25.5 45t48.5 18.5h120l74 436h-110q-23 0 -36.5 2t-26.5 16.5t-9 43.5q10 63 92 63h659q270 0 432 -187.5t117 -449.5zM1452 616 q35 205 -98 357.5t-369 152.5h-369l-73 -436h379q27 0 42 -18.5t11 -45t-25.5 -45t-48.5 -18.5h-379l-73 -438h370q231 0 414.5 144t218.5 347z" />
<glyph glyph-name="Ntilde" unicode="&#xd1;" horiz-adv-x="1552" d="M1640 1188q-10 -61 -92 -62h-110l-174 -1042q-8 -53 -27.5 -68.5t-71.5 -15.5q-29 0 -44 2t-36.5 18.5t-35.5 49.5l-441 1077h-2l-170 -1022h111q25 0 38 -2t25.5 -17.5t7.5 -44.5q-10 -61 -92 -61h-336q-23 0 -36 2t-26 16.5t-9 42.5q10 63 92 64h111l167 1001h-110 q-23 0 -36 2t-26.5 16.5t-9.5 43.5q10 63 92 63h195q29 0 44 -2t36.5 -18.5t36.5 -48.5l440 -1078h2l170 1022h-111q-23 0 -36 2t-26 16.5t-9 43.5q10 63 92 63h336q25 0 38 -2t25 -17t8 -44zM1386 1497q-6 -35 -118 -113q-102 -68 -172 -67q-66 0 -125 69q-39 43 -58 44 q-45 0 -157 -91q-31 -23 -54 -22q-25 0 -41 20.5t-12 44.5q6 39 121 113q100 68 170 68q72 0 125 -70q39 -43 57 -43q49 0 158 90q31 23 53 23q25 0 41 -20.5t12 -45.5z" />
<glyph glyph-name="Ograve" unicode="&#xd2;" horiz-adv-x="1673" d="M1657 625q-43 -262 -283.5 -455t-542.5 -193q-299 0 -476 190.5t-132 459.5q43 262 284 454.5t542 192.5q299 0 476 -190.5t132 -458.5zM1520 649q35 205 -108.5 352.5t-383.5 147.5t-432.5 -147.5t-226.5 -352.5q-37 -223 103 -385t380 -162t435.5 162t232.5 385z M1288 1419q-2 -23 -23.5 -52.5t-56.5 -29.5q-18 0 -34 11l-254 120q-53 27 -46 72q6 31 30 51.5t54 20.5q16 0 37 -10l252 -123q16 -8 24.5 -13.5t13.5 -18t3 -28.5z" />
<glyph glyph-name="Oacute" unicode="&#xd3;" horiz-adv-x="1673" d="M1657 625q-43 -262 -283.5 -455t-542.5 -193q-299 0 -476 190.5t-132 459.5q43 262 284 454.5t542 192.5q299 0 476 -190.5t132 -458.5zM1520 649q35 205 -108.5 352.5t-383.5 147.5t-432.5 -147.5t-226.5 -352.5q-37 -223 103 -385t380 -162t435.5 162t232.5 385z M1311 1540q-8 -45 -70 -72l-291 -120q-25 -10 -39 -11q-35 0 -46 30t-9 52q6 37 62 60l292 123l41 10q31 0 48.5 -20.5t11.5 -51.5z" />
<glyph glyph-name="Ocircumflex" unicode="&#xd4;" horiz-adv-x="1673" d="M1657 625q-43 -262 -283.5 -455t-542.5 -193q-299 0 -476 190.5t-132 459.5q43 262 284 454.5t542 192.5q299 0 476 -190.5t132 -458.5zM1520 649q35 205 -108.5 352.5t-383.5 147.5t-432.5 -147.5t-226.5 -352.5q-37 -223 103 -385t380 -162t435.5 162t232.5 385z M1339 1436q31 -16 31 -46t-27.5 -54.5t-62.5 -14.5l-211 68l-235 -68q-50 -15 -64 30q-15 46 28 75q9 6 19 10l256 88q20 6 39 0z" />
<glyph glyph-name="Otilde" unicode="&#xd5;" horiz-adv-x="1673" d="M1657 625q-43 -262 -283.5 -455t-542.5 -193q-299 0 -476 190.5t-132 459.5q43 262 284 454.5t542 192.5q299 0 476 -190.5t132 -458.5zM1520 649q35 205 -108.5 352.5t-383.5 147.5t-432.5 -147.5t-226.5 -352.5q-37 -223 103 -385t380 -162t435.5 162t232.5 385z M1446 1497q-6 -35 -119 -113q-102 -68 -172 -67q-66 0 -125 69q-39 43 -57 44q-45 0 -158 -91q-31 -23 -53 -22q-25 0 -41 20.5t-12 44.5q6 39 120 113q100 68 170 68q72 0 125 -70q39 -43 58 -43q49 0 157 90q31 23 54 23q25 0 41 -20.5t12 -45.5z" />
<glyph glyph-name="Odieresis" unicode="&#xd6;" horiz-adv-x="1673" d="M1657 625q-43 -262 -283.5 -455t-542.5 -193q-299 0 -476 190.5t-132 459.5q43 262 284 454.5t542 192.5q299 0 476 -190.5t132 -458.5zM1520 649q35 205 -108.5 352.5t-383.5 147.5t-432.5 -147.5t-226.5 -352.5q-37 -223 103 -385t380 -162t435.5 162t232.5 385z M964.5 1409q-6.5 -37 -38 -64.5t-72.5 -27.5q-37 0 -60.5 27.5t-15.5 64.5q4 35 36 63.5t73 28.5q39 0 61.5 -27.5t16 -64.5zM1368 1409q-6 -37 -38 -64.5t-73 -27.5q-37 0 -60 27.5t-15 64.5q4 35 35.5 63.5t72.5 28.5q39 0 61.5 -27.5t16.5 -64.5z" />
<glyph glyph-name="multiply" unicode="&#xd7;" horiz-adv-x="1673" d="M1362 121q-57 -51 -115 16l-323 389l-455 -389q-78 -68 -119 -16q-43 49 35 117l455 389l-324 389q-59 68 2 117q57 51 115 -17l323 -389l455 389q78 68 119 17q43 -49 -35 -117l-455 -389l324 -389q59 -68 -2 -117z" />
<glyph glyph-name="Oslash" unicode="&#xd8;" horiz-adv-x="1673" d="M1657 625q-43 -262 -283.5 -455t-542.5 -193q-190 0 -323 76l-170 -192q-33 -35 -62 -35q-25 0 -42 17.5t-13 45.5q2 18 41 62l150 166q-125 104 -168 239.5t-21 270.5q43 262 284 454.5t542 192.5q39 0 76.5 -4t69.5 -10.5t58.5 -14.5t48 -16t36 -14.5l25.5 -11.5l11 -5 l164 188q33 39 66 39q25 0 42 -17t13 -46q-4 -20 -31 -51l-160 -176q125 -104 168.5 -239.5t20.5 -270.5zM1280 1098q-129 51 -252 51q-252 0 -453.5 -154.5t-236.5 -369.5q-23 -127 24.5 -234.5t135.5 -175.5zM1542 627q23 129 -25.5 237.5t-136.5 171.5l-780 -882 q129 -51 252 -52q252 0 453.5 155t236.5 370z" />
<glyph glyph-name="Ugrave" unicode="&#xd9;" horiz-adv-x="1552" d="M1655 1188q-10 -61 -92 -62h-111l-119 -704q-31 -188 -195.5 -316.5t-367.5 -128.5q-199 0 -321.5 127t-92.5 318l119 704h-110q-23 0 -36.5 2t-26.5 16.5t-9 43.5q10 63 92 63h363q25 0 38 -2t25 -17t8 -44q-10 -61 -92 -62h-111l-116 -692q-25 -160 67 -246t226 -86 q129 0 251.5 86t149.5 246l117 692h-111q-23 0 -36 2t-26.5 16.5t-9.5 43.5q10 63 93 63h362q25 0 38 -2t25.5 -17t8.5 -44zM1276 1419q-2 -23 -23.5 -52.5t-56.5 -29.5q-18 0 -35 11l-254 120q-53 27 -45 72q6 31 29.5 51.5t54.5 20.5q16 0 37 -10l252 -123 q16 -8 24.5 -13.5t13.5 -18t3 -28.5z" />
<glyph glyph-name="Uacute" unicode="&#xda;" horiz-adv-x="1552" d="M1655 1188q-10 -61 -92 -62h-111l-119 -704q-31 -188 -195.5 -316.5t-367.5 -128.5q-199 0 -321.5 127t-92.5 318l119 704h-110q-23 0 -36.5 2t-26.5 16.5t-9 43.5q10 63 92 63h363q25 0 38 -2t25 -17t8 -44q-10 -61 -92 -62h-111l-116 -692q-25 -160 67 -246t226 -86 q129 0 251.5 86t149.5 246l117 692h-111q-23 0 -36 2t-26.5 16.5t-9.5 43.5q10 63 93 63h362q25 0 38 -2t25.5 -17t8.5 -44zM1298 1540q-8 -45 -69 -72l-291 -120q-25 -10 -39 -11q-35 0 -46 30t-9 52q6 37 61 60l293 123l41 10q31 0 48 -20.5t11 -51.5z" />
<glyph glyph-name="Ucircumflex" unicode="&#xdb;" horiz-adv-x="1552" d="M1655 1188q-10 -61 -92 -62h-111l-119 -704q-31 -188 -195.5 -316.5t-367.5 -128.5q-199 0 -321.5 127t-92.5 318l119 704h-110q-23 0 -36.5 2t-26.5 16.5t-9 43.5q10 63 92 63h363q25 0 38 -2t25 -17t8 -44q-10 -61 -92 -62h-111l-116 -692q-25 -160 67 -246t226 -86 q129 0 251.5 86t149.5 246l117 692h-111q-23 0 -36 2t-26.5 16.5t-9.5 43.5q10 63 93 63h362q25 0 38 -2t25.5 -17t8.5 -44zM1327 1436q31 -16 31 -46t-27.5 -54.5t-62.5 -14.5l-211 68l-236 -68q-50 -15 -63 30q-15 46 27 75q9 6 20 10l256 88q20 6 39 0z" />
<glyph glyph-name="Udieresis" unicode="&#xdc;" horiz-adv-x="1552" d="M1655 1188q-10 -61 -92 -62h-111l-119 -704q-31 -188 -195.5 -316.5t-367.5 -128.5q-199 0 -321.5 127t-92.5 318l119 704h-110q-23 0 -36.5 2t-26.5 16.5t-9 43.5q10 63 92 63h363q25 0 38 -2t25 -17t8 -44q-10 -61 -92 -62h-111l-116 -692q-25 -160 67 -246t226 -86 q129 0 251.5 86t149.5 246l117 692h-111q-23 0 -36 2t-26.5 16.5t-9.5 43.5q10 63 93 63h362q25 0 38 -2t25.5 -17t8.5 -44zM952 1409q-6 -37 -37.5 -64.5t-72.5 -27.5q-37 0 -60.5 27.5t-15.5 64.5q4 35 36 63.5t72 28.5q39 0 61.5 -27.5t16.5 -64.5zM1356 1409 q-6 -37 -38 -64.5t-73 -27.5q-37 0 -60.5 27.5t-15.5 64.5q4 35 36 63.5t73 28.5q39 0 61.5 -27.5t16.5 -64.5z" />
<glyph glyph-name="Yacute" unicode="&#xdd;" horiz-adv-x="1552" d="M1688 1188q-10 -61 -95 -62h-98l-565 -626l-64 -375h111q25 0 38 -2t25.5 -17.5t8.5 -44.5q-10 -61 -93 -61h-362q-23 0 -36 2t-26.5 16.5t-9.5 42.5q10 63 92 64h111l63 375l-356 626h-98q-23 0 -37 2t-27.5 17.5t-9.5 44.5q10 61 94 61h320q23 0 37 -2t27.5 -17 t9.5 -44q-10 -61 -95 -62h-47l275 -483l440 483h-47q-23 0 -37 2t-27.5 17.5t-9.5 44.5q10 61 94 61h320q23 0 37 -2t27.5 -17t9.5 -44zM1251 1540q-8 -45 -69 -72l-291 -120q-25 -10 -39 -11q-35 0 -46 30t-9 52q6 37 61 60l293 123l41 10q31 0 48 -20.5t11 -51.5z" />
<glyph glyph-name="Thorn" unicode="&#xde;" horiz-adv-x="1433" d="M1417.5 626.5q-24.5 -151.5 -188.5 -263t-379 -111.5h-379l-22 -127h110q25 0 38 -2t25.5 -17.5t8.5 -44.5q-10 -61 -92 -61h-363q-23 0 -36 2t-26.5 16.5t-9.5 42.5q10 63 93 64h110l168 1001h-110q-23 0 -36.5 2t-26.5 16.5t-9 43.5q10 63 92 63h363q25 0 38 -2t25 -17 t8 -44q-10 -61 -92 -62h-111l-20 -125h379q215 0 341 -111.5t101.5 -263zM1276 626.5q16 100.5 -87.5 175.5t-270.5 75h-345l-81 -500h344q166 0 295 74.5t145 175z" />
<glyph glyph-name="germandbls" unicode="&#xdf;" d="M1073 358q-27 -162 -158 -266t-278 -104q-98 0 -146.5 46t-35.5 107q6 39 34.5 62.5t63.5 23.5q37 0 59 -32q10 -23 2 -74q14 -8 43 -8q88 0 172 67.5t103 177.5q2 35 5 83t-13.5 101.5t-43 99.5t-83 79t-133.5 37q-2 0 -5.5 1t-10.5 6t-13 11t-9 17.5t-1 25.5 q10 59 67 64q137 4 212 55t83 100q6 39 -54.5 70t-152.5 31q-86 0 -157 -29q-35 -14 -53.5 -31.5t-22.5 -29t-10 -37.5l-154 -928q-8 -49 -27.5 -66.5t-68.5 -17.5h-170q-23 0 -36 2t-26.5 16.5t-9.5 42.5q10 63 92 64h111l106 633h-110q-23 0 -36 2t-26.5 16.5t-9.5 42.5 q10 63 92 64h111l24 143q10 68 56.5 117t110 73.5t123 36t114.5 11.5q152 0 247 -62.5t78 -161.5q-23 -139 -208 -231q200 -160 153 -451z" />
<glyph glyph-name="agrave" unicode="&#xe0;" horiz-adv-x="1044" d="M1053 63q-4 -31 -22.5 -45t-36 -16t-52.5 -2q-168 0 -205 66q-125 -78 -303 -78q-143 0 -222 81t-60 193q25 139 196.5 220t450.5 85q18 104 -41.5 156.5t-175.5 52.5q-51 0 -76 -2t-30 -6t-9 -16q-10 -49 -41 -72t-64 -23q-39 0 -62.5 25t-14.5 70q25 150 315 149 q197 0 281 -95t63 -222l-74 -443q33 -16 111 -16q23 0 36 -2t26.5 -16.5t9.5 -43.5zM750 274l28 172q-227 -8 -349 -59t-136 -125q-10 -61 39 -105t139 -44q100 0 178 32q41 16 63.5 41t28 42t9.5 46zM915 1059q-2 -23 -23.5 -52.5t-55.5 -29.5q-16 0 -37 10l-252 121 q-53 27 -45 72q4 31 28.5 51t55.5 20q16 0 37 -10l251 -123q16 -8 24.5 -13t13.5 -17.5t3 -28.5z" />
<glyph glyph-name="aacute" unicode="&#xe1;" horiz-adv-x="1044" d="M1053 63q-4 -31 -22.5 -45t-36 -16t-52.5 -2q-168 0 -205 66q-125 -78 -303 -78q-143 0 -222 81t-60 193q25 139 196.5 220t450.5 85q18 104 -41.5 156.5t-175.5 52.5q-51 0 -76 -2t-30 -6t-9 -16q-10 -49 -41 -72t-64 -23q-39 0 -62.5 25t-14.5 70q25 150 315 149 q197 0 281 -95t63 -222l-74 -443q33 -16 111 -16q23 0 36 -2t26.5 -16.5t9.5 -43.5zM750 274l28 172q-227 -8 -349 -59t-136 -125q-10 -61 39 -105t139 -44q100 0 178 32q41 16 63.5 41t28 42t9.5 46zM938 1180q-8 -45 -70 -72l-293 -121q-20 -10 -36 -10q-35 0 -46.5 29.5 t-9.5 52.5q6 37 62 59l293 123l41 10q31 0 47 -20t12 -51z" />
<glyph glyph-name="acircumflex" unicode="&#xe2;" horiz-adv-x="1044" d="M1053 63q-4 -31 -22.5 -45t-36 -16t-52.5 -2q-168 0 -205 66q-125 -78 -303 -78q-143 0 -222 81t-60 193q25 139 196.5 220t450.5 85q18 104 -41.5 156.5t-175.5 52.5q-51 0 -76 -2t-30 -6t-9 -16q-10 -49 -41 -72t-64 -23q-39 0 -62.5 25t-14.5 70q25 150 315 149 q197 0 281 -95t63 -222l-74 -443q33 -16 111 -16q23 0 36 -2t26.5 -16.5t9.5 -43.5zM750 274l28 172q-227 -8 -349 -59t-136 -125q-10 -61 39 -105t139 -44q100 0 178 32q41 16 63.5 41t28 42t9.5 46zM981 1090q29 -20 19.5 -55.5t-39 -49.5t-62.5 2l-188 127l-234 -127 q-37 -16 -61.5 -2t-21.5 49t38 56l266 153q35 20 62 0z" />
<glyph glyph-name="atilde" unicode="&#xe3;" horiz-adv-x="1044" d="M1053 63q-4 -31 -22.5 -45t-36 -16t-52.5 -2q-168 0 -205 66q-125 -78 -303 -78q-143 0 -222 81t-60 193q25 139 196.5 220t450.5 85q18 104 -41.5 156.5t-175.5 52.5q-51 0 -76 -2t-30 -6t-9 -16q-10 -49 -41 -72t-64 -23q-39 0 -62.5 25t-14.5 70q25 150 315 149 q197 0 281 -95t63 -222l-74 -443q33 -16 111 -16q23 0 36 -2t26.5 -16.5t9.5 -43.5zM750 274l28 172q-227 -8 -349 -59t-136 -125q-10 -61 39 -105t139 -44q100 0 178 32q41 16 63.5 41t28 42t9.5 46zM1077 1171q-6 -39 -119 -112q-102 -68 -169.5 -68t-126.5 70 q-39 43 -56 43q-49 0 -157 -90q-31 -23 -54 -23q-25 0 -41 20.5t-12 45.5q6 35 119 112q102 68 172 68q66 0 125 -70q39 -43 57 -43q45 0 158 90q31 23 53 23q25 0 40 -20.5t11 -45.5z" />
<glyph glyph-name="adieresis" unicode="&#xe4;" horiz-adv-x="1044" d="M1053 63q-4 -31 -22.5 -45t-36 -16t-52.5 -2q-168 0 -205 66q-125 -78 -303 -78q-143 0 -222 81t-60 193q25 139 196.5 220t450.5 85q18 104 -41.5 156.5t-175.5 52.5q-51 0 -76 -2t-30 -6t-9 -16q-10 -49 -41 -72t-64 -23q-39 0 -62.5 25t-14.5 70q25 150 315 149 q197 0 281 -95t63 -222l-74 -443q33 -16 111 -16q23 0 36 -2t26.5 -16.5t9.5 -43.5zM750 274l28 172q-227 -8 -349 -59t-136 -125q-10 -61 39 -105t139 -44q100 0 178 32q41 16 63.5 41t28 42t9.5 46zM633 1114q-6 -37 -38 -64.5t-73 -27.5q-37 0 -59.5 26.5t-16.5 65.5 q4 35 36 63.5t73 28.5q39 0 61.5 -27.5t16.5 -64.5zM975 1114q-6 -37 -38 -64.5t-73 -27.5q-37 0 -59.5 26.5t-16.5 65.5q4 35 36 63.5t73 28.5q39 0 61.5 -27.5t16.5 -64.5z" />
<glyph glyph-name="aring" unicode="&#xe5;" horiz-adv-x="1044" d="M1053 63q-4 -31 -22.5 -45t-36 -16t-52.5 -2q-168 0 -205 66q-125 -78 -303 -78q-143 0 -222 81t-60 193q25 139 196.5 220t450.5 85q18 104 -41.5 156.5t-175.5 52.5q-51 0 -76 -2t-30 -6t-9 -16q-10 -49 -41 -72t-64 -23q-39 0 -62.5 25t-14.5 70q25 150 315 149 q197 0 281 -95t63 -222l-74 -443q33 -16 111 -16q23 0 36 -2t26.5 -16.5t9.5 -43.5zM750 274l28 172q-227 -8 -349 -59t-136 -125q-10 -61 39 -105t139 -44q100 0 178 32q41 16 63.5 41t28 42t9.5 46zM817 1143q4 25 -23.5 42t-70.5 17q-39 0 -75 -16.5t-40 -42.5 q-4 -25 23.5 -42.5t70.5 -17.5q39 0 75 16.5t40 43.5zM952.5 1142.5q-10.5 -55.5 -85 -95t-179.5 -39.5q-98 0 -161.5 39.5t-53.5 95t85 95.5t179 40q98 0 162 -40t53.5 -95.5z" />
<glyph glyph-name="ae" unicode="&#xe6;" horiz-adv-x="1552" d="M1528 223q-10 -61 -112.5 -148t-258.5 -87q-209 0 -321 162q-59 -92 -176 -127t-226 -35q-147 0 -225 75.5t-59 178.5q41 250 641 268l10 61q14 100 -42.5 152.5t-176.5 52.5q-47 0 -78 -2q-23 -2 -28 -6t-9 -16q-10 -49 -42 -72t-63 -23q-39 0 -62.5 25t-14.5 70 q25 150 315 149q250 0 326 -164q164 164 352 164q170 0 245.5 -121t45.5 -311q-6 -37 -21.5 -54.5t-30 -20.5t-42.5 -3h-560q-2 -123 79 -200.5t196 -77.5q131 0 201 123q25 45 75 45q14 0 25.5 -2.5t26 -15.5t10.5 -40zM1434 514q10 113 -32 187.5t-145 74.5 q-94 0 -186 -72.5t-133 -189.5h496zM758 260q0 6 14 127q-186 -8 -280 -29q-190 -51 -201 -114q-10 -55 41 -93t141 -38q96 0 178 30q97 35 107 117z" />
<glyph glyph-name="ccedilla" unicode="&#xe7;" horiz-adv-x="956" d="M932 223q-4 -23 -27.5 -61.5t-91.5 -90t-158 -71.5l-4 -20q76 -20 117 -71.5t29 -127.5q-8 -43 -30 -77t-48.5 -55.5t-69.5 -36.5t-75.5 -22.5t-86 -11.5t-82 -4h-79.5q-23 0 -41.5 15.5t-12.5 48.5q6 31 26.5 45t40 16t60.5 2q141 0 195.5 20.5t60.5 61.5 q6 33 -22.5 55.5t-79.5 26.5q-29 2 -41 15.5t-11 29.5t3 35l8 43q-180 10 -278.5 142t-69.5 312q12 74 51 149t102.5 147.5t168 117.5t229.5 45q35 0 56.5 -1t62 -4t66.5 -13.5t52.5 -25.5t37.5 -43t5 -62q-8 -43 -37.5 -69t-68.5 -26q-88 0 -74 101q0 6 -11 10t-33.5 6 t-37 2h-39.5q-96 0 -173 -37t-120 -94t-65.5 -107.5t-30.5 -95.5q-23 -139 56 -234t210 -95q147 0 224 123q25 45 75 45q14 0 25.5 -2.5t26 -15.5t10.5 -40z" />
<glyph glyph-name="egrave" unicode="&#xe8;" horiz-adv-x="956" d="M932 223q-10 -63 -117.5 -149t-277.5 -86q-193 0 -304.5 134t-80.5 324q31 186 178 320.5t327 134.5q182 0 265.5 -122t50.5 -312q-6 -35 -21.5 -52.5t-30 -20.5t-42.5 -3h-590q0 -123 81 -200.5t199 -77.5q154 0 226 123q25 45 75 45q14 0 25.5 -2.5t26 -15.5t10.5 -40z M836 514q12 143 -47.5 202.5t-151.5 59.5q-102 0 -194.5 -73.5t-131.5 -188.5h525zM870 1059q-2 -23 -23.5 -52.5t-55.5 -29.5q-16 0 -37 10l-252 121q-53 27 -45 72q4 31 28.5 51t55.5 20q16 0 37 -10l251 -123q16 -8 24.5 -13t13.5 -17.5t3 -28.5z" />
<glyph glyph-name="eacute" unicode="&#xe9;" horiz-adv-x="956" d="M932 223q-10 -63 -117.5 -149t-277.5 -86q-193 0 -304.5 134t-80.5 324q31 186 178 320.5t327 134.5q182 0 265.5 -122t50.5 -312q-6 -35 -21.5 -52.5t-30 -20.5t-42.5 -3h-590q0 -123 81 -200.5t199 -77.5q154 0 226 123q25 45 75 45q14 0 25.5 -2.5t26 -15.5t10.5 -40z M836 514q12 143 -47.5 202.5t-151.5 59.5q-102 0 -194.5 -73.5t-131.5 -188.5h525zM893 1180q-8 -45 -70 -72l-293 -121q-20 -10 -36 -10q-35 0 -46.5 29.5t-9.5 52.5q6 37 62 59l293 123l41 10q31 0 47 -20t12 -51z" />
<glyph glyph-name="ecircumflex" unicode="&#xea;" horiz-adv-x="956" d="M932 223q-10 -63 -117.5 -149t-277.5 -86q-193 0 -304.5 134t-80.5 324q31 186 178 320.5t327 134.5q182 0 265.5 -122t50.5 -312q-6 -35 -21.5 -52.5t-30 -20.5t-42.5 -3h-590q0 -123 81 -200.5t199 -77.5q154 0 226 123q25 45 75 45q14 0 25.5 -2.5t26 -15.5t10.5 -40z M836 514q12 143 -47.5 202.5t-151.5 59.5q-102 0 -194.5 -73.5t-131.5 -188.5h525zM936 1090q29 -20 19.5 -55.5t-39 -49.5t-62.5 2l-188 127l-234 -127q-37 -16 -61.5 -2t-21.5 49t38 56l266 153q35 20 62 0z" />
<glyph glyph-name="edieresis" unicode="&#xeb;" horiz-adv-x="956" d="M932 223q-10 -63 -117.5 -149t-277.5 -86q-193 0 -304.5 134t-80.5 324q31 186 178 320.5t327 134.5q182 0 265.5 -122t50.5 -312q-6 -35 -21.5 -52.5t-30 -20.5t-42.5 -3h-590q0 -123 81 -200.5t199 -77.5q154 0 226 123q25 45 75 45q14 0 25.5 -2.5t26 -15.5t10.5 -40z M836 514q12 143 -47.5 202.5t-151.5 59.5q-102 0 -194.5 -73.5t-131.5 -188.5h525zM588 1114q-6 -37 -38 -64.5t-73 -27.5q-37 0 -59.5 26.5t-16.5 65.5q4 35 36 63.5t73 28.5q39 0 61.5 -27.5t16.5 -64.5zM930 1114q-6 -37 -38 -64.5t-73 -27.5q-37 0 -59.5 26.5 t-16.5 65.5q4 35 36 63.5t73 28.5q39 0 61.5 -27.5t16.5 -64.5z" />
<glyph glyph-name="igrave" unicode="&#xec;" horiz-adv-x="598" d="M553 61q-10 -61 -92 -61h-344q-23 0 -36 2t-26.5 16.5t-9.5 42.5q10 63 92 64h111l106 633h-100q-23 0 -37 2t-27.5 17.5t-9.5 43.5q10 61 94 62h160q51 0 63.5 -17.5t4.5 -66.5l-113 -674h90q25 0 38 -2t26.5 -17.5t9.5 -44.5zM690 1059q-2 -23 -23.5 -52.5t-56.5 -29.5 q-16 0 -37 10l-251 121q-53 27 -46 72q4 31 29 51t55 20q16 0 37 -10l252 -123q16 -8 24.5 -13t13.5 -17.5t3 -28.5z" />
<glyph glyph-name="iacute" unicode="&#xed;" horiz-adv-x="598" d="M553 61q-10 -61 -92 -61h-344q-23 0 -36 2t-26.5 16.5t-9.5 42.5q10 63 92 64h111l106 633h-100q-23 0 -37 2t-27.5 17.5t-9.5 43.5q10 61 94 62h160q51 0 63.5 -17.5t4.5 -66.5l-113 -674h90q25 0 38 -2t26.5 -17.5t9.5 -44.5zM713 1180q-8 -45 -70 -72l-293 -121 q-20 -10 -37 -10q-35 0 -46 29.5t-9 52.5q6 37 61 59l293 123l41 10q31 0 47.5 -20t12.5 -51z" />
<glyph glyph-name="icircumflex" unicode="&#xee;" horiz-adv-x="598" d="M553 61q-10 -61 -92 -61h-344q-23 0 -36 2t-26.5 16.5t-9.5 42.5q10 63 92 64h111l106 633h-100q-23 0 -37 2t-27.5 17.5t-9.5 43.5q10 61 94 62h160q51 0 63.5 -17.5t4.5 -66.5l-113 -674h90q25 0 38 -2t26.5 -17.5t9.5 -44.5zM756 1090q29 -20 19.5 -55.5t-39 -49.5 t-62.5 2l-189 127l-233 -127q-37 -16 -61.5 -2t-21.5 49t38 56l266 153q35 20 62 0z" />
<glyph glyph-name="idieresis" unicode="&#xef;" horiz-adv-x="598" d="M553 61q-10 -61 -92 -61h-344q-23 0 -36 2t-26.5 16.5t-9.5 42.5q10 63 92 64h111l106 633h-100q-23 0 -37 2t-27.5 17.5t-9.5 43.5q10 61 94 62h160q51 0 63.5 -17.5t4.5 -66.5l-113 -674h90q25 0 38 -2t26.5 -17.5t9.5 -44.5zM407.5 1114q-6.5 -37 -38 -64.5 t-72.5 -27.5q-37 0 -59.5 26.5t-16.5 65.5q4 35 36 63.5t73 28.5q39 0 61.5 -27.5t16 -64.5zM749.5 1114q-6.5 -37 -38 -64.5t-72.5 -27.5q-37 0 -59.5 26.5t-16.5 65.5q4 35 36 63.5t73 28.5q39 0 61.5 -27.5t16 -64.5z" />
<glyph glyph-name="eth" unicode="&#xf0;" d="M1223 1348q-6 -31 -31 -50l-135 -98q102 -231 12 -758q-33 -190 -188 -321q-156 -133 -346.5 -133t-303 132t-79.5 322q31 188 187.5 323.5t346.5 135.5q176 0 289 -117q18 221 -29 332l-125 -92q-23 -14 -43 -14q-27 0 -42 18.5t-11 44.5q6 31 31 49l116 86 q-51 35 -127 35q-31 0 -47 21.5t-12 50t28.5 50t55.5 21.5q139 0 223 -88l133 99q18 14 43 14q27 0 42.5 -18t11.5 -45zM930 457q23 135 -56 227t-208 92t-239 -92t-132 -227q-23 -141 52 -242.5t208 -101.5q131 0 241.5 101.5t133.5 242.5z" />
<glyph glyph-name="ntilde" unicode="&#xf1;" horiz-adv-x="1193" d="M1167 61q-10 -61 -92 -61h-362q-25 0 -38 2t-25.5 17.5t-8.5 43.5q10 61 92 62h111l78 459q16 96 -9.5 141t-126.5 45q-63 0 -129.5 -24.5t-128 -92t-77.5 -168.5l-62 -360h111q25 0 38 -2t25 -17.5t8 -44.5q-10 -61 -92 -61h-362q-23 0 -36 2t-26.5 16.5t-9.5 42.5 q10 63 92 64h111l106 633h-110q-23 0 -36 2t-26.5 16.5t-9.5 42.5q10 63 92 64h170q57 0 67.5 -23.5t-3.5 -81.5q145 117 321 117q295 0 246 -299l-80 -471h111q25 0 38 -2t25 -17.5t8 -44.5zM1151 1171q-6 -39 -119 -112q-102 -68 -169.5 -68t-127.5 70q-39 43 -55 43 q-49 0 -158 -90q-31 -23 -53 -23q-25 0 -41 20.5t-12 45.5q6 35 119 112q102 68 172 68q66 0 124 -70q39 -43 58 -43q45 0 158 90q31 23 53 23q25 0 40 -20.5t11 -45.5z" />
<glyph glyph-name="ograve" unicode="&#xf2;" d="M1069 442q-33 -190 -188.5 -322t-346 -132t-303 132t-79.5 322q31 188 187.5 323.5t347 135.5t302 -135.5t80.5 -323.5zM930 457q23 135 -56 227t-208 92t-239 -92t-132 -227q-23 -141 52 -242.5t208 -101.5q131 0 241.5 101.5t133.5 242.5zM930 1059q-2 -23 -23.5 -52.5 t-56.5 -29.5q-16 0 -37 10l-252 121q-53 27 -45 72q4 31 28.5 51t55.5 20q16 0 37 -10l252 -123q16 -8 24.5 -13t13.5 -17.5t3 -28.5z" />
<glyph glyph-name="oacute" unicode="&#xf3;" d="M1069 442q-33 -190 -188.5 -322t-346 -132t-303 132t-79.5 322q31 188 187.5 323.5t347 135.5t302 -135.5t80.5 -323.5zM930 457q23 135 -56 227t-208 92t-239 -92t-132 -227q-23 -141 52 -242.5t208 -101.5q131 0 241.5 101.5t133.5 242.5zM952 1180q-8 -45 -69 -72 l-293 -121q-20 -10 -37 -10q-35 0 -46 29.5t-9 52.5q6 37 61 59l293 123l41 10q31 0 47 -20t12 -51z" />
<glyph glyph-name="ocircumflex" unicode="&#xf4;" d="M1069 442q-33 -190 -188.5 -322t-346 -132t-303 132t-79.5 322q31 188 187.5 323.5t347 135.5t302 -135.5t80.5 -323.5zM930 457q23 135 -56 227t-208 92t-239 -92t-132 -227q-23 -141 52 -242.5t208 -101.5q131 0 241.5 101.5t133.5 242.5zM995 1090q29 -20 20 -55.5 t-39 -49.5t-63 2l-188 127l-233 -127q-37 -16 -61.5 -2t-21.5 49t37 56l267 153q35 20 61 0z" />
<glyph glyph-name="otilde" unicode="&#xf5;" d="M1069 442q-33 -190 -188.5 -322t-346 -132t-303 132t-79.5 322q31 188 187.5 323.5t347 135.5t302 -135.5t80.5 -323.5zM930 457q23 135 -56 227t-208 92t-239 -92t-132 -227q-23 -141 52 -242.5t208 -101.5q131 0 241.5 101.5t133.5 242.5zM1092 1171q-6 -39 -119 -112 q-102 -68 -170 -68t-127 70q-39 43 -55 43q-49 0 -158 -90q-31 -23 -53 -23q-25 0 -41.5 20.5t-12.5 45.5q6 35 119 112q102 68 172 68q66 0 125 -70q39 -43 57 -43q45 0 158 90q31 23 53 23q25 0 40.5 -20.5t11.5 -45.5z" />
<glyph glyph-name="odieresis" unicode="&#xf6;" d="M1069 442q-33 -190 -188.5 -322t-346 -132t-303 132t-79.5 322q31 188 187.5 323.5t347 135.5t302 -135.5t80.5 -323.5zM930 457q23 135 -56 227t-208 92t-239 -92t-132 -227q-23 -141 52 -242.5t208 -101.5q131 0 241.5 101.5t133.5 242.5zM647 1114q-6 -37 -37.5 -64.5 t-72.5 -27.5q-37 0 -59.5 26.5t-16.5 65.5q4 35 35.5 63.5t72.5 28.5q39 0 61.5 -27.5t16.5 -64.5zM989 1114q-6 -37 -37.5 -64.5t-72.5 -27.5q-37 0 -59.5 26.5t-16.5 65.5q4 35 35.5 63.5t72.5 28.5q39 0 61.5 -27.5t16.5 -64.5z" />
<glyph glyph-name="divide" unicode="&#xf7;" horiz-adv-x="1673" d="M1657 627q-12 -72 -105 -72h-1249q-20 0 -35.5 2t-33 19.5t-11.5 50.5q12 72 117 71h1225q25 0 42 -2t36.5 -19t13.5 -50zM1102 983q-8 -43 -42 -72.5t-77 -29.5t-68.5 29.5t-17.5 72.5t42 72.5t77 29.5t68.5 -29.5t17.5 -72.5zM983 270q-8 -43 -42 -72.5t-77 -29.5 t-68.5 29.5t-17.5 72.5t42 73t77 30t68.5 -30t17.5 -73z" />
<glyph glyph-name="oslash" unicode="&#xf8;" d="M1169 1108q0 -16 -20 -43l-199 -266q139 -147 105 -357q-33 -188 -185.5 -321t-334.5 -133q-92 0 -164 35l-203 -271q-29 -39 -62 -39q-23 0 -42 16.5t-13 45.5q2 18 47 78l174 233q-143 145 -106 356q31 188 183.5 323.5t336.5 135.5q88 0 168 -37l199 266q31 39 61 39 q23 0 42 -16t13 -45zM774 758q-49 18 -108 18q-135 0 -249 -98t-136 -236q-25 -143 71 -249zM940 442q25 150 -72 250l-415 -563q49 -16 102 -16q135 0 248.5 96t136.5 233z" />
<glyph glyph-name="ugrave" unicode="&#xf9;" horiz-adv-x="1193" d="M1167 61q-10 -61 -92 -61h-170q-27 0 -40 2t-24.5 19.5t-4.5 50.5q-121 -84 -295 -84q-55 0 -98.5 7t-93.5 29.5t-72.5 77t-10.5 134.5l88 522h-110q-23 0 -36 2t-26.5 16.5t-9.5 42.5q10 63 92 64h170q51 0 63.5 -17.5t4.5 -66.5l-92 -551q-2 -33 -3 -63.5t39.5 -51 t126.5 -20.5q27 0 55.5 3t71.5 15t77 33.5t62.5 61.5t37.5 96l73 436h-110q-25 0 -38.5 2t-25.5 17.5t-8 43.5q10 61 92 62h170q51 0 63.5 -17.5t4.5 -66.5l-113 -674h111q25 0 38 -2t25 -17.5t8 -44.5zM989 1059q-2 -23 -23.5 -52.5t-56.5 -29.5q-16 0 -37 10l-251 121 q-53 27 -46 72q4 31 29 51t55 20q16 0 37 -10l252 -123q16 -8 24.5 -13t13.5 -17.5t3 -28.5z" />
<glyph glyph-name="uacute" unicode="&#xfa;" horiz-adv-x="1193" d="M1167 61q-10 -61 -92 -61h-170q-27 0 -40 2t-24.5 19.5t-4.5 50.5q-121 -84 -295 -84q-55 0 -98.5 7t-93.5 29.5t-72.5 77t-10.5 134.5l88 522h-110q-23 0 -36 2t-26.5 16.5t-9.5 42.5q10 63 92 64h170q51 0 63.5 -17.5t4.5 -66.5l-92 -551q-2 -33 -3 -63.5t39.5 -51 t126.5 -20.5q27 0 55.5 3t71.5 15t77 33.5t62.5 61.5t37.5 96l73 436h-110q-25 0 -38.5 2t-25.5 17.5t-8 43.5q10 61 92 62h170q51 0 63.5 -17.5t4.5 -66.5l-113 -674h111q25 0 38 -2t25 -17.5t8 -44.5zM1012 1180q-8 -45 -70 -72l-293 -121q-20 -10 -37 -10q-35 0 -46 29.5 t-9 52.5q6 37 61 59l293 123l41 10q31 0 47.5 -20t12.5 -51z" />
<glyph glyph-name="ucircumflex" unicode="&#xfb;" horiz-adv-x="1193" d="M1167 61q-10 -61 -92 -61h-170q-27 0 -40 2t-24.5 19.5t-4.5 50.5q-121 -84 -295 -84q-55 0 -98.5 7t-93.5 29.5t-72.5 77t-10.5 134.5l88 522h-110q-23 0 -36 2t-26.5 16.5t-9.5 42.5q10 63 92 64h170q51 0 63.5 -17.5t4.5 -66.5l-92 -551q-2 -33 -3 -63.5t39.5 -51 t126.5 -20.5q27 0 55.5 3t71.5 15t77 33.5t62.5 61.5t37.5 96l73 436h-110q-25 0 -38.5 2t-25.5 17.5t-8 43.5q10 61 92 62h170q51 0 63.5 -17.5t4.5 -66.5l-113 -674h111q25 0 38 -2t25 -17.5t8 -44.5zM1055 1090q29 -20 19.5 -55.5t-39 -49.5t-62.5 2l-189 127l-233 -127 q-37 -16 -61.5 -2t-21.5 49t38 56l266 153q35 20 62 0z" />
<glyph glyph-name="udieresis" unicode="&#xfc;" horiz-adv-x="1193" d="M1167 61q-10 -61 -92 -61h-170q-27 0 -40 2t-24.5 19.5t-4.5 50.5q-121 -84 -295 -84q-55 0 -98.5 7t-93.5 29.5t-72.5 77t-10.5 134.5l88 522h-110q-23 0 -36 2t-26.5 16.5t-9.5 42.5q10 63 92 64h170q51 0 63.5 -17.5t4.5 -66.5l-92 -551q-2 -33 -3 -63.5t39.5 -51 t126.5 -20.5q27 0 55.5 3t71.5 15t77 33.5t62.5 61.5t37.5 96l73 436h-110q-25 0 -38.5 2t-25.5 17.5t-8 43.5q10 61 92 62h170q51 0 63.5 -17.5t4.5 -66.5l-113 -674h111q25 0 38 -2t25 -17.5t8 -44.5zM706.5 1114q-6.5 -37 -38 -64.5t-72.5 -27.5q-37 0 -59.5 26.5 t-16.5 65.5q4 35 36 63.5t73 28.5q39 0 61.5 -27.5t16 -64.5zM1048.5 1114q-6.5 -37 -38 -64.5t-72.5 -27.5q-37 0 -59.5 26.5t-16.5 65.5q4 35 36 63.5t73 28.5q39 0 61.5 -27.5t16 -64.5z" />
<glyph glyph-name="yacute" unicode="&#xfd;" horiz-adv-x="1134" d="M1217 819q-10 -61 -93 -61h-82l-473 -928q-57 -113 -166.5 -205t-238.5 -92q-86 0 -135 50t-37 118q6 41 34.5 65.5t69.5 24.5q37 0 58.5 -24.5t15.5 -65.5q-2 -6 -4 -13t-4 -12.5t-2 -7.5q-2 -10 28 -10q178 0 281 215q61 121 66 127l-183 758h-84q-23 0 -37 2 t-27.5 17.5t-8.5 43.5q10 61 94 62h286q25 0 38.5 -2t25.5 -17.5t8 -44.5q-10 -61 -92 -61h-78l113 -488l26 -129l304 617h-84q-23 0 -36.5 2t-26.5 16.5t-9 42.5q10 63 92 64h289q25 0 38 -2t25.5 -17.5t8.5 -44.5zM983 1180q-8 -45 -70 -72l-292 -121q-20 -10 -37 -10 q-35 0 -46.5 29.5t-9.5 52.5q6 37 62 59l293 123l41 10q31 0 47 -20t12 -51z" />
<glyph glyph-name="thorn" unicode="&#xfe;" horiz-adv-x="1193" d="M1176 442q-33 -190 -191 -322t-344 -132q-164 0 -254 121l-74 -439h111q25 0 38 -2t25.5 -17.5t8.5 -43.5q-10 -61 -93 -62h-362q-23 0 -36 2t-26.5 16.5t-9.5 43.5q10 63 92 63h111l244 1456h-111q-23 0 -36 2t-26.5 16.5t-9.5 43.5q10 63 93 63h170q51 0 63 -17t4 -67 l-63 -383q145 111 315 111q182 0 287 -133.5t74 -319.5zM1034 442q23 133 -49 230.5t-203 97.5q-111 0 -210 -69.5t-113 -163.5l-23 -138q-18 -98 40.5 -192t176.5 -94q131 0 244.5 95t136.5 234z" />
<glyph glyph-name="ydieresis" unicode="&#xff;" horiz-adv-x="1134" d="M1217 819q-10 -61 -93 -61h-82l-473 -928q-57 -113 -166.5 -205t-238.5 -92q-86 0 -135 50t-37 118q6 41 34.5 65.5t69.5 24.5q37 0 58.5 -24.5t15.5 -65.5q-2 -6 -4 -13t-4 -12.5t-2 -7.5q-2 -10 28 -10q178 0 281 215q61 121 66 127l-183 758h-84q-23 0 -37 2 t-27.5 17.5t-8.5 43.5q10 61 94 62h286q25 0 38.5 -2t25.5 -17.5t8 -44.5q-10 -61 -92 -61h-78l113 -488l26 -129l304 617h-84q-23 0 -36.5 2t-26.5 16.5t-9 42.5q10 63 92 64h289q25 0 38 -2t25.5 -17.5t8.5 -44.5zM678 1114q-6 -37 -38 -64.5t-73 -27.5q-37 0 -59.5 26.5 t-15.5 65.5q4 35 35.5 63.5t72.5 28.5q39 0 61.5 -27.5t16.5 -64.5zM1020 1114q-6 -37 -38 -64.5t-73 -27.5q-37 0 -59.5 26.5t-15.5 65.5q4 35 35.5 63.5t72.5 28.5q39 0 61.5 -27.5t16.5 -64.5z" />
<glyph glyph-name="OE" unicode="&#x152;" horiz-adv-x="2150" d="M2103 84q-8 -49 -27.5 -66.5t-68.5 -17.5h-864q-61 0 -127 -8q-143 -14 -185 -15q-299 0 -476 190.5t-132 459.5q43 264 284 455.5t542 191.5q57 0 122 -8q119 -14 181 -15h805q51 0 63 -17t4 -67l-24 -149q-4 -27 -9.5 -41t-25 -28.5t-51.5 -14.5q-45 0 -55.5 27.5 t-0.5 56.5l19 108h-672l-70 -415h455q6 41 10 55t13.5 32.5t24.5 23.5t42 5q47 0 55.5 -21.5t1.5 -62.5l-32 -190q-4 -27 -9.5 -41t-24 -28.5t-50.5 -14.5q-49 0 -57.5 26.5t5.5 90.5h-454l-78 -461h731l25 141q4 27 9 41.5t24.5 28.5t52.5 14q45 0 55 -27.5t0 -56.5z M1180 627l32 213q35 182 5.5 245.5t-179.5 63.5q-260 0 -448.5 -150.5t-220.5 -349.5q-35 -217 100 -382t393 -165q147 0 196.5 58.5t82.5 247.5z" />
<glyph glyph-name="oe" unicode="&#x153;" horiz-adv-x="1673" d="M1649 223q-10 -61 -112.5 -148t-258.5 -87q-135 0 -223 65.5t-125 143.5q-78 -94 -184.5 -151.5t-225.5 -57.5q-182 0 -290.5 133t-77.5 323q33 190 185 323.5t335 133.5q111 0 200 -54t140 -153q72 94 175 150.5t212 56.5q170 0 245.5 -121t45.5 -311 q-6 -37 -21.5 -54.5t-30 -20.5t-43.5 -3h-559q-2 -123 79 -200.5t196 -77.5q131 0 200 123q25 45 76 45q14 0 25.5 -2.5t26 -15.5t10.5 -40zM1554 514q10 113 -31.5 187.5t-144.5 74.5q-94 0 -186 -72.5t-133 -189.5h495zM901 457q23 135 -52 227t-198 92t-228.5 -92 t-127.5 -227q-23 -141 49 -242.5t197 -101.5t231 101.5t129 242.5z" />
<glyph glyph-name="Ydieresis" unicode="&#x178;" horiz-adv-x="1552" d="M1688 1188q-10 -61 -95 -62h-98l-565 -626l-64 -375h111q25 0 38 -2t25.5 -17.5t8.5 -44.5q-10 -61 -93 -61h-362q-23 0 -36 2t-26.5 16.5t-9.5 42.5q10 63 92 64h111l63 375l-356 626h-98q-23 0 -37 2t-27.5 17.5t-9.5 44.5q10 61 94 61h320q23 0 37 -2t27.5 -17 t9.5 -44q-10 -61 -95 -62h-47l275 -483l440 483h-47q-23 0 -37 2t-27.5 17.5t-9.5 44.5q10 61 94 61h320q23 0 37 -2t27.5 -17t9.5 -44zM905 1409q-6 -37 -37.5 -64.5t-72.5 -27.5q-37 0 -60.5 27.5t-15.5 64.5q4 35 35.5 63.5t72.5 28.5q39 0 61.5 -27.5t16.5 -64.5z M1309 1409q-6 -37 -38 -64.5t-73 -27.5q-37 0 -60.5 27.5t-15.5 64.5q4 35 36 63.5t73 28.5q39 0 61.5 -27.5t16.5 -64.5z" />
<glyph glyph-name="circumflex" unicode="&#x2c6;" d="M995 1090q29 -20 20 -55.5t-39 -49.5t-63 2l-188 127l-233 -127q-37 -16 -61.5 -2t-21.5 49t37 56l267 153q35 20 61 0z" />
<glyph glyph-name="tilde" unicode="&#x2dc;" d="M1092 1171q-6 -39 -119 -112q-102 -68 -170 -68t-127 70q-39 43 -55 43q-49 0 -158 -90q-31 -23 -53 -23q-25 0 -41.5 20.5t-12.5 45.5q6 35 119 112q102 68 172 68q66 0 125 -70q39 -43 57 -43q45 0 158 90q31 23 53 23q25 0 40.5 -20.5t11.5 -45.5z" />
<glyph glyph-name="endash" unicode="&#x2013;" d="M1163 545q-10 -61 -92 -62h-909q-23 0 -36 2t-26.5 16.5t-9.5 43.5q12 63 94 63h910q25 0 38 -2t25 -17t6 -44z" />
<glyph glyph-name="emdash" unicode="&#x2014;" horiz-adv-x="2150" d="M2238 545q-10 -61 -92 -62h-1984q-23 0 -36 2t-26.5 16.5t-9.5 43.5q12 63 94 63h1985q25 0 38 -2t25 -17t6 -44z" />
<glyph glyph-name="quoteleft" unicode="&#x2018;" horiz-adv-x="598" d="M618 1188q-6 -29 -45 -55q-94 -66 -118 -166q47 -2 70.5 -25.5t20.5 -45.5t-1 -32q-6 -43 -41 -72.5t-78 -29.5q-57 0 -87 49t-15 137q20 121 107 212t132 91q25 0 42 -20t13 -43z" />
<glyph glyph-name="quoteright" unicode="&#x2019;" horiz-adv-x="598" d="M610 1065q-20 -121 -107 -212t-132 -91q-25 0 -42.5 20.5t-13.5 42.5q6 29 45 56q94 66 119 166q-47 2 -70.5 25.5t-20.5 45t1 31.5q6 43 41 72.5t78 29.5q57 0 86.5 -49t15.5 -137z" />
<glyph glyph-name="quotesinglbase" unicode="&#x201a;" horiz-adv-x="598" d="M428 16q-20 -121 -106 -212t-132 -91q-25 0 -42 20.5t-13 43.5q4 29 43 55q94 66 121 166q-47 2 -71.5 25.5t-21.5 45t1 31.5q8 43 43 73t78 30q57 0 85.5 -49.5t14.5 -137.5z" />
<glyph glyph-name="quotedblleft" unicode="&#x201c;" horiz-adv-x="1015" d="M618 1188q-6 -29 -45 -55q-94 -66 -118 -166q47 -2 70.5 -25.5t20.5 -45.5t-1 -32q-6 -43 -41 -72.5t-78 -29.5q-57 0 -87 49t-15 137q20 121 107 212t132 91q25 0 42 -20t13 -43zM1036 1188q-6 -29 -45 -55q-94 -66 -119 -166q47 -2 71 -25.5t21 -45.5t-1 -32 q-6 -43 -41 -72.5t-78 -29.5q-57 0 -87 49t-16 137q20 121 107.5 212t132.5 91q25 0 42 -20t13 -43z" />
<glyph glyph-name="quotedblright" unicode="&#x201d;" horiz-adv-x="1015" d="M610 1065q-20 -121 -107 -212t-132 -91q-25 0 -42.5 20.5t-13.5 42.5q6 29 45 56q94 66 119 166q-47 2 -70.5 25.5t-20.5 45t1 31.5q6 43 41 72.5t78 29.5q57 0 86.5 -49t15.5 -137zM1028 1065q-20 -121 -107 -212t-133 -91q-25 0 -42 20.5t-13 42.5q6 29 45 56 q94 66 119 166q-47 2 -70.5 25.5t-20.5 45t1 31.5q6 43 41 72.5t78 29.5q57 0 86.5 -49t15.5 -137z" />
<glyph glyph-name="quotedblbase" unicode="&#x201e;" horiz-adv-x="1015" d="M434 16q-20 -121 -106 -212t-131 -91q-25 0 -42.5 20.5t-13.5 43.5q4 29 43 55q94 66 121 166q-47 2 -71.5 25.5t-21.5 45t1 31.5q8 43 43 73t78 30q57 0 85.5 -49.5t14.5 -137.5zM852 16q-20 -121 -106.5 -212t-131.5 -91q-25 0 -42 20.5t-13 43.5q4 29 43 55 q94 66 121 166q-47 2 -71.5 25.5t-21.5 45t1 31.5q8 43 43 73t78 30q57 0 85.5 -49.5t14.5 -137.5z" />
<glyph glyph-name="bullet" unicode="&#x2022;" horiz-adv-x="1673" d="M1198.5 479q-20.5 -119 -116 -200.5t-214 -81.5t-187.5 81.5t-48.5 200.5t116 201t214 82t187.5 -82t48.5 -201z" />
<glyph glyph-name="ellipsis" unicode="&#x2026;" horiz-adv-x="1392" d="M418 102q-6 -43 -41 -72.5t-78 -29.5t-67.5 29.5t-18.5 72.5q8 43 43 73t78 30t67.5 -30t16.5 -73zM815 102q-6 -43 -41 -72.5t-78 -29.5t-67.5 29.5t-18.5 72.5q8 43 43 73t78 30t67.5 -30t16.5 -73zM1212 102q-6 -43 -40.5 -72.5t-77.5 -29.5t-68 29.5t-18 72.5 q8 43 42.5 73t77.5 30t67.5 -30t16.5 -73z" />
<glyph glyph-name="guilsinglleft" unicode="&#x2039;" horiz-adv-x="835" d="M606 61q2 -23 -15.5 -42t-39.5 -19h-33q-35 0 -39 33q-35 219 -157 385q-23 31 10 63q182 170 286 385q14 33 50 33h32q25 0 35 -19.5t0 -41.5q-102 -219 -264 -389q106 -171 135 -388z" />
<glyph glyph-name="guilsinglright" unicode="&#x203a;" horiz-adv-x="835" d="M653 418q-178 -166 -284 -385q-18 -33 -52 -33h-32q-23 0 -34 19.5t-1 41.5q100 215 264 388q-109 182 -133 389q-4 23 13.5 42t39.5 19h33q33 0 41 -33q31 -213 158 -385q22 -32 -13 -63z" />
<glyph glyph-name="Euro" unicode="&#x20ac;" horiz-adv-x="1345" d="M1233 37q-4 -25 -24.5 -42.5t-45.5 -17.5h-6q-31 0 -45 27l-16 31q-123 -57 -281 -58q-242 0 -381 193q-82 113 -98 262h-92q-23 0 -34 19.5t1 42.5l16 32q14 33 49 33h58q4 49 8 68q8 45 14 67h-67q-25 0 -36 19.5t1 42.5l16 32q18 33 49 33h82q70 150 185 260 q203 193 446 193q162 0 260 -57l27 30q20 27 53 27h8q25 0 39.5 -17.5t10.5 -42.5l-31 -184q-4 -25 -24.5 -42t-45.5 -17h-24q-47 0 -52 49q-2 127 -229 127q-186 0 -342 -150q-80 -78 -131 -176h594q25 0 35 -20.5t0 -42.5l-17 -33q-16 -31 -51 -31h-612q-6 -23 -15 -67 q-4 -20 -8 -68h535q25 0 36 -20.5t-1 -42.5l-17 -33q-16 -31 -49 -31h-496q20 -104 74 -178q106 -150 291 -150q227 0 272 127q18 49 68 50h24q25 0 39.5 -17.5t10.5 -42.5z" />
<glyph glyph-name="trademark" unicode="&#x2122;" horiz-adv-x="2078" d="M1069 1112q-8 -51 -53 -51q-27 0 -32 16.5t1 34.5l10 66h-290l-101 -603h115q14 0 21.5 -1t15.5 -10t6 -25q-6 -37 -55 -37h-314q-14 0 -22.5 1t-16.5 10t-6 26q6 37 58 36h112l100 603h-290l-11 -66q-8 -51 -53 -51q-27 0 -32 16.5t1 34.5l15 90q4 29 16 39t41 10h737 q31 0 38 -10t3 -39zM2054 539q-6 -37 -55 -37h-203q-14 0 -21.5 1t-15.5 10t-6 26q6 37 55 36h68l98 596h-2l-370 -614q-27 -43 -60 -43q-39 0 -45 45l-168 612h-2l-98 -596h67q14 0 21.5 -1t15.5 -10t6 -25q-6 -37 -55 -37h-203q-14 0 -21 1t-15.5 10t-6.5 26q6 37 56 36 h67l101 603h-68q-14 0 -21.5 1t-15.5 10t-6 25q6 37 55 37h119q31 0 43 -9t21 -36l165 -612l371 614q27 43 80 43h119q14 0 21 -1t15.5 -10t6.5 -26q-6 -37 -56 -36h-67l-100 -603h67q14 0 21.5 -1t15.5 -10t6 -25z" />
</font>
</defs>
</svg>
