<?xml version="1.0" standalone="no"?>
<!DOCTYPE svg PUBLIC "-//W3C//DTD SVG 1.1//EN" "http://www.w3.org/Graphics/SVG/1.1/DTD/svg11.dtd" >
<svg xmlns="http://www.w3.org/2000/svg">
<defs>
<font id="LMMonoPropLt10-Regular" horiz-adv-x="1075" >
<font-face  font-family="LM Mono Prop Light 10" font-weight="400" font-stretch="normal" units-per-em="2048" panose-1="0 0 5 0 0 0 0 0 0 0" ascent="1579" descent="-469" x-height="872" cap-height="1251" bbox="-88 -492 2163 1583" underline-thickness="106" underline-position="-246" unicode-range="U+0020-U+2122"/>
<missing-glyph horiz-adv-x="716" />
<glyph glyph-name=".notdef" horiz-adv-x="716" />
<glyph glyph-name=".null" horiz-adv-x="0" />
<glyph glyph-name="nonmarkingreturn" horiz-adv-x="682" />
<glyph glyph-name="space" unicode=" "  horiz-adv-x="716" />
<glyph glyph-bame="tab" unicode="&#x09;" horiz-adv-x="716" />
<glyph glyph-bame="uni00A0" unicode="&#xa0;" horiz-adv-x="716" />
<glyph glyph-name="exclam" unicode="!" horiz-adv-x="598" d="M385 1174l-18 -703q-2 -53 -12.5 -67.5t-55.5 -14.5q-63 0 -66 35l-20 750q0 41 19.5 65.5t36 29.5t30.5 5q12 0 21.5 -2t28 -9.5t27.5 -30.5t9 -58zM385 86q0 -35 -24.5 -60.5t-61.5 -25.5t-61.5 25.5t-24.5 60.5q0 37 24.5 61.5t61.5 24.5t61.5 -24.5t24.5 -61.5z" />
<glyph glyph-name="quotedbl" unicode="&#x22;" horiz-adv-x="884" d="M350 819q0 -20 -10 -67t-21 -47h-49q-12 0 -21 46t-9 68v424q0 12 9 22.5t21 10.5h49q31 0 31 -33v-424zM645 819q0 -20 -10 -67t-21 -47h-49q-12 0 -21 46t-9 68v424q0 12 9 22.5t21 10.5h49q31 0 31 -33v-424z" />
<glyph glyph-name="numbersign" unicode="#" horiz-adv-x="1792" d="M1675 467q0 -55 -88 -55h-483l-154 -363q-20 -49 -55 -49q-23 0 -39 16.5t-16 38.5q0 14 12 39l133 318h-360l-152 -363l-4 -7q-4 -7 -4 -9t-4 -8.5t-6 -8.5t-7.5 -6t-9.5 -6t-10 -3t-12 -1q-23 0 -39.5 16.5t-16.5 38.5q2 14 13 39l133 318h-303q-88 0 -88 55 q0 53 75 53h363l88 213h-451q-76 0 -75 53q0 55 88 56h485l158 377q16 33 49 32q23 0 39 -16t16 -39q0 -14 -12 -39l-131 -315h360l158 377q16 33 49 32q23 0 39.5 -16t16.5 -39q0 -10 -13 -39l-131 -315h301q88 0 88 -56q0 -53 -76 -53h-360l-88 -213h448q76 0 76 -53z M1120 733h-360l-88 -213h360z" />
<glyph glyph-name="dollar" unicode="$" d="M948 342q0 -119 -92 -222.5t-272 -129.5v-99q0 -68 -45 -67q-47 0 -47 67v97q-178 18 -272.5 114.5t-94.5 229.5q0 35 17.5 56.5t31.5 25.5t27 4q29 0 51 -21.5t22 -54.5q0 -43 -36 -66q51 -170 254 -196v526q-100 18 -173 55t-109 74t-56.5 82t-24.5 69.5t-4 47.5 q0 119 98.5 213t268.5 115v98q0 68 47 67q45 0 45 -67v-96q180 -16 272 -105.5t92 -212.5q0 -43 -22.5 -64.5t-53.5 -21.5q-33 0 -53 22.5t-20 51.5q0 37 35 63q-47 147 -250 174v-475q109 -20 185.5 -64t112.5 -98.5t51 -101.5t15 -90zM492 717v454q-121 -18 -196 -81.5 t-75 -145.5q0 -84 76 -145.5t195 -81.5zM852 334q0 88 -71.5 157.5t-196.5 94.5v-506q123 23 195.5 93.5t72.5 160.5z" />
<glyph glyph-name="percent" unicode="%" horiz-adv-x="1792" d="M1442 1372q0 -14 -12 -35l-975 -1476q-25 -37 -52 -37q-23 0 -39 16.5t-16 38.5q0 16 19 45l970 1473q20 31 49 30q23 0 39.5 -16t16.5 -39zM692 1034q0 -164 -85 -277.5t-203.5 -113.5t-203.5 112.5t-85 280.5q0 164 85 277.5t203.5 113.5t203.5 -112.5t85 -280.5z M1675 215q0 -164 -85 -277.5t-203.5 -113.5t-203.5 112.5t-85 280.5q0 164 85 277.5t203.5 113.5t203.5 -112.5t85 -280.5zM1595 217q0 127 -63.5 213t-145.5 86q-80 0 -144 -86t-64 -215q0 -125 63.5 -212t144.5 -87q80 0 144.5 86t64.5 215zM612 1036q0 125 -63.5 212 t-145.5 87q-80 0 -144 -86t-64 -215q0 -127 63.5 -213t144.5 -86q80 0 144.5 86t64.5 215z" />
<glyph glyph-name="ampersand" unicode="&#x26;" horiz-adv-x="1673" d="M1569 825q0 -45 -66 -45h-157l-181 -291l-32 -49q-133 -182 -205 -254q178 -119 334 -118q80 0 142 37.5t73 111.5q10 37 39 37q4 0 10 -2t17 -14.5t11 -32.5q0 -88 -80.5 -158t-211.5 -70q-182 0 -400 150q-188 -150 -393 -150q-160 0 -271.5 83t-111.5 212 q0 127 117 215l237 166q-76 178 -75 338q0 133 85 208t187 75q109 0 173 -84t64 -186q0 -88 -76.5 -175.5t-248.5 -210.5q109 -203 311 -378q102 102 176 206.5t213 333.5h-194q-66 0 -66 45q0 47 66 47h448q66 0 66 -47zM793 1004q0 66 -41 123t-115 57q-66 0 -129.5 -47 t-63.5 -146q0 -133 64 -289q285 198 285 302zM797 186q-90 78 -164 168q-96 117 -150 215q-176 -115 -232 -168t-56 -125q0 -88 79.5 -148t196.5 -60q156 -1 326 118z" />
<glyph glyph-name="quotesingle" unicode="'" horiz-adv-x="598" d="M354 819q0 -20 -10 -67t-20 -47h-50q-12 0 -21 46t-9 68v424q0 12 9 22.5t21 10.5h50q31 0 30 -33v-424z" />
<glyph glyph-name="parenleft" unicode="(" horiz-adv-x="835" d="M705 -133q0 -39 -48 -39q-39 0 -133 79t-172 183q-166 242 -166 537q0 147 43 283.5t105.5 226.5t131.5 158.5t120 100t71 31.5q25 0 36.5 -13t11.5 -28q0 -18 -41 -47q-199 -135 -285 -328.5t-86 -383.5q0 -199 90 -390.5t276 -320.5q46 -26 46 -49z" />
<glyph glyph-name="parenright" unicode=")" horiz-adv-x="835" d="M647 627q0 -147 -43 -283.5t-105.5 -226.5t-131 -158t-119.5 -99.5t-72 -31.5q-25 0 -36 13.5t-11 25.5q0 20 39 47q201 135 287 327.5t86 385.5q0 70 -12.5 142.5t-48.5 179t-122 215t-213 192.5q-16 12 -16 30q0 12 11.5 26.5t35.5 14.5q37 0 132 -79.5t173 -184.5 q166 -241 166 -536z" />
<glyph glyph-name="asterisk" unicode="*" d="M928 432q0 -18 -14.5 -34.5t-36.5 -16.5q-14 0 -68 33l-231 137q10 -115 10 -291q0 -70 -51.5 -70t-51.5 70q0 176 11 289l-289 -166q-61 2 -62 49q0 25 43 53l261 142l-263 141q-41 25 -41 51q0 18 14.5 34.5t37.5 16.5q6 0 14 -4l285 -164q-10 113 -11 289 q0 70 51.5 70t51.5 -70q0 -176 -10 -289l288 166q61 -2 62 -49q0 -25 -43 -53l-260 -141l286 -154q17 -25 17 -39z" />
<glyph glyph-name="plus" unicode="+" horiz-adv-x="1673" d="M1554 626.5q0 -55.5 -79 -55.5h-584v-583q0 -80 -55.5 -80t-55.5 80v583h-583q-80 0 -80 55.5t80 55.5h583v584q0 80 55.5 80t55.5 -80v-584h584q79 0 79 -55.5z" />
<glyph glyph-name="comma" unicode="," horiz-adv-x="598" d="M412 2q0 -117 -63.5 -206t-106.5 -89q-18 0 -33.5 14.5t-15.5 30.5q0 18 26 41q86 72 100 205q-47 4 -73.5 25.5t-29.5 36t-3 26.5q0 37 24.5 61.5t61.5 24.5q49 0 81 -43t32 -127z" />
<glyph glyph-name="hyphen" unicode="-" horiz-adv-x="716" d="M584 434q0 -43 -66 -43h-420q-66 0 -65.5 45t65.5 45h420q66 0 66 -47z" />
<glyph glyph-name="period" unicode="." horiz-adv-x="598" d="M385 86q0 -35 -24.5 -60.5t-61.5 -25.5t-61.5 25.5t-24.5 60.5q0 37 24.5 61.5t61.5 24.5t61.5 -24.5t24.5 -61.5z" />
<glyph glyph-name="slash" unicode="/" d="M948 1372q0 -10 -14 -43l-698 -1456q-18 -49 -56 -49q-23 0 -39 16.5t-16 38.5q0 10 14 43l697 1456q23 49 57 49q23 0 39 -16t16 -39z" />
<glyph glyph-name="zero" unicode="0" d="M965 625q0 -47 -1 -80t-9.5 -105.5t-24 -127t-47 -121t-74.5 -110.5t-113.5 -74t-158.5 -30q-428 0 -428 650q0 47 1 79.5t9 105.5t23.5 127t47 120.5t74.5 110.5t114 74t159 30q428 0 428 -649zM858 645q0 45 -2 83t-10 108.5t-30.5 125t-55.5 108.5t-90.5 84t-133 30 t-133 -30t-90 -84t-55 -108.5t-31 -125t-10.5 -108.5t-2 -83q0 -37 1 -69.5t8 -95t18.5 -113t36 -108.5t57.5 -98t85 -66.5t115.5 -26.5t116 26.5t85 66.5t57 98t36 108.5t18.5 113t8 95t1 69.5z" />
<glyph glyph-name="one" unicode="1" d="M897 45q0 -45 -66 -45h-528q-66 0 -65.5 45t65.5 45h211v1028q-121 -63 -235 -63q-55 0 -55.5 45t44.5 45q186 16 283 121q10 8 27 8q43 0 43 -68v-1116h210q66 0 66 -45z" />
<glyph glyph-name="two" unicode="2" d="M961 68q0 -41 -12.5 -54.5t-53.5 -13.5h-715q-68 0 -67 47q0 20 24 41l467 393q250 211 250 402q0 141 -104.5 221t-251.5 80q-94 0 -167 -50.5t-102 -138.5q33 -25 33 -61q0 -33 -22.5 -54.5t-51.5 -21.5q-27 0 -51 20.5t-24 63.5q0 133 112.5 232.5t284.5 99.5 q190 0 320.5 -107.5t130.5 -283.5q0 -193 -183 -371q-76 -70 -259 -222.5l-238 -199.5h573q0 41 2 57.5t14.5 29.5t37 13t36.5 -12t14.5 -23.5t2.5 -31.5v-55z" />
<glyph glyph-name="three" unicode="3" d="M977 348q0 -147 -123 -259t-313.5 -112t-317.5 80t-127 211q0 37 22.5 58.5t53.5 21.5t52.5 -21.5t21.5 -52t-31 -61.5q43 -80 139.5 -112.5t186.5 -32.5q145 0 237 85t92 195q0 109 -90 196t-245 87h-97q-66 0 -65 47q0 29 24.5 37t108.5 12q51 4 75.5 8t60.5 18.5 t71 41.5q96 80 96 198q0 80 -77 135.5t-191 55.5q-176 0 -260 -84q27 -31 26 -58q0 -33 -22.5 -54t-51 -21t-52 20.5t-23.5 59.5q0 104 101 165.5t280 61.5q168 0 272 -82t104 -197q0 -184 -196 -313q258 -117 258 -334z" />
<glyph glyph-name="four" unicode="4" d="M1010 401q0 -45 -66 -45h-184v-266h149q66 0 66 -45t-66 -45h-379q-66 0 -65.5 45t65.5 45h150v266h-551q-39 0 -52.5 13.5t-13.5 52.5q0 41 17 63l481 756q16 25 27.5 30t44.5 5h59q43 0 55.5 -13.5t12.5 -54.5v-762h184q66 0 66 -45zM680 446v740h-51l-471 -740h522z " />
<glyph glyph-name="five" unicode="5" d="M961 381q0 -168 -132.5 -286t-320.5 -118q-168 0 -281.5 89.5t-113.5 214.5q0 43 24.5 62t50.5 19q29 0 51.5 -20t22.5 -55q0 -29 -31 -64q45 -90 124 -122.5t153 -32.5q141 0 243.5 91t102.5 222q0 121 -79 216t-210 95q-184 0 -289 -123q-12 -14 -38 -14q-49 0 -50 68 v561q0 41 12.5 54t53.5 13h567q66 0 66 -47q0 -43 -66 -43h-524v-452q137 74 270 73q172 0 283 -120.5t111 -280.5z" />
<glyph glyph-name="six" unicode="6" d="M958 389q0 -178 -123.5 -295t-293.5 -117q-176 0 -301 152t-125 483q0 297 164.5 479.5t382.5 182.5q131 0 196.5 -58.5t65.5 -140.5q0 -37 -22.5 -58.5t-55.5 -21.5q-31 0 -52.5 21.5t-21.5 52.5q0 33 31 61q-53 53 -144 54q-158 0 -284.5 -141.5t-153.5 -395.5 q166 150 338 150q168 0 283.5 -118t115.5 -290zM852 389q0 129 -85 222.5t-218 93.5q-129 0 -217 -75t-88 -181q0 -88 16 -136q37 -111 107.5 -178t173.5 -67q127 0 219 90t92 231z" />
<glyph glyph-name="seven" unicode="7" d="M977 1204q0 -18 -8 -26q-500 -487 -500 -1141q-2 -59 -53 -60q-55 0 -56 80q0 100 18.5 215t64.5 263.5t144.5 313.5t235.5 312h-620q0 -57 -8.5 -78.5t-47.5 -21.5q-35 0 -43 17.5t-8 49.5v91q0 20 2 30.5t13.5 22.5t35.5 12q43 0 56 -33h708q66 0 66 -47z" />
<glyph glyph-name="eight" unicode="8" d="M977 348q0 -150 -127 -260.5t-313.5 -110.5t-313.5 111t-127 260q0 242 297 326q-152 51 -210 119.5t-58 162.5q0 125 117.5 221.5t294 96.5t294 -95.5t117.5 -222.5q0 -94 -57 -162.5t-211 -119.5q297 -86 297 -326zM840 954q0 90 -87 160t-216 70q-131 0 -217.5 -70 t-86.5 -160q0 -94 89.5 -161.5t214.5 -67.5t214 66.5t89 162.5zM870 350q0 109 -93 193t-240.5 84t-240.5 -84t-93 -193q0 -117 97 -199.5t236.5 -82.5t236.5 82.5t97 199.5z" />
<glyph glyph-name="nine" unicode="9" d="M958 639q0 -293 -153.5 -477.5t-364.5 -184.5q-88 0 -150.5 21.5t-90 55.5t-38.5 63.5t-11 58.5q0 37 22.5 58.5t54.5 21.5q31 0 52.5 -21.5t21.5 -52.5q0 -29 -29 -63q70 -51 168 -51q160 0 275.5 148.5t134.5 387.5q-162 -150 -336 -149q-168 0 -283.5 117.5 t-115.5 289.5q0 178 127 295t301 117q78 0 147.5 -32t132 -100.5t99 -197.5t36.5 -305zM831 803q0 168 -90 282q-78 98 -198 99q-127 0 -224.5 -90t-97.5 -232q0 -129 85 -222t218 -93t220 79t87 177z" />
<glyph glyph-name="colon" unicode=":" horiz-adv-x="598" d="M385 784q0 -35 -24.5 -60.5t-61.5 -25.5t-61.5 26t-24.5 60q0 37 24.5 62.5t61.5 25.5t61.5 -25.5t24.5 -62.5zM385 86q0 -35 -24.5 -60.5t-61.5 -25.5t-61.5 25.5t-24.5 60.5q0 37 24.5 61.5t61.5 24.5t61.5 -24.5t24.5 -61.5z" />
<glyph glyph-name="semicolon" unicode=";" horiz-adv-x="598" d="M385 784q0 -35 -24.5 -60.5t-61.5 -25.5t-61.5 26t-24.5 60q0 37 24.5 62.5t61.5 25.5t61.5 -25.5t24.5 -62.5zM391 14q0 -127 -54 -217t-95 -90q-18 0 -33.5 15.5t-15.5 31.5q0 12 10 23q90 104 100 221q-90 18 -90 88q0 37 24.5 61.5t61.5 24.5q92 0 92 -158z" />
<glyph glyph-name="less" unicode="&#x3c;" d="M952 172q0 -25 -17 -39t-38 -14q-16 0 -45 18l-702 441q-29 20 -29 49q0 27 37 53l694 436q29 18 45 19q20 0 37.5 -14.5t17.5 -39.5q0 -31 -41 -57l-632 -397l632 -398q41 -26 41 -57z" />
<glyph glyph-name="equal" unicode="=" horiz-adv-x="1673" d="M1554 786q0 -53 -75 -53h-1286q-76 0 -76 53q0 55 88 56h1261q88 -1 88 -56zM1554 467q0 -55 -88 -55h-1261q-88 0 -88 55q0 53 76 53h1286q75 0 75 -53z" />
<glyph glyph-name="greater" unicode="&#x3e;" d="M952 627q0 -27 -37 -54l-694 -436q-29 -18 -45 -18q-20 0 -37.5 14t-17.5 39q0 31 41 57l633 398l-633 397q-41 27 -41 57q0 25 17.5 39.5t37.5 14.5q16 0 45 -19l703 -440q28 -20 28 -49z" />
<glyph glyph-name="question" unicode="?" horiz-adv-x="1015" d="M887 1022q0 -115 -117 -184q-106 -63 -167.5 -143.5t-61.5 -205.5v-34q0 -41 -12.5 -53.5t-51.5 -12.5q-45 0 -55 16.5t-10 73.5q0 55 7 95t33.5 98.5t90 118t164.5 118.5q74 53 73 113q0 63 -73.5 107.5t-219.5 44.5q-160 0 -237 -93q27 -33 26 -59q0 -33 -22.5 -54.5 t-50.5 -21.5q-31 0 -53.5 20.5t-22.5 59.5q0 98 93 168t267 70q117 0 201 -25t124 -63.5t57.5 -76.5t17.5 -77zM563 86q0 -35 -25.5 -60.5t-60.5 -25.5q-37 0 -62.5 25.5t-25.5 60.5q0 37 25.5 61.5t62.5 24.5q35 0 60.5 -24.5t25.5 -61.5z" />
<glyph glyph-name="at" unicode="@" horiz-adv-x="1433" d="M1313 150q0 -20 -25 -35q-219 -127 -448 -127q-301 0 -511 188.5t-210 450.5t211 449.5t506 187.5q477 0 477 -617q0 -205 -119 -314.5t-262 -109.5q-154 0 -265.5 117t-111.5 287q0 164 110.5 282.5t268.5 118.5q113 0 266 -106q-74 160 -151 200q-88 51 -213 52 q-262 0 -448.5 -161t-186.5 -388q0 -221 185 -384t452 -163q184 0 379 108q10 4 34 4q62 1 62 -40zM1231 627q0 127 -86 218t-213 91q-121 0 -209 -90t-88 -221q0 -127 87 -218.5t212 -91.5q121 0 209 90.5t88 221.5z" />
<glyph glyph-name="A" unicode="A" horiz-adv-x="1552" d="M1468 45q0 -45 -65 -45h-336q-68 0 -68 47q0 43 68 43h113l-99 272h-612l-98 -272h112q68 0 68 -45t-68 -45h-336q-66 0 -65 47q0 43 65 43h111l404 1129q10 27 27.5 40t29.5 15t37 2h39q25 0 38 -2t29.5 -15.5t26.5 -41.5l403 -1127h111q65 0 65 -45zM1049 455l-265 731 h-22l-260 -731h547z" />
<glyph glyph-name="B" unicode="B" horiz-adv-x="1492" d="M1372 334q0 -133 -136 -233.5t-337 -100.5h-739q-66 0 -66 45t66 45h131v1071h-131q-66 0 -66 43q0 47 66 47h680q199 0 335 -92t136 -215q0 -111 -76 -179.5t-246 -109.5q219 -39 301 -121.5t82 -199.5zM1204 942q0 86 -105.5 152.5t-262.5 66.5h-437v-465h369 q190 0 313 74t123 172zM1264 338q0 106 -138.5 187t-332.5 81h-394v-516h441q174 0 299 72t125 176z" />
<glyph glyph-name="C" unicode="C" horiz-adv-x="1552" d="M1432 336q0 -158 -160 -258.5t-430 -100.5q-311 0 -517 192.5t-206 457.5q0 262 206.5 454.5t512.5 192.5q274 0 454 -141q33 72 66 131q14 10 31 10q43 0 43 -68v-293q0 -23 -2.5 -34t-14.5 -22t-37 -11q-43 0 -51 31q-12 47 -22.5 74.5t-48 74.5t-99.5 84 q-127 74 -305 74q-266 0 -446.5 -166t-180.5 -391q0 -227 180.5 -393t450.5 -166q184 0 307 61q70 33 108 77t45 70.5t9 65.5q2 45 53 45q54 0 54 -51z" />
<glyph glyph-name="D" unicode="D" horiz-adv-x="1613" d="M1493 614q0 -254 -191.5 -434t-465.5 -180h-678q-66 0 -66 45t66 45h133v1071h-133q-66 0 -66 43q0 47 66 47h678q272 0 464.5 -187.5t192.5 -449.5zM1384 616.5q0 217.5 -168.5 381t-418.5 163.5h-400v-1071h402q246 0 415.5 154.5t169.5 372z" />
<glyph glyph-name="E" unicode="E" horiz-adv-x="1433" d="M1372 68q0 -41 -12 -54.5t-53 -13.5h-1147q-66 0 -66 45t66 45h133v1071h-133q-66 0 -66 43q0 47 66 47h1087q41 0 53.5 -14t12.5 -53v-154q0 -23 -2 -34t-14.5 -22t-39.5 -11q-25 0 -37 12t-14 23.5t-2 31.5v131h-805v-467h459q0 76 8 98.5t47 22.5q25 0 37.5 -12 t14.5 -23.5t2 -31.5v-197q0 -20 -2 -31.5t-14.5 -24t-37.5 -12.5q-39 0 -47 22.5t-8 98.5h-459v-514h867v166q0 20 2 31.5t14 24t39 12.5q35 0 43 -17.5t8 -50.5v-188z" />
<glyph glyph-name="F" unicode="F" horiz-adv-x="1374" d="M1282 1030q0 -23 -2 -34t-14.5 -22t-38.5 -11q-25 0 -37 12t-14 23.5t-2 31.5v131h-773v-489h445q0 74 8 96.5t47 22.5q25 0 37 -12.5t14 -24t2 -31.5v-195q0 -20 -2 -31.5t-14 -23.5t-37 -12q-39 0 -47 22.5t-8 96.5h-445v-490h185q63 0 63 -45t-63 -45h-426 q-66 0 -66 45t66 45h133v1071h-133q-66 0 -66 43q0 47 66 47h1057q41 0 53 -14t12 -53v-154z" />
<glyph glyph-name="G" unicode="G" horiz-adv-x="1673" d="M1585 485q0 -45 -67 -45h-86v-372q0 -20 -2.5 -31.5t-14.5 -24t-37 -12.5q-27 0 -39 11.5t-14 22.5t-2 34v120q-215 -211 -492 -211q-297 0 -505.5 190.5t-208.5 459.5q0 262 206.5 454.5t512.5 192.5q279 0 454 -141q33 74 68 131q10 10 28 10q45 0 46 -68v-293 q0 -23 -2.5 -34t-14.5 -22t-39 -11q-41 0 -51 31q-12 47 -22.5 74.5t-48 74.5t-99.5 84q-127 74 -305 74q-264 0 -445.5 -165t-181.5 -394q0 -227 181.5 -392t437.5 -165q178 0 311 101t168 271h-209q-66 0 -65 47q0 45 65 45h406q67 0 67 -47z" />
<glyph glyph-name="H" unicode="H" horiz-adv-x="1552" d="M1458 45q0 -45 -65 -45h-375q-63 0 -63.5 45t63.5 45h133v516h-752v-516h131q66 0 66 -45t-66 -45h-372q-66 0 -66 45t66 45h133v1071h-133q-66 0 -66 43q0 47 66 47h372q66 0 66 -47q0 -43 -66 -43h-131v-465h752v465h-133q-63 0 -64 43q0 47 64 47h375q66 0 65 -47 q0 -43 -65 -43h-133v-1071h133q65 0 65 -45z" />
<glyph glyph-name="I" unicode="I" horiz-adv-x="716" d="M621 45q0 -45 -66 -45h-395q-66 0 -66 45t66 45h143v1071h-143q-66 0 -66 43q0 47 66 47h395q66 0 66 -47q0 -43 -66 -43h-143v-1071h143q66 0 66 -45z" />
<glyph glyph-name="J" unicode="J" d="M973 1206q0 -45 -68 -45h-82v-897q0 -131 -99 -209t-241 -78q-147 0 -239 59.5t-92 153.5q0 39 22.5 59.5t54.5 20.5q31 0 52.5 -22.5t21.5 -50.5q0 -27 -24 -58q78 -72 204 -71q27 0 57.5 6t74.5 23.5t73 64.5t29 114v885h-193q-68 0 -67.5 45t67.5 45h381q68 0 68 -45z " />
<glyph glyph-name="K" unicode="K" horiz-adv-x="1613" d="M1524 45q0 -45 -68 -45h-264q-66 0 -66 45q0 16 6.5 25.5t27 13.5t40 5t66.5 1l-518 592l-359 -291v-301h129q66 0 66 -45t-66 -45h-346q-66 0 -66 45t66 45h129v1071h-129q-66 0 -66 43q0 47 66 47h346q66 0 66 -47q0 -43 -66 -43h-129v-663l815 663q-51 0 -72.5 1 t-43 5t-27.5 13.5t-6 25.5q0 45 63 45h307q68 0 68 -47q0 -43 -68 -43h-86l-524 -424l563 -647h78q68 0 68 -45z" />
<glyph glyph-name="L" unicode="L" horiz-adv-x="1314" d="M1221 68q0 -41 -12.5 -54.5t-53.5 -13.5h-993q-66 0 -66 45t66 45h133v1071h-133q-66 0 -66 43q0 47 66 47h424q66 0 65 -47q0 -43 -65 -43h-185v-1071h713v166q0 23 2 34t14.5 22.5t37 11.5t37 -12.5t14.5 -24t2 -31.5v-188z" />
<glyph glyph-name="M" unicode="M" horiz-adv-x="1910" d="M1806 45q0 -45 -65 -45h-346q-66 0 -66 47q0 43 66 43h133v1071h-27l-461 -1075q-16 -35 -42.5 -54.5t-43.5 -19.5q-51 0 -80 64l-466 1085h-27v-1071h133q66 0 66 -45t-66 -45h-346q-66 0 -66 45t66 45h133v1071h-133q-66 0 -66 43q0 47 66 47h203q47 0 71.5 -13 t42.5 -54l469 -1092l469 1098q27 61 115 61h203q66 0 65 -47q0 -43 -65 -43h-133v-1071h133q65 0 65 -45z" />
<glyph glyph-name="N" unicode="N" horiz-adv-x="1552" d="M1444 1204q0 -43 -66 -43h-133v-1093q0 -41 -14 -54.5t-53 -13.5q-90 0 -127 61l-629 1100h-37v-1071h133q66 0 66 -45t-66 -45h-346q-66 0 -66 45t66 45h133v1071h-133q-66 0 -66 43q0 47 66 47h201q90 0 127 -61l628 -1100h37v1071h-133q-66 0 -65 43q0 47 65 47h346 q66 0 66 -47z" />
<glyph glyph-name="O" unicode="O" horiz-adv-x="1673" d="M1554 625q0 -262 -208.5 -455t-509.5 -193t-510 190.5t-209 459.5q0 264 209 455.5t510 191.5t509.5 -190.5t208.5 -458.5zM1448 649q0 219 -178 377t-434 158t-434.5 -158t-178.5 -377q0 -238 178.5 -409.5t434.5 -171.5q254 0 433 171.5t179 409.5z" />
<glyph glyph-name="P" unicode="P" horiz-adv-x="1433" d="M1313 884.5q0 -149.5 -145.5 -259t-358.5 -109.5h-410v-426h133q66 0 66 -45t-66 -45h-372q-66 0 -66 45t66 45h133v1071h-133q-66 0 -66 43q0 47 66 47h649q213 0 358.5 -108.5t145.5 -258zM1204 884.5q0 110.5 -125 193.5t-305 83h-375v-553h375q180 0 305 83 t125 193.5z" />
<glyph glyph-name="Q" unicode="Q" horiz-adv-x="1673" d="M1554 625q0 -43 -6 -87t-29.5 -111t-63.5 -128t-115.5 -130t-176.5 -124l246 -268l41 -53q0 -16 -47 -17q-55 0 -82 31l-209 231l-39 39q-16 0 -29 -4q-106 -27 -208 -27q-301 0 -510 190.5t-209 459.5q0 264 209 455.5t510 191.5t509.5 -190.5t208.5 -458.5zM1448 627 q0 227 -178 392t-434 165q-254 0 -433.5 -164t-179.5 -395q0 -227 178.5 -392t434.5 -165q72 0 168 18l-187 215q2 23 47 23q41 0 62 -19q8 -8 26.5 -29.5t57.5 -62.5l86 -92q162 72 257 208t95 298z" />
<glyph glyph-name="R" unicode="R" horiz-adv-x="1552" d="M1548 180q0 -76 -61.5 -139.5t-157.5 -63.5q-123 0 -188 86q-37 49 -45.5 96.5t-8.5 151.5q0 111 -14 146t-80 73q-102 49 -274 50h-320v-490h131q66 0 66 -45t-66 -45h-372q-66 0 -66 45t66 45h133v1071h-133q-66 0 -66 43q0 47 66 47h565q225 0 390 -97t165 -239 q0 -168 -268 -284q109 -55 147 -111q27 -41 33 -75.5t6 -122.5q0 -63 3 -101.5t16.5 -77.5t41 -57t72.5 -18t79 28.5t34 83.5q0 45 51 45q55 0 55 -45zM1171 915.5q0 102.5 -142 174t-324 71.5h-306v-489h306q184 0 325 70.5t141 173z" />
<glyph glyph-name="S" unicode="S" horiz-adv-x="1193" d="M1069 332q0 -141 -115.5 -248t-306.5 -107q-254 0 -405 113q-29 -74 -40.5 -93.5t-33.5 -19.5q-45 0 -45 68v279q0 20 2 31.5t14.5 23.5t38.5 12q49 0 53 -53q4 -76 33 -123t92 -86q109 -61 293 -61q145 0 232.5 77.5t87.5 178.5q0 43 -18.5 84t-37.5 60l-18 19 q-51 43 -90 58.5t-150 38.5l-92 18q-117 25 -160 36t-93 34.5t-89 60.5q-98 94 -98 215q0 131 116.5 228.5t299.5 97.5q209 0 350 -121q29 82 40 101.5t34 19.5q45 0 45 -68v-278q0 -20 -2 -31.5t-14.5 -24t-39.5 -12.5q-31 0 -40 12.5t-15 40.5q-51 270 -360 271 q-137 0 -225.5 -70t-88.5 -158q0 -92 76 -148t147 -71l312 -65q137 -29 224 -124t87 -216z" />
<glyph glyph-name="T" unicode="T" horiz-adv-x="1552" d="M1475 1030q0 -23 -2.5 -34t-14.5 -22t-39 -11q-25 0 -37 12t-14 23.5t-2 31.5v131h-537v-1071h215q68 0 68 -45t-68 -45h-538q-68 0 -68 47q0 43 68 43h215v1071h-539v-131q0 -23 -2 -34t-14 -22t-37 -11t-37 12t-14 23.5t-2 31.5v154q0 41 13 54t54 13h1266 q41 0 53.5 -14t12.5 -53v-154z" />
<glyph glyph-name="U" unicode="U" horiz-adv-x="1552" d="M1458 1204q0 -43 -65 -43h-133v-745q0 -186 -141.5 -312.5t-344.5 -126.5q-199 0 -341 125t-142 314v745h-133q-66 0 -66 43q0 47 66 47h372q66 0 66 -47q0 -43 -66 -43h-131v-733q0 -172 116 -266t261 -94q139 0 257 93t118 267v733h-133q-63 0 -64 43q0 47 64 47h375 q65 0 65 -47z" />
<glyph glyph-name="V" unicode="V" horiz-adv-x="1552" d="M1495 1204q0 -43 -65 -43h-99l-438 -1116q-10 -29 -26.5 -43t-31 -16t-40.5 -2h-39q-47 0 -66.5 13t-32.5 50l-438 1114h-98q-66 0 -66 45t66 45h323q68 0 68 -47q0 -43 -68 -43h-110l428 -1087h29l423 1087h-108q-68 0 -68 43q0 47 68 47h324q65 0 65 -47z" />
<glyph glyph-name="W" unicode="W" horiz-adv-x="2150" d="M2111 1204q0 -43 -67 -43h-86l-336 -1120q-8 -27 -25.5 -40t-31 -15t-39.5 -2q-47 0 -63.5 12t-30.5 53l-338 1112h-41l-336 -1114q-8 -31 -22.5 -45t-29 -16t-44.5 -2q-68 0 -86 34l-345 1143h-86q-68 0 -67.5 45t67.5 45h285q68 0 68 -47q0 -43 -68 -43h-115l326 -1087 h41l338 1120q8 27 23.5 40t30 15t42.5 2q27 0 40 -2t30.5 -15t25.5 -40l334 -1120h41l328 1087h-115q-68 0 -67 43q0 47 67 47h285q67 0 67 -47z" />
<glyph glyph-name="X" unicode="X" horiz-adv-x="1552" d="M1462 45q0 -45 -67 -45h-332q-66 0 -66 45t66 45h82l-385 498l-365 -498h86q68 0 68 -45t-68 -45h-329q-68 0 -68 45t68 45h112l436 576l-401 495h-111q-68 0 -67.5 45t67.5 45h328q68 0 68 -47q0 -43 -68 -43h-80l324 -405l301 405h-84q-68 0 -68 45t68 45h330 q68 0 67 -47q0 -43 -67 -43h-113l-377 -497l463 -574h115q67 0 67 -45z" />
<glyph glyph-name="Y" unicode="Y" horiz-adv-x="1552" d="M1491 1204q0 -43 -68 -43h-110l-484 -659v-412h134q66 0 65.5 -45t-65.5 -45h-375q-66 0 -66 45t66 45h133v412l-483 659h-111q-68 0 -68 45t68 45h328q68 0 67 -47q0 -43 -67 -43h-86l405 -549l408 549h-86q-68 0 -68 45t68 45h327q68 0 68 -47z" />
<glyph glyph-name="Z" unicode="Z" horiz-adv-x="1314" d="M1204 68q0 -41 -13 -54.5t-52 -13.5h-951q-20 0 -31.5 2t-23.5 14.5t-12 36.5q0 27 10 39l916 1069h-787v-131q0 -23 -2 -34t-14.5 -22t-37 -11t-36.5 12t-14 23.5t-2 31.5v154q0 41 13 54t54 13h903q20 0 31.5 -2t24 -14t12.5 -37q0 -27 -10 -39l-916 -1069h830v172 q0 23 2 34t14 22.5t39 11.5q25 0 37 -12.5t14 -23.5t2 -32v-194z" />
<glyph glyph-name="bracketleft" unicode="[" horiz-adv-x="608" d="M549 -131q0 -45 -66 -45h-176q-41 0 -53 14.5t-12 52.5v1469q0 39 13 53t52 14h176q66 0 66 -47q0 -45 -66 -45h-133v-1419h133q66 0 66 -47z" />
<glyph glyph-name="backslash" unicode="\" d="M948 -121q0 -23 -16.5 -39t-38.5 -16q-33 0 -57 47l-699 1458q-12 31 -12 43q0 23 16.5 39t38.5 16q33 0 58 -47l698 -1458q12 -31 12 -43z" />
<glyph glyph-name="bracketright" unicode="]" horiz-adv-x="608" d="M365 -109q0 -39 -13.5 -53t-52.5 -14h-176q-66 0 -66 47q0 45 66 45h133v1419h-133q-66 0 -66 47q0 45 66 45h176q41 0 53.5 -14t12.5 -53v-1469z" />
<glyph glyph-name="asciicircum" unicode="^" d="M922 1063q0 -18 -11.5 -32.5t-29.5 -14.5q-6 0 -19 4l-325 139l-326 -139q-12 -4 -18 -4q-18 0 -29.5 14t-11.5 33q0 23 26 37l342 166q16 6 33 0l342 -166q27 -14 27 -37z" />
<glyph glyph-name="underscore" unicode="_" horiz-adv-x="1552" d="M1556 -338h-1560v111h1560v-111z" />
<glyph glyph-name="grave" unicode="`" d="M741 1071q0 -18 -12 -41.5t-39 -23.5q-4 0 -16 4l-295 131q-47 20 -47 55q0 25 16.5 40t38.5 15q12 0 33 -8l280 -127q41 -18 41 -45z" />
<glyph glyph-name="a" unicode="a" horiz-adv-x="1044" d="M1038 47q0 -23 -13 -33t-27.5 -12t-43.5 -2q-53 0 -83.5 3t-69.5 20.5t-64 52.5q-121 -88 -303 -88q-141 0 -230 77.5t-89 186.5q0 137 161.5 214t452.5 81q0 254 -278 254q-133 0 -134 -45q-2 -41 -24.5 -59.5t-48.5 -18.5q-33 0 -54.5 20.5t-21.5 57.5q0 135 281 135 q193 0 291 -92t98 -217v-467q53 -25 135 -25q65 0 65 -43zM729 264v197q-256 -8 -381 -68.5t-125 -140.5q0 -70 63.5 -122t164.5 -52q109 0 184 35q43 20 65.5 47.5t25.5 48t3 55.5z" />
<glyph glyph-name="b" unicode="b" horiz-adv-x="1193" d="M1098 436q0 -188 -135.5 -318t-317.5 -130q-160 0 -303 153q0 -90 -7 -115.5t-44 -25.5q-27 0 -39 11.5t-14 22.5t-2 34v1093h-134q-66 0 -65 43q0 47 65 47h174q41 0 53.5 -13t12.5 -54v-436q158 137 326 137q180 0 305 -132.5t125 -316.5zM991 436q0 145 -96 251 t-240 106q-121 0 -217 -77t-96 -181v-142q0 -109 82 -212t213 -103q141 0 247.5 103t106.5 255z" />
<glyph glyph-name="c" unicode="c" horiz-adv-x="956" d="M889 211q0 -16 -16.5 -49t-51.5 -74t-108.5 -70.5t-169.5 -29.5q-188 0 -316.5 132t-128.5 316q0 72 26 146.5t77 146.5t147 117t219 45q297 0 297 -135q0 -35 -22.5 -56.5t-55.5 -21.5q-74 0 -73 84q0 16 -50.5 27.5t-95.5 11.5q-104 0 -181 -41t-113.5 -103.5t-52 -118 t-15.5 -102.5q0 -150 103.5 -254t246.5 -104q166 0 233 155q14 18 46 19q55 0 55 -41z" />
<glyph glyph-name="d" unicode="d" horiz-adv-x="1193" d="M1155 45q0 -45 -65 -45h-175q-41 0 -53 13.5t-12 54.5v86q-125 -166 -326 -166q-178 0 -304 131t-126 315q0 188 133 319.5t320 131.5q154 0 303 -131v407h-133q-66 0 -66 45t66 45h174q41 0 53 -14t12 -53v-1094h134q65 0 65 -45zM850 397v140q0 100 -87 178t-206 78 q-145 0 -250.5 -104.5t-105.5 -254.5q0 -145 98 -250.5t236 -105.5q133 0 224 103t91 216z" />
<glyph glyph-name="e" unicode="e" horiz-adv-x="956" d="M889 211q0 -59 -92 -141t-256 -82q-190 0 -323.5 132t-133.5 320q0 184 124 317.5t300 133.5q180 0 280.5 -121t100.5 -307q0 -29 -10.5 -42t-21.5 -15.5t-34 -2.5h-630q25 -150 128 -237.5t232 -87.5q170 0 233 149q10 25 48 25q55 0 55 -41zM778 492q-25 309 -270 309 q-113 0 -200 -84t-113 -225h583z" />
<glyph glyph-name="f" unicode="f" horiz-adv-x="657" d="M735 1157q0 -33 -22.5 -53.5t-48.5 -20.5q-39 0 -56.5 31t-17.5 60q-37 0 -59.5 -1.5t-60.5 -11.5t-61.5 -28.5t-41 -55.5t-17.5 -88v-117h191q66 0 65 -47q0 -45 -65 -45h-191v-690h185q66 0 65.5 -45t-65.5 -45h-424q-66 0 -66 45t66 45h133v690h-111q-66 0 -65 45 q0 47 67 47h109v129q0 123 91 193t218 70q182 -1 182 -107z" />
<glyph glyph-name="g" unicode="g" d="M1038 801q0 -33 -20.5 -50.5t-44.5 -17.5q-18 0 -38 16.5t-30 55.5q-92 -8 -164 -49q63 -100 64 -191q0 -133 -96.5 -226t-233.5 -93q-106 0 -199 61q-23 -55 -22 -88q2 -53 29 -88q33 -37 82 -37q18 -4 63 -4h150q201 0 296 -59q70 -35 103 -97.5t33 -126.5 q0 -125 -138.5 -207.5t-335 -82.5t-335 82t-138.5 208q0 158 166 256q-57 76 -57 158q0 80 47 146q-74 90 -74 198q0 129 96.5 224.5t233.5 95.5q102 0 205 -68q106 78 223 78q68 0 101.5 -28.5t33.5 -65.5zM696 565q0 94 -64.5 162t-156.5 68q-90 0 -155.5 -68t-65.5 -164 q0 -94 64.5 -161.5t156.5 -67.5t156.5 66.5t64.5 164.5zM926 -193q0 55 -29 94.5t-69 60t-107.5 31.5t-116.5 13t-125 2q-123 0 -158.5 -5t-76.5 -32q-96 -59 -97 -164q0 -78 114 -140t275.5 -62t275.5 62t114 140z" />
<glyph glyph-name="h" unicode="h" horiz-adv-x="1193" d="M1155 45q0 -45 -65 -45h-373q-66 0 -66 47q0 43 66 43h133v492q0 109 -38 160t-153 51q-51 0 -102 -16.5t-101 -50.5t-82 -97.5t-32 -147.5v-391h133q66 0 66 -45t-66 -45h-373q-66 0 -65.5 45t65.5 45h134v1071h-134q-66 0 -65 43q0 47 65 47h174q41 0 53.5 -13 t12.5 -54v-445q158 145 330 146q285 0 284 -289v-506h134q65 0 65 -45z" />
<glyph glyph-name="i" unicode="i" horiz-adv-x="598" d="M530 45q0 -45 -65 -45h-354q-66 0 -66 45t66 45h133v690h-123q-68 0 -68 47q0 45 68 45h166q41 0 53 -14t12 -53v-715h111q67 0 67 -45zM385 1128.5q0 -34.5 -24.5 -60.5t-63.5 -26q-35 0 -60.5 26t-25.5 60.5t24.5 60t63.5 25.5q35 0 60.5 -25.5t25.5 -60z" />
<glyph glyph-name="j" unicode="j" horiz-adv-x="657" d="M412 -119q0 -82 -22.5 -159.5t-88 -140t-162.5 -62.5q-104 0 -165.5 37.5t-61.5 103.5q0 35 22.5 56.5t53.5 21.5q74 0 73 -96l5 -13q16 -20 79 -20q49 0 83 30.5t49.5 80t21.5 90t6 79.5v891h-153q-68 0 -68 47q0 45 68 45h194q41 0 53.5 -14t12.5 -53v-924zM412 1128.5 q0 -34.5 -25 -60.5t-63 -26q-35 0 -60.5 26t-25.5 60.5t24.5 60t63.5 25.5q35 0 60.5 -25.5t25.5 -60z" />
<glyph glyph-name="k" unicode="k" horiz-adv-x="1134" d="M1096 45q0 -45 -68 -45h-266q-66 0 -66 47q0 43 66 43h76l-301 375l-199 -178v-197h127q63 0 63 -45t-63 -45h-346q-66 0 -66 45t66 45h127v1071h-127q-66 0 -66 43q0 47 66 47h147q41 0 56.5 -14t15.5 -53v-789l430 385h-135q-66 0 -66 45q0 47 66 47h346q68 0 68 -47 q0 -45 -68 -45h-84l-295 -258l348 -432h80q68 0 68 -45z" />
<glyph glyph-name="l" unicode="l" horiz-adv-x="598" d="M551 45q0 -45 -66 -45h-374q-66 0 -66 45t66 45h133v1071h-133q-66 0 -66 43q0 47 66 47h176q41 0 53 -14t12 -53v-1094h133q66 0 66 -45z" />
<glyph glyph-name="m" unicode="m" horiz-adv-x="1792" d="M1763 45q0 -45 -63 -45h-375q-66 0 -65.5 45t65.5 45h133v492q0 111 -39 161t-153 50q-49 0 -100.5 -16.5t-101.5 -50.5t-82 -97.5t-32 -147.5v-391h133q66 0 66 -45t-66 -45h-374q-66 0 -66 45t66 45h133v492q0 111 -39 161t-154 50q-49 0 -100 -16.5t-101.5 -50.5 t-82 -97.5t-31.5 -147.5v-391h133q66 0 65.5 -45t-65.5 -45h-375q-63 0 -63 45t63 45h133v690h-133q-63 0 -63 45q0 47 63 47h176q47 0 56.5 -23.5t9.5 -109.5q160 145 330 146q197 0 270 -166q156 166 346 166q137 0 212 -73t75 -216v-506h133q63 0 63 -45z" />
<glyph glyph-name="n" unicode="n" horiz-adv-x="1193" d="M1155 45q0 -45 -65 -45h-373q-66 0 -66 47q0 43 66 43h133v492q0 109 -38 160t-153 51q-51 0 -102 -16.5t-101 -50.5t-82 -97.5t-32 -147.5v-391h133q66 0 66 -45t-66 -45h-373q-66 0 -65.5 45t65.5 45h134v690h-134q-66 0 -65 45q0 47 65 47h174q47 0 56.5 -23.5 t9.5 -109.5q158 145 330 146q285 0 284 -289v-506h134q65 0 65 -45z" />
<glyph glyph-name="o" unicode="o" d="M991 436.5q0 -186.5 -133 -317.5t-321.5 -131t-321.5 131t-133 317.5t133 320.5t321.5 134t321.5 -134t133 -320.5zM883 451q0 150 -102.5 250t-244 100t-244 -100.5t-102.5 -249.5q0 -152 100.5 -262.5t246.5 -110.5q143 0 244.5 110.5t101.5 262.5z" />
<glyph glyph-name="p" unicode="p" horiz-adv-x="1193" d="M1098 436q0 -188 -135.5 -318t-317.5 -130q-160 0 -303 153v-518h133q66 0 66 -47q0 -45 -66 -45h-373q-66 0 -65 45q0 47 65 47h134v1157h-134q-66 0 -65 45q0 47 65 47h174q47 0 56.5 -22.5t9.5 -101.5q158 137 326 137q180 0 305 -132.5t125 -316.5zM991 436 q0 145 -96 251t-240 106q-121 0 -217 -77t-96 -181v-142q0 -109 82 -212t213 -103q141 0 247.5 103t106.5 255z" />
<glyph glyph-name="q" unicode="q" horiz-adv-x="1134" d="M1155 -424q0 -45 -63 -45h-375q-66 0 -66 47q0 45 66 45h133v522q-164 -158 -326 -157q-176 0 -303 131t-127 315q0 190 135.5 320.5t319.5 130.5q182 0 301 -160v92q0 23 2 34t14.5 22.5t38.5 11.5q25 0 37 -12.5t14 -23.5t2 -32v-1194h134q63 0 63 -47zM850 393v78 q0 121 -82 221.5t-211 100.5q-141 0 -247.5 -103.5t-106.5 -255.5q0 -147 97 -251.5t237 -104.5q133 0 223 102t90 213z" />
<glyph glyph-name="r" unicode="r" horiz-adv-x="835" d="M766 772q0 -33 -20.5 -52.5t-49.5 -19.5q-27 0 -49 19.5t-22 73.5q-135 -14 -206 -135t-71 -281v-287h184q66 0 66 -45t-66 -45h-423q-66 0 -66 45t66 45h131v690h-131q-66 0 -66 45q0 47 66 47h174q47 0 56 -25.5t9 -123.5q74 84 138.5 123t140.5 39q63 0 101 -35 t38 -78z" />
<glyph glyph-name="s" unicode="s" horiz-adv-x="847" d="M766 246q0 -100 -80 -179t-258 -79q-135 0 -242 86q-6 -29 -11 -43.5t-18.5 -28.5t-31.5 -14q-45 0 -45 67v203q0 20 2 31.5t14.5 24t38.5 12.5q39 0 51 -29q27 -102 78 -160.5t166 -58.5q25 0 54.5 4t78.5 17.5t81 51t32 95.5q0 63 -53.5 103t-124.5 59l-25 4 q-59 10 -92 17t-87 21.5t-85 32t-64.5 42t-49 58t-15.5 76.5q0 82 74.5 157t261.5 75q111 0 200 -51q16 51 50 51q45 0 45 -68v-145q0 -23 -2 -34t-14.5 -22.5t-39.5 -11.5q-43 0 -51 37q-4 31 -9 50.5t-22.5 47t-58.5 42t-102 14.5q-121 0 -181.5 -40t-60.5 -102 q0 -63 69.5 -95t223.5 -60q39 -6 77 -17.5t96 -38t94 -79.5t36 -123z" />
<glyph glyph-name="t" unicode="t" horiz-adv-x="835" d="M705 246q0 -113 -71 -185.5t-171 -72.5q-86 0 -154.5 59t-68.5 193v540h-127q-66 0 -66 45q0 47 68 47h125v191q0 23 2 34t14 22t39 11q25 0 37 -12t14 -23.5t2 -31.5v-191h254q66 0 66 -47q0 -45 -66 -45h-254v-526q0 -176 123 -176q51 0 89 44t38 126q0 20 2 30.5 t13.5 20.5t35.5 10q27 0 39 -11t14.5 -21.5t2.5 -30.5z" />
<glyph glyph-name="u" unicode="u" horiz-adv-x="1193" d="M1155 45q0 -45 -65 -45h-175q-20 0 -31.5 3t-22.5 25.5t-11 65.5q-137 -106 -309 -106q-305 0 -305 235v557h-134q-66 0 -65 45q0 47 65 47h174q41 0 53.5 -14t12.5 -53v-569q0 -37 4 -56.5t21.5 -47.5t63.5 -41t122 -13q41 0 82 7t94 28.5t87 73t34 124.5v469h-133 q-66 0 -66 47q0 45 66 45h174q41 0 53 -14t12 -53v-715h134q65 0 65 -45z" />
<glyph glyph-name="v" unicode="v" horiz-adv-x="1134" d="M1075 825q0 -45 -65 -45h-97l-247 -731q-8 -27 -26.5 -40t-32 -15t-40.5 -2q-29 0 -43 2t-30.5 16.5t-26.5 42.5l-248 727h-96q-66 0 -66 45q0 47 66 47h295q68 0 67 -47q0 -45 -67 -45h-113l238 -698h49l235 698h-112q-68 0 -68 47q0 45 68 45h295q65 0 65 -47z" />
<glyph glyph-name="w" unicode="w" horiz-adv-x="1552" d="M1505 825q0 -45 -65 -45h-86l-199 -731q-8 -27 -23.5 -40t-28.5 -15t-40 -2q-53 0 -70.5 16.5t-31.5 71.5l-175 700h-10l-196 -760q-16 -29 -88 -28q-31 0 -44.5 2t-30 16.5t-24.5 42.5l-196 727h-86q-68 0 -68 47q0 45 68 45h286q68 0 68 -47q0 -45 -68 -45h-114 l192 -698h25l198 727q12 35 28.5 49t53.5 14q39 0 55.5 -16t24.5 -45l201 -729h16l191 698h-115q-68 0 -68 47q0 45 68 45h287q65 0 65 -47z" />
<glyph glyph-name="x" unicode="x" horiz-adv-x="1134" d="M1069 45q0 -45 -68 -45h-294q-66 0 -66 47q0 43 66 43h86l-234 305l-225 -305h90q66 0 65.5 -45t-65.5 -45h-295q-68 0 -68 45t68 45h115l276 363l-262 327h-115q-68 0 -67 47q0 45 67 45h295q66 0 66 -47q0 -45 -66 -45h-84l207 -260l199 260h-86q-68 0 -68 47 q0 45 68 45h295q66 0 65 -47q0 -45 -65 -45h-115l-254 -329l287 -361h114q68 0 68 -45z" />
<glyph glyph-name="y" unicode="y" horiz-adv-x="1134" d="M1075 825q0 -45 -65 -45h-97l-331 -968q-39 -113 -131.5 -203t-219.5 -90q-82 0 -135 45t-53 108q0 35 20.5 54.5t55.5 19.5q29 0 50 -20.5t21 -53.5q0 -10 -2 -20t-2 -12q0 -12 17.5 -21.5t32.5 -9.5q66 0 118 27.5t82.5 71.5t45 75t24.5 61l47 138l-326 798h-98 q-68 0 -68 47q0 45 68 45h295q66 0 65 -47q0 -45 -65 -45h-109l279 -710l231 710h-112q-66 0 -66 45q0 47 66 47h297q65 0 65 -47z" />
<glyph glyph-name="z" unicode="z" horiz-adv-x="956" d="M856 68q0 -41 -12.5 -54.5t-50.5 -13.5h-660q-23 0 -34 2t-22 14.5t-11 38.5q0 12 4 33l637 692h-502v-73q0 -23 -2 -34t-14.5 -22.5t-38.5 -11.5q-35 0 -43.5 17.5t-8.5 50.5v98q0 41 13.5 54t52.5 13h618q23 0 34 -2t22.5 -14t11.5 -39q0 -23 -4 -33l-635 -694h539v100 q0 20 2 31.5t14 24t39 12.5q35 0 43 -17.5t8 -50.5v-122z" />
<glyph glyph-name="braceleft" unicode="{" d="M950 -129q0 -47 -69 -47q-184 0 -297 61q-47 25 -71 67t-27 68.5t-3 67.5v350q-4 125 -319 144q-41 0 -41 45q0 23 12 34t25 11q154 0 237 35q59 27 72.5 57.5t13.5 99.5q-2 352 0 365q39 199 398 198q70 0 69 -47q0 -23 -12 -34t-25 -11q-274 0 -317 -96 q-4 -8 -5 -117.5t0 -215.5l1 -105q-4 -96 -141 -176q141 -80 141 -203v-340q0 -31 10 -55.5t40 -52t96.5 -43t166.5 -15.5q45 0 45 -45z" />
<glyph glyph-name="bar" unicode="|" d="M592 -94q0 -82 -55.5 -82t-55.5 82v1440q0 82 55.5 81.5t55.5 -81.5v-1440z" />
<glyph glyph-name="braceright" unicode="}" d="M950 625q0 -23 -12 -34t-25 -11q-152 0 -235 -35q-59 -27 -72.5 -57.5t-13.5 -100.5q0 -352 -2 -364q-37 -199 -397 -199q-70 0 -70 47q0 23 12 34t25 11q109 0 179.5 14.5t99 42t36.5 49t8 54.5v375q0 12 5.5 32.5t41 64.5t97.5 79q-82 43 -113 90t-31 110v340 q0 35 -8 58.5t-36.5 52.5t-95.5 43t-169 14q-51 0 -51 45q0 47 70 47q186 0 299 -61q100 -55 100 -199v-352q4 -127 317 -145q41 -4 41 -45z" />
<glyph glyph-name="asciitilde" unicode="~" d="M889 684q0 -29 -96 -100q-90 -66 -154 -66q-51 0 -96 37q-51 49 -71.5 63.5t-39.5 14.5q-57 0 -160 -96q-18 -18 -36.5 -18.5t-33 15t-14.5 31.5q0 31 97 103q90 66 153 65q47 0 97 -37q79 -74 100 -78l10 -2q55 0 160 99q23 18 37 18q18 0 32.5 -15.5t14.5 -33.5z" />
<glyph glyph-name="uni00A0" unicode="&#xa0;" />
<glyph glyph-name="exclamdown" unicode="&#xa1;" horiz-adv-x="598" d="M385 696q0 -37 -24.5 -61.5t-61.5 -24.5t-61.5 24.5t-24.5 61.5t24.5 61.5t61.5 24.5t61.5 -24.5t24.5 -61.5zM385 -391q0 -41 -19.5 -65.5t-36 -30t-30.5 -5.5q-12 0 -30.5 6.5t-37 31t-18.5 63.5l18 702q2 53 13.5 68.5t54.5 15.5q63 0 66 -35z" />
<glyph glyph-name="cent" unicode="&#xa2;" horiz-adv-x="956" d="M889 211q0 -16 -14.5 -46t-46 -69t-99 -70.5t-156.5 -37.5v-138q0 -20 -13 -33.5t-32 -13.5q-20 0 -33.5 13.5t-13.5 33.5v140q-172 31 -277.5 156.5t-105.5 289.5q0 63 20.5 131t62.5 133.5t120 115.5t180 69v137q0 18 13.5 31.5t33.5 13.5q18 0 31.5 -13.5t13.5 -31.5 v-131q45 0 76 -1t75 -8.5t71.5 -21.5t48 -40.5t20.5 -63.5q0 -35 -22.5 -56.5t-55.5 -21.5q-72 0 -73 84q0 16 -42 27.5t-98 11.5v-723q158 18 213 149q10 25 48 25q55 0 55 -41zM481 86v707q-80 -23 -138 -68t-86 -100.5t-40 -101.5t-12 -87q0 -125 74.5 -219t201.5 -131z " />
<glyph glyph-name="sterling" unicode="&#xa3;" horiz-adv-x="1552" d="M1470 285q0 -127 -85 -217.5t-207 -90.5q-59 0 -142.5 27t-139.5 52.5l-161 76.5q-92 -156 -413 -156q-96 0 -168 48.5t-72 128.5q0 96 97 138t239 42q86 0 219 -49q-27 111 -115 286h-293q-23 0 -39 16.5t-16 39t16.5 39t38.5 16.5h240q-49 123 -49 209q0 156 132 258 t312 102q182 0 315.5 -87t133.5 -232q0 -20 -16.5 -36.5t-39 -16.5t-39 15t-16.5 38q0 102 -99 155.5t-239 53.5q-135 0 -235.5 -68.5t-100.5 -181.5q0 -88 47 -209h455q23 0 38 -16.5t15 -39t-15 -39t-38 -16.5h-403q43 -84 61.5 -123.5t39 -102t24.5 -116.5 q104 -51 150 -71.5t129 -46t147 -25.5q76 0 129 58.5t53 140.5q0 23 16.5 39t39 16t38.5 -16t16 -39zM641 176q-135 47 -223 47q-225 0 -225 -69q0 -68 129 -68q260 0 319 90z" />
<glyph glyph-name="currency" unicode="&#xa4;" horiz-adv-x="1673" d="M1348 123q-37 -39 -99 12l-119 121q-135 -102 -294 -102q-152 0 -293 100l-121 -119q-57 -49 -90 -20q-39 37 12 98l119 121q-100 137 -100.5 292.5t100.5 293.5l-119 120q-49 57 -20 90q37 39 98 -12l121 -119q141 100 293 101q160 0 294 -103l119 121q51 51 90 21 q39 -37 -12 -99l-121 -118q104 -139 105 -295q0 -157 -105 -295l121 -119q52 -51 21 -90zM1200 626.5q0 151.5 -106.5 257t-258 105.5t-257 -105.5t-105.5 -257t105.5 -257t257 -105.5t258 105.5t106.5 257z" />
<glyph glyph-name="yen" unicode="&#xa5;" horiz-adv-x="1552" d="M1491 1204q0 -43 -68 -43h-110l-230 -315h174q23 0 39.5 -16.5t16.5 -39t-16.5 -38t-39.5 -15.5h-256l-161 -221h417q23 0 39.5 -15.5t16.5 -38t-16.5 -38.5t-39.5 -16h-428v-318h134q66 0 65.5 -45t-65.5 -45h-375q-66 0 -66 45t66 45h133v318h-424q-23 0 -39 16 t-16 38.5t16 38t39 15.5h414l-162 221h-252q-23 0 -39 15.5t-16 38t16 39t39 16.5h170l-229 315h-111q-68 0 -68 45t68 45h328q68 0 67 -47q0 -43 -67 -43h-86l233 -315h346l234 315h-86q-68 0 -68 45t68 45h327q68 0 68 -47zM866 737h-184l92 -125z" />
<glyph glyph-name="brokenbar" unicode="&#xa6;" d="M592 840q0 -20 -16.5 -33.5t-39 -13.5t-39 13t-16.5 34v506q0 82 55.5 81.5t55.5 -81.5v-506zM592 -94q0 -82 -55.5 -82t-55.5 82v506q0 20 16.5 33.5t39 13.5t39 -13.5t16.5 -33.5v-506z" />
<glyph glyph-name="section" unicode="&#xa7;" horiz-adv-x="1116" d="M1026 397q0 -78 -45 -139t-117 -86q43 -63 43 -129q0 -127 -102.5 -210t-243.5 -83t-243.5 72t-102.5 188q0 31 22.5 53.5t53.5 22.5t53.5 -22.5t22.5 -53.5q0 -35 -27 -57q51 -92 221 -92q94 0 165 50t71 132q0 70 -56.5 111t-154.5 75l-207 74q-123 45 -203 129 t-80 195q0 78 45 139t117 86q-43 59 -43 129q0 127 102.5 210t243.5 83t243.5 -72t102.5 -188q0 -31 -22.5 -53.5t-53 -22.5t-53 22.5t-22.5 53.5q0 35 26 57q-51 92 -221 92q-94 0 -164.5 -50t-70.5 -132q0 -70 56 -111t155 -75l206 -74q123 -45 203 -129t80 -195zM915 397 q0 143 -210 219l-207 74q-88 35 -150 76q-57 2 -99 -39t-42 -100q0 -143 211 -219l207 -74q88 -35 149 -76q57 -4 99 38t42 101z" />
<glyph glyph-name="dieresis" unicode="&#xa8;" d="M440 1128.5q0 -30.5 -22.5 -53t-57.5 -22.5q-29 0 -52 22.5t-23 52.5q0 29 21.5 52.5t55.5 23.5q33 0 55.5 -22.5t22.5 -53zM793 1128.5q0 -30.5 -21.5 -53t-56.5 -22.5q-31 0 -54.5 22.5t-23.5 52.5q0 29 22.5 52.5t57.5 23.5q31 0 53.5 -22.5t22.5 -53z" />
<glyph glyph-name="copyright" unicode="&#xa9;" horiz-adv-x="1251" d="M1251 627q0 -260 -183 -443.5t-441 -183.5q-260 0 -443.5 183.5t-183.5 443.5q0 258 183.5 441t443.5 183q258 0 441 -183t183 -441zM1169 626.5q0 225.5 -158.5 384t-384 158.5t-385 -158.5t-159.5 -384t159.5 -385t385 -159.5t384 159.5t158.5 385zM969 453 q0 -94 -96.5 -154.5t-258.5 -60.5q-186 0 -310 115.5t-124 273t125 272.5t307 115q164 0 273 -84q10 23 39 78q10 6 18 6q27 0 27 -39v-176q0 -41 -33 -41q-25 0 -31 18q-25 96 -102 139q-72 45 -182 46q-160 0 -268.5 -99.5t-108.5 -234.5q0 -137 108.5 -236.5t270.5 -99.5 q111 0 184 37q41 20 64.5 46.5t26.5 41t7 39.5q0 29 31 28q33 1 33 -30z" />
<glyph glyph-name="ordfeminine" unicode="&#xaa;" horiz-adv-x="966" d="M870 690q0 -27 -69 -26q-47 0 -71.5 2t-57.5 14t-54 37q-109 -63 -256 -64q-117 0 -190.5 53.5t-73.5 127.5q0 94 135.5 145t380.5 55q0 188 -237 189h-66q-35 -6 -42 -12.5t-7 -24.5q-2 -49 -59 -49q-59 0 -60 49q0 88 232 88q160 0 241.5 -61.5t81.5 -147.5v-334 q57 -16 119 -16q53 0 53 -25zM805 526.5q0 -26.5 -47 -26.5h-547q-47 0 -47 26.5t47 26.5h547q47 0 47 -26.5zM614 842v143q-219 -6 -325.5 -49t-106.5 -102q0 -51 54.5 -89t140.5 -38q92 0 155 24q39 14 57.5 35.5t21.5 36t3 39.5z" />
<glyph glyph-name="guillemotleft" unicode="&#xab;" horiz-adv-x="1193" d="M578 39q4 -14 -5.5 -26.5t-23.5 -12.5h-33q-23 0 -29 20q-72 227 -231 404q-16 20 0 41q162 176 231 403q8 20 29 21h33q14 0 23.5 -12.5t5.5 -26.5q-61 -215 -213 -408q150 -186 213 -403zM946 39q4 -14 -4 -26.5t-22 -12.5h-35q-23 0 -29 20q-72 227 -231 404 q-16 20 0 41q162 176 231 403q8 20 29 21h35q14 0 22 -12.5t4 -26.5q-63 -221 -213 -408q147 -180 213 -403z" />
<glyph glyph-name="logicalnot" unicode="&#xac;" horiz-adv-x="1673" d="M1554 467q0 -23 -15 -39t-37.5 -16t-39 16t-16.5 39v266h-1276q-23 0 -38 16.5t-15 36.5q0 23 15 39.5t38 16.5h1331q23 0 38 -16.5t15 -39.5v-319z" />
<glyph glyph-name="registered" unicode="&#xae;" horiz-adv-x="1251" d="M1251 627q0 -260 -183 -443.5t-441 -183.5q-260 0 -443.5 183.5t-183.5 443.5q0 258 183.5 441t443.5 183q258 0 441 -183t183 -441zM1169 626.5q0 225.5 -158.5 384t-384 158.5t-385 -158.5t-159.5 -384t159.5 -385t385 -159.5t384 159.5t158.5 385zM1051 387 q0 -41 -34 -77t-87 -36q-68 0 -103 50q-31 39 -30 135q0 61 -7.5 80.5t-44.5 40.5q-57 27 -151 26h-176v-268h74q35 0 34 -25q0 -27 -34 -26h-205q-37 0 -37 26q0 25 37 25h71v588h-71q-37 0 -37 24q0 27 37 27h309q125 0 215 -54.5t90 -131.5q0 -92 -147 -156 q59 -29 82 -62q20 -31 20 -108q0 -70 13.5 -104.5t60.5 -34.5q25 0 43 15t18 46q0 25 29 25q31 0 31 -25zM844 791q0 57 -78 96t-180 39h-168v-269h168q100 0 179 39.5t79 94.5z" />
<glyph glyph-name="macron" unicode="&#xaf;" d="M918 1126q0 -45 -64 -45h-627q-68 0 -67.5 47.5t63.5 47.5h631q64 -1 64 -50z" />
<glyph glyph-name="degree" unicode="&#xb0;" horiz-adv-x="806" d="M635 971q0 -92 -64.5 -160t-154.5 -68q-102 0 -169 67t-67 159t64.5 159.5t154.5 67.5q96 0 166 -65.5t70 -159.5zM547 968.5q0 57.5 -40 99.5t-97.5 42t-97.5 -41t-44 -98q0 -59 40 -101.5t97.5 -42.5t99.5 42t42 99.5z" />
<glyph glyph-name="plusminus" unicode="&#xb1;" horiz-adv-x="1673" d="M1554 55.5q0 -55.5 -79 -55.5h-1278q-80 0 -80 55.5t80 55.5h583v458h-583q-80 0 -80 55.5t80 55.5h583v489q0 80 55.5 80t55.5 -80v-489h584q80 0 79.5 -55.5t-79.5 -55.5h-584v-458h584q79 0 79 -55.5z" />
<glyph glyph-name="uni00B2" unicode="&#xb2;" horiz-adv-x="772" d="M686 559q0 -20 -8 -26.5t-33 -6.5h-516q-43 0 -43 21q8 25 14 31l336 229q90 61 136 117.5t46 122.5q0 88 -74.5 134t-183.5 46q-158 0 -204 -117q29 -14 28 -31q0 -39 -49 -39t-49 43q0 76 79 133.5t202 57.5q135 0 227 -61.5t92 -165.5q0 -111 -127 -213 q-131 -104 -369 -256h428q0 33 5.5 40t29.5 7q33 0 33 -35v-31z" />
<glyph glyph-name="uni00B3" unicode="&#xb3;" horiz-adv-x="772" d="M700 725q0 -86 -88 -150.5t-223 -64.5t-224 46t-89 124q0 39 47 39q49 0 49 -37q0 -18 -27 -33q59 -88 244 -88q109 0 176.5 51.5t67.5 116.5q0 63 -75 115.5t-173 52.5h-70q-43 0 -43 27q0 29 93 28h16t17 1t15.5 1t15.5 1t14.5 2t14.5 3.5t13 5.5l15.5 6t14.5 7t15 10 q72 49 72 121q0 49 -56.5 83t-142.5 34q-115 0 -180 -37l-2 -27q10 -10 10 -20q0 -37 -49 -37t-49 39q0 59 71.5 94t196.5 35q119 0 193.5 -46t74.5 -112q0 -109 -155 -190q200 -76 200 -201z" />
<glyph glyph-name="acute" unicode="&#xb4;" d="M743 1196q0 -35 -47 -55l-295 -131q-12 -4 -16 -4q-27 0 -39 23.5t-12 41.5q0 27 41 45l280 127l33 8q23 0 39 -15t16 -40z" />
<glyph glyph-name="uni00B5" unicode="&#xb5;" horiz-adv-x="1193" d="M1155 45q0 -45 -65 -45h-175q-20 0 -31.5 3t-22.5 25.5t-11 65.5q-137 -106 -309 -106q-127 0 -199 37v-402h133q66 0 66 -47q0 -45 -66 -45h-373q-66 0 -65 45q0 47 65 47h134v1157h-134q-66 0 -65 45q0 47 65 47h174q41 0 53.5 -14t12.5 -53v-569q0 -37 4 -56.5 t21.5 -47.5t63.5 -40t122 -12q41 0 81 7t94 27.5t88 72t34 124.5v469h-133q-66 0 -66 47q0 45 66 45h174q41 0 53 -14t12 -53v-713h134q65 0 65 -47z" />
<glyph glyph-name="paragraph" unicode="&#xb6;" horiz-adv-x="1251" d="M1190 1403q0 -23 -51 -23h-113v-1738q0 -51 -31 -52q-27 0 -26 52v1738h-187v-1738q0 -51 -26 -52q-29 0 -29 52v843q-111 4 -214 34t-194.5 85t-145.5 147.5t-54 206.5q0 193 147.5 331t360.5 138h512q51 1 51 -24z" />
<glyph glyph-name="periodcentered" unicode="&#xb7;" horiz-adv-x="1673" d="M922 627q0 -37 -25 -61.5t-61.5 -24.5t-61 24.5t-24.5 61.5t24.5 61.5t61 24.5t61.5 -24.5t25 -61.5z" />
<glyph glyph-name="cedilla" unicode="&#xb8;" horiz-adv-x="956" d="M776 -246q0 -55 -30.5 -94t-69.5 -57.5t-108.5 -28.5t-109.5 -11t-112 -1q-16 0 -31.5 11t-15.5 33.5t16.5 33t33 12.5t50.5 2q270 0 271 104q0 41 -39 71t-101 32q-45 2 -45 63v70q0 20 2 30.5t14.5 21.5t37.5 11q39 0 47 -22.5t8 -89.5q182 -50 182 -191z" />
<glyph glyph-name="uni00B9" unicode="&#xb9;" horiz-adv-x="806" d="M639 551q0 -25 -41 -25h-381q-41 0 -41 25q0 27 41 27h158v612q-94 -39 -174 -39q-33 0 -33 23q0 25 22 24q129 0 205 70q10 6 19 6q29 0 28 -31v-665h156q41 0 41 -27z" />
<glyph glyph-name="ordmasculine" unicode="&#xba;" horiz-adv-x="901" d="M827 963q0 -129 -110.5 -219.5t-266 -90.5t-266 90.5t-110.5 219.5t109.5 220t267 91t267 -91t109.5 -220zM762 526.5q0 -26.5 -45 -26.5h-533q-45 0 -45 26.5t45 26.5h533q45 0 45 -26.5zM743 973q0 106 -86 178t-206.5 72t-206.5 -72t-86 -178q0 -109 85 -187.5 t208 -78.5q121 0 206.5 78.5t85.5 187.5z" />
<glyph glyph-name="guillemotright" unicode="&#xbb;" horiz-adv-x="1193" d="M938 424q-154 -170 -231 -404q-6 -20 -29 -20h-33q-14 0 -23.5 12.5t-5.5 26.5q66 217 213 403q-147 193 -213 408q-4 14 5.5 26.5t23.5 12.5h33q20 0 29 -21q76 -231 231 -403q16 -21 0 -41zM569 424q-154 -170 -231 -404q-6 -20 -29 -20h-35q-14 0 -22 12.5t-4 26.5 q68 221 211 403q-143 188 -211 408q-4 14 4 26.5t22 12.5h35q20 0 29 -21q76 -231 231 -403q16 -21 0 -41z" />
<glyph glyph-name="onequarter" unicode="&#xbc;" horiz-adv-x="1720" d="M1567 238q0 -25 -41 -25h-133v-160h108q41 0 41 -28q0 -25 -41 -25h-274q-41 0 -41 25q0 29 41 28h110v160h-399q-33 0 -33 45q0 14 2 21l346 452q16 20 47 21h46q27 0 37 -7.5t10 -27.5v-451h133q41 1 41 -28zM1337 266v430h-45l-329 -430h374zM625 551q0 -25 -41 -25 h-381q-41 0 -41 25q0 27 41 27h157v612q-94 -39 -174 -39q-33 0 -32 23q0 25 22 24q129 0 205 70q8 6 18 6q29 0 29 -31v-665h156q41 0 41 -27zM1421 1235q0 -16 -18 -41l-887 -1202q-18 -23 -41 -23q-39 0 -39 49q0 6 23 39l887 1205q16 20 38 20q37 0 37 -47z" />
<glyph glyph-name="onehalf" unicode="&#xbd;" horiz-adv-x="1910" d="M621 551q0 -25 -41 -25h-381q-41 0 -41 25q0 27 41 27h157v612q-94 -39 -174 -39q-33 0 -32 23q0 25 22 24q129 0 205 70q8 6 18 6q29 0 29 -31v-665h156q41 0 41 -27zM1761 33q0 -20 -8 -26.5t-33 -6.5h-516q-43 0 -43 20q8 25 15 31l335 230q90 61 136.5 117.5 t46.5 121.5q0 88 -75 134t-183 46q-158 0 -205 -116q29 -14 29 -31q0 -39 -49.5 -39t-49.5 43q0 76 79 133.5t202 57.5q135 0 227 -61.5t92 -166.5q0 -111 -127 -213q-131 -104 -368 -256h428q0 33 5 40t30 7q33 0 32 -35v-30zM1444 1235q0 -16 -19 -41l-886 -1202 q-18 -23 -41 -23q-39 0 -39 49q0 6 22 39l887 1205q16 20 39 20q37 0 37 -47z" />
<glyph glyph-name="threequarters" unicode="&#xbe;" horiz-adv-x="1720" d="M752 725q0 -86 -88.5 -150.5t-223.5 -64.5t-224 46t-89 124q0 39 47 39q49 0 49 -37q0 -18 -26 -33q59 -88 243 -88q109 0 176.5 51.5t67.5 116.5q0 63 -74.5 115.5t-173.5 52.5h-69q-43 0 -43 27q0 29 92 28h16t17.5 1t15.5 1t15 1t14.5 2t14.5 3.5t13 5.5l15.5 6 t14.5 7t15 10q72 49 72 121q0 49 -56.5 83t-142.5 34q-115 0 -180 -37l-2 -27q10 -10 10 -20q0 -37 -49 -37t-49 39q0 59 71.5 94t196.5 35q119 0 194 -46t75 -112q0 -109 -156 -190q201 -76 201 -201zM1421 1235q0 -16 -18 -41l-887 -1202q-18 -23 -41 -23q-39 0 -39 49 q0 6 23 39l887 1205q16 20 38 20q37 0 37 -47zM1567 238q0 -25 -41 -25h-133v-160h108q41 0 41 -28q0 -25 -41 -25h-274q-41 0 -41 25q0 29 41 28h110v160h-399q-33 0 -33 45q0 14 2 21l346 452q16 20 47 21h46q27 0 37 -7.5t10 -27.5v-451h133q41 1 41 -28zM1337 266v430 h-45l-329 -430h374z" />
<glyph glyph-name="questiondown" unicode="&#xbf;" horiz-adv-x="1015" d="M563 696q0 -37 -25.5 -61.5t-60.5 -24.5q-37 0 -62.5 24.5t-25.5 61.5t25.5 61.5t62.5 24.5q35 0 60.5 -24.5t25.5 -61.5zM887 -242q0 -102 -100.5 -170.5t-307.5 -68.5q-111 0 -187.5 27.5t-109 70.5t-44 78t-11.5 67q0 113 102 187q182 127 183 342v37q0 43 13 55 t52 12q45 0 54.5 -17.5t9.5 -74.5q0 -51 -6.5 -89t-28 -97.5t-76.5 -122t-141 -123.5q-55 -43 -56 -109q0 -51 30 -85.5t78 -47t79 -16.5t59 -4q203 0 285 96q-27 31 -27 57q0 33 22.5 54.5t51.5 21.5q31 0 53.5 -21.5t22.5 -58.5z" />
<glyph glyph-name="Agrave" unicode="&#xc0;" horiz-adv-x="1552" d="M1468 45q0 -45 -65 -45h-336q-68 0 -68 47q0 43 68 43h113l-99 272h-612l-98 -272h112q68 0 68 -45t-68 -45h-336q-66 0 -65 47q0 43 65 43h111l404 1129q10 27 27.5 40t29.5 15t37 2h39q25 0 38 -2t29.5 -15.5t26.5 -41.5l403 -1127h111q65 0 65 -45zM1049 455l-265 731 h-22l-260 -731h547zM981 1403q0 -18 -12.5 -42t-38.5 -24q-4 0 -17 4l-295 132q-47 20 -47 55q0 25 16.5 40t39.5 15q12 0 32 -8l281 -127q41 -18 41 -45z" />
<glyph glyph-name="Aacute" unicode="&#xc1;" horiz-adv-x="1552" d="M1468 45q0 -45 -65 -45h-336q-68 0 -68 47q0 43 68 43h113l-99 272h-612l-98 -272h112q68 0 68 -45t-68 -45h-336q-66 0 -65 47q0 43 65 43h111l404 1129q10 27 27.5 40t29.5 15t37 2h39q25 0 38 -2t29.5 -15.5t26.5 -41.5l403 -1127h111q65 0 65 -45zM1049 455l-265 731 h-22l-260 -731h547zM983 1528q0 -35 -47 -55l-295 -132q-12 -4 -16 -4q-27 0 -39.5 23.5t-12.5 42.5q0 27 41 45l281 127l33 8q23 0 39 -15t16 -40z" />
<glyph glyph-name="Acircumflex" unicode="&#xc2;" horiz-adv-x="1552" d="M1468 45q0 -45 -65 -45h-336q-68 0 -68 47q0 43 68 43h113l-99 272h-612l-98 -272h112q68 0 68 -45t-68 -45h-336q-66 0 -65 47q0 43 65 43h111l404 1129q10 27 27.5 40t29.5 15t37 2h39q25 0 38 -2t29.5 -15.5t26.5 -41.5l403 -1127h111q65 0 65 -45zM1049 455l-265 731 h-22l-260 -731h547zM1069 1362q0 -18 -11 -31.5t-28 -13.5q-10 0 -16 2l-236 72l-235 -72q-6 -2 -17 -2q-16 0 -27.5 13t-11.5 32q0 31 27 39l250 90q14 4 29 0l249 -90q27 -8 27 -39z" />
<glyph glyph-name="Atilde" unicode="&#xc3;" horiz-adv-x="1552" d="M1468 45q0 -45 -65 -45h-336q-68 0 -68 47q0 43 68 43h113l-99 272h-612l-98 -272h112q68 0 68 -45t-68 -45h-336q-66 0 -65 47q0 43 65 43h111l404 1129q10 27 27.5 40t29.5 15t37 2h39q25 0 38 -2t29.5 -15.5t26.5 -41.5l403 -1127h111q65 0 65 -45zM1049 455l-265 731 h-22l-260 -731h547zM1128 1483q0 -29 -96 -101q-90 -66 -153 -65q-51 0 -97 37q-51 49 -71.5 63.5t-38.5 14.5q-57 0 -160 -97q-18 -18 -36.5 -18t-33 15.5t-14.5 31.5q0 31 96 102q90 66 154 66q47 0 96 -37q79 -74 101 -79q5 -1 10 -1q55 0 159 98q23 18 37 19 q18 0 32.5 -15.5t14.5 -33.5z" />
<glyph glyph-name="Adieresis" unicode="&#xc4;" horiz-adv-x="1552" d="M1468 45q0 -45 -65 -45h-336q-68 0 -68 47q0 43 68 43h113l-99 272h-612l-98 -272h112q68 0 68 -45t-68 -45h-336q-66 0 -65 47q0 43 65 43h111l404 1129q10 27 27.5 40t29.5 15t37 2h39q25 0 38 -2t29.5 -15.5t26.5 -41.5l403 -1127h111q65 0 65 -45zM1049 455l-265 731 h-22l-260 -731h547zM647 1392.5q0 -30.5 -21.5 -53t-56.5 -22.5q-31 0 -53 22.5t-22 53.5q0 29 21.5 52t55.5 23q33 0 54.5 -22.5t21.5 -53zM1063 1392.5q0 -30.5 -21.5 -53t-56.5 -22.5q-31 0 -53.5 22.5t-22.5 53.5q0 29 21.5 52t56.5 23q33 0 54.5 -22.5t21.5 -53z" />
<glyph glyph-name="Aring" unicode="&#xc5;" horiz-adv-x="1552" d="M1468 45q0 -45 -65 -45h-336q-68 0 -68 47q0 43 68 43h113l-99 272h-612l-98 -272h112q68 0 68 -45t-68 -45h-336q-66 0 -65 47q0 43 65 43h111l404 1129q10 27 27.5 40t29.5 15t37 2h39q25 0 38 -2t29.5 -15.5t26.5 -41.5l403 -1127h111q65 0 65 -45zM1049 455l-265 731 h-22l-260 -731h547zM915 1415q0 33 -40.5 56.5t-98.5 23.5q-53 0 -96 -23.5t-43 -56.5t41 -56.5t98 -23.5q53 0 96 23.5t43 56.5zM1004 1415q0 -49 -68 -94t-162 -45q-88 0 -156.5 45t-68.5 94t67.5 94t161.5 45q88 0 157 -45t69 -94z" />
<glyph glyph-name="AE" unicode="&#xc6;" horiz-adv-x="1910" d="M1858 68q0 -41 -13.5 -54.5t-52.5 -13.5h-895q-68 0 -68 45t68 45h82v297h-471l-129 -297h106q66 0 66 -45t-66 -45h-335q-68 0 -68 47q0 43 68 43h112l469 1071h-65q-68 0 -68 43q0 47 68 47h1065q41 0 53 -14t12 -53v-154q0 -23 -2 -34t-14.5 -22t-38.5 -11 q-35 0 -43 17t-8 50v131h-603v-467h349q0 76 8 98.5t47 22.5q35 0 43 -17.5t8 -49.5v-197q0 -20 -2 -31.5t-13 -24t-36 -12.5q-39 0 -47 22.5t-8 98.5h-349v-514h662v166q0 20 2 31.5t14.5 24t38.5 12.5q25 0 37 -12.5t14.5 -24t2.5 -31.5v-188zM979 477v684h-129l-303 -684 h432z" />
<glyph glyph-name="Ccedilla" unicode="&#xc7;" horiz-adv-x="1552" d="M1432 336q0 -137 -121 -231.5t-338 -120.5v-41q74 -12 128 -62.5t54 -126.5q0 -55 -30.5 -94t-69.5 -57.5t-108.5 -28.5t-109.5 -11t-112 -1q-16 0 -30.5 11t-14.5 33.5t15.5 33t31.5 12.5t51 2q270 0 271 104q0 41 -39 71t-99 32q-47 2 -47 63v53h-22q-311 0 -517 192.5 t-206 457.5q0 262 206.5 454.5t512.5 192.5q274 0 454 -141q33 72 66 131q14 10 31 10q43 0 43 -68v-293q0 -23 -2.5 -34t-14.5 -22t-37 -11q-43 0 -51 31q-12 47 -22.5 74.5t-48 74.5t-99.5 84q-127 74 -305 74q-266 0 -446.5 -166t-180.5 -391q0 -227 180.5 -393 t450.5 -166q184 0 307 61q70 33 108 77t45 70.5t9 65.5q2 45 53 45q54 0 54 -51z" />
<glyph glyph-name="Egrave" unicode="&#xc8;" horiz-adv-x="1433" d="M1372 68q0 -41 -12 -54.5t-53 -13.5h-1147q-66 0 -66 45t66 45h133v1071h-133q-66 0 -66 43q0 47 66 47h1087q41 0 53.5 -14t12.5 -53v-154q0 -23 -2 -34t-14.5 -22t-39.5 -11q-25 0 -37 12t-14 23.5t-2 31.5v131h-805v-467h459q0 76 8 98.5t47 22.5q25 0 37.5 -12 t14.5 -23.5t2 -31.5v-197q0 -20 -2 -31.5t-14.5 -24t-37.5 -12.5q-39 0 -47 22.5t-8 98.5h-459v-514h867v166q0 20 2 31.5t14 24t39 12.5q35 0 43 -17.5t8 -50.5v-188zM922 1403q0 -18 -12.5 -42t-39.5 -24q-4 0 -16 4l-295 132q-47 20 -47 55q0 25 16.5 40t38.5 15 q12 0 33 -8l281 -127q41 -18 41 -45z" />
<glyph glyph-name="Eacute" unicode="&#xc9;" horiz-adv-x="1433" d="M1372 68q0 -41 -12 -54.5t-53 -13.5h-1147q-66 0 -66 45t66 45h133v1071h-133q-66 0 -66 43q0 47 66 47h1087q41 0 53.5 -14t12.5 -53v-154q0 -23 -2 -34t-14.5 -22t-39.5 -11q-25 0 -37 12t-14 23.5t-2 31.5v131h-805v-467h459q0 76 8 98.5t47 22.5q25 0 37.5 -12 t14.5 -23.5t2 -31.5v-197q0 -20 -2 -31.5t-14.5 -24t-37.5 -12.5q-39 0 -47 22.5t-8 98.5h-459v-514h867v166q0 20 2 31.5t14 24t39 12.5q35 0 43 -17.5t8 -50.5v-188zM924 1528q0 -35 -47 -55l-295 -132q-12 -4 -17 -4q-27 0 -39 23.5t-12 42.5q0 27 41 45l281 127l32 8 q23 0 39.5 -15t16.5 -40z" />
<glyph glyph-name="Ecircumflex" unicode="&#xca;" horiz-adv-x="1433" d="M1372 68q0 -41 -12 -54.5t-53 -13.5h-1147q-66 0 -66 45t66 45h133v1071h-133q-66 0 -66 43q0 47 66 47h1087q41 0 53.5 -14t12.5 -53v-154q0 -23 -2 -34t-14.5 -22t-39.5 -11q-25 0 -37 12t-14 23.5t-2 31.5v131h-805v-467h459q0 76 8 98.5t47 22.5q25 0 37.5 -12 t14.5 -23.5t2 -31.5v-197q0 -20 -2 -31.5t-14.5 -24t-37.5 -12.5q-39 0 -47 22.5t-8 98.5h-459v-514h867v166q0 20 2 31.5t14 24t39 12.5q35 0 43 -17.5t8 -50.5v-188zM1010 1362q0 -18 -11.5 -31.5t-27.5 -13.5q-10 0 -17 2l-235 72l-236 -72q-6 -2 -16 -2q-16 0 -27.5 13 t-11.5 32q0 31 27 39l250 90q14 4 28 0l250 -90q27 -8 27 -39z" />
<glyph glyph-name="Edieresis" unicode="&#xcb;" horiz-adv-x="1433" d="M1372 68q0 -41 -12 -54.5t-53 -13.5h-1147q-66 0 -66 45t66 45h133v1071h-133q-66 0 -66 43q0 47 66 47h1087q41 0 53.5 -14t12.5 -53v-154q0 -23 -2 -34t-14.5 -22t-39.5 -11q-25 0 -37 12t-14 23.5t-2 31.5v131h-805v-467h459q0 76 8 98.5t47 22.5q25 0 37.5 -12 t14.5 -23.5t2 -31.5v-197q0 -20 -2 -31.5t-14.5 -24t-37.5 -12.5q-39 0 -47 22.5t-8 98.5h-459v-514h867v166q0 20 2 31.5t14 24t39 12.5q35 0 43 -17.5t8 -50.5v-188zM588 1392.5q0 -30.5 -21.5 -53t-56.5 -22.5q-31 0 -53.5 22.5t-22.5 53.5q0 29 21.5 52t56.5 23 q33 0 54.5 -22.5t21.5 -53zM1004 1392.5q0 -30.5 -21.5 -53t-56.5 -22.5q-31 0 -53.5 22.5t-22.5 53.5q0 29 21.5 52t56.5 23q33 0 54.5 -22.5t21.5 -53z" />
<glyph glyph-name="Igrave" unicode="&#xcc;" horiz-adv-x="716" d="M621 45q0 -45 -66 -45h-395q-66 0 -66 45t66 45h143v1071h-143q-66 0 -66 43q0 47 66 47h395q66 0 66 -47q0 -43 -66 -43h-143v-1071h143q66 0 66 -45zM563 1403q0 -18 -12 -42t-39 -24q-4 0 -16 4l-295 132q-47 20 -47 55q0 25 16 40t39 15q12 0 33 -8l280 -127 q41 -18 41 -45z" />
<glyph glyph-name="Iacute" unicode="&#xcd;" horiz-adv-x="716" d="M621 45q0 -45 -66 -45h-395q-66 0 -66 45t66 45h143v1071h-143q-66 0 -66 43q0 47 66 47h395q66 0 66 -47q0 -43 -66 -43h-143v-1071h143q66 0 66 -45zM565 1528q0 -35 -47 -55l-295 -132q-12 -4 -16 -4q-27 0 -39 23.5t-12 42.5q0 27 41 45l280 127l33 8q23 0 39 -15 t16 -40z" />
<glyph glyph-name="Icircumflex" unicode="&#xce;" horiz-adv-x="716" d="M621 45q0 -45 -66 -45h-395q-66 0 -66 45t66 45h143v1071h-143q-66 0 -66 43q0 47 66 47h395q66 0 66 -47q0 -43 -66 -43h-143v-1071h143q66 0 66 -45zM651 1362q0 -18 -11 -31.5t-28 -13.5q-10 0 -16 2l-236 72l-235 -72q-6 -2 -16 -2q-16 0 -27.5 13t-11.5 32 q0 31 26 39l250 90q14 4 29 0l250 -90q26 -8 26 -39z" />
<glyph glyph-name="Idieresis" unicode="&#xcf;" horiz-adv-x="716" d="M621 45q0 -45 -66 -45h-395q-66 0 -66 45t66 45h143v1071h-143q-66 0 -66 43q0 47 66 47h395q66 0 66 -47q0 -43 -66 -43h-143v-1071h143q66 0 66 -45zM229 1392.5q0 -30.5 -21.5 -53t-55.5 -22.5q-31 0 -53.5 22.5t-22.5 53.5q0 29 21.5 52t56.5 23q33 0 54 -22.5 t21 -53zM645 1392.5q0 -30.5 -21.5 -53t-56.5 -22.5q-31 0 -53 22.5t-22 53.5q0 29 21.5 52t55.5 23q33 0 54.5 -22.5t21.5 -53z" />
<glyph glyph-name="Eth" unicode="&#xd0;" horiz-adv-x="1613" d="M1493 614q0 -254 -191.5 -434t-465.5 -180h-678q-66 0 -66 45t66 45h133v490h-144q-20 0 -33.5 13t-13.5 34q0 18 13.5 32.5t33.5 14.5h144v487h-133q-66 0 -66 43q0 47 66 47h678q272 0 464.5 -187.5t192.5 -449.5zM1384 616.5q0 217.5 -168.5 381t-418.5 163.5h-400 v-487h410q18 0 32.5 -14.5t14.5 -32.5q0 -20 -14.5 -33.5t-32.5 -13.5h-410v-490h402q246 0 415.5 154.5t169.5 372z" />
<glyph glyph-name="Ntilde" unicode="&#xd1;" horiz-adv-x="1552" d="M1444 1204q0 -43 -66 -43h-133v-1093q0 -41 -14 -54.5t-53 -13.5q-90 0 -127 61l-629 1100h-37v-1071h133q66 0 66 -45t-66 -45h-346q-66 0 -66 45t66 45h133v1071h-133q-66 0 -66 43q0 47 66 47h201q90 0 127 -61l628 -1100h37v1071h-133q-66 0 -65 43q0 47 65 47h346 q66 0 66 -47zM1128 1483q0 -29 -96 -101q-90 -66 -153 -65q-51 0 -97 37q-51 49 -71.5 63.5t-38.5 14.5q-57 0 -160 -97q-18 -18 -36.5 -18t-33 15.5t-14.5 31.5q0 31 96 102q90 66 154 66q47 0 96 -37q79 -74 101 -79q5 -1 10 -1q55 0 159 98q23 18 37 19q18 0 32.5 -15.5 t14.5 -33.5z" />
<glyph glyph-name="Ograve" unicode="&#xd2;" horiz-adv-x="1673" d="M1554 625q0 -262 -208.5 -455t-509.5 -193t-510 190.5t-209 459.5q0 264 209 455.5t510 191.5t509.5 -190.5t208.5 -458.5zM1448 649q0 219 -178 377t-434 158t-434.5 -158t-178.5 -377q0 -238 178.5 -409.5t434.5 -171.5q254 0 433 171.5t179 409.5zM1040 1403 q0 -18 -12 -42t-39 -24q-4 0 -16 4l-295 132q-47 20 -47 55q0 25 16.5 40t38.5 15q12 0 33 -8l280 -127q41 -18 41 -45z" />
<glyph glyph-name="Oacute" unicode="&#xd3;" horiz-adv-x="1673" d="M1554 625q0 -262 -208.5 -455t-509.5 -193t-510 190.5t-209 459.5q0 264 209 455.5t510 191.5t509.5 -190.5t208.5 -458.5zM1448 649q0 219 -178 377t-434 158t-434.5 -158t-178.5 -377q0 -238 178.5 -409.5t434.5 -171.5q254 0 433 171.5t179 409.5zM1042 1528 q0 -35 -47 -55l-295 -132q-12 -4 -16 -4q-27 0 -39 23.5t-12 42.5q0 27 41 45l280 127l33 8q23 0 39 -15t16 -40z" />
<glyph glyph-name="Ocircumflex" unicode="&#xd4;" horiz-adv-x="1673" d="M1554 625q0 -262 -208.5 -455t-509.5 -193t-510 190.5t-209 459.5q0 264 209 455.5t510 191.5t509.5 -190.5t208.5 -458.5zM1448 649q0 219 -178 377t-434 158t-434.5 -158t-178.5 -377q0 -238 178.5 -409.5t434.5 -171.5q254 0 433 171.5t179 409.5zM1128 1362 q0 -18 -11 -31.5t-27 -13.5q-10 0 -17 2l-235 72l-236 -72q-6 -2 -16 -2q-16 0 -27.5 13t-11.5 32q0 31 26 39l250 90q14 4 29 0l250 -90q26 -8 26 -39z" />
<glyph glyph-name="Otilde" unicode="&#xd5;" horiz-adv-x="1673" d="M1554 625q0 -262 -208.5 -455t-509.5 -193t-510 190.5t-209 459.5q0 264 209 455.5t510 191.5t509.5 -190.5t208.5 -458.5zM1448 649q0 219 -178 377t-434 158t-434.5 -158t-178.5 -377q0 -238 178.5 -409.5t434.5 -171.5q254 0 433 171.5t179 409.5zM1188 1483 q0 -29 -96 -101q-90 -66 -154 -65q-51 0 -96 37q-51 49 -71.5 63.5t-39.5 14.5q-57 0 -160 -97q-18 -18 -36.5 -18t-33 15.5t-14.5 31.5q0 31 97 102q90 66 153 66q47 0 97 -37q79 -74 100 -79q5 -1 10 -1q55 0 160 98q23 18 37 19q18 0 32.5 -15.5t14.5 -33.5z" />
<glyph glyph-name="Odieresis" unicode="&#xd6;" horiz-adv-x="1673" d="M1554 625q0 -262 -208.5 -455t-509.5 -193t-510 190.5t-209 459.5q0 264 209 455.5t510 191.5t509.5 -190.5t208.5 -458.5zM1448 649q0 219 -178 377t-434 158t-434.5 -158t-178.5 -377q0 -238 178.5 -409.5t434.5 -171.5q254 0 433 171.5t179 409.5zM707 1392.5 q0 -30.5 -21.5 -53t-56.5 -22.5q-31 0 -53.5 22.5t-22.5 53.5q0 29 21.5 52t56.5 23q33 0 54.5 -22.5t21.5 -53zM1122 1392.5q0 -30.5 -21.5 -53t-56.5 -22.5q-31 0 -53 22.5t-22 53.5q0 29 21.5 52t56.5 23q33 0 54 -22.5t21 -53z" />
<glyph glyph-name="multiply" unicode="&#xd7;" horiz-adv-x="1673" d="M1348 123q-37 -39 -99 12l-413 416l-414 -416q-57 -49 -90 -20q-39 37 12 98l416 414l-416 413q-49 57 -20 90q37 39 98 -12l414 -416l413 416q51 51 90 21q39 -37 -12 -99l-416 -413l416 -414q52 -51 21 -90z" />
<glyph glyph-name="Oslash" unicode="&#xd8;" horiz-adv-x="1673" d="M1554 625q0 -262 -208.5 -455t-509.5 -193q-188 0 -353 82l-153 -211q-20 -29 -41 -28q-18 0 -33.5 13t-15.5 34q0 14 28 53l135 184q-287 211 -286 523q0 264 209 455.5t510 191.5q68 0 153.5 -19.5t131.5 -36t69 -26.5l147 207q23 33 45 33q18 0 34 -13.5t16 -34.5 q-2 -16 -21 -41l-143 -196q286 -211 286 -522zM1135 1120q-168 63 -299 64q-268 0 -453.5 -165t-185.5 -394q0 -137 70.5 -253t187.5 -196zM1475 627q0 139 -73 255.5t-188 192.5l-679 -944q172 -63 301 -63q268 0 453.5 165t185.5 394z" />
<glyph glyph-name="Ugrave" unicode="&#xd9;" horiz-adv-x="1552" d="M1458 1204q0 -43 -65 -43h-133v-745q0 -186 -141.5 -312.5t-344.5 -126.5q-199 0 -341 125t-142 314v745h-133q-66 0 -66 43q0 47 66 47h372q66 0 66 -47q0 -43 -66 -43h-131v-733q0 -172 116 -266t261 -94q139 0 257 93t118 267v733h-133q-63 0 -64 43q0 47 64 47h375 q65 0 65 -47zM1028 1403q0 -18 -12 -42t-39 -24q-4 0 -16 4l-295 132q-47 20 -48 55q0 25 16.5 40t39.5 15q12 0 33 -8l280 -127q41 -18 41 -45z" />
<glyph glyph-name="Uacute" unicode="&#xda;" horiz-adv-x="1552" d="M1458 1204q0 -43 -65 -43h-133v-745q0 -186 -141.5 -312.5t-344.5 -126.5q-199 0 -341 125t-142 314v745h-133q-66 0 -66 43q0 47 66 47h372q66 0 66 -47q0 -43 -66 -43h-131v-733q0 -172 116 -266t261 -94q139 0 257 93t118 267v733h-133q-63 0 -64 43q0 47 64 47h375 q65 0 65 -47zM1030 1528q0 -35 -47 -55l-295 -132q-12 -4 -16 -4q-27 0 -39 23.5t-12 42.5q0 27 41 45l280 127l33 8q23 0 39 -15t16 -40z" />
<glyph glyph-name="Ucircumflex" unicode="&#xdb;" horiz-adv-x="1552" d="M1458 1204q0 -43 -65 -43h-133v-745q0 -186 -141.5 -312.5t-344.5 -126.5q-199 0 -341 125t-142 314v745h-133q-66 0 -66 43q0 47 66 47h372q66 0 66 -47q0 -43 -66 -43h-131v-733q0 -172 116 -266t261 -94q139 0 257 93t118 267v733h-133q-63 0 -64 43q0 47 64 47h375 q65 0 65 -47zM1116 1362q0 -18 -11 -31.5t-28 -13.5q-10 0 -16 2l-236 72l-235 -72q-6 -2 -17 -2q-16 0 -27 13t-11 32q0 31 26 39l250 90q14 4 29 0l250 -90q26 -8 26 -39z" />
<glyph glyph-name="Udieresis" unicode="&#xdc;" horiz-adv-x="1552" d="M1458 1204q0 -43 -65 -43h-133v-745q0 -186 -141.5 -312.5t-344.5 -126.5q-199 0 -341 125t-142 314v745h-133q-66 0 -66 43q0 47 66 47h372q66 0 66 -47q0 -43 -66 -43h-131v-733q0 -172 116 -266t261 -94q139 0 257 93t118 267v733h-133q-63 0 -64 43q0 47 64 47h375 q65 0 65 -47zM694 1392.5q0 -30.5 -21.5 -53t-56.5 -22.5q-31 0 -53 22.5t-22 53.5q0 29 21.5 52t55.5 23q33 0 54.5 -22.5t21.5 -53zM1110 1392.5q0 -30.5 -21.5 -53t-56.5 -22.5q-31 0 -53.5 22.5t-22.5 53.5q0 29 21.5 52t56.5 23q33 0 54.5 -22.5t21.5 -53z" />
<glyph glyph-name="Yacute" unicode="&#xdd;" horiz-adv-x="1552" d="M1491 1204q0 -43 -68 -43h-110l-484 -659v-412h134q66 0 65.5 -45t-65.5 -45h-375q-66 0 -66 45t66 45h133v412l-483 659h-111q-68 0 -68 45t68 45h328q68 0 67 -47q0 -43 -67 -43h-86l405 -549l408 549h-86q-68 0 -68 45t68 45h327q68 0 68 -47zM983 1528q0 -35 -47 -55 l-295 -132q-12 -4 -16 -4q-27 0 -39.5 23.5t-12.5 42.5q0 27 41 45l281 127l33 8q23 0 39 -15t16 -40z" />
<glyph glyph-name="Thorn" unicode="&#xde;" horiz-adv-x="1433" d="M1313 626.5q0 -149.5 -145.5 -258t-358.5 -108.5h-410v-170h133q66 0 66 -45t-66 -45h-372q-66 0 -66 45t66 45h133v1071h-133q-66 0 -66 43q0 47 66 47h372q66 0 66 -47q0 -43 -66 -43h-133v-168h410q213 0 358.5 -108.5t145.5 -258zM1204 626.5q0 110.5 -125 193.5 t-305 83h-375v-553h375q180 0 305 83t125 193.5z" />
<glyph glyph-name="germandbls" unicode="&#xdf;" d="M1010 350q0 -160 -111 -261t-256 -101q-94 0 -145.5 41t-51.5 98q0 33 19.5 51.5t48.5 18.5q33 0 51 -27q12 -16 13 -76q33 -16 65 -16q98 0 178 74.5t80 197.5q0 53 -16.5 116.5t-52 135.5t-112.5 122t-181 56q-33 16 -33 45q0 43 41 47q152 4 222.5 63.5t70.5 115.5 q0 45 -73 84t-175 39q-88 0 -164 -31q-57 -25 -70.5 -49.5t-13.5 -69.5v-956q0 -41 -12.5 -54.5t-52.5 -13.5h-175q-66 0 -65.5 45t65.5 45h134v690h-134q-66 0 -65 45q0 47 65 47h134v166q0 66 36.5 113t95 69.5t114 33t110.5 10.5q147 0 250.5 -58.5t103.5 -152.5 q0 -131 -192 -236q254 -180 254 -467z" />
<glyph glyph-name="agrave" unicode="&#xe0;" horiz-adv-x="1044" d="M1038 47q0 -23 -13 -33t-27.5 -12t-43.5 -2q-53 0 -83.5 3t-69.5 20.5t-64 52.5q-121 -88 -303 -88q-141 0 -230 77.5t-89 186.5q0 137 161.5 214t452.5 81q0 254 -278 254q-133 0 -134 -45q-2 -41 -24.5 -59.5t-48.5 -18.5q-33 0 -54.5 20.5t-21.5 57.5q0 135 281 135 q193 0 291 -92t98 -217v-467q53 -25 135 -25q65 0 65 -43zM729 264v197q-256 -8 -381 -68.5t-125 -140.5q0 -70 63.5 -122t164.5 -52q109 0 184 35q43 20 65.5 47.5t25.5 48t3 55.5zM727 1071q0 -18 -12.5 -41.5t-38.5 -23.5q-4 0 -17 4l-294 131q-47 20 -48 55 q0 25 16.5 40t39.5 15q12 0 33 -8l280 -127q41 -18 41 -45z" />
<glyph glyph-name="aacute" unicode="&#xe1;" horiz-adv-x="1044" d="M1038 47q0 -23 -13 -33t-27.5 -12t-43.5 -2q-53 0 -83.5 3t-69.5 20.5t-64 52.5q-121 -88 -303 -88q-141 0 -230 77.5t-89 186.5q0 137 161.5 214t452.5 81q0 254 -278 254q-133 0 -134 -45q-2 -41 -24.5 -59.5t-48.5 -18.5q-33 0 -54.5 20.5t-21.5 57.5q0 135 281 135 q193 0 291 -92t98 -217v-467q53 -25 135 -25q65 0 65 -43zM729 264v197q-256 -8 -381 -68.5t-125 -140.5q0 -70 63.5 -122t164.5 -52q109 0 184 35q43 20 65.5 47.5t25.5 48t3 55.5zM729 1196q0 -35 -47 -55l-295 -131q-12 -4 -16 -4q-27 0 -39.5 23.5t-12.5 41.5 q0 27 41 45l281 127l33 8q23 0 39 -15t16 -40z" />
<glyph glyph-name="acircumflex" unicode="&#xe2;" horiz-adv-x="1044" d="M1038 47q0 -23 -13 -33t-27.5 -12t-43.5 -2q-53 0 -83.5 3t-69.5 20.5t-64 52.5q-121 -88 -303 -88q-141 0 -230 77.5t-89 186.5q0 137 161.5 214t452.5 81q0 254 -278 254q-133 0 -134 -45q-2 -41 -24.5 -59.5t-48.5 -18.5q-33 0 -54.5 20.5t-21.5 57.5q0 135 281 135 q193 0 291 -92t98 -217v-467q53 -25 135 -25q65 0 65 -43zM729 264v197q-256 -8 -381 -68.5t-125 -140.5q0 -70 63.5 -122t164.5 -52q109 0 184 35q43 20 65.5 47.5t25.5 48t3 55.5zM817 1051q0 -16 -12 -29.5t-31 -13.5q-10 0 -22 6l-228 137l-227 -137q-12 -6 -23 -6 q-18 0 -30.5 13t-12.5 30q-4 23 21 36l254 158q18 10 37 0l254 -158q24 -13 20 -36z" />
<glyph glyph-name="atilde" unicode="&#xe3;" horiz-adv-x="1044" d="M1038 47q0 -23 -13 -33t-27.5 -12t-43.5 -2q-53 0 -83.5 3t-69.5 20.5t-64 52.5q-121 -88 -303 -88q-141 0 -230 77.5t-89 186.5q0 137 161.5 214t452.5 81q0 254 -278 254q-133 0 -134 -45q-2 -41 -24.5 -59.5t-48.5 -18.5q-33 0 -54.5 20.5t-21.5 57.5q0 135 281 135 q193 0 291 -92t98 -217v-467q53 -25 135 -25q65 0 65 -43zM729 264v197q-256 -8 -381 -68.5t-125 -140.5q0 -70 63.5 -122t164.5 -52q109 0 184 35q43 20 65.5 47.5t25.5 48t3 55.5zM874 1188q0 -29 -96 -101q-90 -66 -153 -65q-51 0 -97 37q-51 49 -71.5 63.5t-38.5 14.5 q-57 0 -160 -97q-18 -18 -36.5 -18t-33 15.5t-14.5 31.5q0 31 96 102q90 66 154 66q47 0 96 -37q79 -74 101 -79q5 -1 10 -1q55 0 160 99q23 18 36 18q18 0 32.5 -15.5t14.5 -33.5z" />
<glyph glyph-name="adieresis" unicode="&#xe4;" horiz-adv-x="1044" d="M1038 47q0 -23 -13 -33t-27.5 -12t-43.5 -2q-53 0 -83.5 3t-69.5 20.5t-64 52.5q-121 -88 -303 -88q-141 0 -230 77.5t-89 186.5q0 137 161.5 214t452.5 81q0 254 -278 254q-133 0 -134 -45q-2 -41 -24.5 -59.5t-48.5 -18.5q-33 0 -54.5 20.5t-21.5 57.5q0 135 281 135 q193 0 291 -92t98 -217v-467q53 -25 135 -25q65 0 65 -43zM729 264v197q-256 -8 -381 -68.5t-125 -140.5q0 -70 63.5 -122t164.5 -52q109 0 184 35q43 20 65.5 47.5t25.5 48t3 55.5zM426 1128.5q0 -30.5 -22.5 -53t-57.5 -22.5q-29 0 -52.5 22.5t-23.5 52.5q0 29 21.5 52.5 t56.5 23.5q33 0 55.5 -22.5t22.5 -53zM778 1128.5q0 -30.5 -21.5 -53t-56.5 -22.5q-31 0 -54 22.5t-23 52.5q0 29 22.5 52.5t56.5 23.5q31 0 53.5 -22.5t22.5 -53z" />
<glyph glyph-name="aring" unicode="&#xe5;" horiz-adv-x="1044" d="M1038 47q0 -23 -13 -33t-27.5 -12t-43.5 -2q-53 0 -83.5 3t-69.5 20.5t-64 52.5q-121 -88 -303 -88q-141 0 -230 77.5t-89 186.5q0 137 161.5 214t452.5 81q0 254 -278 254q-133 0 -134 -45q-2 -41 -24.5 -59.5t-48.5 -18.5q-33 0 -54.5 20.5t-21.5 57.5q0 135 281 135 q193 0 291 -92t98 -217v-467q53 -25 135 -25q65 0 65 -43zM729 264v197q-256 -8 -381 -68.5t-125 -140.5q0 -70 63.5 -122t164.5 -52q109 0 184 35q43 20 65.5 47.5t25.5 48t3 55.5zM662 1147q0 33 -41 56.5t-99 23.5q-53 0 -96 -23.5t-43 -56.5t41 -56.5t98 -23.5 q53 0 96.5 23.5t43.5 56.5zM750 1147q0 -49 -68 -94t-162 -45q-88 0 -156.5 45t-68.5 94t67.5 94t161.5 45q88 0 157 -45t69 -94z" />
<glyph glyph-name="ae" unicode="&#xe6;" horiz-adv-x="1552" d="M1493 211q0 -59 -86 -141t-236 -82q-207 0 -364 182q-86 -182 -381 -182q-143 0 -231.5 71.5t-88.5 169.5q0 242 615 258v82q0 113 -73 172.5t-206 59.5q-16 0 -82 -4q-37 -4 -44 -11.5t-7 -29.5q-2 -41 -24.5 -59.5t-48.5 -18.5q-33 0 -54.5 20.5t-21.5 57.5 q0 135 280 135q248 0 361 -182q152 182 338 182q168 0 261 -119t93 -307q0 -29 -10 -43t-20.5 -16.5t-35.5 -2.5h-598q25 -150 126.5 -237.5t228.5 -87.5q147 0 207 147q10 27 49 27q53 0 53 -41zM1384 492q-10 139 -69.5 224t-175.5 85q-104 0 -192.5 -84t-115.5 -225h553z M731 250l-8 149q-205 -6 -305 -30q-203 -59 -203 -138q0 -63 64.5 -108t164.5 -45q106 0 185 33q102 41 102 139z" />
<glyph glyph-name="ccedilla" unicode="&#xe7;" horiz-adv-x="956" d="M889 211q0 -20 -18.5 -57t-79 -87.5t-150.5 -70.5v-51q184 -49 184 -191q0 -55 -30.5 -94t-69.5 -57.5t-108.5 -28.5t-109.5 -11t-112 -1q-16 0 -31.5 11t-15.5 33.5t16.5 33t33 12.5t51.5 2q268 0 268 104q0 41 -38 71t-99 32q-45 2 -45 63v62q-193 12 -315 142 t-122 308q0 72 26 146.5t77 146.5t147 117t219 45q297 0 297 -135q0 -35 -22.5 -56.5t-55.5 -21.5q-72 0 -73 84q0 16 -50.5 27.5t-95.5 11.5q-104 0 -181 -41t-113.5 -103.5t-52 -118t-15.5 -102.5q0 -150 103.5 -254t246.5 -104q166 0 233 155q14 18 46 19q55 0 55 -41z " />
<glyph glyph-name="egrave" unicode="&#xe8;" horiz-adv-x="956" d="M889 211q0 -59 -92 -141t-256 -82q-190 0 -323.5 132t-133.5 320q0 184 124 317.5t300 133.5q180 0 280.5 -121t100.5 -307q0 -29 -10.5 -42t-21.5 -15.5t-34 -2.5h-630q25 -150 128 -237.5t232 -87.5q170 0 233 149q10 25 48 25q55 0 55 -41zM778 492q-25 309 -270 309 q-113 0 -200 -84t-113 -225h583zM682 1071q0 -18 -12.5 -41.5t-38.5 -23.5q-4 0 -17 4l-295 131q-47 20 -47 55q0 25 16.5 40t39.5 15q12 0 32 -8l281 -127q41 -18 41 -45z" />
<glyph glyph-name="eacute" unicode="&#xe9;" horiz-adv-x="956" d="M889 211q0 -59 -92 -141t-256 -82q-190 0 -323.5 132t-133.5 320q0 184 124 317.5t300 133.5q180 0 280.5 -121t100.5 -307q0 -29 -10.5 -42t-21.5 -15.5t-34 -2.5h-630q25 -150 128 -237.5t232 -87.5q170 0 233 149q10 25 48 25q55 0 55 -41zM778 492q-25 309 -270 309 q-113 0 -200 -84t-113 -225h583zM684 1196q0 -35 -47 -55l-295 -131q-12 -4 -16 -4q-27 0 -39.5 23.5t-12.5 41.5q0 27 41 45l281 127l33 8q23 0 39 -15t16 -40z" />
<glyph glyph-name="ecircumflex" unicode="&#xea;" horiz-adv-x="956" d="M889 211q0 -59 -92 -141t-256 -82q-190 0 -323.5 132t-133.5 320q0 184 124 317.5t300 133.5q180 0 280.5 -121t100.5 -307q0 -29 -10.5 -42t-21.5 -15.5t-34 -2.5h-630q25 -150 128 -237.5t232 -87.5q170 0 233 149q10 25 48 25q55 0 55 -41zM778 492q-25 309 -270 309 q-113 0 -200 -84t-113 -225h583zM772 1051q0 -16 -12 -29.5t-31 -13.5q-10 0 -22 6l-228 137l-227 -137q-12 -6 -23 -6q-18 0 -30.5 13t-12.5 30q-4 23 21 36l254 158q18 10 37 0l254 -158q24 -13 20 -36z" />
<glyph glyph-name="edieresis" unicode="&#xeb;" horiz-adv-x="956" d="M889 211q0 -59 -92 -141t-256 -82q-190 0 -323.5 132t-133.5 320q0 184 124 317.5t300 133.5q180 0 280.5 -121t100.5 -307q0 -29 -10.5 -42t-21.5 -15.5t-34 -2.5h-630q25 -150 128 -237.5t232 -87.5q170 0 233 149q10 25 48 25q55 0 55 -41zM778 492q-25 309 -270 309 q-113 0 -200 -84t-113 -225h583zM381 1128.5q0 -30.5 -22.5 -53t-57.5 -22.5q-29 0 -52.5 22.5t-23.5 52.5q0 29 21.5 52.5t56.5 23.5q33 0 55.5 -22.5t22.5 -53zM733 1128.5q0 -30.5 -21.5 -53t-56.5 -22.5q-31 0 -54 22.5t-23 52.5q0 29 22.5 52.5t56.5 23.5 q31 0 53.5 -22.5t22.5 -53z" />
<glyph glyph-name="igrave" unicode="&#xec;" horiz-adv-x="598" d="M530 45q0 -45 -65 -45h-354q-66 0 -66 45t66 45h133v690h-123q-68 0 -68 47q0 45 68 45h166q41 0 53 -14t12 -53v-715h111q67 0 67 -45zM502 1071q0 -18 -12.5 -41.5t-38.5 -23.5q-4 0 -17 4l-295 131q-47 20 -47 55q0 25 16.5 40t38.5 15q12 0 33 -8l281 -127 q41 -18 41 -45z" />
<glyph glyph-name="iacute" unicode="&#xed;" horiz-adv-x="598" d="M530 45q0 -45 -65 -45h-354q-66 0 -66 45t66 45h133v690h-123q-68 0 -68 47q0 45 68 45h166q41 0 53 -14t12 -53v-715h111q67 0 67 -45zM504 1196q0 -35 -47 -55l-295 -131q-12 -4 -17 -4q-27 0 -39 23.5t-12 41.5q0 27 41 45l281 127l33 8q23 0 39 -15t16 -40z" />
<glyph glyph-name="icircumflex" unicode="&#xee;" horiz-adv-x="598" d="M530 45q0 -45 -65 -45h-354q-66 0 -66 45t66 45h133v690h-123q-68 0 -68 47q0 45 68 45h166q41 0 53 -14t12 -53v-715h111q67 0 67 -45zM592 1051q0 -16 -12.5 -29.5t-30.5 -13.5q-10 0 -23 6l-227 137l-227 -137q-12 -6 -23 -6q-18 0 -30.5 13t-12.5 30q-4 23 21 36 l254 158q18 10 36 0l254 -158q25 -13 21 -36z" />
<glyph glyph-name="idieresis" unicode="&#xef;" horiz-adv-x="598" d="M530 45q0 -45 -65 -45h-354q-66 0 -66 45t66 45h133v690h-123q-68 0 -68 47q0 45 68 45h166q41 0 53 -14t12 -53v-715h111q67 0 67 -45zM201 1128.5q0 -30.5 -22.5 -53t-57.5 -22.5q-29 0 -52.5 22.5t-23.5 52.5q0 29 21.5 52.5t56.5 23.5q33 0 55.5 -22.5t22.5 -53z M553 1128.5q0 -30.5 -21.5 -53t-56.5 -22.5q-31 0 -54.5 22.5t-23.5 52.5q0 29 22.5 52.5t57.5 23.5q31 0 53.5 -22.5t22.5 -53z" />
<glyph glyph-name="eth" unicode="&#xf0;" d="M993 1370q0 -25 -16 -37l-135 -110q150 -250 149 -787q0 -186 -135 -317q-131 -131 -319.5 -131t-321.5 131t-133 317.5t133 320.5t322 134q172 0 340 -148q-23 276 -105 416l-129 -108q-14 -10 -31 -11q-18 0 -32.5 13.5t-14.5 33.5q0 23 17 35l127 107q-84 51 -170 51 q-23 0 -39.5 16.5t-16.5 39t16.5 39t39.5 16.5q135 0 243 -97l133 111q14 10 31 10q18 0 32.5 -13.5t14.5 -31.5zM883 451q0 150 -102.5 250t-244 100t-244 -100.5t-102.5 -249.5q0 -152 100.5 -262.5t246.5 -110.5q143 0 244.5 110.5t101.5 262.5z" />
<glyph glyph-name="ntilde" unicode="&#xf1;" horiz-adv-x="1193" d="M1155 45q0 -45 -65 -45h-373q-66 0 -66 47q0 43 66 43h133v492q0 109 -38 160t-153 51q-51 0 -102 -16.5t-101 -50.5t-82 -97.5t-32 -147.5v-391h133q66 0 66 -45t-66 -45h-373q-66 0 -65.5 45t65.5 45h134v690h-134q-66 0 -65 45q0 47 65 47h174q47 0 56.5 -23.5 t9.5 -109.5q158 145 330 146q285 0 284 -289v-506h134q65 0 65 -45zM948 1188q0 -29 -96 -101q-90 -66 -154 -65q-51 0 -96 37q-51 49 -71.5 63.5t-38.5 14.5q-57 0 -160 -97q-18 -18 -37 -18t-33 15.5t-14 31.5q0 31 96 102q90 66 154 66q47 0 96 -37q79 -74 100 -79 q5 -1 11 -1q55 0 159 99q23 18 37 18q18 0 32.5 -15.5t14.5 -33.5z" />
<glyph glyph-name="ograve" unicode="&#xf2;" d="M991 436.5q0 -186.5 -133 -317.5t-321.5 -131t-321.5 131t-133 317.5t133 320.5t321.5 134t321.5 -134t133 -320.5zM883 451q0 150 -102.5 250t-244 100t-244 -100.5t-102.5 -249.5q0 -152 100.5 -262.5t246.5 -110.5q143 0 244.5 110.5t101.5 262.5zM741 1071 q0 -18 -12 -41.5t-39 -23.5q-4 0 -16 4l-295 131q-47 20 -47 55q0 25 16.5 40t38.5 15q12 0 33 -8l280 -127q41 -18 41 -45z" />
<glyph glyph-name="oacute" unicode="&#xf3;" d="M991 436.5q0 -186.5 -133 -317.5t-321.5 -131t-321.5 131t-133 317.5t133 320.5t321.5 134t321.5 -134t133 -320.5zM883 451q0 150 -102.5 250t-244 100t-244 -100.5t-102.5 -249.5q0 -152 100.5 -262.5t246.5 -110.5q143 0 244.5 110.5t101.5 262.5zM743 1196 q0 -35 -47 -55l-295 -131q-12 -4 -16 -4q-27 0 -39 23.5t-12 41.5q0 27 41 45l280 127l33 8q23 0 39 -15t16 -40z" />
<glyph glyph-name="ocircumflex" unicode="&#xf4;" d="M991 436.5q0 -186.5 -133 -317.5t-321.5 -131t-321.5 131t-133 317.5t133 320.5t321.5 134t321.5 -134t133 -320.5zM883 451q0 150 -102.5 250t-244 100t-244 -100.5t-102.5 -249.5q0 -152 100.5 -262.5t246.5 -110.5q143 0 244.5 110.5t101.5 262.5zM831 1051 q0 -16 -12 -29.5t-31 -13.5q-10 0 -22 6l-227 137l-228 -137q-12 -6 -22 -6q-18 0 -30.5 13t-12.5 30q-4 23 20 36l254 158q18 10 37 0l254 -158q24 -13 20 -36z" />
<glyph glyph-name="otilde" unicode="&#xf5;" d="M991 436.5q0 -186.5 -133 -317.5t-321.5 -131t-321.5 131t-133 317.5t133 320.5t321.5 134t321.5 -134t133 -320.5zM883 451q0 150 -102.5 250t-244 100t-244 -100.5t-102.5 -249.5q0 -152 100.5 -262.5t246.5 -110.5q143 0 244.5 110.5t101.5 262.5zM889 1188 q0 -29 -96 -101q-90 -66 -154 -65q-51 0 -96 37q-51 49 -71.5 63.5t-39.5 14.5q-57 0 -160 -97q-18 -18 -36.5 -18t-33 15.5t-14.5 31.5q0 31 97 102q90 66 153 66q47 0 97 -37q79 -74 100 -79q5 -1 10 -1q55 0 160 99q23 18 37 18q18 0 32.5 -15.5t14.5 -33.5z" />
<glyph glyph-name="odieresis" unicode="&#xf6;" d="M991 436.5q0 -186.5 -133 -317.5t-321.5 -131t-321.5 131t-133 317.5t133 320.5t321.5 134t321.5 -134t133 -320.5zM883 451q0 150 -102.5 250t-244 100t-244 -100.5t-102.5 -249.5q0 -152 100.5 -262.5t246.5 -110.5q143 0 244.5 110.5t101.5 262.5zM440 1128.5 q0 -30.5 -22.5 -53t-57.5 -22.5q-29 0 -52 22.5t-23 52.5q0 29 21.5 52.5t55.5 23.5q33 0 55.5 -22.5t22.5 -53zM793 1128.5q0 -30.5 -21.5 -53t-56.5 -22.5q-31 0 -54.5 22.5t-23.5 52.5q0 29 22.5 52.5t57.5 23.5q31 0 53.5 -22.5t22.5 -53z" />
<glyph glyph-name="divide" unicode="&#xf7;" horiz-adv-x="1673" d="M1554 626.5q0 -55.5 -75 -55.5h-1286q-76 0 -76 55.5t88 55.5h1261q88 0 88 -55.5zM922 993q0 -35 -25 -60.5t-61.5 -25.5t-61 25.5t-24.5 60.5q0 37 24.5 62.5t61 25.5t61.5 -25.5t25 -62.5zM922 260q0 -37 -25 -62.5t-61.5 -25.5t-61 25.5t-24.5 62.5q0 35 24.5 60.5 t61 25.5t61.5 -25.5t25 -60.5z" />
<glyph glyph-name="oslash" unicode="&#xf8;" d="M979 1122q0 -14 -12 -35l-166 -286q174 -162 174 -365q0 -186 -129 -317t-309 -131q-88 0 -183 41l-180 -308q-12 -16 -33 -16q-14 0 -30.5 12.5t-16.5 30.5q0 20 33 72l147 254q-176 154 -176 362q0 186 128 320.5t311 134.5q82 0 188 -43l166 289q18 31 41 30 q14 0 30.5 -12.5t16.5 -32.5zM678 772q-84 29 -141 29q-147 0 -253 -107.5t-106 -257.5q0 -158 139 -286zM895 436q0 166 -139 287l-357 -621q76 -25 138 -24q147 0 252.5 104t105.5 254z" />
<glyph glyph-name="ugrave" unicode="&#xf9;" horiz-adv-x="1193" d="M1155 45q0 -45 -65 -45h-175q-20 0 -31.5 3t-22.5 25.5t-11 65.5q-137 -106 -309 -106q-305 0 -305 235v557h-134q-66 0 -65 45q0 47 65 47h174q41 0 53.5 -14t12.5 -53v-569q0 -37 4 -56.5t21.5 -47.5t63.5 -41t122 -13q41 0 82 7t94 28.5t87 73t34 124.5v469h-133 q-66 0 -66 47q0 45 66 45h174q41 0 53 -14t12 -53v-715h134q65 0 65 -45zM801 1071q0 -18 -12.5 -41.5t-38.5 -23.5q-4 0 -17 4l-295 131q-47 20 -47 55q0 25 16.5 40t38.5 15q12 0 33 -8l281 -127q41 -18 41 -45z" />
<glyph glyph-name="uacute" unicode="&#xfa;" horiz-adv-x="1193" d="M1155 45q0 -45 -65 -45h-175q-20 0 -31.5 3t-22.5 25.5t-11 65.5q-137 -106 -309 -106q-305 0 -305 235v557h-134q-66 0 -65 45q0 47 65 47h174q41 0 53.5 -14t12.5 -53v-569q0 -37 4 -56.5t21.5 -47.5t63.5 -41t122 -13q41 0 82 7t94 28.5t87 73t34 124.5v469h-133 q-66 0 -66 47q0 45 66 45h174q41 0 53 -14t12 -53v-715h134q65 0 65 -45zM803 1196q0 -35 -47 -55l-295 -131q-12 -4 -17 -4q-27 0 -39 23.5t-12 41.5q0 27 41 45l281 127l33 8q23 0 39 -15t16 -40z" />
<glyph glyph-name="ucircumflex" unicode="&#xfb;" horiz-adv-x="1193" d="M1155 45q0 -45 -65 -45h-175q-20 0 -31.5 3t-22.5 25.5t-11 65.5q-137 -106 -309 -106q-305 0 -305 235v557h-134q-66 0 -65 45q0 47 65 47h174q41 0 53.5 -14t12.5 -53v-569q0 -37 4 -56.5t21.5 -47.5t63.5 -41t122 -13q41 0 82 7t94 28.5t87 73t34 124.5v469h-133 q-66 0 -66 47q0 45 66 45h174q41 0 53 -14t12 -53v-715h134q65 0 65 -45zM891 1051q0 -16 -12.5 -29.5t-30.5 -13.5q-10 0 -23 6l-227 137l-227 -137q-12 -6 -23 -6q-18 0 -30.5 13t-12.5 30q-4 23 21 36l254 158q18 10 36 0l254 -158q25 -13 21 -36z" />
<glyph glyph-name="udieresis" unicode="&#xfc;" horiz-adv-x="1193" d="M1155 45q0 -45 -65 -45h-175q-20 0 -31.5 3t-22.5 25.5t-11 65.5q-137 -106 -309 -106q-305 0 -305 235v557h-134q-66 0 -65 45q0 47 65 47h174q41 0 53.5 -14t12.5 -53v-569q0 -37 4 -56.5t21.5 -47.5t63.5 -41t122 -13q41 0 82 7t94 28.5t87 73t34 124.5v469h-133 q-66 0 -66 47q0 45 66 45h174q41 0 53 -14t12 -53v-715h134q65 0 65 -45zM500 1128.5q0 -30.5 -22.5 -53t-57.5 -22.5q-29 0 -52.5 22.5t-23.5 52.5q0 29 21.5 52.5t56.5 23.5q33 0 55.5 -22.5t22.5 -53zM852 1128.5q0 -30.5 -21.5 -53t-56.5 -22.5q-31 0 -54.5 22.5 t-23.5 52.5q0 29 22.5 52.5t57.5 23.5q31 0 53.5 -22.5t22.5 -53z" />
<glyph glyph-name="yacute" unicode="&#xfd;" horiz-adv-x="1134" d="M1075 825q0 -45 -65 -45h-97l-331 -968q-39 -113 -131.5 -203t-219.5 -90q-82 0 -135 45t-53 108q0 35 20.5 54.5t55.5 19.5q29 0 50 -20.5t21 -53.5q0 -10 -2 -20t-2 -12q0 -12 17.5 -21.5t32.5 -9.5q66 0 118 27.5t82.5 71.5t45 75t24.5 61l47 138l-326 798h-98 q-68 0 -68 47q0 45 68 45h295q66 0 65 -47q0 -45 -65 -45h-109l279 -710l231 710h-112q-66 0 -66 45q0 47 66 47h297q65 0 65 -47zM774 1196q0 -35 -47 -55l-295 -131q-12 -4 -16 -4q-27 0 -39 23.5t-12 41.5q0 27 41 45l280 127l33 8q23 0 39 -15t16 -40z" />
<glyph glyph-name="thorn" unicode="&#xfe;" horiz-adv-x="1193" d="M1098 436q0 -188 -135.5 -318t-317.5 -130q-160 0 -303 153v-518h133q66 0 66 -47q0 -45 -66 -45h-373q-66 0 -65 45q0 47 65 47h134v1538h-134q-66 0 -65 43q0 47 65 47h174q41 0 53.5 -13t12.5 -54v-436q158 137 326 137q180 0 305 -132.5t125 -316.5zM991 436 q0 145 -96 251t-240 106q-121 0 -217 -77t-96 -181v-142q0 -109 82 -212t213 -103q141 0 247.5 103t106.5 255z" />
<glyph glyph-name="ydieresis" unicode="&#xff;" horiz-adv-x="1134" d="M1075 825q0 -45 -65 -45h-97l-331 -968q-39 -113 -131.5 -203t-219.5 -90q-82 0 -135 45t-53 108q0 35 20.5 54.5t55.5 19.5q29 0 50 -20.5t21 -53.5q0 -10 -2 -20t-2 -12q0 -12 17.5 -21.5t32.5 -9.5q66 0 118 27.5t82.5 71.5t45 75t24.5 61l47 138l-326 798h-98 q-68 0 -68 47q0 45 68 45h295q66 0 65 -47q0 -45 -65 -45h-109l279 -710l231 710h-112q-66 0 -66 45q0 47 66 47h297q65 0 65 -47zM471 1128.5q0 -30.5 -22.5 -53t-57.5 -22.5q-29 0 -52.5 22.5t-23.5 52.5q0 29 21.5 52.5t56.5 23.5q33 0 55.5 -22.5t22.5 -53zM823 1128.5 q0 -30.5 -21.5 -53t-56.5 -22.5q-31 0 -54 22.5t-23 52.5q0 29 22.5 52.5t57.5 23.5q31 0 53 -22.5t22 -53z" />
<glyph glyph-name="OE" unicode="&#x152;" horiz-adv-x="2150" d="M2101 68q0 -41 -13 -54.5t-52 -13.5h-891q-66 0 -131 -8q-143 -14 -187 -15q-299 0 -508.5 191.5t-209.5 458.5q0 264 208.5 455.5t509.5 191.5q59 0 127 -8q127 -14 191 -15h829q41 0 53.5 -14t12.5 -53v-154q0 -23 -2 -34t-14.5 -22t-38.5 -11q-25 0 -37.5 12 t-14.5 23.5t-2 31.5v131h-729v-467h506q0 76 8 98.5t47 22.5q25 0 37 -12t14.5 -23.5t2.5 -31.5v-197q0 -20 -2.5 -31.5t-14.5 -24t-37 -12.5q-39 0 -47 22.5t-8 98.5h-506v-514h791v166q0 20 2 31.5t14 24t39 12.5q25 0 37 -12.5t14 -24t2 -31.5v-188zM1094 627l-2 219 q-2 211 -45 274.5t-207 63.5q-276 0 -449.5 -161t-173.5 -374q0 -229 174 -405t449 -176q164 0 207 63.5t45 269.5z" />
<glyph glyph-name="oe" unicode="&#x153;" horiz-adv-x="1673" d="M1616 211q0 -59 -86 -141t-236 -82q-137 0 -237.5 68.5t-157.5 162.5q-150 -231 -387 -231q-180 0 -309 132t-129 318q0 188 129 320.5t309 132.5q233 0 385 -229q66 111 161 170t204 59q168 0 261 -119t93 -307q0 -29 -10.5 -43t-20.5 -16.5t-35 -2.5h-598 q25 -150 126.5 -237.5t228.5 -87.5q147 0 206 147q10 27 48 27q55 0 55 -41zM1507 492q-10 139 -69.5 224t-175.5 85q-104 0 -192.5 -84t-115.5 -225h553zM844 451q0 150 -98.5 250t-233.5 100t-232.5 -100.5t-97.5 -249.5q0 -154 97.5 -263.5t232.5 -109.5 q137 0 234.5 109.5t97.5 263.5z" />
<glyph glyph-name="Ydieresis" unicode="&#x178;" horiz-adv-x="1552" d="M1491 1204q0 -43 -68 -43h-110l-484 -659v-412h134q66 0 65.5 -45t-65.5 -45h-375q-66 0 -66 45t66 45h133v412l-483 659h-111q-68 0 -68 45t68 45h328q68 0 67 -47q0 -43 -67 -43h-86l405 -549l408 549h-86q-68 0 -68 45t68 45h327q68 0 68 -47zM647 1392.5 q0 -30.5 -21.5 -53t-56.5 -22.5q-31 0 -53 22.5t-22 53.5q0 29 21.5 52t55.5 23q33 0 54.5 -22.5t21.5 -53zM1063 1392.5q0 -30.5 -21.5 -53t-56.5 -22.5q-31 0 -53.5 22.5t-22.5 53.5q0 29 21.5 52t56.5 23q33 0 54.5 -22.5t21.5 -53z" />
<glyph glyph-name="circumflex" unicode="&#x2c6;" d="M831 1051q0 -16 -12 -29.5t-31 -13.5q-10 0 -22 6l-227 137l-228 -137q-12 -6 -22 -6q-18 0 -30.5 13t-12.5 30q-4 23 20 36l254 158q18 10 37 0l254 -158q24 -13 20 -36z" />
<glyph glyph-name="tilde" unicode="&#x2dc;" d="M889 1188q0 -29 -96 -101q-90 -66 -154 -65q-51 0 -96 37q-51 49 -71.5 63.5t-39.5 14.5q-57 0 -160 -97q-18 -18 -36.5 -18t-33 15.5t-14.5 31.5q0 31 97 102q90 66 153 66q47 0 97 -37q79 -74 100 -79q5 -1 10 -1q55 0 160 99q23 18 37 18q18 0 32.5 -15.5t14.5 -33.5z " />
<glyph glyph-name="endash" unicode="&#x2013;" d="M1071 543q0 -45 -65 -45h-938q-66 0 -66 45t66 45h938q65 0 65 -45z" />
<glyph glyph-name="emdash" unicode="&#x2014;" horiz-adv-x="2150" d="M2163 543q0 -45 -66 -45h-2046q-66 0 -65.5 45t65.5 45h2046q66 0 66 -45z" />
<glyph glyph-name="quoteleft" unicode="&#x2018;" horiz-adv-x="598" d="M406 1204q0 -14 -19 -33q-115 -88 -115 -213q31 0 54.5 -8t34 -18t16.5 -24.5t7 -21.5t1 -14q0 -37 -24.5 -62.5t-61.5 -25.5q-51 0 -85 46.5t-34 127.5q0 117 66.5 205t109.5 88q18 0 34 -15.5t16 -31.5z" />
<glyph glyph-name="quoteright" unicode="&#x2019;" horiz-adv-x="598" d="M418 1079q0 -117 -66.5 -206t-109.5 -89q-18 0 -33.5 15.5t-15.5 31.5q0 14 18 33q35 29 52.5 45.5t40 63.5t22.5 104q-31 0 -54.5 8.5t-34 19.5t-16.5 25.5t-7 21.5t-1 13q0 35 24.5 60.5t61.5 25.5q51 0 85 -46t34 -126z" />
<glyph glyph-name="quotesinglbase" unicode="&#x201a;" horiz-adv-x="598" d="M412 -2q0 -117 -66.5 -205t-109.5 -88q-18 0 -34 14.5t-16 31t19 34.5q31 25 50 43t41.5 65.5t22.5 104.5q-31 0 -54 8t-33.5 18.5t-16.5 24.5t-7 21.5t-1 13.5q0 37 24.5 61.5t61.5 24.5q53 0 86 -46t33 -126z" />
<glyph glyph-name="quotedblleft" unicode="&#x201c;" horiz-adv-x="1015" d="M831 1204q0 -14 -18 -33q-115 -88 -115 -213q31 0 54.5 -8t34 -18t16.5 -24.5t7 -21.5t1 -14q0 -37 -24.5 -62.5t-61.5 -25.5q-51 0 -85 46.5t-34 127.5q0 117 66.5 205t109.5 88q18 0 33.5 -15.5t15.5 -31.5zM397 1204q0 -14 -18 -33q-115 -88 -115 -213q31 0 54.5 -8 t33.5 -18t16.5 -24.5t7.5 -21.5t1 -14q0 -37 -24.5 -62.5t-61.5 -25.5q-51 0 -85 46.5t-34 127.5q0 117 66.5 205t109.5 88q18 0 33.5 -15.5t15.5 -31.5z" />
<glyph glyph-name="quotedblright" unicode="&#x201d;" horiz-adv-x="1015" d="M844 1079q0 -117 -66.5 -206t-109.5 -89q-18 0 -34 15.5t-16 31.5q0 14 19 33q35 29 52.5 45.5t40 63.5t22.5 104q-31 0 -54.5 8.5t-34 19.5t-16.5 25.5t-7 21.5t-1 13q0 35 24.5 60.5t61.5 25.5q51 0 85 -46t34 -126zM410 1079q0 -117 -67 -206t-110 -89 q-18 0 -33.5 15.5t-15.5 31.5q0 14 19 33q35 29 52 45.5t39.5 63.5t22.5 104q-31 0 -54 8.5t-33.5 19.5t-16.5 25.5t-7 21.5t-1 13q0 35 24.5 60.5t61.5 25.5q51 0 85 -46t34 -126z" />
<glyph glyph-name="quotedblbase" unicode="&#x201e;" horiz-adv-x="1015" d="M412 -2q0 -117 -66.5 -205t-109.5 -88q-18 0 -34 14.5t-16 30.5q0 20 19 35q31 25 50 43t41.5 65.5t22.5 104.5q-31 2 -54 10t-33.5 18.5t-16.5 23.5t-7 20.5t-1 13.5q0 37 24.5 61.5t61.5 24.5q53 0 86 -46t33 -126zM842 -2q0 -117 -66.5 -205t-109.5 -88 q-18 0 -33 14.5t-15 30.5q0 18 17 35q31 25 50.5 43t42 65.5t22.5 104.5q-31 2 -54.5 10t-34 18.5t-16.5 23.5t-7 20.5t-1 13.5q0 35 24.5 60.5t61.5 25.5q53 0 86 -46t33 -126z" />
<glyph glyph-name="bullet" unicode="&#x2022;" horiz-adv-x="1673" d="M1108 475q0 -115 -79 -193.5t-193.5 -78.5t-193.5 78.5t-79 193.5t79 194t193.5 79t193.5 -79t79 -194z" />
<glyph glyph-name="ellipsis" unicode="&#x2026;" horiz-adv-x="1392" d="M373 86q0 -35 -24.5 -60.5t-61.5 -25.5t-61.5 25.5t-24.5 60.5q0 37 24.5 61.5t61.5 24.5t61.5 -24.5t24.5 -61.5zM782 86q0 -35 -24.5 -60.5t-61.5 -25.5t-61.5 25.5t-24.5 60.5q0 37 24.5 61.5t61.5 24.5t61.5 -24.5t24.5 -61.5zM1192 86q0 -35 -24.5 -60.5 t-61.5 -25.5t-61.5 25.5t-24.5 60.5q0 37 24.5 61.5t61.5 24.5t61.5 -24.5t24.5 -61.5z" />
<glyph glyph-name="guilsinglleft" unicode="&#x2039;" horiz-adv-x="835" d="M584 39q4 -14 -5.5 -26.5t-23.5 -12.5h-35q-20 0 -26 20q-72 229 -234 404q-16 20 0 41q162 174 234 403q8 20 26 21h35q14 0 23.5 -12.5t5.5 -26.5q-68 -221 -213 -408q145 -180 213 -403z" />
<glyph glyph-name="guilsinglright" unicode="&#x203a;" horiz-adv-x="835" d="M575 424q-156 -168 -233 -404q-6 -20 -27 -20h-34q-14 0 -23.5 12.5t-5.5 26.5q72 225 213 403q-141 186 -213 408q-4 14 5 26.5t24 12.5h34q18 0 27 -21q76 -233 233 -403q16 -21 0 -41z" />
<glyph glyph-name="Euro" unicode="&#x20ac;" horiz-adv-x="1345" d="M1225 18q0 -16 -12.5 -28.5t-30.5 -12.5h-8q-23 0 -35 19l-31 45q-127 -63 -285 -64q-242 0 -411 191q-98 111 -146 276h-108q-14 0 -23.5 12.5t-5.5 26.5l12 33q8 23 29 23h80q-6 61 -6 88q0 25 6 88h-92q-14 0 -23.5 12t-5.5 27l12 32q8 23 29 23h96q47 164 146 274 q170 190 411 191q168 0 285 -64l31 45q12 18 35 19h8q18 0 30.5 -12.5t12.5 -28.5v-191q0 -16 -12.5 -29.5t-30.5 -13.5h-25q-35 0 -43 37q-14 76 -92 111t-184 35q-201 0 -340 -162q-74 -82 -119 -211h639q14 0 23.5 -13.5t5.5 -27.5l-11 -35q-8 -18 -28 -18h-650 q-6 -61 -6 -88q0 -29 6 -88h570q14 0 23.5 -13.5t4.5 -27.5l-14 -33q-6 -20 -29 -21h-534q45 -129 119 -215q139 -160 340 -159q106 0 184 34.5t92 110.5q8 37 43 37h25q18 0 30.5 -13.5t12.5 -29.5v-191z" />
<glyph glyph-name="trademark" unicode="&#x2122;" horiz-adv-x="2078" d="M885 1118q0 -39 -33 -39t-33 39v80h-321v-643h129q41 0 41 -26.5t-41 -26.5h-324q-41 0 -41 26.5t41 26.5h129v643h-323v-80q0 -39 -31 -39q-33 0 -33 39v92q0 27 8 34t33 7h760q25 0 32 -8t7 -33v-92zM2005 528.5q0 -26.5 -39 -26.5h-207q-41 0 -41 26.5t41 26.5h80v643 h-16l-277 -645q-20 -45 -51 -45q-33 0 -49 39l-281 651h-14v-643h80q39 0 39 -26.5t-39 -26.5h-209q-39 0 -39 26.5t39 26.5h80v643h-80q-39 0 -39 25q0 29 39 28h123q51 0 67 -41l283 -653l281 657q16 37 69 37h121q39 0 39 -28q0 -25 -39 -25h-80v-643h80q39 0 39 -26.5z " />
</font>
</defs>
</svg>
