<?xml version="1.0" standalone="no"?>
<!DOCTYPE svg PUBLIC "-//W3C//DTD SVG 1.1//EN" "http://www.w3.org/Graphics/SVG/1.1/DTD/svg11.dtd" >
<svg xmlns="http://www.w3.org/2000/svg">
<defs>
<font id="LMMonoLtCond10-Regular" horiz-adv-x="716" >
<font-face  font-family="LM Mono Light Cond 10" font-weight="400" font-stretch="normal" units-per-em="2048" panose-1="0 0 5 9 0 0 0 0 0 0" ascent="1579" descent="-469" x-height="870" cap-height="1251" bbox="-10 -495.503 741 1626" underline-thickness="108" underline-position="-315" unicode-range="U+0020-U+20AC"/>
<missing-glyph horiz-adv-x="500" />
<glyph glyph-name=".notdef" horiz-adv-x="500" />
<glyph glyph-name=".null" horiz-adv-x="0" />
<glyph glyph-name="nonmarkingreturn" />
<glyph glyph-name="space" unicode=" " />
<glyph glyph-name="exclam" unicode="!" d="M422 1188l-12 -762q-2 -31 -11.5 -44t-40.5 -13q-35 0 -44 10t-9 47l-10 758q0 92 63 92q62 0 64 -88zM422 76q0 -33 -19.5 -54.5t-44 -21.5t-44 21.5t-19.5 54.5t19.5 53.5t44 20.5t44 -20.5t19.5 -53.5z" />
<glyph glyph-name="quotedbl" unicode="&#x22;" d="M291 1188l-15 -432q0 -68 -40 -68q-39 0 -43 68l-15 432q0 29 14.5 55.5t43.5 26.5q27 0 42 -28.5t13 -53.5zM539 1188l-15 -432q0 -68 -41 -68q-39 0 -43 68l-14 432q0 29 14.5 55.5t42.5 26.5q27 0 42.5 -28.5t13.5 -53.5z" />
<glyph glyph-name="numbersign" unicode="#" d="M678 397q0 -49 -64 -49h-110l-25 -268q-6 -80 -47 -80h-5t-11 3t-14.5 9t-11.5 17.5t-3 27.5l27 291h-160l-23 -268q-12 -80 -47 -80q-6 0 -14 2t-20.5 16.5t-10.5 38.5l27 291h-64q-63 0 -63 51q0 47 63 47h72l29 359h-101q-63 0 -63 49t63 49h111l23 268q12 80 47 80 q49 0 47 -57l-27 -291h158l24 268q6 80 47 80q49 0 46 -57l-27 -291h63q63 0 64 -51q0 -47 -64 -47h-71l-31 -359h102q64 0 64 -49zM453 805h-160l-29 -359h160z" />
<glyph glyph-name="dollar" unicode="$" d="M645 340q0 -127 -67.5 -226.5t-178.5 -121.5v-101q0 -68 -41 -67.5t-41 67.5v99q-125 18 -185 118.5t-60 219.5q0 35 14 54t29 21l14 3q20 0 38.5 -16.5t18.5 -49.5q0 -20 -24 -49q31 -190 155 -217v540q-66 18 -114.5 56.5t-73.5 76t-39 82.5t-16 68t-2 41 q0 115 68.5 209t176.5 113v100q0 68 41 67.5t41 -67.5v-98q76 -12 130.5 -52.5t77 -93.5t30.5 -94t8 -76q0 -76 -59 -76q-18 0 -37 17.5t-19 50.5q0 20 25 47q-33 172 -156 193v-488q127 -37 186.5 -140.5t59.5 -209.5zM317 715v463q-72 -16 -116.5 -82t-44.5 -150 t43.5 -147.5t117.5 -83.5zM561 334q0 92 -46 163.5t-116 90.5v-512q76 18 119 93t43 165z" />
<glyph glyph-name="percent" unicode="%" d="M283 1163q0 -111 -35 -185.5t-86 -74.5q-49 0 -86 75t-37 187q0 111 36 186.5t87 75.5q49 0 85 -75.5t36 -188.5zM600 1376q0 -2 -1 -5t-3 -8t-4 -11l-383 -1467q-10 -61 -47 -61q-16 0 -30.5 14.5t-14.5 36.5q0 2 2 9t4 16l383 1466q18 61 49 61q16 0 30.5 -13t14.5 -38 zM678 86q0 -111 -37 -186.5t-86 -75.5t-86 75.5t-37 186.5q0 109 37 184.5t86 75.5t86 -75.5t37 -184.5zM205 1165q0 49 -7.5 91t-17.5 63.5t-18 21.5q-10 0 -20.5 -19t-17.5 -62t-7 -97q0 -51 7 -92t17.5 -62.5t20.5 -21.5q8 0 18 20.5t17.5 62.5t7.5 95zM600 86 q0 51 -7 93t-17.5 62.5t-20.5 20.5t-20.5 -20.5t-17.5 -62.5t-7 -93q0 -53 7 -95t17.5 -61.5t20.5 -19.5t20.5 19.5t17.5 61.5t7 95z" />
<glyph glyph-name="ampersand" unicode="&#x26;" d="M680 829q0 -41 -57 -41h-39l-74 -290l-86 -275q0 -29 40 -97.5t77 -68.5q49 0 53 136q4 59 41 59q4 0 10 -1t17.5 -13.5t11.5 -34.5q0 -82 -35 -155t-96 -73q-86 0 -166 146q-78 -145 -176 -146q-74 0 -122 86t-48 201q0 117 55 211l94 160q-45 209 -45 362q0 133 44 207 t104 74q63 0 96 -80t33 -184q0 -63 -25 -137t-50.5 -121l-76.5 -136q37 -135 113 -323q39 104 135 493q-68 0 -68 41t58 41h125q57 0 57 -41zM334 1012v10q0 10 -1 26.5t-2 35t-5 39t-9.5 36t-13.5 25.5t-20 10q-31 0 -50.5 -53.5t-19.5 -147.5q0 -131 25 -264 q96 164 96 283zM336 203q-92 225 -125 329q-59 -90 -77.5 -136t-18.5 -126q0 -72 20.5 -142.5t67.5 -70.5q61 1 133 146z" />
<glyph glyph-name="quotesingle" unicode="'" d="M414 1188l-15 -432q0 -68 -41 -68q-39 0 -43 68l-14 432q0 29 14.5 55.5t42.5 26.5q27 0 42.5 -28.5t13.5 -53.5z" />
<glyph glyph-name="parenleft" unicode="(" d="M602 -141q0 -12 -10 -23.5t-31 -11.5q-29 0 -94.5 82t-116.5 182q-117 246 -117 537q0 295 121 542q47 98 114 179t93 81q41 0 41 -34q0 -8 -29 -37q-248 -252 -247 -731q0 -477 247 -729q29 -29 29 -37z" />
<glyph glyph-name="parenright" unicode=")" d="M481 625q0 -291 -119 -541q-47 -98 -113.5 -179t-94.5 -81q-16 0 -28.5 11t-12.5 24q0 10 30 37q248 256 248 731q0 205 -58.5 398.5t-185.5 324.5q-35 39 -34 43q0 12 12 23t29 11q31 0 95 -79.5t103 -159.5q129 -256 129 -563z" />
<glyph glyph-name="asterisk" unicode="*" d="M631 430q0 -23 -14.5 -34t-30.5 -11q-8 0 -15 4l-176 160l4 -316q0 -20 -12 -31.5t-29 -11.5q-14 0 -28.5 11.5t-14.5 31.5l4 316l-159 -148q-23 -16 -31 -16q-14 0 -28.5 11.5t-14.5 33.5q0 20 16 33l205 164l-205 159q-16 16 -16 35q0 23 14.5 34t28.5 11q8 0 31 -16 l162 -148l-7 316q0 43 43 43q14 0 27.5 -10.5t13.5 -26.5l-4 -322l162 148q23 16 29 16q16 0 30.5 -11t14.5 -34q0 -16 -17 -33l-206 -163q137 -100 200 -158q23 -23 23 -37z" />
<glyph glyph-name="plus" unicode="+" d="M674 625q0 -47 -64 -47h-207v-324q0 -74 -45 -74t-45 74v324h-207q-63 0 -63 49q0 47 63 47h207v323q0 74 47 74q43 0 43 -74v-323h207q64 0 64 -49z" />
<glyph glyph-name="comma" unicode="," d="M469 18.5q0 -75.5 -22.5 -139t-54.5 -98.5t-59.5 -54.5t-43.5 -19.5q-14 0 -28.5 13.5t-14.5 29.5q0 12 10 23q115 57 135 235q-18 -8 -33 -8q-31 0 -55 28.5t-24 71.5q0 39 23.5 69t57.5 30q43 0 76 -52.5t33 -128z" />
<glyph glyph-name="hyphen" unicode="-" d="M647 625q0 -47 -63 -47h-451q-63 0 -63 49q0 47 63 47h451q63 0 63 -49z" />
<glyph glyph-name="period" unicode="." d="M438 98q0 -39 -24.5 -68.5t-55 -29.5t-55 28.5t-24.5 69.5q0 43 24.5 72t56.5 29q29 0 53.5 -29t24.5 -72z" />
<glyph glyph-name="slash" unicode="/" d="M645 1376q0 -4 -4 -12t-4 -12l-471 -1471q-20 -57 -49 -57q-16 0 -30.5 13t-14.5 38q0 4 8 25l471 1470q16 57 49 57q16 0 30.5 -13t14.5 -38z" />
<glyph glyph-name="zero" unicode="0" d="M655 625q0 -274 -90 -462t-206.5 -188t-207 186.5t-90.5 465.5q0 276 89.5 462.5t207.5 186.5q117 0 207 -186t90 -465zM563 647q0 238 -60.5 392.5t-144.5 154.5t-144 -154.5t-60 -392.5q0 -246 59 -418t145 -172t145.5 173t59.5 417z" />
<glyph glyph-name="one" unicode="1" d="M610 41q0 -41 -57 -41h-348q-57 0 -57.5 41t57.5 41h129v948l-19 -16q-18 -16 -38.5 -32.5t-46 -31t-44.5 -14.5q-45 0 -45 41t49 41q94 12 152 213q14 45 41 45q41 0 41 -66v-1128h129q57 0 57 -41z" />
<glyph glyph-name="two" unicode="2" d="M653 68q0 -55 -30 -68h-502q-57 0 -58 41q2 8 5 14l327 420q166 211 166 412q0 141 -65.5 224t-165.5 83q-63 0 -109.5 -56.5t-64.5 -162.5q23 -27 22 -47q0 -33 -18.5 -50.5t-38.5 -17.5q-57 0 -58 76q0 133 80 236.5t197 103.5q133 0 223 -108.5t90 -280.5 q0 -207 -161 -422l-295 -383h364q0 51 9.5 73.5t37.5 22.5q45 0 45 -67v-43z" />
<glyph glyph-name="three" unicode="3" d="M666 346q0 -150 -87 -260.5t-217 -110.5q-131 0 -221 84t-90 215q0 37 17.5 54.5t40 17.5t40 -18.5t17.5 -44.5l-12 -45q0 -51 54 -116t154 -65q96 0 153.5 87t57.5 204q0 106 -55 197.5t-162 91.5h-65q-53 0 -53 41t34 41h25q76 0 127 32.5t72.5 85t28.5 90.5t7 72 q0 82 -47 138.5t-123 56.5q-143 0 -180 -109q25 -33 25 -51q0 -33 -18.5 -49t-39 -16t-39 16t-18.5 53q0 111 76 174.5t194 63.5q111 0 187 -80t76 -195q0 -197 -152 -311q100 -53 146.5 -151.5t46.5 -192.5z" />
<glyph glyph-name="four" unicode="4" d="M684 397q0 -43 -55 -43h-109v-272h86q57 0 57.5 -41t-57.5 -41h-252q-57 0 -57 41t57 41h86v272h-352q-20 0 -30.5 3t-18.5 17.5t-8 43.5q0 12 4 28l334 793q14 29 23 35t36 6h33q33 0 46 -12.5t13 -53.5v-776h109q55 0 55 -41zM440 438v760h-4l-321 -760h325z" />
<glyph glyph-name="five" unicode="5" d="M653 381q0 -170 -93 -288t-220 -118q-115 0 -196 90.5t-81 219.5q0 72 58 71q18 0 37.5 -17t19.5 -48q0 -12 -22 -53q23 -90 73 -135.5t111 -45.5q92 0 156.5 94.5t64.5 229.5q0 127 -49 224t-133 97q-117 0 -180 -108q-18 -31 -41 -31q-41 0 -41 62v565q0 39 12 50 t43 11h375q55 0 55 -41t-55 -41h-340v-446q76 61 172 61q119 0 196.5 -121.5t77.5 -281.5z" />
<glyph glyph-name="six" unicode="6" d="M649 387q0 -178 -86 -295t-203 -117q-43 0 -81.5 18.5t-78.5 64.5t-69 116t-47 182.5t-18 255.5q0 297 114.5 480.5t261.5 183.5q88 0 136.5 -53.5t48.5 -137.5q0 -31 -16.5 -50t-41.5 -19q-23 0 -40 19.5t-17 45.5q0 12 23 54q-37 59 -95 59q-109 0 -189.5 -149.5 t-92.5 -385.5q88 141 219 142q111 0 191.5 -119t80.5 -295zM559 387q0 137 -53 233.5t-139 96.5q-88 0 -142.5 -81t-54.5 -185q0 -51 9 -113t29.5 -127.5t59.5 -109.5t92 -44q82 0 140.5 94.5t58.5 235.5z" />
<glyph glyph-name="seven" unicode="7" d="M666 1210q-2 -6 -4 -10q-340 -508 -340 -1151q0 -74 -45.5 -74t-45.5 74q0 78 9.5 170t37 251t98 344t175.5 355h-408q0 -51 -9 -73.5t-38 -22.5q-45 0 -45 68v76q0 66 47 65q14 0 24.5 -8t13.5 -16l3 -7h469q58 0 58 -41z" />
<glyph glyph-name="eight" unicode="8" d="M666 346q0 -152 -90.5 -261.5t-217.5 -109.5t-217 110t-90 261q0 227 223 332q-203 88 -202 280q0 127 84 222.5t202.5 95.5t202.5 -95.5t84 -222.5q0 -190 -203 -280q224 -105 224 -332zM553 956q0 96 -55.5 167t-139.5 71t-139 -70.5t-55 -167.5q0 -94 53 -162.5 t141 -68.5q86 0 140.5 68.5t54.5 162.5zM573 348q0 115 -61 199t-153.5 84t-154 -83t-61.5 -202q0 -115 60.5 -202t155 -87t154.5 86t60 205z" />
<glyph glyph-name="nine" unicode="9" d="M649 637q0 -291 -105.5 -476.5t-250.5 -185.5q-102 0 -153.5 54.5t-51.5 136.5q0 31 17.5 50.5t41.5 19.5q23 0 39.5 -19.5t16.5 -46.5q0 -10 -23 -53q43 -59 113 -60q104 0 179 148.5t87 386.5q-86 -141 -219 -141q-113 0 -193.5 117.5t-80.5 295.5q0 176 89 294 t207 118q51 0 97.5 -28.5t91.5 -95.5t71.5 -199t26.5 -316zM547 803q0 174 -57.5 282.5t-127.5 108.5q-84 0 -144 -93t-60 -237q0 -137 53 -233t139 -96t141.5 81t55.5 187z" />
<glyph glyph-name="colon" unicode=":" d="M438 770q0 -39 -24.5 -68.5t-55 -29.5t-55 28.5t-24.5 69.5q0 43 24.5 71.5t56.5 28.5q29 0 53.5 -28.5t24.5 -71.5zM438 98q0 -39 -24.5 -68.5t-55 -29.5t-55 28.5t-24.5 69.5q0 43 24.5 72t56.5 29q29 0 53.5 -29t24.5 -72z" />
<glyph glyph-name="semicolon" unicode=";" d="M438 770q0 -39 -24.5 -68.5t-55 -29.5t-55 28.5t-24.5 69.5q0 43 24.5 71.5t56.5 28.5q29 0 53.5 -28.5t24.5 -71.5zM446 23q0 -96 -34.5 -174t-69.5 -110t-53 -32q-14 0 -28.5 13.5t-14.5 29.5q0 14 26 35q72 53 95 215q-45 2 -66.5 35t-21.5 65q0 39 23.5 69t55.5 30 q37 0 62.5 -44t25.5 -132z" />
<glyph glyph-name="less" unicode="&#x3c;" d="M647 170q0 -25 -15.5 -37t-31.5 -12q-6 0 -33 20l-473 443q-25 25 -24 43q0 23 24 43l490 454q8 4 14 4l2 2q16 0 31.5 -12t15.5 -37q0 -16 -29 -45l-438 -411l445 -414q22 -23 22 -41z" />
<glyph glyph-name="equal" unicode="=" d="M674 784q0 -47 -62 -47h-508q-61 0 -61 47q0 51 68 52h495q68 -1 68 -52zM674 467q0 -51 -68 -51h-495q-68 0 -68 51q0 47 61 47h508q62 0 62 -47z" />
<glyph glyph-name="greater" unicode="&#x3e;" d="M647 625q0 -20 -26 -43l-488 -455q-8 -4 -14 -4l-4 -2q-14 0 -29.5 13t-15.5 36q0 16 28 45l439 412l-439 409q-29 29 -28 45q0 23 15 36t30 13q8 0 35 -20l471 -442q26 -27 26 -43z" />
<glyph glyph-name="question" unicode="?" d="M639 1018q0 -109 -88 -184q-164 -139 -164 -365v-39q0 -33 -10 -47t-41 -14t-40 17t-9 67q0 51 5 92t23.5 101.5t64.5 125t118 125.5q49 43 49 121q0 66 -47 115t-156 49q-121 0 -174 -111q23 -39 23 -53q0 -35 -19.5 -51.5t-38.5 -16.5q-10 0 -21.5 4t-23.5 21.5 t-12 46.5q0 100 68.5 171t197.5 71q88 0 151.5 -27t92 -70t40 -78.5t11.5 -70.5zM399 76q0 -33 -19.5 -54.5t-44 -21.5t-44 21.5t-19.5 54.5t19.5 53.5t44 20.5t44 -20.5t19.5 -53.5z" />
<glyph glyph-name="at" unicode="@" d="M666 147q0 -43 -79 -101t-167 -58q-147 0 -258 183t-111 456q0 270 110.5 453.5t256.5 183.5q57 0 101 -34t69.5 -94.5t43 -121t24 -139t8.5 -122.5t2 -96q0 -98 -15.5 -177t-38 -125t-51.5 -76.5t-53.5 -42t-46.5 -11.5q-80 0 -142.5 114t-62.5 288q0 168 61.5 283.5 t143.5 115.5q47 0 106 -59q-53 215 -149 215q-115 0 -202 -160t-87 -397q0 -233 86 -394t205 -161q88 0 153 92q14 20 41 20q52 0 52 -35zM586 627q0 131 -37 223t-88 92q-49 0 -87 -90t-38 -227q0 -131 37 -223.5t88 -92.5q49 0 87 90.5t38 227.5z" />
<glyph glyph-name="A" unicode="A" d="M688 41q0 -41 -59 -41h-137q-57 0 -58 41q0 18 13.5 28.5t27.5 11.5t43 1l-43 276h-233l-43 -276q29 0 43 -1t27.5 -11.5t13.5 -28.5q0 -41 -58 -41h-139q-57 0 -57 41q0 18 12 28.5t25.5 11.5t42.5 1l178 1124q8 47 22.5 60.5t50.5 13.5q29 0 46.5 -13.5t23.5 -60.5 l178 -1124q27 0 40.5 -1t26.5 -11.5t13 -28.5zM463 442l-105 715l-104 -715h209z" />
<glyph glyph-name="B" unicode="B" d="M668 334q0 -131 -68 -232.5t-176 -101.5h-340q-57 0 -57 41t57 41h37v1087h-37q-57 0 -57 41t57 41h311q109 0 175.5 -94t66.5 -213q0 -100 -40 -161.5t-132 -125.5q203 -75 203 -323zM547 942q0 82 -36 154.5t-120 72.5h-180v-475h158q88 0 133 77t45 171zM575 338 q0 35 -9 76t-28.5 88t-59.5 77.5t-93 30.5h-174v-528h182q92 0 137 79t45 177z" />
<glyph glyph-name="C" unicode="C" d="M670 338q0 -139 -83 -251t-202 -112q-135 0 -236.5 187.5t-101.5 464.5q0 272 100.5 460.5t237.5 188.5q102 0 186 -107l21 70q10 37 37 37q41 0 41 -59v-308q0 -59 -47 -59q-23 0 -33 12t-12 45q-14 137 -67.5 212t-117.5 75q-104 0 -179 -163t-75 -404q0 -244 76 -407 t180 -163q12 0 27.5 3t43.5 19.5t49.5 45.5t39.5 84t23 131q2 43 45 43q47 0 47 -45z" />
<glyph glyph-name="D" unicode="D" d="M672 614q0 -250 -87 -432t-220 -182h-287q-57 0 -57.5 41t57.5 41h28v1087h-28q-57 0 -57.5 41t57.5 41h284q135 0 222.5 -190.5t87.5 -446.5zM580 616q0 133 -24 254t-81 210t-139 89h-137v-1087h139q115 0 178.5 159.5t63.5 374.5z" />
<glyph glyph-name="E" unicode="E" d="M696 68q0 -41 -12 -54.5t-45 -13.5h-551q-57 0 -57 41t57 41h39v1087h-39q-57 0 -57 41t57 41h520q33 0 45.5 -13t12.5 -54v-140q0 -66 -48 -65q-45 0 -45 65v125h-354v-479h193q0 66 8 90.5t37 24.5q45 0 45 -66v-178q0 -66 -45 -65q-29 0 -37 23.5t-8 88.5h-193v-526 h385v156q0 68 47 67q45 0 45 -67v-170z" />
<glyph glyph-name="F" unicode="F" d="M678 1044q0 -66 -47 -65q-45 0 -45 65v125h-359v-501h199q0 66 8 90t37 24q45 0 45 -67v-176q0 -68 -45 -68q-29 0 -37 24.5t-8 90.5h-199v-504h70q57 0 57 -41t-57 -41h-205q-57 0 -57 41t57 41h45v1087h-45q-57 0 -57 41t57 41h529q33 0 45 -13t12 -54v-140z" />
<glyph glyph-name="G" unicode="G" d="M686 489.5q0 -40.5 -65 -40.5v-390q0 -63 -46 -63q-29 0 -38 21.5t-9 74.5q-72 -117 -172 -117q-127 0 -220 186.5t-93 465.5q0 276 93 462.5t220 186.5q94 0 168 -100l19 67q20 33 39 33q39 0 39 -59v-308q0 -59 -48 -59q-41 0 -45 49q-12 150 -59 222.5t-104 72.5 q-92 0 -162 -163t-70 -406q0 -242 68.5 -405t160.5 -163q80 0 119 118t47 274h-61q-57 0 -57 40.5t57 40.5h162q57 0 57 -40.5z" />
<glyph glyph-name="H" unicode="H" d="M692 41q0 -41 -57 -41h-156q-57 0 -57 41t57 41h33v528h-307v-528h33q57 0 57 -41t-57 -41h-158q-55 0 -55 41t55 41h33v1087h-33q-55 0 -55 41t55 41h158q57 0 57 -41t-57 -41h-33v-475h307v475h-33q-57 0 -57 41t57 41h156q57 0 57 -41t-57 -41h-33v-1087h33 q57 0 57 -41z" />
<glyph glyph-name="I" unicode="I" d="M608 41q0 -41 -55 -41h-387q-57 0 -57 41t57 41h147v1087h-147q-57 0 -57 41t57 41h387q55 0 55 -41t-55 -41h-150v-1087h150q55 0 55 -41z" />
<glyph glyph-name="J" unicode="J" d="M659 1210q0 -41 -57 -41h-39v-907q0 -133 -70.5 -210t-164.5 -77q-98 0 -164 59.5t-66 153.5q0 35 17.5 53.5t42.5 18.5q23 0 39 -18.5t16 -46.5q0 -12 -23 -50q51 -88 140 -88q16 0 34.5 7.5t45 27t44 67.5t17.5 117v893h-111q-57 0 -57 41t57 41h242q57 0 57 -41z" />
<glyph glyph-name="K" unicode="K" d="M684 41q0 -41 -55 -41h-105q-55 0 -55 41t70 41l-215 573l-131 -247v-326h28q57 0 57.5 -41t-57.5 -41h-137q-57 0 -57 41t57 41h25v1087h-25q-57 0 -57 41t57 41h137q57 0 57.5 -41t-57.5 -41h-28v-608l323 608q-27 0 -39 1t-25.5 11.5t-13.5 28.5q0 41 56 41h120 q57 0 58 -41q0 -18 -12.5 -28.5t-24.5 -11.5t-37 -1l-229 -430l245 -657q70 0 70 -41z" />
<glyph glyph-name="L" unicode="L" d="M676 68q0 -41 -12.5 -54.5t-42.5 -13.5h-525q-57 0 -57 41t57 41h49v1087h-49q-57 0 -57 41t57 41h215q57 0 57.5 -41t-57.5 -41h-75v-1087h350v158q0 66 45 65.5t45 -65.5v-172z" />
<glyph glyph-name="M" unicode="M" d="M702 41q0 -41 -59 -41h-108q-57 0 -57.5 41t73.5 41v1063l-135 -660q-18 -53 -58 -53q-27 0 -43 26.5t-18 47.5l-129 643v-1067q72 0 72 -41t-60 -41h-108q-57 0 -57.5 41t73.5 41v1087q-74 0 -74 41t58 41h75q66 0 82 -49l127 -629l123 598q10 43 28.5 61.5t59.5 18.5 h76q59 0 59 -41t-73 -41v-1087q73 0 73 -41z" />
<glyph glyph-name="N" unicode="N" d="M684 1210q0 -41 -55 -41h-33v-1101q0 -33 -8 -48.5t-18.5 -17.5t-33 -2t-35 2t-27.5 19.5t-23 50.5l-250 1058v-1048h30q57 0 57.5 -41t-57.5 -41h-143q-57 0 -57 41t57 41h33v1087h-33q-57 0 -57 41t57 41h92q20 0 32.5 -2t29 -19.5t24.5 -49.5l252 -1059v1048h-33 q-59 0 -59 41t59 41h144q55 0 55 -41z" />
<glyph glyph-name="O" unicode="O" d="M647 625q0 -438 -47 -545q-27 -63 -81 -84t-160.5 -21t-161 20.5t-82.5 84.5q-45 102 -45 547q0 442 45 544q29 63 83 84t160.5 21t160.5 -20.5t81 -84.5q47 -106 47 -546zM555 643q0 309 -16 414q-14 82 -53.5 109.5t-127.5 27.5q-90 0 -129 -29.5t-53 -115.5 q-16 -104 -16 -406q0 -326 20 -436q12 -80 49 -115t129 -35q94 0 131 37t50 123q16 119 16 426z" />
<glyph glyph-name="P" unicode="P" d="M666 887q0 -143 -76 -253t-193 -110h-178v-442h39q59 0 59 -41t-59 -41h-170q-57 0 -57 41t57 41h39v1087h-39q-57 0 -57 41t57 41h309q117 0 193 -109.5t76 -254.5zM573 889q0 104 -51 192t-149 88h-154v-563h154q98 0 149 87t51 196z" />
<glyph glyph-name="Q" unicode="Q" d="M647 625q0 -246 -8 -344q-10 -123 -31.5 -184.5t-79.5 -96.5l60 -168l41 -106q0 -18 -47 -19q-18 0 -26.5 1t-17 8.5t-14.5 23.5l-82 237q-18 -2 -84 -2q-70 0 -109.5 5.5t-76.5 31t-53.5 63.5t-29.5 117.5t-16 177t-3 257t3 257t16 176.5t29.5 116.5t53.5 63.5t77 31 t109.5 5t109.5 -5t77 -31t53 -63.5t29.5 -117.5t16.5 -177t3 -257zM555 627q0 287 -14 395q-12 98 -48 135t-134.5 37t-135.5 -37t-49 -133q-14 -109 -14 -399q0 -287 14 -396q12 -90 45 -131t127 -41h70l-86 236q-4 14 1 20t13 7.5t25 1.5h10q23 0 29 -4.5t14 -24.5 l72 -199q23 25 33 51.5t19 143.5t9 338z" />
<glyph glyph-name="R" unicode="R" d="M723 176q0 -68 -32 -134.5t-91 -66.5q-70 0 -104 86q-27 72 -27 261q0 160 -33 204q-47 59 -117 60h-114v-504h33q57 0 57 -41t-57 -41h-158q-55 0 -55 41t55 41h33v1087h-33q-55 0 -55 41t55 41h246q117 0 194.5 -100t77.5 -233q0 -170 -141 -293q70 -78 90 -146 q14 -47 14 -188q0 -63 1 -94t4 -70t11.5 -54.5t22.5 -15.5q33 0 33 119q0 16 11 32.5t34 16.5q45 0 45 -49zM508 918q0 96 -50 173.5t-147 77.5h-106v-501h106q96 0 146.5 78t50.5 172z" />
<glyph glyph-name="S" unicode="S" d="M653 326q0 -141 -74.5 -246t-189.5 -105q-145 0 -237 105q-12 -70 -20.5 -87.5t-29.5 -17.5q-39 0 -39 60v291q0 63 45.5 63t45.5 -59q6 -135 70.5 -204t164.5 -69q84 0 130 79t46 181q0 104 -41 179q-25 43 -53.5 60t-114.5 44q-121 43 -156.5 64.5t-78.5 85.5 q-57 86 -58 200q0 135 75 230.5t186 95.5q123 0 202 -105q12 70 20.5 87.5t31.5 17.5q39 0 38 -59v-293q0 -61 -47 -62q-27 0 -35 15.5t-12 50.5q-27 266 -200 266q-76 0 -124 -70.5t-48 -165.5q0 -76 29.5 -135t78.5 -86l100 -35q115 -41 152 -63.5t78 -83.5q6 -8 19.5 -39 t29.5 -88t16 -102z" />
<glyph glyph-name="T" unicode="T" d="M688 1044q0 -66 -45 -65.5t-45 65.5v125h-195v-1087h72q55 0 55 -41t-55 -41h-231q-57 0 -57.5 41t57.5 41h69v1087h-194v-125q0 -66 -47 -65q-45 0 -45 65v140q0 41 13 54t44 13h549q31 0 43 -13t12 -54v-140z" />
<glyph glyph-name="U" unicode="U" d="M717 1210q0 -41 -58 -41h-41v-759q0 -182 -77.5 -308.5t-182 -126.5t-182.5 126t-78 309v759h-41q-57 0 -57 41t57 41h172q57 0 57.5 -41t-57.5 -41h-41v-747q0 -168 52.5 -266.5t118 -98.5t116.5 97.5t51 267.5v747h-39q-57 0 -57 41t57 41h172q58 0 58 -41z" />
<glyph glyph-name="V" unicode="V" d="M700 1210q0 -18 -12 -28.5t-24.5 -11.5t-38.5 -1l-195 -1118q-8 -47 -24.5 -58t-47.5 -11q-20 0 -31.5 2t-24.5 19t-19 52l-191 1114q-27 0 -39 1t-24.5 11.5t-12.5 28.5q0 41 56 41h135q57 0 57 -41q0 -18 -13 -28.5t-26.5 -11.5t-42.5 -1l176 -1067l177 1067 q-29 0 -43.5 1t-27.5 11.5t-13 28.5q0 41 59 41h133q57 0 57 -41z" />
<glyph glyph-name="W" unicode="W" d="M711 1210q0 -41 -52 -41l-104 -1110q-2 -25 -5 -38t-15.5 -26t-34.5 -13q-41 0 -56 41l-86 604l-86 -598q-12 -47 -57 -47q-23 0 -35 13t-15 26.5t-5 39.5l-103 1108q-51 0 -51 41t57 41h107q57 0 57 -41t-57 -41h-35l88 -1058l80 581q12 43 55 43q49 0 58 -53l76 -571 l92 1058h-37q-59 0 -59.5 41t59.5 41h106q58 0 58 -41z" />
<glyph glyph-name="X" unicode="X" d="M686 41q0 -41 -57 -41h-135q-57 0 -57.5 41t75.5 41l-162 463l-149 -463q27 0 39 -1t25.5 -11.5t13.5 -28.5q0 -41 -58 -41h-137q-55 0 -55 41t55 41h29l198 586l-182 501h-29q-55 0 -55 41t55 41h138q55 0 55 -41t-74 -41l131 -366l121 366q-76 0 -76 41t58 41h135 q57 0 57 -41t-57 -41h-27l-172 -503l211 -584h29q57 0 57 -41z" />
<glyph glyph-name="Y" unicode="Y" d="M700 1210q0 -41 -57 -41h-27l-213 -657v-430h33q57 0 57.5 -41t-57.5 -41h-155q-57 0 -57.5 41t57.5 41h32v430l-215 657h-24q-57 0 -57.5 41t57.5 41h135q57 0 57 -41t-76 -41l168 -557l168 557q-25 0 -37 1t-25 11.5t-13 28.5q0 41 57 41h135q57 0 57 -41z" />
<glyph glyph-name="Z" unicode="Z" d="M666 68q0 -41 -12.5 -54.5t-43.5 -13.5h-495q-57 0 -58 49q0 16 13 39l487 1081h-393v-125q0 -66 -45 -65.5t-45 65.5v140q0 43 12 55t45 12h469q59 0 59 -49q0 -10 -12 -39l-489 -1081h417v162q0 68 45.5 67.5t45.5 -67.5v-176z" />
<glyph glyph-name="bracketleft" unicode="[" d="M670 -135q0 -41 -58 -41h-250q-33 0 -45 13t-12 54v1469q0 41 12.5 54t44.5 13h250q57 0 58 -41q0 -43 -58 -43h-215v-1435h215q58 0 58 -43z" />
<glyph glyph-name="backslash" unicode="\" d="M645 -125q0 -25 -14.5 -38t-30.5 -13q-33 0 -49 57l-473 1479q0 2 -3 7t-3 9q0 25 14 38t31 13q14 0 23.5 -9t13.5 -19t12 -33l473 -1475q0 -2 3 -7t3 -9z" />
<glyph glyph-name="bracketright" unicode="]" d="M410 -109q0 -41 -12.5 -54t-43.5 -13h-250q-57 0 -57 41q0 43 57 43h215v1435h-215q-57 0 -57 43q0 41 57 41h250q31 0 43.5 -13t12.5 -54v-1469z" />
<glyph glyph-name="asciicircum" unicode="^" d="M625 1077q0 -14 -9.5 -29.5t-23.5 -15.5t-37 15l-197 122l-196 -122q-23 -14 -37 -14.5t-23.5 15t-9.5 29.5q0 20 25 39l213 150q37 14 57 0l213 -150q25 -19 25 -39z" />
<glyph glyph-name="underscore" unicode="_" d="M647 -387q0 -49 -63 -49h-451q-63 0 -63 51q0 47 63 47h451q63 0 63 -49z" />
<glyph glyph-name="grave" unicode="`" d="M506 1087q0 -55 -45 -55q-14 0 -31 12l-184 136q-37 29 -37 47q0 20 12 34.5t29 14.5q20 0 59 -27l160 -119q37 -27 37 -43z" />
<glyph glyph-name="a" unicode="a" d="M727 41q0 -41 -68 -41q-125 0 -155 74q-86 -86 -211 -86q-94 0 -158.5 73.5t-64.5 182.5q0 156 163 235q98 47 259 56q0 57 -2.5 85.5t-14.5 66.5t-37 67q-47 53 -129 53q-37 0 -53 -2q-33 -4 -33 -31q-2 -78 -57 -78q-23 0 -40 17.5t-17 50.5q0 127 198 127 q131 0 203 -92t72 -219v-480q29 -18 88 -18q57 0 57 -41zM492 258v203q-137 0 -233.5 -61.5t-96.5 -155.5q0 -72 40 -123t107 -51q72 0 123 36q39 27 49.5 63t10.5 89z" />
<glyph glyph-name="b" unicode="b" d="M674 436q0 -190 -85 -319t-200 -129q-98 0 -170 118q0 -57 -9 -81.5t-36 -24.5q-47 0 -47 68v1101h-59q-57 0 -57.5 41t57.5 41h94q33 0 45 -13t12 -54v-416q74 115 184.5 115t190.5 -130.5t80 -316.5zM582 436q0 152 -54.5 258.5t-134.5 106.5q-72 0 -123 -80t-51 -178 v-168q0 -102 42 -203.5t120 -101.5q82 0 141.5 105t59.5 261z" />
<glyph glyph-name="c" unicode="c" d="M643 211q0 -16 -12.5 -49t-38 -74t-76.5 -70.5t-115 -29.5q-127 0 -216 131t-89 317q0 70 18.5 144.5t54.5 146.5t101.5 118t149.5 46q207 0 207 -127q0 -33 -17.5 -50.5t-40.5 -17.5q-51 0 -57 78q0 23 -12 27q-37 6 -82 6q-70 0 -119 -41t-71.5 -104.5t-32 -119 t-9.5 -106.5q0 -154 65.5 -260t162.5 -106q100 0 141 145q10 31 41 31q47 0 47 -35z" />
<glyph glyph-name="d" unicode="d" d="M705 41q0 -41 -56 -41h-96q-37 0 -46 21.5t-9 97.5q-76 -131 -184.5 -131t-189.5 130t-81 316q0 190 85 319.5t198 129.5q96 0 172 -107v393h-62q-55 0 -55 41t55 41h96q31 0 43.5 -13t12.5 -54v-1102h61q56 0 56 -41zM498 381v166q0 94 -46 174t-116 80 q-84 0 -143.5 -104.5t-59.5 -262.5q0 -152 54.5 -258t134 -106t128 101t48.5 210z" />
<glyph glyph-name="e" unicode="e" d="M643 211q0 -59 -67.5 -141t-184.5 -82q-131 0 -226 131t-95 321q0 186 89 318.5t210 132.5q127 0 200.5 -121t73.5 -305q0 -27 -10 -41t-19.5 -16t-27.5 -2h-424q14 -150 78.5 -243t154.5 -93q117 0 158 133q6 27 15.5 37t27.5 10q25 0 36 -13.5t11 -25.5zM551 481 q-14 326 -182 326q-72 0 -131.5 -85t-75.5 -241h389z" />
<glyph glyph-name="f" unicode="f" d="M604 1163q0 -33 -17.5 -48t-38 -15t-35.5 20.5t-19 40.5l-5 21q-25 0 -45 -5.5t-45.5 -20.5t-41 -56t-15.5 -103v-127h176q55 0 55 -41t-55 -41h-176v-706h137q57 0 57.5 -41t-57.5 -41h-366q-55 0 -55.5 41t55.5 41h139v706h-146q-57 0 -57 41t60 41h143v136 q0 125 67.5 191.5t155.5 66.5q129 -1 129 -101z" />
<glyph glyph-name="g" unicode="g" d="M707 807q0 -35 -17.5 -48.5t-36.5 -13.5q-4 0 -12 2.5t-21.5 19.5t-17.5 46q-51 -6 -106 -47q51 -115 51 -199q0 -131 -67.5 -223t-164.5 -92q-74 0 -127 57q-10 -29 -10 -86q0 -135 84 -135h121q27 0 50.5 -2t74.5 -16.5t85 -42t62.5 -85t28.5 -137.5q0 -127 -95 -207.5 t-231 -80.5q-137 0 -232 82t-95 206q0 154 123 252q-51 90 -52 160q0 57 41 150q-55 106 -55 200q0 131 67.5 223.5t161.5 92.5q74 0 138 -66q68 80 151 80q49 0 75 -28.5t26 -61.5zM455 567.5q0 98.5 -40 168t-100 69.5q-55 0 -96 -69.5t-41 -168.5q0 -100 40 -168.5 t97 -68.5q59 0 99.5 69.5t40.5 168zM604 -195q0 68 -24.5 113t-70.5 63.5t-87 23.5t-103 5q-78 0 -100 -4t-47 -26q-61 -57 -61 -175q0 -82 70.5 -146.5t177 -64.5t176 64.5t69.5 146.5z" />
<glyph glyph-name="h" unicode="h" d="M705 41q0 -41 -56 -41h-213q-55 0 -55 41t55 41h62v508q0 111 -19.5 161t-83.5 50q-70 0 -123 -83t-53 -233v-403h60q57 0 57 -41t-57 -41h-211q-57 0 -57.5 41t57.5 41h59v1087h-59q-57 0 -57.5 41t57.5 41h94q33 0 45 -13t12 -54v-422q72 121 187 121q182 0 182 -283 v-518h61q56 0 56 -41z" />
<glyph glyph-name="i" unicode="i" d="M621 41q0 -41 -56 -41h-399q-59 0 -59.5 41t59.5 41h164v706h-154q-57 0 -57 41t57 41h189q33 0 45 -13t12 -52v-723h143q56 0 56 -41zM422 1155q0 -33 -19.5 -54.5t-44 -21.5t-44 21.5t-19.5 54.5t19.5 54.5t44 21.5t44 -21.5t19.5 -54.5z" />
<glyph glyph-name="j" unicode="j" d="M506 -113q0 -162 -70 -262q-33 -49 -68.5 -74.5t-56 -28.5t-57.5 -3q-197 0 -197 131q0 35 18.5 52t39.5 17q55 0 55 -108q31 -10 88 -10q25 0 38 2t35.5 19.5t41.5 51.5q41 80 41 224v890h-176q-57 0 -57.5 41t57.5 41h211q33 0 45 -13t12 -52v-918zM506 1155 q0 -33 -19.5 -54.5t-44 -21.5t-44 21.5t-19.5 54.5t19.5 54.5t44 21.5t44 -21.5t19.5 -54.5z" />
<glyph glyph-name="k" unicode="k" d="M702 41q0 -41 -57 -41h-160q-59 0 -59 41q0 29 22.5 35t77.5 6l-190 375l-115 -158v-217h66q59 0 59 -41t-59 -41h-209q-57 0 -57.5 41t57.5 41h61v1087h-61q-57 0 -57.5 41t57.5 41h88q31 0 43 -13t12 -54v-762l260 366h-75q-57 0 -57.5 41t57.5 41h208q57 0 57.5 -41 t-57.5 -41h-43l-190 -266l225 -440h39q57 0 57 -41z" />
<glyph glyph-name="l" unicode="l" d="M637 41q0 -41 -55 -41h-445q-57 0 -57 41t57 41h176v1087h-176q-57 0 -57 41t57 41h211q31 0 43 -13t12 -54v-1102h179q55 0 55 -41z" />
<glyph glyph-name="m" unicode="m" d="M717 41q0 -41 -58 -41h-104q-53 0 -53 41t59 41v526q0 193 -53 193q-51 0 -80 -84t-29 -225v-410q27 0 39.5 -1t23.5 -11.5t11 -28.5q0 -41 -53 -41h-105q-53 0 -53 41t60 41v526q0 193 -54 193q-51 0 -80.5 -84t-29.5 -225v-410q27 0 39 -1t23 -11.5t11 -28.5 q0 -41 -51 -41h-121q-57 0 -57 41q0 18 12.5 28.5t25.5 11.5t40 1v706q-27 0 -40 1.5t-25.5 11.5t-12.5 28q0 41 57 41h43q16 0 25.5 -2t21 -18t11.5 -47q47 80 114 80q45 0 72 -37t37 -74q55 111 131 111q41 0 68.5 -33t39 -84t14.5 -84t3 -61v-539q27 0 40 -1t25.5 -11.5 t12.5 -28.5z" />
<glyph glyph-name="n" unicode="n" d="M705 41q0 -41 -56 -41h-213q-55 0 -55 41t55 41h62v508q0 111 -19.5 161t-83.5 50q-70 0 -123 -83t-53 -233v-403h60q57 0 57 -41t-57 -41h-211q-57 0 -57.5 41t57.5 41h59v706h-59q-57 0 -57.5 41t57.5 41h94q37 0 47 -20.5t10 -87.5q72 121 187 121q182 0 182 -283 v-518h61q56 0 56 -41z" />
<glyph glyph-name="o" unicode="o" d="M643 436q0 -190 -85 -319t-199.5 -129t-199.5 129t-85 319.5t85 322.5t199.5 132t199.5 -133.5t85 -321.5zM551 451q0 154 -56.5 255t-136.5 101q-82 0 -138 -101.5t-56 -254.5q0 -158 56 -269.5t138 -111.5t137.5 110.5t55.5 270.5z" />
<glyph glyph-name="p" unicode="p" d="M674 436q0 -190 -85 -319t-200 -129q-98 0 -170 118v-493h60q57 0 57 -41t-57 -41h-211q-57 0 -57.5 41t57.5 41h59v1175h-59q-57 0 -57.5 41t57.5 41h94q37 0 47 -20.5t10 -81.5q74 115 184.5 115t190.5 -130.5t80 -316.5zM582 436q0 152 -54.5 258.5t-134.5 106.5 q-72 0 -123 -80t-51 -178v-168q0 -102 42 -203.5t120 -101.5q82 0 141.5 105t59.5 261z" />
<glyph glyph-name="q" unicode="q" d="M741 -428q0 -41 -59 -41h-221q-59 0 -59.5 41t59.5 41h65v514q-18 -29 -30.5 -44t-38 -42t-58 -40t-69.5 -13q-115 0 -198 130t-83 316q0 190 89 319.5t206 129.5q98 0 182 -127v61q0 66 45 66t45 -66v-1204h66q59 0 59 -41zM526 383v96q0 117 -46 219.5t-126 102.5 q-88 0 -151.5 -106.5t-63.5 -260.5q0 -152 57.5 -258t143.5 -106q84 0 135 103.5t51 209.5z" />
<glyph glyph-name="r" unicode="r" d="M674 778q0 -29 -16.5 -46t-36.5 -17q-8 0 -18.5 4t-23 24.5t-14.5 57.5h-22q-100 0 -172 -116t-72 -306v-297h152q55 0 55 -41t-55 -41h-355q-57 0 -57 41t57 41h111v706h-111q-57 0 -57 41t57 41h146q33 0 45 -13t12 -52v-105q100 182 244 183q131 -1 131 -105z" />
<glyph glyph-name="s" unicode="s" d="M633 242q0 -14 -2 -35t-17.5 -63t-41 -73.5t-79 -57t-124.5 -25.5q-117 0 -187 86q-10 -41 -19 -60.5t-15.5 -22.5t-16.5 -3q-39 0 -39 59v219q0 61 45 62q25 0 33 -12.5t14 -41.5q23 -111 68 -157.5t117 -46.5q96 0 139 50t43 122q0 137 -172 178q-98 25 -136 38t-69 40 q-82 63 -82 166q0 25 5 50t22.5 58t45.5 58.5t78 43t113 17.5q94 0 154 -51q8 51 43 51q39 0 39 -62v-159q0 -61 -47 -62q-43 0 -45 43q-2 31 -5 50.5t-16.5 48t-44.5 43t-80 14.5q-96 0 -139 -44t-43 -99q0 -66 52 -101t163 -61q41 -8 68.5 -18.5t76 -38t75 -79.5 t26.5 -124z" />
<glyph glyph-name="t" unicode="t" d="M621 240q0 -135 -71 -193.5t-149 -58.5q-84 0 -139 59t-55 189v552h-125q-57 0 -57 41t59 41h123v195q0 66 47 65q45 0 45 -65v-195h233q55 0 55.5 -41t-55.5 -41h-233v-542q0 -176 113 -176q39 0 76.5 37.5t39.5 130.5q0 72 45 71q48 1 48 -69z" />
<glyph glyph-name="u" unicode="u" d="M705 41q0 -41 -56 -41h-96q-16 0 -25.5 2t-20.5 21.5t-11 54.5q-76 -90 -172 -90q-197 0 -197 233v567h-59q-57 0 -57.5 41t57.5 41h94q33 0 45 -13t12 -52v-574q0 -29 1 -45t7 -41.5t17.5 -39t34 -24.5t55.5 -11q63 0 113.5 57t50.5 182v479h-62q-55 0 -55 41t55 41h96 q33 0 44.5 -12t11.5 -53v-723h61q56 0 56 -41z" />
<glyph glyph-name="v" unicode="v" d="M694 829q0 -41 -59 -41h-37l-166 -727q-6 -33 -20.5 -50t-24.5 -19t-28.5 -2t-29 2t-24.5 19.5t-22 49.5l-164 727h-39q-57 0 -57 41t57 41h160q57 0 57 -41t-57 -41h-47l165 -720l164 720h-45q-57 0 -57 41t57 41h158q59 0 59 -41z" />
<glyph glyph-name="w" unicode="w" d="M705 829q0 -41 -70 -41l-86 -722q-4 -35 -16.5 -53.5t-21.5 -20.5t-26 -2q-39 0 -51 24.5t-35 135.5l-39 251l-41 -249q-23 -113 -35 -137.5t-53 -24.5q-29 0 -43 14t-20 64l-88 720q-70 0 -70 41t60 41h159q59 0 59.5 -41t-59.5 -41h-71l80 -686l45 246q18 104 30.5 132 t46.5 28q33 0 45.5 -27.5t30.5 -134.5l45 -244l78 686h-74q-57 0 -57 41t57 41h162q58 0 58 -41z" />
<glyph glyph-name="x" unicode="x" d="M686 41q0 -41 -57 -41h-158q-57 0 -57 41q0 18 13 28.5t28.5 11.5t46.5 1l-148 307l-143 -307q33 0 48 -1t28.5 -11.5t13.5 -28.5q0 -41 -57 -41h-158q-57 0 -57 41t57 41h49l191 367l-183 339h-49q-57 0 -57 41t57 41h160q55 0 55 -41q0 -18 -13 -28t-27.5 -11.5 t-45.5 -1.5l131 -258l127 258q-31 0 -46 1.5t-28.5 11.5t-13.5 28q0 41 58 41h159q55 0 55.5 -41t-55.5 -41h-51l-176 -339l197 -367h49q57 0 57 -41z" />
<glyph glyph-name="y" unicode="y" d="M694 829q0 -41 -59 -41h-37l-225 -981q-8 -37 -20.5 -74.5t-37 -92t-63.5 -88t-86 -33.5q-49 0 -83 43t-34 100q0 31 16.5 48.5t40.5 17.5q23 0 39.5 -17.5t16.5 -46.5q-6 -20 -21 -33q2 -35 27 -34q39 0 71.5 55t45.5 112l49 216l-211 808h-39q-59 0 -59 41t59 41h158 q57 0 57 -41t-57 -41h-43l172 -688l151 688h-45q-57 0 -57 41t57 41h158q59 0 59 -41z" />
<glyph glyph-name="z" unicode="z" d="M657 68q0 -41 -12 -54.5t-45 -13.5h-506q-59 0 -59 49q0 16 10 33l498 706h-393v-69q0 -66 -45.5 -66t-45.5 66v86q0 41 12.5 53t45.5 12h479q57 0 57 -49q0 -16 -10 -33l-498 -706h420v92q0 68 47 68q45 0 45 -68v-106z" />
<glyph glyph-name="braceleft" unicode="{" d="M645 -135q0 -41 -57 -41q-76 0 -130.5 20.5t-82 47t-42 68.5t-17.5 67.5t-3 58.5v356q-2 70 -58 105t-142 37q-41 0 -41 43q0 35 34 39q125 6 175 55q23 23 27.5 51.5t4.5 118.5v321q6 72 39 119t82 65.5t84 24.5t70 6q57 0 57 -41q0 -43 -35 -43q-172 0 -198 -81 q-4 -10 -6.5 -110.5t-2.5 -197.5v-96q0 -150 -114 -233q115 -80 114 -209v-340q0 -37 4.5 -57.5t21.5 -49t62.5 -44t118.5 -17.5q35 -4 35 -43z" />
<glyph glyph-name="bar" unicode="|" d="M403 -100q0 -76 -45 -76t-45 76v1452q0 76 47 75q43 0 43 -75v-1452z" />
<glyph glyph-name="braceright" unicode="}" d="M645 625q0 -39 -35 -39q-104 0 -161 -45q-31 -25 -38.5 -56.5t-7.5 -124.5v-321q-4 -70 -36.5 -117t-80.5 -66.5t-84 -25.5t-75 -6q-55 0 -55 41q0 43 32 43q176 0 203 82q6 23 6 162v241q0 147 115 234q-115 82 -115 209v340q0 39 -4 59t-21.5 50t-63.5 44t-120 14 q-33 4 -32 43q0 41 55 41q76 0 131 -20.5t83 -47t42 -68.5t17 -67.5t3 -58.5v-356q2 -68 56.5 -104.5t142.5 -36.5q43 0 43 -43z" />
<glyph glyph-name="asciitilde" unicode="~" d="M602 688q0 -12 -18 -37l-60.5 -68.5t-48.5 -41t-51 -19.5q-51 0 -105 90q-16 29 -30 29q-31 0 -111 -106q-9 -12 -24 -13q-14 0 -27.5 12.5t-13.5 28.5q0 12 20 37l60.5 68.5t48 41t51.5 19.5q51 0 104 -90q18 -29 29 -29q31 0 111 107q12 12 24 12q14 0 27.5 -11.5 t13.5 -29.5z" />
<glyph glyph-name="uni00A0" unicode="&#xa0;" />
<glyph glyph-name="exclamdown" unicode="&#xa1;" d="M422 706.5q0 -32.5 -19.5 -53t-44 -20.5t-44 20.5t-19.5 53t19.5 54t44 21.5t44 -21.5t19.5 -54zM422 -403q0 -92 -63.5 -92.5t-63.5 89.5l12 762q2 31 11.5 44.5t39.5 13.5q35 0 43.5 -20.5t8.5 -102.5z" />
<glyph glyph-name="cent" unicode="&#xa2;" d="M643 211q0 -45 -53 -125t-154 -96v-133q0 -18 -13 -29.5t-27.5 -11.5t-28 11t-13.5 30v137q-111 25 -184.5 149.5t-73.5 292.5q0 86 23.5 175t85 169t149.5 103v131q0 18 13.5 29.5t28 11.5t27.5 -11.5t13 -29.5v-123q37 0 59.5 -2t58.5 -13.5t54.5 -39t18.5 -72.5 q0 -33 -17.5 -50.5t-40.5 -17.5q-51 0 -57 78q0 23 -12 27q-14 2 -64 6v-735q82 12 119 143q10 31 41 31q47 0 47 -35zM354 82v715q-66 -23 -105.5 -95.5t-51 -137t-11.5 -128.5q0 -127 47 -224t121 -130z" />
<glyph glyph-name="sterling" unicode="&#xa3;" d="M698 285q0 -127 -42 -218.5t-113 -91.5q-31 0 -69 27t-60.5 51.5t-63.5 73.5q-25 -72 -81 -112t-122 -40q-51 0 -91 51.5t-40 127.5q0 82 53.5 130t123.5 48q37 0 79 -31q-20 121 -69 279h-99q-16 0 -30.5 13t-14.5 33.5t14.5 34t30.5 13.5h70q-35 139 -35 217 q0 147 72 253.5t172 106.5q96 0 170 -88t74 -217q0 -29 -18.5 -48t-41.5 -19q-20 0 -38.5 19.5t-18.5 47.5q0 20 25 51q-20 78 -61.5 119t-90.5 41q-68 0 -111 -79t-43 -187q0 -117 27 -217h219q16 0 30.5 -13.5t14.5 -33.5q0 -23 -14 -35t-31 -12h-190q80 -270 82 -377 q37 -45 57 -66.5t54 -44t65 -22.5q66 0 65 215q0 20 14.5 33.5t30.5 13.5q18 0 31.5 -13.5t13.5 -33.5zM279 201q-51 37 -86 37q-37 0 -62 -21.5t-25 -62.5q0 -84 41 -84q114 0 132 131z" />
<glyph glyph-name="currency" unicode="&#xa4;" d="M582 317q-29 -43 -78 19l-39 57q-49 -45 -106.5 -45t-106.5 45l-39 -57q-47 -68 -80 -19q-20 33 14 76l50 72q-41 98 -41 161.5t41 161.5l-50 72q-31 43 -14 74q33 53 80 -16l39 -58q51 45 106.5 45t106.5 -45l39 55q47 66 78 19q20 -29 -13 -76l-47 -70q37 -88 37 -161 q0 -76 -39 -160l49 -74q33 -47 13 -76zM469 626.5q0 75.5 -30.5 129t-80 53.5t-81 -53.5t-31.5 -129t31.5 -129t81 -53.5t80 53.5t30.5 129z" />
<glyph glyph-name="yen" unicode="&#xa5;" d="M700 1210q0 -41 -57 -41h-27l-108 -333h74q16 0 30.5 -14.5t14.5 -35t-14.5 -34t-30.5 -13.5h-105l-71 -225h176q16 0 30.5 -13.5t14.5 -34t-14.5 -34.5t-30.5 -14h-179v-336h33q57 0 57.5 -41t-57.5 -41h-155q-57 0 -57.5 41t57.5 41h32v336h-176q-16 0 -30.5 13 t-14.5 36q0 20 14.5 33.5t30.5 13.5h174l-71 225h-103q-16 0 -30.5 13.5t-14.5 33.5q0 23 14.5 36.5t30.5 13.5h72l-111 333h-24q-57 0 -57.5 41t57.5 41h135q57 0 57 -41t-76 -41l107 -333h123l106 333q-25 0 -37 1t-25 11.5t-13 28.5q0 41 57 41h135q57 0 57 -41zM391 739 h-63q29 -115 30 -127q4 18 33 127z" />
<glyph glyph-name="brokenbar" unicode="&#xa6;" d="M403 770q0 -18 -13 -29.5t-30 -11.5q-18 0 -32.5 11.5t-14.5 29.5v582q0 76 47 75q43 0 43 -75v-582zM403 -100q0 -76 -45 -76t-45 76v581q0 18 14.5 29.5t32.5 11.5q16 0 29.5 -11t13.5 -30v-581z" />
<glyph glyph-name="section" unicode="&#xa7;" d="M672 397q0 -133 -105 -217q53 -70 54 -147q0 -115 -76 -199t-187 -84q-109 0 -186.5 76t-77.5 184q0 27 18.5 46.5t47 19.5t47 -19.5t18.5 -46.5q0 -31 -24 -51q16 -51 59 -83t98 -32q72 0 120 56.5t48 132.5q0 98 -149 198l-141 99q-190 131 -191 297q0 133 105 215 q-53 74 -54 149q0 115 76 199t186 84q109 0 187 -76t78 -184q0 -27 -18.5 -46.5t-47.5 -19.5t-47 19.5t-18 46.5q0 31 24 51q-16 51 -59 83t-99 32q-72 0 -120 -56.5t-48 -132.5q0 -98 150 -198l141 -99q191 -131 191 -297zM582 397q0 121 -152 221l-141 99q-45 31 -78 61 q-76 -57 -76 -151q0 -121 152 -221l141 -99q68 -51 78 -61q76 53 76 151z" />
<glyph glyph-name="dieresis" unicode="&#xa8;" d="M309 1153q0 -27 -17.5 -45t-37.5 -18q-23 0 -41 17t-18 46t18 48.5t41 19.5q20 0 37.5 -19.5t17.5 -48.5zM524 1153q0 -27 -18.5 -45t-39 -18t-38.5 18t-18 45q0 29 18 48.5t38.5 19.5t39 -19.5t18.5 -48.5z" />
<glyph glyph-name="copyright" unicode="&#xa9;" d="M727 522q0 -217 -109.5 -373.5t-259 -156.5t-259 156.5t-109.5 373.5q0 219 109.5 377t259 158t259 -158t109.5 -377zM676 522q0 201 -92 344.5t-225.5 143.5t-225.5 -143.5t-92 -344.5q0 -199 92 -341t225.5 -142t225.5 142t92 341zM500 367q0 -78 -46 -139.5 t-112 -61.5q-74 0 -130 103.5t-56 254.5q0 150 55 254.5t131 104.5q55 0 102 -60l13 39q6 20 20 21q23 0 23 -33v-170q0 -33 -27 -33q-23 0 -24 33q-8 76 -38 117t-65 41q-57 0 -98 -90.5t-41 -223.5t42 -223t99 -90q6 0 15.5 2t24.5 11t26.5 24.5t21.5 46.5t13 72 q0 25 24 24q27 1 27 -24z" />
<glyph glyph-name="ordfeminine" unicode="&#xaa;" d="M588 688q0 -23 -47 -22q-88 0 -109 53q-59 -61 -147 -62q-66 0 -111 50.5t-45 123.5q0 102 115 158q72 33 180 41q0 121 -37 164q-33 39 -90 39q-27 0 -39 -2q-10 -2 -15 -8t-6 -12l-1 -5q0 -55 -39 -55q-41 0 -41 45q0 80 139 80q92 0 142 -61.5t50 -147.5v-344 q18 -10 62 -10q39 0 39 -25zM547 532q0 -25 -41 -24h-295q-41 0 -41 24q0 20 41 21h295q41 -1 41 -21zM424 842v147q-98 0 -164.5 -45t-66.5 -113q0 -53 28.5 -89.5t75.5 -36.5q49 0 84 22q43 31 43 115z" />
<glyph glyph-name="guillemotleft" unicode="&#xab;" d="M674 219q0 -47 -31 -47q-8 0 -25 18l-313 398q-14 18 -14 39q0 18 18 43l309 393q16 18 25 18q31 0 31 -47q0 -23 -21 -43l-284 -364l284 -365q21 -20 21 -43zM442 219q0 -47 -30 -47q-10 0 -27 18l-313 398q-14 18 -15 39q0 18 19 43l309 393q16 18 27 18q31 0 30 -47 q0 -16 -20 -43l-287 -364l287 -365q20 -27 20 -43z" />
<glyph glyph-name="logicalnot" unicode="&#xac;" d="M674 465q0 -23 -14.5 -36t-31 -13t-30.5 13t-14 36v274h-496q-16 0 -30.5 13.5t-14.5 33.5q0 23 14.5 36.5t30.5 13.5h541q16 0 30.5 -13.5t14.5 -36.5v-321z" />
<glyph glyph-name="registered" unicode="&#xae;" d="M727 522q0 -217 -109.5 -373.5t-259 -156.5t-259 156.5t-109.5 373.5q0 219 109.5 377t259 158t259 -158t109.5 -377zM676 522q0 201 -92 344.5t-225.5 143.5t-225.5 -143.5t-92 -344.5q0 -199 92 -341t225.5 -142t225.5 142t92 341zM575 285q0 -37 -17 -74t-50 -37 q-39 0 -57 47q-14 35 -15 144q0 88 -18 112q-27 33 -66 33h-61v-279h16q33 0 33 -22.5t-33 -22.5h-86q-31 0 -31 22.5t31 22.5h19v598h-19q-31 0 -31 22.5t31 22.5h135q66 0 108 -55t42 -127q0 -96 -78 -162q41 -45 49 -79q8 -27 8 -105q0 -127 23 -127q18 0 18 66 q0 27 24.5 27t24.5 -27zM457 692q0 51 -28 94t-81 43h-57v-274h57q53 0 81 43t28 94z" />
<glyph glyph-name="macron" unicode="&#xaf;" d="M625 1153q0 -41 -58 -41h-417q-57 0 -58 43q0 41 55 41h420q58 0 58 -43z" />
<glyph glyph-name="degree" unicode="&#xb0;" d="M455 1135q0 -51 -27 -90t-72 -39q-49 0 -77.5 34.5t-28.5 92.5q0 51 26.5 91t71.5 40q49 0 78 -36t29 -93zM403 1133q0 31 -14 53t-39 22q-23 0 -36 -23.5t-13 -49.5q0 -31 14.5 -51.5t38.5 -20.5q23 0 36 21.5t13 48.5z" />
<glyph glyph-name="plusminus" unicode="&#xb1;" d="M674 47q0 -47 -64 -47h-504q-63 0 -63 49q0 47 63 47h207v301h-207q-63 0 -63 49.5t63 49.5h207v321q0 76 47 76q43 0 43 -76v-321h207q63 0 64 -52q0 -47 -64 -47h-207v-301h207q64 0 64 -49z" />
<glyph glyph-name="uni00B2" unicode="&#xb2;" d="M506 662q0 -27 -14 -35h-252q-29 0 -29 20l2 8l164 209q84 109 84 207q0 70 -33 112t-84 42q-68 0 -86 -111q10 -16 10 -22q0 -35 -28.5 -35t-28.5 39q0 66 40 118t99 52q66 0 111 -54.5t45 -140.5q0 -92 -80 -211l-147 -192h182q0 49 22.5 49t22.5 -35v-20z" />
<glyph glyph-name="uni00B3" unicode="&#xb3;" d="M512 801q0 -76 -43 -131.5t-109 -55.5q-63 0 -109 42t-46 108q0 37 28 37q10 0 19.5 -9.5t9.5 -23.5l-6 -23q0 -25 27.5 -57.5t77 -32.5t78 43t28.5 103q0 53 -27.5 99t-81.5 46h-32q-27 0 -27 20.5t16 20.5h13q37 0 63.5 16.5t36.5 42t14 44t4 36.5q0 41 -23.5 70 t-62.5 29q-70 0 -90 -56q12 -16 13 -24q0 -33 -29 -33t-29 35q0 55 38 87t97 32q55 0 93.5 -40t38.5 -98q0 -98 -76 -155q96 -51 96 -172z" />
<glyph glyph-name="acute" unicode="&#xb4;" d="M508 1227q0 -18 -37 -47l-184 -136q-16 -12 -31 -12q-45 0 -45 55q0 16 37 43l160 119q39 27 59 27q16 0 28.5 -14.5t12.5 -34.5z" />
<glyph glyph-name="uni00B5" unicode="&#xb5;" d="M705 41q0 -41 -56 -41h-96q-16 0 -25.5 2t-20.5 21.5t-11 54.5q-76 -90 -172 -90q-61 0 -105 22v-397h60q57 0 57 -41t-57 -41h-211q-57 0 -57.5 41t57.5 41h59v1175h-59q-57 0 -57.5 41t57.5 41h94q33 0 45 -13t12 -52v-574q0 -29 1 -45t7 -41.5t17.5 -39t34 -24.5 t55.5 -11q63 0 113.5 57t50.5 182v479h-62q-55 0 -55 41t55 41h96q33 0 44.5 -12t11.5 -53v-723h61q56 0 56 -41z" />
<glyph glyph-name="paragraph" unicode="&#xb6;" d="M692 1404.5q0 -22.5 -39 -22.5h-51v-1742q0 -49 -28.5 -49.5t-28.5 49.5v1742h-86v-1742q0 -49 -29 -49.5t-29 49.5v845q-133 8 -238.5 129t-105.5 344q0 193 89.5 331t213.5 138h293q39 0 39 -22.5z" />
<glyph glyph-name="periodcentered" unicode="&#xb7;" d="M438 625q0 -39 -24.5 -69t-55 -30t-55 29t-24.5 70q0 43 24.5 71.5t56.5 28.5q29 0 53.5 -28.5t24.5 -71.5z" />
<glyph glyph-name="cedilla" unicode="&#xb8;" d="M588 -248q0 -55 -21.5 -93t-48 -56.5t-74 -28.5t-75 -11t-72.5 -1q-27 0 -39 1t-25.5 11t-13.5 29q0 43 57 43h31q23 0 50.5 4t61.5 14t56.5 32.5t22.5 55.5q0 43 -26 74t-69 33q-45 4 -45 61v70q0 63 45 63q29 0 38.5 -25.5t9.5 -95.5q68 -18 102.5 -67.5t34.5 -112.5z " />
<glyph glyph-name="uni00B9" unicode="&#xb9;" d="M475 647.5q0 -20.5 -29 -20.5h-174q-29 0 -28.5 20.5t28.5 20.5h66v475l-14 -13q-14 -12 -32 -23t-28 -11q-23 0 -22.5 20.5t24.5 20.5q45 4 76 106q8 23 20 23q20 0 21 -33v-565h63q29 0 29 -20.5z" />
<glyph glyph-name="ordmasculine" unicode="&#xba;" d="M559 965q0 -129 -60.5 -218.5t-140 -89.5t-139 88.5t-59.5 219.5t60.5 221t137.5 90q80 0 140.5 -90t60.5 -221zM516 532q0 -25 -41 -24h-233q-41 0 -41 24q0 20 41 21h233q41 -1 41 -21zM494 975q0 109 -40 183.5t-96 74.5q-57 0 -97 -74t-40 -184.5t40 -190t97.5 -79.5 t96.5 78.5t39 191.5z" />
<glyph glyph-name="guillemotright" unicode="&#xbb;" d="M674 626.5q0 -16.5 -17 -38.5l-313 -398q-16 -18 -25 -18q-31 0 -30 47q0 23 20 43l287 365l-287 364q-20 20 -20 43q0 47 30 47q8 0 25 -18l309 -393q21 -27 21 -43.5zM440 627q0 -20 -14 -39l-313 -398q-16 -18 -27 -18q-31 0 -31 47q0 16 21 43l286 365l-286 364 q-20 27 -21 43q0 47 31 47q10 0 27 -18l309 -393q18 -25 18 -43z" />
<glyph glyph-name="onequarter" unicode="&#xbc;" d="M254 647.5q0 -20.5 -29 -20.5h-174q-29 0 -28.5 20.5t28.5 20.5h66v475l-15 -13q-14 -12 -31.5 -23t-27.5 -11q-23 0 -23 20.5t25 20.5q45 4 76 106q8 23 20 23q20 0 21 -33v-565h63q29 0 29 -20.5zM696 198.5q0 -20.5 -26 -20.5h-56v-137h43q29 0 29 -20.5t-29 -20.5 h-125q-29 0 -28.5 20.5t28.5 20.5h43v137h-176q-10 0 -15 1t-9 8.5t-4 21.5q0 10 2 14l166 398q12 20 30 20h17q16 0 22 -6t6 -27v-389h56q26 0 26 -20.5zM621 1217l-445 -1211q-14 -31 -35 -31q-18 0 -24 18.5t4 43.5l442 1204q18 35 39 35q16 0 21.5 -18t-2.5 -41z M575 219v381h-2l-161 -381h163z" />
<glyph glyph-name="onehalf" unicode="&#xbd;" d="M254 647.5q0 -20.5 -29 -20.5h-174q-29 0 -28.5 20.5t28.5 20.5h66v475l-15 -13q-14 -12 -31.5 -23t-27.5 -11q-23 0 -23 20.5t25 20.5q45 4 76 106q8 23 20 23q20 0 21 -33v-565h63q29 0 29 -20.5zM696 35q0 -27 -14 -35h-252q-29 0 -29 20l2 9l164 209q84 109 84 206 q0 70 -32.5 112t-83.5 42q-68 0 -86 -111q10 -16 10 -22q0 -35 -29 -35t-29 39q0 66 40 118t100 52q66 0 110.5 -54.5t44.5 -140.5q0 -92 -80 -211l-147 -192h182q0 49 22.5 49t22.5 -35v-20zM590 1217l-445 -1211q-14 -31 -34 -31q-18 0 -24.5 18.5t3.5 43.5l442 1204 q16 35 39 35q16 0 21.5 -18t-2.5 -41z" />
<glyph glyph-name="threequarters" unicode="&#xbe;" d="M328 801q0 -76 -44 -131.5t-108 -55.5q-66 0 -111 42t-45 108q0 37 29 37q10 0 19.5 -9.5t9.5 -23.5l-6 -23q0 -25 27.5 -57.5t76.5 -32.5q47 0 76 43t29 103q0 53 -27 99t-82 46h-33q-27 0 -26.5 20.5t18.5 20.5h12q49 0 78 31t34 56.5t5 51.5q0 41 -23.5 70t-60.5 29 q-72 0 -90 -56q12 -16 12 -24q0 -33 -28.5 -33t-28.5 35q0 55 38 87t97 32q55 0 93 -40t38 -98q0 -98 -76 -155q97 -53 97 -172zM696 198.5q0 -20.5 -26 -20.5h-56v-137h43q29 0 29 -20.5t-29 -20.5h-125q-29 0 -28.5 20.5t28.5 20.5h43v137h-176q-10 0 -15 1t-9 8.5 t-4 21.5q0 10 2 14l166 398q12 20 30 20h17q16 0 22 -6t6 -27v-389h56q26 0 26 -20.5zM641 1217l-444 -1211q-14 -31 -35 -31q-18 0 -24.5 18.5t3.5 43.5l443 1204q18 35 39 35q16 0 21 -18t-3 -41zM575 219v381h-2l-161 -381h163z" />
<glyph glyph-name="questiondown" unicode="&#xbf;" d="M399 706.5q0 -32.5 -19.5 -53t-44 -20.5t-44 20.5t-19.5 53t19.5 54t44 21.5t44 -21.5t19.5 -54zM639 -240q0 -109 -76 -175t-225 -66q-84 0 -141.5 29.5t-80 74.5t-30.5 79t-8 62q0 102 78 185q131 137 131 362v41q0 33 9 47.5t40 14.5q33 0 42 -17.5t9 -70.5 q0 -254 -176 -437q-43 -43 -43 -125q0 -53 21.5 -89.5t53 -50t54 -18.5t41.5 -5q154 0 209 108q-23 41 -23 55q0 35 19.5 50.5t38.5 15.5q10 0 21 -4t23.5 -20.5t12.5 -45.5z" />
<glyph glyph-name="Agrave" unicode="&#xc0;" d="M688 41q0 -41 -59 -41h-137q-57 0 -58 41q0 18 13.5 28.5t27.5 11.5t43 1l-43 276h-233l-43 -276q29 0 43 -1t27.5 -11.5t13.5 -28.5q0 -41 -58 -41h-139q-57 0 -57 41q0 18 12 28.5t25.5 11.5t42.5 1l178 1124q8 47 22.5 60.5t50.5 13.5q29 0 46.5 -13.5t23.5 -60.5 l178 -1124q27 0 40.5 -1t26.5 -11.5t13 -28.5zM463 442l-105 715l-104 -715h209zM506 1438q0 -55 -45 -56q-14 0 -31 13l-184 135q-37 27 -37 47t12 34.5t29 14.5q20 0 59 -27l160 -118q37 -27 37 -43z" />
<glyph glyph-name="Aacute" unicode="&#xc1;" d="M688 41q0 -41 -59 -41h-137q-57 0 -58 41q0 18 13.5 28.5t27.5 11.5t43 1l-43 276h-233l-43 -276q29 0 43 -1t27.5 -11.5t13.5 -28.5q0 -41 -58 -41h-139q-57 0 -57 41q0 18 12 28.5t25.5 11.5t42.5 1l178 1124q8 47 22.5 60.5t50.5 13.5q29 0 46.5 -13.5t23.5 -60.5 l178 -1124q27 0 40.5 -1t26.5 -11.5t13 -28.5zM463 442l-105 715l-104 -715h209zM508 1576.5q0 -20.5 -37 -46.5l-184 -135q-16 -12 -31 -13q-45 0 -45 56q0 16 37 43l160 118q39 27 59 27q16 0 28.5 -14.5t12.5 -35z" />
<glyph glyph-name="Acircumflex" unicode="&#xc2;" d="M688 41q0 -41 -59 -41h-137q-57 0 -58 41q0 18 13.5 28.5t27.5 11.5t43 1l-43 276h-233l-43 -276q29 0 43 -1t27.5 -11.5t13.5 -28.5q0 -41 -58 -41h-139q-57 0 -57 41q0 18 12 28.5t25.5 11.5t42.5 1l178 1124q8 47 22.5 60.5t50.5 13.5q29 0 46.5 -13.5t23.5 -60.5 l178 -1124q27 0 40.5 -1t26.5 -11.5t13 -28.5zM463 442l-105 715l-104 -715h209zM557 1399q0 -35 -31 -35q-25 0 -37 6l-131 60l-131 -60q-14 -6 -37 -6q-31 0 -30 35q0 31 18 39l152 82q29 16 57 0l152 -82q18 -8 18 -39z" />
<glyph glyph-name="Atilde" unicode="&#xc3;" d="M688 41q0 -41 -59 -41h-137q-57 0 -58 41q0 18 13.5 28.5t27.5 11.5t43 1l-43 276h-233l-43 -276q29 0 43 -1t27.5 -11.5t13.5 -28.5q0 -41 -58 -41h-139q-57 0 -57 41q0 18 12 28.5t25.5 11.5t42.5 1l178 1124q8 47 22.5 60.5t50.5 13.5q29 0 46.5 -13.5t23.5 -60.5 l178 -1124q27 0 40.5 -1t26.5 -11.5t13 -28.5zM463 442l-105 715l-104 -715h209zM602 1528q0 -16 -18 -37l-60.5 -68.5t-48.5 -41t-51 -19.5q-51 0 -105 90q-18 29 -30 29q-31 0 -111 -107q-9 -12 -24 -12q-14 0 -27.5 12t-13.5 29q0 10 20 37l60.5 68.5t48 41t51.5 19.5 q51 0 104 -90q16 -29 29 -29q31 0 111 106q12 12 24 13q14 0 27.5 -11.5t13.5 -29.5z" />
<glyph glyph-name="Adieresis" unicode="&#xc4;" d="M688 41q0 -41 -59 -41h-137q-57 0 -58 41q0 18 13.5 28.5t27.5 11.5t43 1l-43 276h-233l-43 -276q29 0 43 -1t27.5 -11.5t13.5 -28.5q0 -41 -58 -41h-139q-57 0 -57 41q0 18 12 28.5t25.5 11.5t42.5 1l178 1124q8 47 22.5 60.5t50.5 13.5q29 0 46.5 -13.5t23.5 -60.5 l178 -1124q27 0 40.5 -1t26.5 -11.5t13 -28.5zM463 442l-105 715l-104 -715h209zM291 1427.5q0 -28.5 -18.5 -47t-39 -18.5t-39 18.5t-18.5 47t17.5 47t40 18.5t40 -18.5t17.5 -47zM543 1427.5q0 -28.5 -18.5 -47t-39 -18.5t-39 18.5t-18.5 47t17.5 47t40 18.5t40 -18.5 t17.5 -47z" />
<glyph glyph-name="Aring" unicode="&#xc5;" d="M688 41q0 -41 -59 -41h-137q-57 0 -58 41q0 18 13.5 28.5t27.5 11.5t43 1l-43 276h-233l-43 -276q29 0 43 -1t27.5 -11.5t13.5 -28.5q0 -41 -58 -41h-139q-57 0 -57 41q0 18 12 28.5t25.5 11.5t42.5 1l178 1124q8 47 22.5 60.5t50.5 13.5q29 0 46.5 -13.5t23.5 -60.5 l178 -1124q27 0 40.5 -1t26.5 -11.5t13 -28.5zM463 442l-105 715l-104 -715h209zM416 1403q0 31 -14.5 56.5t-43 25.5t-43 -25.5t-14.5 -56.5t14.5 -56.5t43 -25.5t43 25.5t14.5 56.5zM471 1403q0 -47 -35 -87t-78 -40t-77.5 40t-34.5 87t34.5 87t77.5 40t78 -40t35 -87z " />
<glyph glyph-name="AE" unicode="&#xc6;" d="M692 68q0 -41 -12 -54.5t-45 -13.5h-270q-57 0 -57.5 41t54.5 41v311h-157l-41 -311q68 0 67.5 -41t-57.5 -41h-94q-59 0 -59.5 41t65.5 41l150 1087q-59 0 -59.5 41t56.5 41h392q31 0 43 -13t12 -54v-140q0 -66 -39 -65.5t-39 65.5v125h-162v-479h160q57 0 57 -41 t-57 -41h-160v-526h174v156q0 68 39 67.5t39 -67.5v-170zM362 475v694h-51l-94 -694h145z" />
<glyph glyph-name="Ccedilla" unicode="&#xc7;" d="M670 338q0 -111 -56.5 -209t-142.5 -137v-60q66 -18 100.5 -67t34.5 -113q0 -55 -21.5 -93t-48 -56.5t-73.5 -28.5t-75 -11t-73 -1q-27 0 -39 1t-25 11t-13 29q0 43 59 43h29q23 0 50 4t61 14t56.5 32.5t22.5 55.5q0 43 -25.5 74t-68.5 33q-45 4 -45 61v55 q-133 6 -231.5 192.5t-98.5 459t100.5 461t237.5 188.5q102 0 186 -107l21 70q10 37 37 37q41 0 41 -59v-308q0 -59 -47 -59q-23 0 -33 12t-12 45q-14 137 -67.5 212t-117.5 75q-104 0 -179 -163t-75 -404q0 -244 76 -407t180 -163q12 0 27.5 3t43.5 19.5t49.5 45.5t39.5 84 t23 131q2 43 45 43q47 0 47 -45z" />
<glyph glyph-name="Egrave" unicode="&#xc8;" d="M696 68q0 -41 -12 -54.5t-45 -13.5h-551q-57 0 -57 41t57 41h39v1087h-39q-57 0 -57 41t57 41h520q33 0 45.5 -13t12.5 -54v-140q0 -66 -48 -65q-45 0 -45 65v125h-354v-479h193q0 66 8 90.5t37 24.5q45 0 45 -66v-178q0 -66 -45 -65q-29 0 -37 23.5t-8 88.5h-193v-526 h385v156q0 68 47 67q45 0 45 -67v-170zM506 1438q0 -55 -45 -56q-14 0 -31 13l-184 135q-37 27 -37 47t12 34.5t29 14.5q20 0 59 -27l160 -118q37 -27 37 -43z" />
<glyph glyph-name="Eacute" unicode="&#xc9;" d="M696 68q0 -41 -12 -54.5t-45 -13.5h-551q-57 0 -57 41t57 41h39v1087h-39q-57 0 -57 41t57 41h520q33 0 45.5 -13t12.5 -54v-140q0 -66 -48 -65q-45 0 -45 65v125h-354v-479h193q0 66 8 90.5t37 24.5q45 0 45 -66v-178q0 -66 -45 -65q-29 0 -37 23.5t-8 88.5h-193v-526 h385v156q0 68 47 67q45 0 45 -67v-170zM508 1576.5q0 -20.5 -37 -46.5l-184 -135q-16 -12 -31 -13q-45 0 -45 56q0 16 37 43l160 118q39 27 59 27q16 0 28.5 -14.5t12.5 -35z" />
<glyph glyph-name="Ecircumflex" unicode="&#xca;" d="M696 68q0 -41 -12 -54.5t-45 -13.5h-551q-57 0 -57 41t57 41h39v1087h-39q-57 0 -57 41t57 41h520q33 0 45.5 -13t12.5 -54v-140q0 -66 -48 -65q-45 0 -45 65v125h-354v-479h193q0 66 8 90.5t37 24.5q45 0 45 -66v-178q0 -66 -45 -65q-29 0 -37 23.5t-8 88.5h-193v-526 h385v156q0 68 47 67q45 0 45 -67v-170zM557 1399q0 -35 -31 -35q-25 0 -37 6l-131 60l-131 -60q-14 -6 -37 -6q-31 0 -30 35q0 31 18 39l152 82q29 16 57 0l152 -82q18 -8 18 -39z" />
<glyph glyph-name="Edieresis" unicode="&#xcb;" d="M696 68q0 -41 -12 -54.5t-45 -13.5h-551q-57 0 -57 41t57 41h39v1087h-39q-57 0 -57 41t57 41h520q33 0 45.5 -13t12.5 -54v-140q0 -66 -48 -65q-45 0 -45 65v125h-354v-479h193q0 66 8 90.5t37 24.5q45 0 45 -66v-178q0 -66 -45 -65q-29 0 -37 23.5t-8 88.5h-193v-526 h385v156q0 68 47 67q45 0 45 -67v-170zM291 1427.5q0 -28.5 -18.5 -47t-39 -18.5t-39 18.5t-18.5 47t17.5 47t40 18.5t40 -18.5t17.5 -47zM543 1427.5q0 -28.5 -18.5 -47t-39 -18.5t-39 18.5t-18.5 47t17.5 47t40 18.5t40 -18.5t17.5 -47z" />
<glyph glyph-name="Igrave" unicode="&#xcc;" d="M608 41q0 -41 -55 -41h-387q-57 0 -57 41t57 41h147v1087h-147q-57 0 -57 41t57 41h387q55 0 55 -41t-55 -41h-150v-1087h150q55 0 55 -41zM506 1438q0 -55 -45 -56q-14 0 -31 13l-184 135q-37 27 -37 47t12 34.5t29 14.5q20 0 59 -27l160 -118q37 -27 37 -43z" />
<glyph glyph-name="Iacute" unicode="&#xcd;" d="M608 41q0 -41 -55 -41h-387q-57 0 -57 41t57 41h147v1087h-147q-57 0 -57 41t57 41h387q55 0 55 -41t-55 -41h-150v-1087h150q55 0 55 -41zM508 1576.5q0 -20.5 -37 -46.5l-184 -135q-16 -12 -31 -13q-45 0 -45 56q0 16 37 43l160 118q39 27 59 27q16 0 28.5 -14.5 t12.5 -35z" />
<glyph glyph-name="Icircumflex" unicode="&#xce;" d="M608 41q0 -41 -55 -41h-387q-57 0 -57 41t57 41h147v1087h-147q-57 0 -57 41t57 41h387q55 0 55 -41t-55 -41h-150v-1087h150q55 0 55 -41zM557 1399q0 -35 -31 -35q-25 0 -37 6l-131 60l-131 -60q-14 -6 -37 -6q-31 0 -30 35q0 31 18 39l152 82q29 16 57 0l152 -82 q18 -8 18 -39z" />
<glyph glyph-name="Idieresis" unicode="&#xcf;" d="M608 41q0 -41 -55 -41h-387q-57 0 -57 41t57 41h147v1087h-147q-57 0 -57 41t57 41h387q55 0 55 -41t-55 -41h-150v-1087h150q55 0 55 -41zM291 1427.5q0 -28.5 -18.5 -47t-39 -18.5t-39 18.5t-18.5 47t17.5 47t40 18.5t40 -18.5t17.5 -47zM543 1427.5q0 -28.5 -18.5 -47 t-39 -18.5t-39 18.5t-18.5 47t17.5 47t40 18.5t40 -18.5t17.5 -47z" />
<glyph glyph-name="Eth" unicode="&#xd0;" d="M672 614q0 -250 -87 -432t-220 -182h-287q-57 0 -57.5 41t57.5 41h28v504h-40q-14 0 -27.5 11t-13.5 29.5t13 30t28 11.5h40v501h-28q-57 0 -57.5 41t57.5 41h284q135 0 222.5 -190.5t87.5 -446.5zM580 616q0 133 -24 254t-81 210t-139 89h-137v-501h86q14 0 27.5 -11.5 t13.5 -30t-13.5 -29.5t-27.5 -11h-86v-504h139q115 0 178.5 159.5t63.5 374.5z" />
<glyph glyph-name="Ntilde" unicode="&#xd1;" d="M684 1210q0 -41 -55 -41h-33v-1101q0 -33 -8 -48.5t-18.5 -17.5t-33 -2t-35 2t-27.5 19.5t-23 50.5l-250 1058v-1048h30q57 0 57.5 -41t-57.5 -41h-143q-57 0 -57 41t57 41h33v1087h-33q-57 0 -57 41t57 41h92q20 0 32.5 -2t29 -19.5t24.5 -49.5l252 -1059v1048h-33 q-59 0 -59 41t59 41h144q55 0 55 -41zM602 1528q0 -16 -18 -37l-60.5 -68.5t-48.5 -41t-51 -19.5q-51 0 -105 90q-18 29 -30 29q-31 0 -111 -107q-9 -12 -24 -12q-14 0 -27.5 12t-13.5 29q0 10 20 37l60.5 68.5t48 41t51.5 19.5q51 0 104 -90q16 -29 29 -29q31 0 111 106 q12 12 24 13q14 0 27.5 -11.5t13.5 -29.5z" />
<glyph glyph-name="Ograve" unicode="&#xd2;" d="M647 625q0 -438 -47 -545q-27 -63 -81 -84t-160.5 -21t-161 20.5t-82.5 84.5q-45 102 -45 547q0 442 45 544q29 63 83 84t160.5 21t160.5 -20.5t81 -84.5q47 -106 47 -546zM555 643q0 309 -16 414q-14 82 -53.5 109.5t-127.5 27.5q-90 0 -129 -29.5t-53 -115.5 q-16 -104 -16 -406q0 -326 20 -436q12 -80 49 -115t129 -35q94 0 131 37t50 123q16 119 16 426zM506 1438q0 -55 -45 -56q-14 0 -31 13l-184 135q-37 27 -37 47t12 34.5t29 14.5q20 0 59 -27l160 -118q37 -27 37 -43z" />
<glyph glyph-name="Oacute" unicode="&#xd3;" d="M647 625q0 -438 -47 -545q-27 -63 -81 -84t-160.5 -21t-161 20.5t-82.5 84.5q-45 102 -45 547q0 442 45 544q29 63 83 84t160.5 21t160.5 -20.5t81 -84.5q47 -106 47 -546zM555 643q0 309 -16 414q-14 82 -53.5 109.5t-127.5 27.5q-90 0 -129 -29.5t-53 -115.5 q-16 -104 -16 -406q0 -326 20 -436q12 -80 49 -115t129 -35q94 0 131 37t50 123q16 119 16 426zM508 1576.5q0 -20.5 -37 -46.5l-184 -135q-16 -12 -31 -13q-45 0 -45 56q0 16 37 43l160 118q39 27 59 27q16 0 28.5 -14.5t12.5 -35z" />
<glyph glyph-name="Ocircumflex" unicode="&#xd4;" d="M647 625q0 -438 -47 -545q-27 -63 -81 -84t-160.5 -21t-161 20.5t-82.5 84.5q-45 102 -45 547q0 442 45 544q29 63 83 84t160.5 21t160.5 -20.5t81 -84.5q47 -106 47 -546zM555 643q0 309 -16 414q-14 82 -53.5 109.5t-127.5 27.5q-90 0 -129 -29.5t-53 -115.5 q-16 -104 -16 -406q0 -326 20 -436q12 -80 49 -115t129 -35q94 0 131 37t50 123q16 119 16 426zM557 1399q0 -35 -31 -35q-25 0 -37 6l-131 60l-131 -60q-14 -6 -37 -6q-31 0 -30 35q0 31 18 39l152 82q29 16 57 0l152 -82q18 -8 18 -39z" />
<glyph glyph-name="Otilde" unicode="&#xd5;" d="M647 625q0 -438 -47 -545q-27 -63 -81 -84t-160.5 -21t-161 20.5t-82.5 84.5q-45 102 -45 547q0 442 45 544q29 63 83 84t160.5 21t160.5 -20.5t81 -84.5q47 -106 47 -546zM555 643q0 309 -16 414q-14 82 -53.5 109.5t-127.5 27.5q-90 0 -129 -29.5t-53 -115.5 q-16 -104 -16 -406q0 -326 20 -436q12 -80 49 -115t129 -35q94 0 131 37t50 123q16 119 16 426zM602 1528q0 -16 -18 -37l-60.5 -68.5t-48.5 -41t-51 -19.5q-51 0 -105 90q-18 29 -30 29q-31 0 -111 -107q-9 -12 -24 -12q-14 0 -27.5 12t-13.5 29q0 10 20 37l60.5 68.5 t48 41t51.5 19.5q51 0 104 -90q16 -29 29 -29q31 0 111 106q12 12 24 13q14 0 27.5 -11.5t13.5 -29.5z" />
<glyph glyph-name="Odieresis" unicode="&#xd6;" d="M647 625q0 -438 -47 -545q-27 -63 -81 -84t-160.5 -21t-161 20.5t-82.5 84.5q-45 102 -45 547q0 442 45 544q29 63 83 84t160.5 21t160.5 -20.5t81 -84.5q47 -106 47 -546zM555 643q0 309 -16 414q-14 82 -53.5 109.5t-127.5 27.5q-90 0 -129 -29.5t-53 -115.5 q-16 -104 -16 -406q0 -326 20 -436q12 -80 49 -115t129 -35q94 0 131 37t50 123q16 119 16 426zM291 1427.5q0 -28.5 -18.5 -47t-39 -18.5t-39 18.5t-18.5 47t17.5 47t40 18.5t40 -18.5t17.5 -47zM543 1427.5q0 -28.5 -18.5 -47t-39 -18.5t-39 18.5t-18.5 47t17.5 47 t40 18.5t40 -18.5t17.5 -47z" />
<glyph glyph-name="multiply" unicode="&#xd7;" d="M582 317q-29 -43 -78 19l-146 213l-145 -213q-47 -68 -80 -19q-20 33 14 76l158 234l-158 233q-31 43 -14 74q33 53 80 -16l145 -213l146 210q47 66 78 19q20 -29 -13 -76l-159 -231l159 -234q33 -47 13 -76z" />
<glyph glyph-name="Oslash" unicode="&#xd8;" d="M647 625q0 -160 -3 -257.5t-16.5 -176t-29.5 -116.5t-53 -63.5t-77 -31t-110 -5.5q-61 0 -102 5l-20 -95q-12 -63 -43 -63q-16 0 -28.5 11t-12.5 28q0 2 6 27.5t13 60.5l11 55q-53 31 -74.5 94.5t-31.5 206.5q-6 94 -6 322q0 160 3 257t16 176t29.5 116.5t53.5 63.5 t77 31t109 5q61 0 103 -4l20 94q12 63 43 64q16 0 28.5 -11.5t12.5 -27.5q0 -2 -6 -28t-13 -60.5l-11 -55.5q51 -31 73.5 -95.5t32.5 -205.5q6 -94 6 -321zM440 1188q-33 6 -82 6q-92 0 -134 -27.5t-58 -122.5q-18 -111 -19 -419q0 -211 9.5 -327t19.5 -142.5t29 -49.5z M569 627q0 211 -9 326.5t-19.5 142t-28.5 49.5l-238 -1082q33 -6 84 -6q92 0 134.5 28t58.5 122q18 111 18 420z" />
<glyph glyph-name="Ugrave" unicode="&#xd9;" d="M717 1210q0 -41 -58 -41h-41v-759q0 -182 -77.5 -308.5t-182 -126.5t-182.5 126t-78 309v759h-41q-57 0 -57 41t57 41h172q57 0 57.5 -41t-57.5 -41h-41v-747q0 -168 52.5 -266.5t118 -98.5t116.5 97.5t51 267.5v747h-39q-57 0 -57 41t57 41h172q58 0 58 -41zM506 1438 q0 -55 -45 -56q-14 0 -31 13l-184 135q-37 27 -37 47t12 34.5t29 14.5q20 0 59 -27l160 -118q37 -27 37 -43z" />
<glyph glyph-name="Uacute" unicode="&#xda;" d="M717 1210q0 -41 -58 -41h-41v-759q0 -182 -77.5 -308.5t-182 -126.5t-182.5 126t-78 309v759h-41q-57 0 -57 41t57 41h172q57 0 57.5 -41t-57.5 -41h-41v-747q0 -168 52.5 -266.5t118 -98.5t116.5 97.5t51 267.5v747h-39q-57 0 -57 41t57 41h172q58 0 58 -41zM508 1576.5 q0 -20.5 -37 -46.5l-184 -135q-16 -12 -31 -13q-45 0 -45 56q0 16 37 43l160 118q39 27 59 27q16 0 28.5 -14.5t12.5 -35z" />
<glyph glyph-name="Ucircumflex" unicode="&#xdb;" d="M717 1210q0 -41 -58 -41h-41v-759q0 -182 -77.5 -308.5t-182 -126.5t-182.5 126t-78 309v759h-41q-57 0 -57 41t57 41h172q57 0 57.5 -41t-57.5 -41h-41v-747q0 -168 52.5 -266.5t118 -98.5t116.5 97.5t51 267.5v747h-39q-57 0 -57 41t57 41h172q58 0 58 -41zM557 1399 q0 -35 -31 -35q-25 0 -37 6l-131 60l-131 -60q-14 -6 -37 -6q-31 0 -30 35q0 31 18 39l152 82q29 16 57 0l152 -82q18 -8 18 -39z" />
<glyph glyph-name="Udieresis" unicode="&#xdc;" d="M717 1210q0 -41 -58 -41h-41v-759q0 -182 -77.5 -308.5t-182 -126.5t-182.5 126t-78 309v759h-41q-57 0 -57 41t57 41h172q57 0 57.5 -41t-57.5 -41h-41v-747q0 -168 52.5 -266.5t118 -98.5t116.5 97.5t51 267.5v747h-39q-57 0 -57 41t57 41h172q58 0 58 -41zM291 1427.5 q0 -28.5 -18.5 -47t-39 -18.5t-39 18.5t-18.5 47t17.5 47t40 18.5t40 -18.5t17.5 -47zM543 1427.5q0 -28.5 -18.5 -47t-39 -18.5t-39 18.5t-18.5 47t17.5 47t40 18.5t40 -18.5t17.5 -47z" />
<glyph glyph-name="Yacute" unicode="&#xdd;" d="M700 1210q0 -41 -57 -41h-27l-213 -657v-430h33q57 0 57.5 -41t-57.5 -41h-155q-57 0 -57.5 41t57.5 41h32v430l-215 657h-24q-57 0 -57.5 41t57.5 41h135q57 0 57 -41t-76 -41l168 -557l168 557q-25 0 -37 1t-25 11.5t-13 28.5q0 41 57 41h135q57 0 57 -41zM508 1576.5 q0 -20.5 -37 -46.5l-184 -135q-16 -12 -31 -13q-45 0 -45 56q0 16 37 43l160 118q39 27 59 27q16 0 28.5 -14.5t12.5 -35z" />
<glyph glyph-name="Thorn" unicode="&#xde;" d="M649 625q0 -143 -74.5 -253t-191.5 -110h-178v-180h33q57 0 57 -41t-57 -41h-158q-55 0 -55 41t55 41h33v1087h-33q-55 0 -55 41t55 41h158q57 0 57 -41t-57 -41h-33v-180h178q117 0 191.5 -108.5t74.5 -255.5zM559 627q0 106 -50 193t-151 87h-153v-563h153 q98 0 149.5 87t51.5 196z" />
<glyph glyph-name="germandbls" unicode="&#xdf;" d="M684 350q0 -160 -78 -261t-180 -101q-61 0 -101 36.5t-40 94.5q0 27 14 44t37 17q20 0 36.5 -16.5t16.5 -42.5h-2l2 -41q12 -10 37 -10q68 0 118 77.5t50 202.5q0 96 -21.5 188.5t-77 167t-135.5 82.5q-37 4 -36 41q0 35 49 41q82 6 131 63.5t49 119.5q0 47 -45 88 t-113 41q-66 0 -104 -33q-35 -20 -43 -48t-8 -73v-960q0 -41 -12.5 -54.5t-45.5 -13.5h-106q-57 0 -57.5 41t57.5 41h71v706h-71q-57 0 -57.5 41t57.5 41h71v166q0 72 28 121t73 70.5t79.5 29t69.5 7.5q98 0 173 -56.5t75 -154.5q0 -123 -147 -234q186 -172 186 -469z" />
<glyph glyph-name="agrave" unicode="&#xe0;" d="M727 41q0 -41 -68 -41q-125 0 -155 74q-86 -86 -211 -86q-94 0 -158.5 73.5t-64.5 182.5q0 156 163 235q98 47 259 56q0 57 -2.5 85.5t-14.5 66.5t-37 67q-47 53 -129 53q-37 0 -53 -2q-33 -4 -33 -31q-2 -78 -57 -78q-23 0 -40 17.5t-17 50.5q0 127 198 127 q131 0 203 -92t72 -219v-480q29 -18 88 -18q57 0 57 -41zM492 258v203q-137 0 -233.5 -61.5t-96.5 -155.5q0 -72 40 -123t107 -51q72 0 123 36q39 27 49.5 63t10.5 89zM506 1087q0 -55 -45 -55q-14 0 -31 12l-184 136q-37 29 -37 47q0 20 12 34.5t29 14.5q20 0 59 -27 l160 -119q37 -27 37 -43z" />
<glyph glyph-name="aacute" unicode="&#xe1;" d="M727 41q0 -41 -68 -41q-125 0 -155 74q-86 -86 -211 -86q-94 0 -158.5 73.5t-64.5 182.5q0 156 163 235q98 47 259 56q0 57 -2.5 85.5t-14.5 66.5t-37 67q-47 53 -129 53q-37 0 -53 -2q-33 -4 -33 -31q-2 -78 -57 -78q-23 0 -40 17.5t-17 50.5q0 127 198 127 q131 0 203 -92t72 -219v-480q29 -18 88 -18q57 0 57 -41zM492 258v203q-137 0 -233.5 -61.5t-96.5 -155.5q0 -72 40 -123t107 -51q72 0 123 36q39 27 49.5 63t10.5 89zM508 1227q0 -18 -37 -47l-184 -136q-16 -12 -31 -12q-45 0 -45 55q0 16 37 43l160 119q39 27 59 27 q16 0 28.5 -14.5t12.5 -34.5z" />
<glyph glyph-name="acircumflex" unicode="&#xe2;" d="M727 41q0 -41 -68 -41q-125 0 -155 74q-86 -86 -211 -86q-94 0 -158.5 73.5t-64.5 182.5q0 156 163 235q98 47 259 56q0 57 -2.5 85.5t-14.5 66.5t-37 67q-47 53 -129 53q-37 0 -53 -2q-33 -4 -33 -31q-2 -78 -57 -78q-23 0 -40 17.5t-17 50.5q0 127 198 127 q131 0 203 -92t72 -219v-480q29 -18 88 -18q57 0 57 -41zM492 258v203q-137 0 -233.5 -61.5t-96.5 -155.5q0 -72 40 -123t107 -51q72 0 123 36q39 27 49.5 63t10.5 89zM563 1079q0 -41 -35 -41q-23 0 -41 17l-131 116l-131 -116q-18 -16 -41 -17q-35 0 -34 41q0 14 24 39 l152 139q31 27 61 0l152 -139q24 -25 24 -39z" />
<glyph glyph-name="atilde" unicode="&#xe3;" d="M727 41q0 -41 -68 -41q-125 0 -155 74q-86 -86 -211 -86q-94 0 -158.5 73.5t-64.5 182.5q0 156 163 235q98 47 259 56q0 57 -2.5 85.5t-14.5 66.5t-37 67q-47 53 -129 53q-37 0 -53 -2q-33 -4 -33 -31q-2 -78 -57 -78q-23 0 -40 17.5t-17 50.5q0 127 198 127 q131 0 203 -92t72 -219v-480q29 -18 88 -18q57 0 57 -41zM492 258v203q-137 0 -233.5 -61.5t-96.5 -155.5q0 -72 40 -123t107 -51q72 0 123 36q39 27 49.5 63t10.5 89zM602 1217q0 -12 -18 -37l-60.5 -68.5t-48.5 -41t-51 -19.5q-51 0 -105 90q-16 29 -30 28 q-31 0 -111 -106q-9 -12 -24 -12q-14 0 -27.5 12t-13.5 29q0 12 20 36l60.5 69t48 41t51.5 19q51 0 104 -90q18 -29 29 -28q31 0 111 106q12 12 24 12q14 0 27.5 -11t13.5 -29z" />
<glyph glyph-name="adieresis" unicode="&#xe4;" d="M727 41q0 -41 -68 -41q-125 0 -155 74q-86 -86 -211 -86q-94 0 -158.5 73.5t-64.5 182.5q0 156 163 235q98 47 259 56q0 57 -2.5 85.5t-14.5 66.5t-37 67q-47 53 -129 53q-37 0 -53 -2q-33 -4 -33 -31q-2 -78 -57 -78q-23 0 -40 17.5t-17 50.5q0 127 198 127 q131 0 203 -92t72 -219v-480q29 -18 88 -18q57 0 57 -41zM492 258v203q-137 0 -233.5 -61.5t-96.5 -155.5q0 -72 40 -123t107 -51q72 0 123 36q39 27 49.5 63t10.5 89zM309 1153q0 -27 -17.5 -45t-37.5 -18q-23 0 -41 17t-18 46t18 48.5t41 19.5q20 0 37.5 -19.5t17.5 -48.5 zM524 1153q0 -27 -18.5 -45t-39 -18t-38.5 18t-18 45q0 29 18 48.5t38.5 19.5t39 -19.5t18.5 -48.5z" />
<glyph glyph-name="aring" unicode="&#xe5;" d="M727 41q0 -41 -68 -41q-125 0 -155 74q-86 -86 -211 -86q-94 0 -158.5 73.5t-64.5 182.5q0 156 163 235q98 47 259 56q0 57 -2.5 85.5t-14.5 66.5t-37 67q-47 53 -129 53q-37 0 -53 -2q-33 -4 -33 -31q-2 -78 -57 -78q-23 0 -40 17.5t-17 50.5q0 127 198 127 q131 0 203 -92t72 -219v-480q29 -18 88 -18q57 0 57 -41zM492 258v203q-137 0 -233.5 -61.5t-96.5 -155.5q0 -72 40 -123t107 -51q72 0 123 36q39 27 49.5 63t10.5 89zM416 1134.5q0 30.5 -14.5 56.5t-43 26t-43 -26t-14.5 -56.5t14.5 -56t43 -25.5t43 25.5t14.5 56z M471 1134.5q0 -47.5 -35 -87t-78 -39.5t-77.5 39.5t-34.5 87t34.5 87.5t77.5 40t78 -40t35 -87.5z" />
<glyph glyph-name="ae" unicode="&#xe6;" d="M698 211q0 -53 -44 -138t-117 -85q-49 0 -91.5 43t-68.5 102q-25 -63 -76 -104t-106 -41q-72 0 -116 72.5t-44 162.5q0 98 67.5 172t216.5 82v98q0 231 -112 232q-10 0 -43 -4q0 -106 -55 -107q-23 0 -40.5 17.5t-17.5 50.5q0 49 38 88t120 39q109 0 162 -152 q63 152 153 152q72 0 123 -106.5t51 -309.5q0 -41 -12 -55t-45 -14h-244q10 -160 51 -248t91 -88q57 0 82 141q10 39 38 39q14 0 26.5 -11.5t12.5 -27.5zM618 481q-2 160 -28.5 243t-65.5 83q-43 0 -79.5 -86t-45.5 -240h219zM319 279v120q-98 -2 -152 -53t-54 -121 q0 -61 24.5 -108t65.5 -47q49 0 88 51q28 43 28 158z" />
<glyph glyph-name="ccedilla" unicode="&#xe7;" d="M643 211q0 -39 -45 -113.5t-129 -99.5v-66q68 -18 102.5 -67t34.5 -113q0 -55 -21.5 -93t-48 -56.5t-73.5 -28.5t-75 -11t-73 -1q-27 0 -39 1t-25 11t-13 29q0 43 59 43h29q23 0 50 4t61 14t56.5 32.5t22.5 55.5q0 43 -25.5 74t-68.5 33q-45 4 -45 61v70 q-117 14 -199 142t-82 304q0 70 18.5 144.5t54.5 146.5t101.5 118t149.5 46q207 0 207 -127q0 -33 -17.5 -50.5t-40.5 -17.5q-51 0 -57 78q0 23 -12 27q-37 6 -82 6q-70 0 -119 -41t-71.5 -104.5t-32 -119t-9.5 -106.5q0 -154 65.5 -260t162.5 -106q100 0 141 145 q10 31 41 31q47 0 47 -35z" />
<glyph glyph-name="egrave" unicode="&#xe8;" d="M643 211q0 -59 -67.5 -141t-184.5 -82q-131 0 -226 131t-95 321q0 186 89 318.5t210 132.5q127 0 200.5 -121t73.5 -305q0 -27 -10 -41t-19.5 -16t-27.5 -2h-424q14 -150 78.5 -243t154.5 -93q117 0 158 133q6 27 15.5 37t27.5 10q25 0 36 -13.5t11 -25.5zM551 481 q-14 326 -182 326q-72 0 -131.5 -85t-75.5 -241h389zM506 1087q0 -55 -45 -55q-14 0 -31 12l-184 136q-37 29 -37 47q0 20 12 34.5t29 14.5q20 0 59 -27l160 -119q37 -27 37 -43z" />
<glyph glyph-name="eacute" unicode="&#xe9;" d="M643 211q0 -59 -67.5 -141t-184.5 -82q-131 0 -226 131t-95 321q0 186 89 318.5t210 132.5q127 0 200.5 -121t73.5 -305q0 -27 -10 -41t-19.5 -16t-27.5 -2h-424q14 -150 78.5 -243t154.5 -93q117 0 158 133q6 27 15.5 37t27.5 10q25 0 36 -13.5t11 -25.5zM551 481 q-14 326 -182 326q-72 0 -131.5 -85t-75.5 -241h389zM508 1227q0 -18 -37 -47l-184 -136q-16 -12 -31 -12q-45 0 -45 55q0 16 37 43l160 119q39 27 59 27q16 0 28.5 -14.5t12.5 -34.5z" />
<glyph glyph-name="ecircumflex" unicode="&#xea;" d="M643 211q0 -59 -67.5 -141t-184.5 -82q-131 0 -226 131t-95 321q0 186 89 318.5t210 132.5q127 0 200.5 -121t73.5 -305q0 -27 -10 -41t-19.5 -16t-27.5 -2h-424q14 -150 78.5 -243t154.5 -93q117 0 158 133q6 27 15.5 37t27.5 10q25 0 36 -13.5t11 -25.5zM551 481 q-14 326 -182 326q-72 0 -131.5 -85t-75.5 -241h389zM563 1079q0 -41 -35 -41q-23 0 -41 17l-131 116l-131 -116q-18 -16 -41 -17q-35 0 -34 41q0 14 24 39l152 139q31 27 61 0l152 -139q24 -25 24 -39z" />
<glyph glyph-name="edieresis" unicode="&#xeb;" d="M643 211q0 -59 -67.5 -141t-184.5 -82q-131 0 -226 131t-95 321q0 186 89 318.5t210 132.5q127 0 200.5 -121t73.5 -305q0 -27 -10 -41t-19.5 -16t-27.5 -2h-424q14 -150 78.5 -243t154.5 -93q117 0 158 133q6 27 15.5 37t27.5 10q25 0 36 -13.5t11 -25.5zM551 481 q-14 326 -182 326q-72 0 -131.5 -85t-75.5 -241h389zM309 1153q0 -27 -17.5 -45t-37.5 -18q-23 0 -41 17t-18 46t18 48.5t41 19.5q20 0 37.5 -19.5t17.5 -48.5zM524 1153q0 -27 -18.5 -45t-39 -18t-38.5 18t-18 45q0 29 18 48.5t38.5 19.5t39 -19.5t18.5 -48.5z" />
<glyph glyph-name="igrave" unicode="&#xec;" d="M621 41q0 -41 -56 -41h-399q-59 0 -59.5 41t59.5 41h164v706h-154q-57 0 -57 41t57 41h189q33 0 45 -13t12 -52v-723h143q56 0 56 -41zM506 1087q0 -55 -45 -55q-14 0 -31 12l-184 136q-37 29 -37 47q0 20 12 34.5t29 14.5q20 0 59 -27l160 -119q37 -27 37 -43z" />
<glyph glyph-name="iacute" unicode="&#xed;" d="M621 41q0 -41 -56 -41h-399q-59 0 -59.5 41t59.5 41h164v706h-154q-57 0 -57 41t57 41h189q33 0 45 -13t12 -52v-723h143q56 0 56 -41zM508 1227q0 -18 -37 -47l-184 -136q-16 -12 -31 -12q-45 0 -45 55q0 16 37 43l160 119q39 27 59 27q16 0 28.5 -14.5t12.5 -34.5z" />
<glyph glyph-name="icircumflex" unicode="&#xee;" d="M621 41q0 -41 -56 -41h-399q-59 0 -59.5 41t59.5 41h164v706h-154q-57 0 -57 41t57 41h189q33 0 45 -13t12 -52v-723h143q56 0 56 -41zM563 1079q0 -41 -35 -41q-23 0 -41 17l-131 116l-131 -116q-18 -16 -41 -17q-35 0 -34 41q0 14 24 39l152 139q31 27 61 0l152 -139 q24 -25 24 -39z" />
<glyph glyph-name="idieresis" unicode="&#xef;" d="M621 41q0 -41 -56 -41h-399q-59 0 -59.5 41t59.5 41h164v706h-154q-57 0 -57 41t57 41h189q33 0 45 -13t12 -52v-723h143q56 0 56 -41zM309 1153q0 -27 -17.5 -45t-37.5 -18q-23 0 -41 17t-18 46t18 48.5t41 19.5q20 0 37.5 -19.5t17.5 -48.5zM524 1153q0 -27 -18.5 -45 t-39 -18t-38.5 18t-18 45q0 29 18 48.5t38.5 19.5t39 -19.5t18.5 -48.5z" />
<glyph glyph-name="eth" unicode="&#xf0;" d="M643 436q0 -178 -84 -313q-86 -135 -200.5 -135t-199.5 129t-85 319.5t85 322.5t199 132q98 0 181 -111q-23 203 -66 291l-29 -41q-12 -20 -30 -20q-14 0 -27.5 11t-13.5 30q0 4 5 12t5 10l47 70q-55 45 -108 45q-14 0 -27.5 11t-13.5 29.5t13 30t28 11.5q86 0 149 -70 l37 55q8 12 24 13q14 0 27.5 -11.5t13.5 -29.5l-4 -13l-51 -77q125 -248 125 -701zM551 451q0 154 -56.5 255t-136.5 101q-82 0 -138 -101.5t-56 -254.5q0 -158 56 -269.5t138 -111.5t137.5 110.5t55.5 270.5z" />
<glyph glyph-name="ntilde" unicode="&#xf1;" d="M705 41q0 -41 -56 -41h-213q-55 0 -55 41t55 41h62v508q0 111 -19.5 161t-83.5 50q-70 0 -123 -83t-53 -233v-403h60q57 0 57 -41t-57 -41h-211q-57 0 -57.5 41t57.5 41h59v706h-59q-57 0 -57.5 41t57.5 41h94q37 0 47 -20.5t10 -87.5q72 121 187 121q182 0 182 -283 v-518h61q56 0 56 -41zM602 1217q0 -12 -18 -37l-60.5 -68.5t-48.5 -41t-51 -19.5q-51 0 -105 90q-16 29 -30 28q-31 0 -111 -106q-9 -12 -24 -12q-14 0 -27.5 12t-13.5 29q0 12 20 36l60.5 69t48 41t51.5 19q51 0 104 -90q18 -29 29 -28q31 0 111 106q12 12 24 12 q14 0 27.5 -11t13.5 -29z" />
<glyph glyph-name="ograve" unicode="&#xf2;" d="M643 436q0 -190 -85 -319t-199.5 -129t-199.5 129t-85 319.5t85 322.5t199.5 132t199.5 -133.5t85 -321.5zM551 451q0 154 -56.5 255t-136.5 101q-82 0 -138 -101.5t-56 -254.5q0 -158 56 -269.5t138 -111.5t137.5 110.5t55.5 270.5zM506 1087q0 -55 -45 -55 q-14 0 -31 12l-184 136q-37 29 -37 47q0 20 12 34.5t29 14.5q20 0 59 -27l160 -119q37 -27 37 -43z" />
<glyph glyph-name="oacute" unicode="&#xf3;" d="M643 436q0 -190 -85 -319t-199.5 -129t-199.5 129t-85 319.5t85 322.5t199.5 132t199.5 -133.5t85 -321.5zM551 451q0 154 -56.5 255t-136.5 101q-82 0 -138 -101.5t-56 -254.5q0 -158 56 -269.5t138 -111.5t137.5 110.5t55.5 270.5zM508 1227q0 -18 -37 -47l-184 -136 q-16 -12 -31 -12q-45 0 -45 55q0 16 37 43l160 119q39 27 59 27q16 0 28.5 -14.5t12.5 -34.5z" />
<glyph glyph-name="ocircumflex" unicode="&#xf4;" d="M643 436q0 -190 -85 -319t-199.5 -129t-199.5 129t-85 319.5t85 322.5t199.5 132t199.5 -133.5t85 -321.5zM551 451q0 154 -56.5 255t-136.5 101q-82 0 -138 -101.5t-56 -254.5q0 -158 56 -269.5t138 -111.5t137.5 110.5t55.5 270.5zM563 1079q0 -41 -35 -41 q-23 0 -41 17l-131 116l-131 -116q-18 -16 -41 -17q-35 0 -34 41q0 14 24 39l152 139q31 27 61 0l152 -139q24 -25 24 -39z" />
<glyph glyph-name="otilde" unicode="&#xf5;" d="M643 436q0 -190 -85 -319t-199.5 -129t-199.5 129t-85 319.5t85 322.5t199.5 132t199.5 -133.5t85 -321.5zM551 451q0 154 -56.5 255t-136.5 101q-82 0 -138 -101.5t-56 -254.5q0 -158 56 -269.5t138 -111.5t137.5 110.5t55.5 270.5zM602 1217q0 -12 -18 -37l-60.5 -68.5 t-48.5 -41t-51 -19.5q-51 0 -105 90q-16 29 -30 28q-31 0 -111 -106q-9 -12 -24 -12q-14 0 -27.5 12t-13.5 29q0 12 20 36l60.5 69t48 41t51.5 19q51 0 104 -90q18 -29 29 -28q31 0 111 106q12 12 24 12q14 0 27.5 -11t13.5 -29z" />
<glyph glyph-name="odieresis" unicode="&#xf6;" d="M643 436q0 -190 -85 -319t-199.5 -129t-199.5 129t-85 319.5t85 322.5t199.5 132t199.5 -133.5t85 -321.5zM551 451q0 154 -56.5 255t-136.5 101q-82 0 -138 -101.5t-56 -254.5q0 -158 56 -269.5t138 -111.5t137.5 110.5t55.5 270.5zM309 1153q0 -27 -17.5 -45t-37.5 -18 q-23 0 -41 17t-18 46t18 48.5t41 19.5q20 0 37.5 -19.5t17.5 -48.5zM524 1153q0 -27 -18.5 -45t-39 -18t-38.5 18t-18 45q0 29 18 48.5t38.5 19.5t39 -19.5t18.5 -48.5z" />
<glyph glyph-name="divide" unicode="&#xf7;" d="M674 627q0 -47 -62 -47h-508q-61 0 -61 47q0 49 68 49h495q68 0 68 -49zM438 1028q0 -39 -24.5 -68.5t-57.5 -29.5q-29 0 -54.5 29.5t-25.5 68.5q0 43 25 71.5t57 28.5q31 0 55.5 -28.5t24.5 -71.5zM438 225q0 -41 -24.5 -69.5t-57.5 -28.5q-29 0 -54.5 29.5t-25.5 68.5 q0 43 25 72t57 29q31 0 55.5 -29t24.5 -72z" />
<glyph glyph-name="oslash" unicode="&#xf8;" d="M666 436q0 -188 -92.5 -318t-215.5 -130q-57 0 -118 35l-115 -289q-12 -27 -33 -27q-39 0 -39 41q0 10 21 55l104 271q-127 160 -127 362q0 186 91 320.5t216 134.5q66 0 119 -37l105 266q18 45 43 45q16 0 28.5 -12t12.5 -29l-11 -26l-114 -297q125 -164 125 -365z M451 780q-61 27 -93 27q-96 0 -162.5 -109.5t-66.5 -261.5q0 -178 80 -282zM586 436q0 174 -76 289l-242 -627q49 -29 90 -28q96 0 162 106t66 260z" />
<glyph glyph-name="ugrave" unicode="&#xf9;" d="M705 41q0 -41 -56 -41h-96q-16 0 -25.5 2t-20.5 21.5t-11 54.5q-76 -90 -172 -90q-197 0 -197 233v567h-59q-57 0 -57.5 41t57.5 41h94q33 0 45 -13t12 -52v-574q0 -29 1 -45t7 -41.5t17.5 -39t34 -24.5t55.5 -11q63 0 113.5 57t50.5 182v479h-62q-55 0 -55 41t55 41h96 q33 0 44.5 -12t11.5 -53v-723h61q56 0 56 -41zM506 1087q0 -55 -45 -55q-14 0 -31 12l-184 136q-37 29 -37 47q0 20 12 34.5t29 14.5q20 0 59 -27l160 -119q37 -27 37 -43z" />
<glyph glyph-name="uacute" unicode="&#xfa;" d="M705 41q0 -41 -56 -41h-96q-16 0 -25.5 2t-20.5 21.5t-11 54.5q-76 -90 -172 -90q-197 0 -197 233v567h-59q-57 0 -57.5 41t57.5 41h94q33 0 45 -13t12 -52v-574q0 -29 1 -45t7 -41.5t17.5 -39t34 -24.5t55.5 -11q63 0 113.5 57t50.5 182v479h-62q-55 0 -55 41t55 41h96 q33 0 44.5 -12t11.5 -53v-723h61q56 0 56 -41zM508 1227q0 -18 -37 -47l-184 -136q-16 -12 -31 -12q-45 0 -45 55q0 16 37 43l160 119q39 27 59 27q16 0 28.5 -14.5t12.5 -34.5z" />
<glyph glyph-name="ucircumflex" unicode="&#xfb;" d="M705 41q0 -41 -56 -41h-96q-16 0 -25.5 2t-20.5 21.5t-11 54.5q-76 -90 -172 -90q-197 0 -197 233v567h-59q-57 0 -57.5 41t57.5 41h94q33 0 45 -13t12 -52v-574q0 -29 1 -45t7 -41.5t17.5 -39t34 -24.5t55.5 -11q63 0 113.5 57t50.5 182v479h-62q-55 0 -55 41t55 41h96 q33 0 44.5 -12t11.5 -53v-723h61q56 0 56 -41zM563 1079q0 -41 -35 -41q-23 0 -41 17l-131 116l-131 -116q-18 -16 -41 -17q-35 0 -34 41q0 14 24 39l152 139q31 27 61 0l152 -139q24 -25 24 -39z" />
<glyph glyph-name="udieresis" unicode="&#xfc;" d="M705 41q0 -41 -56 -41h-96q-16 0 -25.5 2t-20.5 21.5t-11 54.5q-76 -90 -172 -90q-197 0 -197 233v567h-59q-57 0 -57.5 41t57.5 41h94q33 0 45 -13t12 -52v-574q0 -29 1 -45t7 -41.5t17.5 -39t34 -24.5t55.5 -11q63 0 113.5 57t50.5 182v479h-62q-55 0 -55 41t55 41h96 q33 0 44.5 -12t11.5 -53v-723h61q56 0 56 -41zM309 1153q0 -27 -17.5 -45t-37.5 -18q-23 0 -41 17t-18 46t18 48.5t41 19.5q20 0 37.5 -19.5t17.5 -48.5zM524 1153q0 -27 -18.5 -45t-39 -18t-38.5 18t-18 45q0 29 18 48.5t38.5 19.5t39 -19.5t18.5 -48.5z" />
<glyph glyph-name="yacute" unicode="&#xfd;" d="M694 829q0 -41 -59 -41h-37l-225 -981q-8 -37 -20.5 -74.5t-37 -92t-63.5 -88t-86 -33.5q-49 0 -83 43t-34 100q0 31 16.5 48.5t40.5 17.5q23 0 39.5 -17.5t16.5 -46.5q-6 -20 -21 -33q2 -35 27 -34q39 0 71.5 55t45.5 112l49 216l-211 808h-39q-59 0 -59 41t59 41h158 q57 0 57 -41t-57 -41h-43l172 -688l151 688h-45q-57 0 -57 41t57 41h158q59 0 59 -41zM508 1227q0 -18 -37 -47l-184 -136q-16 -12 -31 -12q-45 0 -45 55q0 16 37 43l160 119q39 27 59 27q16 0 28.5 -14.5t12.5 -34.5z" />
<glyph glyph-name="thorn" unicode="&#xfe;" d="M674 436q0 -190 -85 -319t-200 -129q-98 0 -170 118v-493h60q57 0 57 -41t-57 -41h-211q-57 0 -57.5 41t57.5 41h59v1556h-59q-57 0 -57.5 41t57.5 41h94q33 0 45 -13t12 -54v-416q74 115 184.5 115t190.5 -130.5t80 -316.5zM582 436q0 152 -54.5 258.5t-134.5 106.5 q-72 0 -123 -80t-51 -178v-168q0 -102 42 -203.5t120 -101.5q82 0 141.5 105t59.5 261z" />
<glyph glyph-name="ydieresis" unicode="&#xff;" d="M694 829q0 -41 -59 -41h-37l-225 -981q-8 -37 -20.5 -74.5t-37 -92t-63.5 -88t-86 -33.5q-49 0 -83 43t-34 100q0 31 16.5 48.5t40.5 17.5q23 0 39.5 -17.5t16.5 -46.5q-6 -20 -21 -33q2 -35 27 -34q39 0 71.5 55t45.5 112l49 216l-211 808h-39q-59 0 -59 41t59 41h158 q57 0 57 -41t-57 -41h-43l172 -688l151 688h-45q-57 0 -57 41t57 41h158q59 0 59 -41zM309 1153q0 -27 -17.5 -45t-37.5 -18q-23 0 -41 17t-18 46t18 48.5t41 19.5q20 0 37.5 -19.5t17.5 -48.5zM524 1153q0 -27 -18.5 -45t-39 -18t-38.5 18t-18 45q0 29 18 48.5t38.5 19.5 t39 -19.5t18.5 -48.5z" />
<glyph glyph-name="OE" unicode="&#x152;" d="M696 68q0 -41 -12 -54.5t-45 -13.5h-231q-31 0 -56 -8q-53 -16 -92 -17q-109 0 -153 44t-58 149q-18 129 -18 459q0 309 16 444q14 111 57 158t156 47q41 0 90 -16q27 -8 58 -9h221q31 0 43 -13t12 -54v-140q0 -66 -39 -65.5t-39 65.5v125h-168v-479h170q57 0 57.5 -41 t-57.5 -41h-170v-526h180v156q0 68 39 67.5t39 -67.5v-170zM358 342v567q0 178 -17 231.5t-73 53.5q-98 0 -128 -81q-29 -78 -29 -399v-71q0 -381 22 -470q25 -101 105 -113q15 -2 32 -3q53 0 70.5 55.5t17.5 229.5z" />
<glyph glyph-name="oe" unicode="&#x153;" d="M700 209q0 -25 -13 -73t-51 -98t-87 -50q-100 0 -166 186q-25 -78 -68 -132t-96 -54q-82 0 -142.5 129t-60.5 321q0 190 59.5 321.5t143.5 131.5q100 0 164 -182q57 182 154 182q70 0 116.5 -107.5t46.5 -308.5q0 -41 -12 -55t-45 -14h-221q12 -164 50 -250t81 -86 q47 0 70 133q6 47 39 47q14 0 26 -10.5t12 -30.5zM621 481q-2 147 -25 236.5t-59 89.5q-39 0 -73 -91t-42 -235h199zM344 451q0 156 -38 256t-87 100q-47 0 -86 -99.5t-39 -257t38 -269t87 -111.5t87 109.5t38 271.5z" />
<glyph glyph-name="Ydieresis" unicode="&#x178;" d="M700 1210q0 -41 -57 -41h-27l-213 -657v-430h33q57 0 57.5 -41t-57.5 -41h-155q-57 0 -57.5 41t57.5 41h32v430l-215 657h-24q-57 0 -57.5 41t57.5 41h135q57 0 57 -41t-76 -41l168 -557l168 557q-25 0 -37 1t-25 11.5t-13 28.5q0 41 57 41h135q57 0 57 -41zM291 1427.5 q0 -28.5 -18.5 -47t-39 -18.5t-39 18.5t-18.5 47t17.5 47t40 18.5t40 -18.5t17.5 -47zM543 1427.5q0 -28.5 -18.5 -47t-39 -18.5t-39 18.5t-18.5 47t17.5 47t40 18.5t40 -18.5t17.5 -47z" />
<glyph glyph-name="circumflex" unicode="&#x2c6;" d="M563 1079q0 -41 -35 -41q-23 0 -41 17l-131 116l-131 -116q-18 -16 -41 -17q-35 0 -34 41q0 14 24 39l152 139q31 27 61 0l152 -139q24 -25 24 -39z" />
<glyph glyph-name="tilde" unicode="&#x2dc;" d="M602 1217q0 -12 -18 -37l-60.5 -68.5t-48.5 -41t-51 -19.5q-51 0 -105 90q-16 29 -30 28q-31 0 -111 -106q-9 -12 -24 -12q-14 0 -27.5 12t-13.5 29q0 12 20 36l60.5 69t48 41t51.5 19q51 0 104 -90q18 -29 29 -28q31 0 111 106q12 12 24 12q14 0 27.5 -11t13.5 -29z" />
<glyph glyph-name="endash" unicode="&#x2013;" d="M647 625q0 -47 -63 -47h-451q-63 0 -63 49q0 47 63 47h451q63 0 63 -49z" />
<glyph glyph-name="emdash" unicode="&#x2014;" d="M647 625q0 -47 -63 -47h-451q-63 0 -63 49q0 47 63 47h451q63 0 63 -49z" />
<glyph glyph-name="quoteleft" unicode="&#x2018;" d="M471 1356q0 -10 -14 -25q-123 -109 -123 -313q0 -41 2 -66q8 6 22 6q25 0 44.5 -22.5t19.5 -53t-18.5 -53t-47.5 -22.5q-43 0 -73.5 53t-30.5 160q0 70 15.5 134.5t38 107.5t48 74.5t45 47t29.5 15.5q14 0 28.5 -12.5t14.5 -30.5z" />
<glyph glyph-name="quoteright" unicode="&#x2019;" d="M463 1038q0 -111 -39 -204t-78 -134t-59 -41q-12 0 -26.5 12.5t-14.5 30.5q0 10 14 25q123 109 123 313q0 43 -4 66q-8 -4 -21 -4q-25 0 -44 21.5t-19 52t18.5 53t46.5 22.5q41 0 72 -53.5t31 -159.5z" />
<glyph glyph-name="quotesinglbase" unicode="&#x201a;" d="M414 47l-15 -432q0 -68 -41 -68q-39 0 -43 68l-14 432q0 29 14.5 55.5t42.5 26.5q27 0 42.5 -28.5t13.5 -53.5z" />
<glyph glyph-name="quotedblleft" unicode="&#x201c;" d="M291 1188l-15 -432q0 -68 -40 -68q-39 0 -43 68l-15 432q0 29 14.5 55.5t43.5 26.5q27 0 42 -28.5t13 -53.5zM539 1188l-15 -432q0 -68 -41 -68q-39 0 -43 68l-14 432q0 29 14.5 55.5t42.5 26.5q27 0 42.5 -28.5t13.5 -53.5z" />
<glyph glyph-name="quotedblright" unicode="&#x201d;" d="M289 1188l-15 -432q0 -68 -41 -68q-39 0 -43 68l-14 432q0 29 14.5 55.5t42.5 26.5q27 0 42.5 -28.5t13.5 -53.5zM539 1188l-15 -432q0 -68 -41 -68q-39 0 -43 68l-14 432q0 29 14.5 55.5t42.5 26.5q27 0 42.5 -28.5t13.5 -53.5z" />
<glyph glyph-name="quotedblbase" unicode="&#x201e;" d="M289 49l-15 -426q0 -76 -40.5 -76t-40.5 72l-17 436q0 33 14.5 51.5t28.5 20.5l14 2q27 0 42.5 -24.5t13.5 -55.5zM541 53l-17 -434q-6 -72 -41 -72q-37 0 -43 76l-16 457q-2 8 16.5 28.5t42.5 20.5q60 0 58 -76z" />
<glyph glyph-name="bullet" unicode="&#x2022;" d="M543 494q0 -100 -55.5 -175t-131.5 -75q-72 0 -127 73.5t-55 176.5q0 109 55.5 181.5t130.5 72.5q70 0 126.5 -72.5t56.5 -181.5z" />
<glyph glyph-name="ellipsis" unicode="&#x2026;" d="M193 98q0 -39 -25 -68.5t-57 -29.5q-31 0 -55.5 28.5t-24.5 69.5q0 43 24.5 72t57.5 29q31 0 55.5 -29t24.5 -72zM438 98q0 -39 -24.5 -68.5t-55 -29.5t-55 28.5t-24.5 69.5q0 43 24.5 72t56.5 29q29 0 53.5 -29t24.5 -72zM684 98q0 -39 -24.5 -68.5t-55.5 -29.5 t-55.5 28.5t-24.5 69.5q0 43 24.5 72t57.5 29q29 0 53.5 -29t24.5 -72z" />
<glyph glyph-name="guilsinglleft" unicode="&#x2039;" d="M551 219q0 -47 -31 -47q-8 0 -24 18l-316 398q-14 29 -14 39q0 16 20 43l310 393q16 18 24 18q31 0 31 -47q0 -23 -21 -43l-286 -364l286 -365q21 -20 21 -43z" />
<glyph glyph-name="guilsinglright" unicode="&#x203a;" d="M551 627q0 -20 -14 -39l-314 -398q-16 -18 -26 -18q-31 0 -31 47q0 16 20 43l287 365l-287 364q-20 27 -20 43q0 47 31 47q10 0 26 -18l309 -393q19 -25 19 -43z" />
<glyph glyph-name="Euro" unicode="&#x20ac;" d="M645 8q0 -33 -35 -33h-6q-18 0 -31 23l-16 35q-51 -57 -123 -58q-123 0 -205 207q-47 119 -65 273h-60q-33 0 -30 18l4 29q8 35 31 35h49q-4 53 -4 90t4 90h-54q-33 0 -30 18l4 29q8 35 31 35h55q18 152 65 270q82 207 205 207q70 0 123 -53l16 32q14 20 31 21h6 q35 0 35 -33v-219q0 -33 -35 -33h-20q-31 0 -35 43q-6 68 -36 114t-73 46q-78 0 -137 -150q-37 -88 -57 -245h270q33 0 31 -21l-6 -28q-4 -33 -29 -33h-272q-2 -33 -2 -90.5t2 -89.5h233q33 0 31 -21l-6 -29q-4 -33 -29 -32h-223q20 -160 57 -248q59 -150 137 -150 q43 0 73 46.5t36 113.5q4 43 35 43h20q35 0 35 -33v-219z" />
</font>
</defs>
</svg>
